# Blender v2.78 (sub 0) OBJ File: ''
# www.blender.org
mtllib #51430 - shsoDL.mtl
o #51430_-_sh/soDL_51430_-_sh/soDL_Mesh
v 0.465883 -0.960010 -3.662190
v 0.467378 -0.957849 -3.663862
v 0.469464 -0.956868 -3.665958
v 0.471727 -0.957262 -3.668062
v 0.473720 -0.958953 -3.669758
v 0.475047 -0.961606 -3.670709
v 0.475446 -0.964696 -3.670728
v 0.474837 -0.967610 -3.669810
v 0.473342 -0.969772 -3.668137
v 0.471256 -0.970752 -3.666041
v 0.468993 -0.970358 -3.663937
v 0.467000 -0.968667 -3.662242
v 0.465673 -0.966014 -3.661290
v 0.465274 -0.962924 -3.661272
v 0.449899 -0.962579 -3.682241
v 0.451880 -0.960188 -3.682499
v 0.454698 -0.958861 -3.682460
v 0.457796 -0.958861 -3.682132
v 0.460560 -0.960188 -3.681580
v 0.462443 -0.962579 -3.680913
v 0.463071 -0.965560 -3.680263
v 0.462321 -0.968541 -3.679759
v 0.460340 -0.970932 -3.679501
v 0.457522 -0.972259 -3.679540
v 0.454424 -0.972259 -3.679868
v 0.451660 -0.970932 -3.680420
v 0.449777 -0.968541 -3.681087
v 0.449149 -0.965560 -3.681737
v 0.467738 -0.966113 -3.696625
v 0.468591 -0.963510 -3.695142
v 0.469943 -0.961907 -3.692838
v 0.471526 -0.961622 -3.690170
v 0.473026 -0.962711 -3.687666
v 0.474147 -0.964958 -3.685823
v 0.474667 -0.967919 -3.685005
v 0.474482 -0.971007 -3.685374
v 0.473629 -0.973610 -3.686858
v 0.472277 -0.975213 -3.689162
v 0.470694 -0.975498 -3.691830
v 0.469194 -0.974409 -3.694334
v 0.468073 -0.972162 -3.696177
v 0.467553 -0.969201 -3.696995
v 0.485738 -0.961996 -3.705828
v 0.487361 -0.959483 -3.704958
v 0.489528 -0.957976 -3.703305
v 0.491811 -0.957773 -3.701194
v 0.493757 -0.958914 -3.699045
v 0.494980 -0.961173 -3.697284
v 0.495239 -0.964103 -3.696258
v 0.494482 -0.967124 -3.696172
v 0.492859 -0.969637 -3.697042
v 0.490692 -0.971144 -3.698695
v 0.488409 -0.971347 -3.700806
v 0.486463 -0.970206 -3.702955
v 0.485240 -0.967947 -3.704716
v 0.484981 -0.965017 -3.705742
v 0.488748 -0.968251 -3.714516
v 0.490480 -0.965765 -3.713790
v 0.492931 -0.964328 -3.712512
v 0.495615 -0.964224 -3.710935
v 0.498001 -0.965474 -3.709370
v 0.499617 -0.967831 -3.708128
v 0.500142 -0.970827 -3.707455
v 0.499472 -0.973869 -3.707484
v 0.497740 -0.976355 -3.708210
v 0.495289 -0.977792 -3.709488
v 0.492605 -0.977896 -3.711065
v 0.490219 -0.976646 -3.712630
v 0.488603 -0.974289 -3.713872
v 0.488078 -0.971293 -3.714545
v 0.496072 -0.963835 -3.723262
v 0.497490 -0.961389 -3.721954
v 0.499823 -0.959966 -3.720458
v 0.502609 -0.959850 -3.719069
v 0.505296 -0.961063 -3.718063
v 0.507352 -0.963364 -3.717638
v 0.508370 -0.966298 -3.717879
v 0.508148 -0.969285 -3.718738
v 0.506730 -0.971731 -3.720046
v 0.504397 -0.973154 -3.721542
v 0.501611 -0.973270 -3.722931
v 0.498924 -0.972057 -3.723937
v 0.496868 -0.969756 -3.724362
v 0.495850 -0.966822 -3.724121
v 0.498236 -0.962995 -3.732337
v 0.499886 -0.960438 -3.731669
v 0.502472 -0.958896 -3.730868
v 0.505481 -0.958674 -3.730094
v 0.508318 -0.959816 -3.729499
v 0.510420 -0.962095 -3.729201
v 0.511372 -0.965061 -3.729259
v 0.510984 -0.968125 -3.729663
v 0.509334 -0.970682 -3.730331
v 0.506748 -0.972224 -3.731132
v 0.503739 -0.972446 -3.731906
v 0.500902 -0.971305 -3.732501
v 0.498800 -0.969025 -3.732799
v 0.497848 -0.966059 -3.732740
vn -0.7093 0.4904 0.5063
vn -0.8683 0.4642 -0.1747
vn -0.9943 0.0139 -0.1052
vn -0.7848 0.1259 0.6069
vn -0.5046 0.8024 0.3187
vn -0.5801 0.7888 -0.2031
vn -0.1718 0.9847 0.0284
vn -0.2304 0.9532 -0.1956
vn 0.2142 0.9203 -0.3275
vn 0.1230 0.9788 -0.1635
vn 0.4964 0.6058 -0.6217
vn 0.4628 0.8802 -0.1048
vn 0.6089 0.2105 -0.7647
vn 0.7979 0.6028 -0.0069
vn 0.6179 -0.1494 -0.7719
vn 0.9920 -0.0063 0.1261
vn 0.5725 -0.4800 -0.6646
vn 0.7556 -0.6240 0.1991
vn 0.4399 -0.7907 -0.4256
vn 0.3876 -0.9000 0.1995
vn 0.1581 -0.9855 -0.0616
vn 0.0347 -0.9839 0.1751
vn -0.2229 -0.9254 0.3064
vn -0.3143 -0.9398 0.1339
vn -0.5481 -0.6383 0.5405
vn -0.6435 -0.7621 0.0709
vn -0.7348 -0.2603 0.6263
vn -0.9004 -0.4348 -0.0135
vn -0.5318 0.2814 -0.7987
vn -0.5364 -0.1332 -0.8333
vn -0.4164 0.6677 -0.6171
vn -0.1938 0.9367 -0.2914
vn 0.0717 0.9886 0.1327
vn 0.2763 0.8006 0.5317
vn 0.3863 0.4732 0.7917
vn 0.4375 0.0955 0.8941
vn 0.4387 -0.3054 0.8451
vn 0.3591 -0.6870 0.6316
vn 0.1774 -0.9464 0.2698
vn -0.0637 -0.9875 -0.1444
vn -0.2872 -0.8196 -0.4957
vn -0.4497 -0.5153 -0.7295
vn -0.5926 0.4351 -0.6778
vn -0.7339 -0.0033 -0.6792
vn -0.3464 0.7592 -0.5510
vn -0.0549 0.9431 -0.3280
vn 0.2448 0.9686 -0.0435
vn 0.5107 0.8206 0.2565
vn 0.6885 0.5129 0.5128
vn 0.7356 0.1053 0.6691
vn 0.6453 -0.3162 0.6954
vn 0.4416 -0.6751 0.5909
vn 0.1584 -0.9139 0.3736
vn -0.1690 -0.9828 0.0746
vn -0.4857 -0.8362 -0.2547
vn -0.7004 -0.4753 -0.5324
vn -0.7944 0.3418 -0.5020
vn -0.8724 -0.0681 -0.4840
vn -0.5606 0.7130 -0.4210
vn -0.1924 0.9555 -0.2235
vn 0.2312 0.9719 0.0446
vn 0.5900 0.7534 0.2902
vn 0.8049 0.3843 0.4521
vn 0.8540 -0.0433 0.5184
vn 0.7400 -0.4563 0.4941
vn 0.4823 -0.7872 0.3843
vn 0.1260 -0.9711 0.2024
vn -0.2562 -0.9664 -0.0175
vn -0.5838 -0.7793 -0.2277
vn -0.7983 -0.4595 -0.3893
vn -0.8545 0.4174 -0.3090
vn -0.8971 -0.0319 -0.4407
vn -0.6392 0.7619 -0.1044
vn -0.3106 0.9435 0.1150
vn 0.0675 0.9501 0.3044
vn 0.4355 0.7870 0.4368
vn 0.7301 0.4742 0.4919
vn 0.8878 0.0618 0.4560
vn 0.8678 -0.3674 0.3345
vn 0.6734 -0.7230 0.1545
vn 0.3473 -0.9365 -0.0475
vn -0.0472 -0.9702 -0.2378
vn -0.4378 -0.8114 -0.3871
vn -0.7458 -0.4776 -0.4644
vn -0.9153 0.3579 -0.1846
vn -0.9692 -0.0805 -0.2326
vn -0.6774 0.7295 -0.0946
vn -0.3024 0.9529 0.0218
vn 0.1294 0.9818 0.1386
vn 0.5304 0.8163 0.2286
vn 0.8257 0.4939 0.2725
vn 0.9622 0.0758 0.2615
vn 0.9113 -0.3607 0.1985
vn 0.6764 -0.7300 0.0976
vn 0.3009 -0.9535 -0.0176
vn -0.1352 -0.9832 -0.1220
vn -0.5395 -0.8185 -0.1975
vn -0.8347 -0.4976 -0.2357
s 1
f 1//1 15//2 28//3 14//4
f 2//5 16//6 15//2 1//1
f 3//7 17//8 16//6 2//5
f 4//9 18//10 17//8 3//7
f 5//11 19//12 18//10 4//9
f 6//13 20//14 19//12 5//11
f 7//15 21//16 20//14 6//13
f 8//17 22//18 21//16 7//15
f 9//19 23//20 22//18 8//17
f 10//21 24//22 23//20 9//19
f 11//23 25//24 24//22 10//21
f 12//25 26//26 25//24 11//23
f 13//27 27//28 26//26 12//25
f 14//4 28//3 27//28 13//27
f 15//2 29//29 42//30 28//3
f 16//6 30//31 29//29 15//2
f 17//8 31//32 30//31 16//6
f 18//10 32//33 31//32 17//8
f 19//12 33//34 32//33 18//10
f 20//14 34//35 33//34 19//12
f 21//16 35//36 34//35 20//14
f 22//18 36//37 35//36 21//16
f 23//20 37//38 36//37 22//18
f 24//22 38//39 37//38 23//20
f 25//24 39//40 38//39 24//22
f 26//26 40//41 39//40 25//24
f 27//28 41//42 40//41 26//26
f 28//3 42//30 41//42 27//28
f 29//29 43//43 56//44 42//30
f 30//31 44//45 43//43 29//29
f 31//32 45//46 44//45 30//31
f 32//33 46//47 45//46 31//32
f 33//34 47//48 46//47 32//33
f 34//35 48//49 47//48 33//34
f 35//36 49//50 48//49 34//35
f 36//37 50//51 49//50 35//36
f 37//38 51//52 50//51 36//37
f 38//39 52//53 51//52 37//38
f 39//40 53//54 52//53 38//39
f 40//41 54//55 53//54 39//40
f 41//42 55//56 54//55 40//41
f 42//30 56//44 55//56 41//42
f 43//43 57//57 70//58 56//44
f 44//45 58//59 57//57 43//43
f 45//46 59//60 58//59 44//45
f 46//47 60//61 59//60 45//46
f 47//48 61//62 60//61 46//47
f 48//49 62//63 61//62 47//48
f 49//50 63//64 62//63 48//49
f 50//51 64//65 63//64 49//50
f 51//52 65//66 64//65 50//51
f 52//53 66//67 65//66 51//52
f 53//54 67//68 66//67 52//53
f 54//55 68//69 67//68 53//54
f 55//56 69//70 68//69 54//55
f 56//44 70//58 69//70 55//56
f 57//57 71//71 84//72 70//58
f 58//59 72//73 71//71 57//57
f 59//60 73//74 72//73 58//59
f 60//61 74//75 73//74 59//60
f 61//62 75//76 74//75 60//61
f 62//63 76//77 75//76 61//62
f 63//64 77//78 76//77 62//63
f 64//65 78//79 77//78 63//64
f 65//66 79//80 78//79 64//65
f 66//67 80//81 79//80 65//66
f 67//68 81//82 80//81 66//67
f 68//69 82//83 81//82 67//68
f 69//70 83//84 82//83 68//69
f 70//58 84//72 83//84 69//70
f 71//71 85//85 98//86 84//72
f 72//73 86//87 85//85 71//71
f 73//74 87//88 86//87 72//73
f 74//75 88//89 87//88 73//74
f 75//76 89//90 88//89 74//75
f 76//77 90//91 89//90 75//76
f 77//78 91//92 90//91 76//77
f 78//79 92//93 91//92 77//78
f 79//80 93//94 92//93 78//79
f 80//81 94//95 93//94 79//80
f 81//82 95//96 94//95 80//81
f 82//83 96//97 95//96 81//82
f 83//84 97//98 96//97 82//83
f 84//72 98//86 97//98 83//84
