# Blender v2.78 (sub 0) OBJ File: ''
# www.blender.org
mtllib #53719 - hyp.mtl
o #53719_-_hyp_53719_-_hyp_Mesh
v 1.219652 -0.920202 -3.711293
v 1.221594 -0.917771 -3.711430
v 1.224399 -0.916424 -3.711581
v 1.227512 -0.916430 -3.711715
v 1.230315 -0.917786 -3.711807
v 1.232253 -0.920225 -3.711838
v 1.232943 -0.923262 -3.711802
v 1.232248 -0.926298 -3.711706
v 1.230306 -0.928729 -3.711570
v 1.227501 -0.930076 -3.711419
v 1.224388 -0.930070 -3.711285
v 1.221585 -0.928714 -3.711193
v 1.219647 -0.926275 -3.711162
v 1.218957 -0.923238 -3.711198
v 1.211648 -0.924214 -3.896761
v 1.213592 -0.921779 -3.896773
v 1.216398 -0.920428 -3.896731
v 1.219512 -0.920428 -3.896643
v 1.222317 -0.921779 -3.896527
v 1.224257 -0.924214 -3.896405
v 1.224947 -0.927250 -3.896303
v 1.224252 -0.930286 -3.896239
v 1.222308 -0.932721 -3.896227
v 1.219502 -0.934072 -3.896269
v 1.216388 -0.934072 -3.896357
v 1.213583 -0.932721 -3.896473
v 1.211643 -0.930286 -3.896595
v 1.210953 -0.927250 -3.896698
v 1.220678 -0.927228 -3.987228
v 1.222614 -0.924790 -3.987116
v 1.225408 -0.923433 -3.986881
v 1.228508 -0.923426 -3.986572
v 1.231299 -0.924771 -3.986248
v 1.233229 -0.927201 -3.985974
v 1.233915 -0.930235 -3.985804
v 1.233222 -0.933272 -3.985772
v 1.231287 -0.935710 -3.985884
v 1.228492 -0.937067 -3.986119
v 1.225392 -0.937074 -3.986428
v 1.222601 -0.935729 -3.986752
v 1.220671 -0.933299 -3.987026
v 1.219985 -0.930265 -3.987196
vn -0.8999 0.4350 0.0294
vn -0.9016 0.4308 -0.0372
vn -0.9996 0.0007 -0.0282
vn -0.9991 0.0018 0.0431
vn -0.6227 0.7824 0.0099
vn -0.6279 0.7773 -0.0390
vn -0.2218 0.9750 -0.0115
vn -0.2307 0.9724 -0.0332
vn 0.2233 0.9742 -0.0307
vn 0.2132 0.9768 -0.0208
vn 0.6240 0.7802 -0.0439
vn 0.6167 0.7871 -0.0042
vn 0.9007 0.4317 -0.0483
vn 0.8984 0.4389 0.0133
vn 0.9991 -0.0018 -0.0432
vn 0.9996 0.0009 0.0282
vn 0.8999 -0.4350 -0.0296
vn 0.8985 -0.4374 0.0374
vn 0.6227 -0.7823 -0.0100
vn 0.6163 -0.7865 0.0390
vn 0.2218 -0.9750 0.0115
vn 0.2119 -0.9767 0.0328
vn -0.2232 -0.9743 0.0307
vn -0.2328 -0.9723 0.0201
vn -0.6240 -0.7802 0.0438
vn -0.6299 -0.7766 0.0035
vn -0.9007 -0.4317 0.0482
vn -0.9029 -0.4296 -0.0136
vn -0.8962 0.4313 -0.1038
vn -0.9951 -0.0020 -0.0992
vn -0.6200 0.7797 -0.0879
vn -0.2206 0.9738 -0.0545
vn 0.2227 0.9748 -0.0102
vn 0.6217 0.7824 0.0361
vn 0.8972 0.4351 0.0754
vn 0.9950 0.0020 0.0996
vn 0.8961 -0.4313 0.1042
vn 0.6200 -0.7797 0.0881
vn 0.2206 -0.9738 0.0545
vn -0.2227 -0.9748 0.0102
vn -0.6217 -0.7824 -0.0360
vn -0.8972 -0.4351 -0.0751
s 1
f 1//1 15//2 28//3 14//4
f 2//5 16//6 15//2 1//1
f 3//7 17//8 16//6 2//5
f 4//9 18//10 17//8 3//7
f 5//11 19//12 18//10 4//9
f 6//13 20//14 19//12 5//11
f 7//15 21//16 20//14 6//13
f 8//17 22//18 21//16 7//15
f 9//19 23//20 22//18 8//17
f 10//21 24//22 23//20 9//19
f 11//23 25//24 24//22 10//21
f 12//25 26//26 25//24 11//23
f 13//27 27//28 26//26 12//25
f 14//4 28//3 27//28 13//27
f 15//2 29//29 42//30 28//3
f 16//6 30//31 29//29 15//2
f 17//8 31//32 30//31 16//6
f 18//10 32//33 31//32 17//8
f 19//12 33//34 32//33 18//10
f 20//14 34//35 33//34 19//12
f 21//16 35//36 34//35 20//14
f 22//18 36//37 35//36 21//16
f 23//20 37//38 36//37 22//18
f 24//22 38//39 37//38 23//20
f 25//24 39//40 38//39 24//22
f 26//26 40//41 39//40 25//24
f 27//28 41//42 40//41 26//26
f 28//3 42//30 41//42 27//28
