# Blender v2.78 (sub 0) OBJ File: ''
# www.blender.org
o #2234_-_CEPshVL_2234_-_CEPshVL_Mesh
v 0.505731 -1.241273 -4.300155
v 0.504767 -1.239438 -4.297830
v 0.502759 -1.238506 -4.295637
v 0.500106 -1.238663 -4.294012
v 0.497333 -1.239876 -4.293275
v 0.494989 -1.241906 -4.293574
v 0.493539 -1.244351 -4.294848
v 0.493269 -1.246727 -4.296845
v 0.494233 -1.248562 -4.299170
v 0.496241 -1.249494 -4.301363
v 0.498894 -1.249337 -4.302989
v 0.501667 -1.248124 -4.303725
v 0.504011 -1.246094 -4.303426
v 0.505461 -1.243649 -4.302152
v 0.515903 -1.255272 -4.284864
v 0.514834 -1.253285 -4.282717
v 0.512708 -1.252182 -4.280725
v 0.509947 -1.252182 -4.279282
v 0.507097 -1.253285 -4.278675
v 0.504723 -1.255272 -4.279023
v 0.503296 -1.257750 -4.280259
v 0.503097 -1.260228 -4.282136
v 0.504166 -1.262215 -4.284284
v 0.506292 -1.263318 -4.286276
v 0.509053 -1.263318 -4.287719
v 0.511903 -1.262215 -4.288326
v 0.514277 -1.260228 -4.287977
v 0.515704 -1.257750 -4.286742
v 0.519142 -1.261497 -4.276066
v 0.517941 -1.259376 -4.274126
v 0.515861 -1.258319 -4.272061
v 0.513313 -1.258536 -4.270282
v 0.510802 -1.259984 -4.269140
v 0.508826 -1.262376 -4.268862
v 0.507775 -1.265238 -4.269502
v 0.507858 -1.268003 -4.270934
v 0.509058 -1.270124 -4.272874
v 0.511139 -1.271181 -4.274939
v 0.513687 -1.270964 -4.276718
v 0.516198 -1.269516 -4.277860
v 0.518174 -1.267124 -4.278138
v 0.519225 -1.264262 -4.277498
v 0.530184 -1.263846 -4.266746
v 0.528391 -1.261529 -4.265686
v 0.525926 -1.260346 -4.264193
v 0.523278 -1.260530 -4.262562
v 0.520971 -1.262045 -4.261118
v 0.519461 -1.264591 -4.260146
v 0.519049 -1.267663 -4.259838
v 0.519816 -1.270654 -4.260255
v 0.521609 -1.272970 -4.261315
v 0.524074 -1.274154 -4.262808
v 0.526722 -1.273970 -4.264438
v 0.529029 -1.272455 -4.265882
v 0.530539 -1.269909 -4.266855
v 0.530951 -1.266836 -4.267163
v 0.533504 -1.261657 -4.253704
v 0.531350 -1.259424 -4.253982
v 0.528434 -1.258344 -4.254165
v 0.525332 -1.258633 -4.254216
v 0.522660 -1.260231 -4.254125
v 0.520947 -1.262824 -4.253911
v 0.520531 -1.265898 -4.253615
v 0.521496 -1.268843 -4.253296
v 0.523650 -1.271076 -4.253018
v 0.526566 -1.272156 -4.252835
v 0.529668 -1.271867 -4.252784
v 0.532340 -1.270268 -4.252875
v 0.534053 -1.267676 -4.253089
v 0.534469 -1.264602 -4.253385
v 0.531698 -1.261560 -4.246790
v 0.529600 -1.259345 -4.247420
v 0.526789 -1.258299 -4.248263
v 0.523822 -1.258629 -4.249153
v 0.521287 -1.260272 -4.249914
v 0.519684 -1.262900 -4.250394
v 0.519333 -1.265993 -4.250500
v 0.520302 -1.268940 -4.250209
v 0.522400 -1.271155 -4.249580
v 0.525211 -1.272201 -4.248737
v 0.528178 -1.271870 -4.247847
v 0.530713 -1.270228 -4.247086
v 0.532316 -1.267600 -4.246605
v 0.532667 -1.264507 -4.246500
v 0.493536 -1.241179 -4.296161
v 0.495602 -1.238889 -4.295728
v 0.498441 -1.237610 -4.295844
v 0.501489 -1.237598 -4.296486
v 0.504144 -1.238853 -4.297527
v 0.505878 -1.241128 -4.298761
v 0.506350 -1.243971 -4.299942
v 0.505464 -1.246821 -4.300839
v 0.503398 -1.249111 -4.301272
v 0.500559 -1.250389 -4.301156
v 0.497511 -1.250402 -4.300514
v 0.494856 -1.249147 -4.299473
v 0.493122 -1.246872 -4.298239
v 0.492650 -1.244028 -4.297058
v 0.484502 -1.225401 -4.338923
v 0.486353 -1.222995 -4.339623
v 0.489086 -1.221660 -4.340299
v 0.492158 -1.221660 -4.340816
v 0.494961 -1.222995 -4.341072
v 0.496940 -1.225401 -4.341017
v 0.497703 -1.228400 -4.340662
v 0.497098 -1.231400 -4.340076
v 0.495247 -1.233805 -4.339377
v 0.492514 -1.235140 -4.338701
v 0.489442 -1.235140 -4.338184
v 0.486639 -1.233805 -4.337928
v 0.484660 -1.231399 -4.337983
v 0.483897 -1.228400 -4.338338
v 0.482238 -1.240114 -4.357687
v 0.483850 -1.238172 -4.359514
v 0.486421 -1.237146 -4.360942
v 0.489445 -1.237241 -4.361688
v 0.492320 -1.238436 -4.361605
v 0.494479 -1.240495 -4.360708
v 0.495493 -1.243011 -4.359177
v 0.495162 -1.245486 -4.357313
v 0.493550 -1.247428 -4.355486
v 0.490979 -1.248453 -4.354058
v 0.487955 -1.248359 -4.353312
v 0.485080 -1.247164 -4.353395
v 0.482921 -1.245105 -4.354292
v 0.481907 -1.242589 -4.355824
v 0.475242 -1.250959 -4.374717
v 0.476920 -1.248778 -4.376176
v 0.479565 -1.247492 -4.377204
v 0.482652 -1.247356 -4.377598
v 0.485571 -1.248398 -4.377279
v 0.487742 -1.250410 -4.376310
v 0.488737 -1.252995 -4.374885
v 0.488358 -1.255641 -4.373283
v 0.486680 -1.257822 -4.371824
v 0.484035 -1.259108 -4.370796
v 0.480948 -1.259244 -4.370402
v 0.478029 -1.258202 -4.370721
v 0.475858 -1.256190 -4.371690
v 0.474863 -1.253605 -4.373116
v 0.479121 -1.262626 -4.396034
v 0.480728 -1.260063 -4.396775
v 0.483281 -1.258279 -4.396868
v 0.486273 -1.257628 -4.396293
v 0.489112 -1.258240 -4.395165
v 0.491235 -1.259992 -4.393707
v 0.492223 -1.262538 -4.392209
v 0.491879 -1.265374 -4.390965
v 0.490272 -1.267938 -4.390224
v 0.487719 -1.269721 -4.390132
v 0.484727 -1.270372 -4.390707
v 0.481889 -1.269761 -4.391835
v 0.479765 -1.268008 -4.393292
v 0.478777 -1.265462 -4.394791
v 0.492948 -1.276248 -4.430233
v 0.494596 -1.273774 -4.431163
v 0.497215 -1.272136 -4.431566
v 0.500287 -1.271660 -4.431361
v 0.503203 -1.272440 -4.430590
v 0.505386 -1.274321 -4.429405
v 0.506403 -1.276930 -4.428041
v 0.506052 -1.279752 -4.426768
v 0.504404 -1.282226 -4.425838
v 0.501785 -1.283864 -4.425435
v 0.498713 -1.284340 -4.425639
v 0.495797 -1.283560 -4.426410
v 0.493614 -1.281679 -4.427595
v 0.492597 -1.279070 -4.428959
v 0.491153 -1.283581 -4.443298
v 0.492801 -1.281101 -4.444214
v 0.495420 -1.279601 -4.444988
v 0.498490 -1.279379 -4.445467
v 0.501403 -1.280477 -4.445557
v 0.503584 -1.282680 -4.445239
v 0.504599 -1.285550 -4.444577
v 0.504247 -1.288519 -4.443702
v 0.502599 -1.290999 -4.442786
v 0.499980 -1.292499 -4.442012
v 0.496910 -1.292721 -4.441533
v 0.493997 -1.291623 -4.441443
v 0.491816 -1.289420 -4.441761
v 0.490801 -1.286550 -4.442423
v 0.489630 -1.284136 -4.453560
v 0.491320 -1.281556 -4.453996
v 0.493977 -1.279965 -4.454333
v 0.497075 -1.279678 -4.454505
v 0.499999 -1.280752 -4.454478
v 0.502170 -1.282975 -4.454257
v 0.503160 -1.285906 -4.453887
v 0.502770 -1.288964 -4.453439
v 0.501080 -1.291544 -4.453003
v 0.498423 -1.293135 -4.452666
v 0.495325 -1.293422 -4.452494
v 0.492401 -1.292348 -4.452521
v 0.490230 -1.290125 -4.452742
v 0.489240 -1.287194 -4.453113
v 0.491778 -1.288373 -4.472597
v 0.493241 -1.285647 -4.472233
v 0.495488 -1.283793 -4.471130
v 0.498075 -1.283178 -4.469506
v 0.500488 -1.283925 -4.467682
v 0.502250 -1.285884 -4.466021
v 0.503011 -1.288669 -4.464850
v 0.502622 -1.291727 -4.464403
v 0.501159 -1.294453 -4.464767
v 0.498912 -1.296307 -4.465870
v 0.496325 -1.296922 -4.467494
v 0.493912 -1.296175 -4.469318
v 0.492150 -1.294216 -4.470979
v 0.491389 -1.291431 -4.472150
v 0.522506 -1.291810 -4.487181
v 0.523804 -1.289046 -4.486564
v 0.525973 -1.287174 -4.485341
v 0.528583 -1.286565 -4.483753
v 0.531117 -1.287339 -4.482115
v 0.533074 -1.289344 -4.480752
v 0.534065 -1.292181 -4.479932
v 0.533894 -1.295290 -4.479819
v 0.532596 -1.298054 -4.480436
v 0.530427 -1.299926 -4.481659
v 0.527817 -1.300535 -4.483247
v 0.525283 -1.299761 -4.484885
v 0.523326 -1.297756 -4.486248
v 0.522335 -1.294919 -4.487068
v 0.521451 -1.291691 -4.493500
v 0.522926 -1.288947 -4.493500
v 0.525446 -1.287115 -4.493500
v 0.528511 -1.286557 -4.493500
v 0.531514 -1.287384 -4.493500
v 0.533861 -1.289433 -4.493500
v 0.535087 -1.292297 -4.493500
v 0.534949 -1.295409 -4.493500
v 0.533474 -1.298153 -4.493500
v 0.530954 -1.299985 -4.493500
v 0.527889 -1.300543 -4.493500
v 0.524886 -1.299716 -4.493500
v 0.522539 -1.297667 -4.493500
v 0.521313 -1.294803 -4.493500
v 0.521451 -1.291725 -4.503149
v 0.522926 -1.289030 -4.502630
v 0.525446 -1.287231 -4.502283
v 0.528511 -1.286683 -4.502178
v 0.531514 -1.287495 -4.502334
v 0.533861 -1.289507 -4.502721
v 0.535087 -1.292319 -4.503263
v 0.534949 -1.295375 -4.503851
v 0.533474 -1.298070 -4.504370
v 0.530954 -1.299869 -4.504717
v 0.527889 -1.300417 -4.504822
v 0.524886 -1.299605 -4.504666
v 0.522539 -1.297593 -4.504279
v 0.521313 -1.294781 -4.503737
v 0.521451 -1.289824 -4.507810
v 0.522926 -1.287276 -4.506791
v 0.525446 -1.285575 -4.506110
v 0.528511 -1.285057 -4.505903
v 0.531514 -1.285825 -4.506210
v 0.533861 -1.287727 -4.506971
v 0.535087 -1.290386 -4.508035
v 0.534949 -1.293276 -4.509191
v 0.533474 -1.295824 -4.510210
v 0.530954 -1.297525 -4.510890
v 0.527889 -1.298043 -4.511097
v 0.524886 -1.297275 -4.510790
v 0.522539 -1.295373 -4.510029
v 0.521313 -1.292714 -4.508965
vn 0.8905 0.3884 -0.2367
vn 0.9194 0.3454 -0.1881
vn 0.8901 0.0000 -0.4557
vn 0.8518 0.0489 -0.5215
vn 0.7527 0.6514 0.0955
vn 0.7728 0.6244 0.1134
vn 0.4654 0.7848 0.4093
vn 0.4753 0.7868 0.3937
vn 0.0859 0.7619 0.6419
vn 0.0784 0.7959 0.6003
vn -0.3099 0.5880 0.7471
vn -0.3391 0.6402 0.6893
vn -0.6438 0.2982 0.7046
vn -0.6857 0.3480 0.6393
vn -0.8509 -0.0502 0.5229
vn -0.8875 -0.0154 0.4606
vn -0.8900 -0.3891 0.2375
vn -0.9084 -0.3715 0.1916
vn -0.7526 -0.6515 -0.0953
vn -0.7510 -0.6503 -0.1139
vn -0.4653 -0.7849 -0.4092
vn -0.4481 -0.8008 -0.3973
vn -0.0855 -0.7625 -0.6413
vn -0.0561 -0.7954 -0.6035
vn 0.3107 -0.5893 -0.7458
vn 0.3498 -0.6342 -0.6895
vn 0.6449 -0.2998 -0.7030
vn 0.6879 -0.3495 -0.6361
vn 0.8183 0.4281 -0.3834
vn 0.8135 0.0065 -0.5814
vn 0.6376 0.7651 -0.0892
vn 0.3152 0.9210 0.2287
vn -0.0572 0.8712 0.4874
vn -0.4014 0.6560 0.6391
vn -0.6672 0.3269 0.6692
vn -0.8135 -0.0645 0.5779
vn -0.8077 -0.4528 0.3775
vn -0.6430 -0.7588 0.1030
vn -0.3522 -0.9167 -0.1888
vn 0.0031 -0.8986 -0.4386
vn 0.3551 -0.7149 -0.6023
vn 0.6433 -0.3976 -0.6542
vn 0.7523 0.4689 -0.4628
vn 0.8532 0.0593 -0.5181
vn 0.5178 0.7902 -0.3276
vn 0.1858 0.9738 -0.1310
vn -0.1996 0.9745 0.1025
vn -0.5655 0.7569 0.3274
vn -0.8037 0.3516 0.4800
vn -0.8469 -0.1191 0.5182
vn -0.7160 -0.5378 0.4450
vn -0.4572 -0.8418 0.2869
vn -0.1142 -0.9904 0.0768
vn 0.2564 -0.9551 -0.1486
vn 0.5828 -0.7345 -0.3475
vn 0.7958 -0.3704 -0.4791
vn 0.8599 0.5087 -0.0416
vn 0.9954 0.0959 -0.0026
vn 0.5574 0.8269 -0.0743
vn 0.1463 0.9845 -0.0970
vn -0.2900 0.9507 -0.1100
vn -0.6679 0.7356 -0.1133
vn -0.9212 0.3760 -0.0999
vn -0.9953 -0.0757 -0.0605
vn -0.8488 -0.5288 -0.0001
vn -0.5086 -0.8592 0.0559
vn -0.0730 -0.9936 0.0858
vn 0.3605 -0.9286 0.0872
vn 0.7183 -0.6924 0.0681
vn 0.9432 -0.3301 0.0362
vn 0.8256 0.5237 0.2098
vn 0.9615 0.1108 0.2514
vn 0.5293 0.8382 0.1316
vn 0.1244 0.9919 0.0260
vn -0.3099 0.9459 -0.0957
vn -0.6772 0.7029 -0.2174
vn -0.8941 0.3190 -0.3142
vn -0.9279 -0.1151 -0.3547
vn -0.7935 -0.5195 -0.3169
vn -0.5133 -0.8333 -0.2051
vn -0.1202 -0.9913 -0.0539
vn 0.3108 -0.9462 0.0902
vn 0.6814 -0.7054 0.1951
vn 0.9120 -0.3263 0.2486
vn -0.8398 0.4275 0.3347
vn -0.8896 0.4493 0.0821
vn -0.9856 0.0561 0.1596
vn -0.9784 0.0009 0.2067
vn -0.5369 0.7505 0.3853
vn -0.6341 0.7732 -0.0110
vn -0.1467 0.9205 0.3621
vn -0.2508 0.9622 -0.1057
vn 0.2652 0.9235 0.2770
vn 0.1858 0.9657 -0.1812
vn 0.6394 0.7559 0.1405
vn 0.5787 0.7849 -0.2213
vn 0.9027 0.4290 -0.0320
vn 0.8552 0.4689 -0.2206
vn 0.9779 -0.0006 -0.2091
vn 0.9804 0.0773 -0.1812
vn 0.8362 -0.4253 -0.3461
vn 0.9355 -0.3373 -0.1057
vn 0.5286 -0.7428 -0.4109
vn 0.7005 -0.7136 0.0003
vn 0.1381 -0.9074 -0.3969
vn 0.2791 -0.9531 0.1166
vn -0.2699 -0.9115 -0.3104
vn -0.2294 -0.9516 0.2045
vn -0.6411 -0.7501 -0.1622
vn -0.6570 -0.7163 0.2348
vn -0.9035 -0.4278 0.0248
vn -0.9115 -0.3512 0.2138
vn -0.9183 0.3943 -0.0340
vn -0.9708 0.0237 0.2387
vn -0.6741 0.6790 -0.2906
vn -0.3005 0.8209 -0.4856
vn 0.1259 0.7986 -0.5885
vn 0.5276 0.6206 -0.5801
vn 0.8304 0.3204 -0.4558
vn 0.9712 -0.0439 -0.2343
vn 0.9177 -0.3954 0.0387
vn 0.6864 -0.6612 0.3028
vn 0.3310 -0.7968 0.5055
vn -0.0836 -0.7866 0.6117
vn -0.4905 -0.6313 0.6007
vn -0.8131 -0.3458 0.4682
vn -0.9391 0.3292 -0.0987
vn -0.9914 -0.0409 0.1245
vn -0.7097 0.6361 -0.3027
vn -0.3463 0.8231 -0.4501
vn 0.0867 0.8539 -0.5132
vn 0.5111 0.7158 -0.4758
vn 0.8395 0.4256 -0.3376
vn 0.9916 0.0390 -0.1235
vn 0.9274 -0.3552 0.1170
vn 0.6684 -0.6676 0.3278
vn 0.2806 -0.8384 0.4672
vn -0.1549 -0.8439 0.5137
vn -0.5580 -0.6889 0.4627
vn -0.8555 -0.4035 0.3244
vn -0.9170 0.1820 -0.3549
vn -0.9601 -0.2139 -0.1800
vn -0.6966 0.5474 -0.4637
vn -0.3343 0.8098 -0.4820
vn 0.1003 0.9102 -0.4017
vn 0.5147 0.8237 -0.2377
vn 0.8212 0.5701 -0.0257
vn 0.9604 0.2041 0.1896
vn 0.9084 -0.2015 0.3661
vn 0.6753 -0.5684 0.4698
vn 0.3057 -0.8223 0.4800
vn -0.1244 -0.9104 0.3946
vn -0.5262 -0.8178 0.2328
vn -0.8220 -0.5688 0.0283
vn -0.9293 0.2687 -0.2532
vn -0.9863 -0.1530 -0.0612
vn -0.6779 0.6237 -0.3890
vn -0.2986 0.8458 -0.4421
vn 0.1308 0.9037 -0.4077
vn 0.5344 0.7917 -0.2959
vn 0.8391 0.5287 -0.1281
vn 0.9846 0.1624 0.0640
vn 0.9411 -0.2355 0.2425
vn 0.7186 -0.5870 0.3729
vn 0.3604 -0.8266 0.4323
vn -0.0695 -0.9092 0.4105
vn -0.4943 -0.8125 0.3091
vn -0.8272 -0.5437 0.1416
vn -0.9452 0.3241 0.0398
vn -0.9819 -0.0955 0.1635
vn -0.7186 0.6889 -0.0945
vn -0.3343 0.9188 -0.2100
vn 0.1278 0.9519 -0.2784
vn 0.5576 0.7794 -0.2855
vn 0.8615 0.4498 -0.2352
vn 0.9892 0.0396 -0.1408
vn 0.9276 -0.3731 -0.0197
vn 0.6908 -0.7151 0.1068
vn 0.3205 -0.9225 0.2151
vn -0.1132 -0.9524 0.2829
vn -0.5240 -0.7984 0.2966
vn -0.8320 -0.4931 0.2541
vn -0.9377 0.3463 -0.0281
vn -0.9967 -0.0760 0.0295
vn -0.7018 0.7079 -0.0787
vn -0.3254 0.9384 -0.1158
vn 0.1225 0.9830 -0.1367
vn 0.5463 0.8255 -0.1417
vn 0.8541 0.5037 -0.1296
vn 0.9915 0.0908 -0.0930
vn 0.9407 -0.3380 -0.0273
vn 0.7022 -0.7099 0.0549
vn 0.3079 -0.9435 0.1221
vn -0.1545 -0.9769 0.1476
vn -0.5748 -0.8078 0.1304
vn -0.8703 -0.4849 0.0859
vn -0.7638 0.2338 -0.6015
vn -0.8185 -0.1845 -0.5440
vn -0.5742 0.6027 -0.5541
vn -0.2877 0.8657 -0.4096
vn 0.0539 0.9807 -0.1877
vn 0.4076 0.9103 0.0721
vn 0.7067 0.6332 0.3156
vn 0.8513 0.1870 0.4902
vn 0.7761 -0.3005 0.5543
vn 0.5240 -0.6906 0.4984
vn 0.1861 -0.9227 0.3377
vn -0.1685 -0.9803 0.1025
vn -0.4884 -0.8583 -0.1571
vn -0.7206 -0.5751 -0.3872
vn -0.8492 0.2617 -0.4586
vn -0.8641 -0.2569 -0.4328
vn -0.6019 0.7010 -0.3824
vn -0.2438 0.9456 -0.2153
vn 0.1199 0.9927 0.0086
vn 0.4422 0.8653 0.2360
vn 0.6889 0.5898 0.4213
vn 0.8195 0.2049 0.5352
vn 0.8004 -0.2255 0.5554
vn 0.6299 -0.6160 0.4730
vn 0.3455 -0.8882 0.3027
vn 0.0036 -0.9968 0.0801
vn -0.3466 -0.9269 -0.1437
vn -0.6609 -0.6780 -0.3217
vn -0.9635 0.2570 0.0750
vn -0.9841 -0.1628 0.0707
vn -0.7687 0.6376 0.0496
vn -0.4134 0.9104 0.0145
vn 0.0401 0.9992 -0.0035
vn 0.4829 0.8756 0.0030
vn 0.8169 0.5764 0.0208
vn 0.9846 0.1713 0.0345
vn 0.9644 -0.2619 0.0361
vn 0.7617 -0.6474 0.0251
vn 0.4065 -0.9136 0.0079
vn -0.0419 -0.9991 -0.0024
vn -0.4881 -0.8727 0.0085
vn -0.8236 -0.5657 0.0405
vn -0.9714 0.2331 0.0455
vn -0.9792 -0.1993 -0.0379
vn -0.7709 0.6249 0.1234
vn -0.4081 0.8952 0.1790
vn 0.0462 0.9794 0.1967
vn 0.4899 0.8549 0.1706
vn 0.8249 0.5546 0.1092
vn 0.9885 0.1481 0.0289
vn 0.9577 -0.2825 -0.0538
vn 0.7434 -0.6571 -0.1245
vn 0.3871 -0.9060 -0.1712
vn -0.0435 -0.9817 -0.1854
vn -0.4659 -0.8694 -0.1644
vn -0.7988 -0.5911 -0.1121
vn -0.9632 0.2484 0.1026
vn -0.9835 -0.1686 -0.0656
vn -0.7489 0.6105 0.2578
vn -0.3886 0.8461 0.3648
vn 0.0437 0.9164 0.3978
vn 0.4680 0.8119 0.3489
vn 0.8049 0.5471 0.2299
vn 0.9834 0.1675 0.0692
vn 0.9633 -0.2499 -0.0973
vn 0.7501 -0.6172 -0.2373
vn 0.3903 -0.8605 -0.3273
vn -0.0439 -0.9341 -0.3542
vn -0.4699 -0.8249 -0.3143
vn -0.8059 -0.5524 -0.2130
s 1
f 1//1 15//2 28//3 14//4
f 2//5 16//6 15//2 1//1
f 3//7 17//8 16//6 2//5
f 4//9 18//10 17//8 3//7
f 5//11 19//12 18//10 4//9
f 6//13 20//14 19//12 5//11
f 7//15 21//16 20//14 6//13
f 8//17 22//18 21//16 7//15
f 9//19 23//20 22//18 8//17
f 10//21 24//22 23//20 9//19
f 11//23 25//24 24//22 10//21
f 12//25 26//26 25//24 11//23
f 13//27 27//28 26//26 12//25
f 14//4 28//3 27//28 13//27
f 15//2 29//29 42//30 28//3
f 16//6 30//31 29//29 15//2
f 17//8 31//32 30//31 16//6
f 18//10 32//33 31//32 17//8
f 19//12 33//34 32//33 18//10
f 20//14 34//35 33//34 19//12
f 21//16 35//36 34//35 20//14
f 22//18 36//37 35//36 21//16
f 23//20 37//38 36//37 22//18
f 24//22 38//39 37//38 23//20
f 25//24 39//40 38//39 24//22
f 26//26 40//41 39//40 25//24
f 27//28 41//42 40//41 26//26
f 28//3 42//30 41//42 27//28
f 29//29 43//43 56//44 42//30
f 30//31 44//45 43//43 29//29
f 31//32 45//46 44//45 30//31
f 32//33 46//47 45//46 31//32
f 33//34 47//48 46//47 32//33
f 34//35 48//49 47//48 33//34
f 35//36 49//50 48//49 34//35
f 36//37 50//51 49//50 35//36
f 37//38 51//52 50//51 36//37
f 38//39 52//53 51//52 37//38
f 39//40 53//54 52//53 38//39
f 40//41 54//55 53//54 39//40
f 41//42 55//56 54//55 40//41
f 42//30 56//44 55//56 41//42
f 43//43 57//57 70//58 56//44
f 44//45 58//59 57//57 43//43
f 45//46 59//60 58//59 44//45
f 46//47 60//61 59//60 45//46
f 47//48 61//62 60//61 46//47
f 48//49 62//63 61//62 47//48
f 49//50 63//64 62//63 48//49
f 50//51 64//65 63//64 49//50
f 51//52 65//66 64//65 50//51
f 52//53 66//67 65//66 51//52
f 53//54 67//68 66//67 52//53
f 54//55 68//69 67//68 53//54
f 55//56 69//70 68//69 54//55
f 56//44 70//58 69//70 55//56
f 57//57 71//71 84//72 70//58
f 58//59 72//73 71//71 57//57
f 59//60 73//74 72//73 58//59
f 60//61 74//75 73//74 59//60
f 61//62 75//76 74//75 60//61
f 62//63 76//77 75//76 61//62
f 63//64 77//78 76//77 62//63
f 64//65 78//79 77//78 63//64
f 65//66 79//80 78//79 64//65
f 66//67 80//81 79//80 65//66
f 67//68 81//82 80//81 66//67
f 68//69 82//83 81//82 67//68
f 69//70 83//84 82//83 68//69
f 70//58 84//72 83//84 69//70
f 85//85 99//86 112//87 98//88
f 86//89 100//90 99//86 85//85
f 87//91 101//92 100//90 86//89
f 88//93 102//94 101//92 87//91
f 89//95 103//96 102//94 88//93
f 90//97 104//98 103//96 89//95
f 91//99 105//100 104//98 90//97
f 92//101 106//102 105//100 91//99
f 93//103 107//104 106//102 92//101
f 94//105 108//106 107//104 93//103
f 95//107 109//108 108//106 94//105
f 96//109 110//110 109//108 95//107
f 97//111 111//112 110//110 96//109
f 98//88 112//87 111//112 97//111
f 99//86 113//113 126//114 112//87
f 100//90 114//115 113//113 99//86
f 101//92 115//116 114//115 100//90
f 102//94 116//117 115//116 101//92
f 103//96 117//118 116//117 102//94
f 104//98 118//119 117//118 103//96
f 105//100 119//120 118//119 104//98
f 106//102 120//121 119//120 105//100
f 107//104 121//122 120//121 106//102
f 108//106 122//123 121//122 107//104
f 109//108 123//124 122//123 108//106
f 110//110 124//125 123//124 109//108
f 111//112 125//126 124//125 110//110
f 112//87 126//114 125//126 111//112
f 113//113 127//127 140//128 126//114
f 114//115 128//129 127//127 113//113
f 115//116 129//130 128//129 114//115
f 116//117 130//131 129//130 115//116
f 117//118 131//132 130//131 116//117
f 118//119 132//133 131//132 117//118
f 119//120 133//134 132//133 118//119
f 120//121 134//135 133//134 119//120
f 121//122 135//136 134//135 120//121
f 122//123 136//137 135//136 121//122
f 123//124 137//138 136//137 122//123
f 124//125 138//139 137//138 123//124
f 125//126 139//140 138//139 124//125
f 126//114 140//128 139//140 125//126
f 127//127 141//141 154//142 140//128
f 128//129 142//143 141//141 127//127
f 129//130 143//144 142//143 128//129
f 130//131 144//145 143//144 129//130
f 131//132 145//146 144//145 130//131
f 132//133 146//147 145//146 131//132
f 133//134 147//148 146//147 132//133
f 134//135 148//149 147//148 133//134
f 135//136 149//150 148//149 134//135
f 136//137 150//151 149//150 135//136
f 137//138 151//152 150//151 136//137
f 138//139 152//153 151//152 137//138
f 139//140 153//154 152//153 138//139
f 140//128 154//142 153//154 139//140
f 141//141 155//155 168//156 154//142
f 142//143 156//157 155//155 141//141
f 143//144 157//158 156//157 142//143
f 144//145 158//159 157//158 143//144
f 145//146 159//160 158//159 144//145
f 146//147 160//161 159//160 145//146
f 147//148 161//162 160//161 146//147
f 148//149 162//163 161//162 147//148
f 149//150 163//164 162//163 148//149
f 150//151 164//165 163//164 149//150
f 151//152 165//166 164//165 150//151
f 152//153 166//167 165//166 151//152
f 153//154 167//168 166//167 152//153
f 154//142 168//156 167//168 153//154
f 155//155 169//169 182//170 168//156
f 156//157 170//171 169//169 155//155
f 157//158 171//172 170//171 156//157
f 158//159 172//173 171//172 157//158
f 159//160 173//174 172//173 158//159
f 160//161 174//175 173//174 159//160
f 161//162 175//176 174//175 160//161
f 162//163 176//177 175//176 161//162
f 163//164 177//178 176//177 162//163
f 164//165 178//179 177//178 163//164
f 165//166 179//180 178//179 164//165
f 166//167 180//181 179//180 165//166
f 167//168 181//182 180//181 166//167
f 168//156 182//170 181//182 167//168
f 169//169 183//183 196//184 182//170
f 170//171 184//185 183//183 169//169
f 171//172 185//186 184//185 170//171
f 172//173 186//187 185//186 171//172
f 173//174 187//188 186//187 172//173
f 174//175 188//189 187//188 173//174
f 175//176 189//190 188//189 174//175
f 176//177 190//191 189//190 175//176
f 177//178 191//192 190//191 176//177
f 178//179 192//193 191//192 177//178
f 179//180 193//194 192//193 178//179
f 180//181 194//195 193//194 179//180
f 181//182 195//196 194//195 180//181
f 182//170 196//184 195//196 181//182
f 183//183 197//197 210//198 196//184
f 184//185 198//199 197//197 183//183
f 185//186 199//200 198//199 184//185
f 186//187 200//201 199//200 185//186
f 187//188 201//202 200//201 186//187
f 188//189 202//203 201//202 187//188
f 189//190 203//204 202//203 188//189
f 190//191 204//205 203//204 189//190
f 191//192 205//206 204//205 190//191
f 192//193 206//207 205//206 191//192
f 193//194 207//208 206//207 192//193
f 194//195 208//209 207//208 193//194
f 195//196 209//210 208//209 194//195
f 196//184 210//198 209//210 195//196
f 197//197 211//211 224//212 210//198
f 198//199 212//213 211//211 197//197
f 199//200 213//214 212//213 198//199
f 200//201 214//215 213//214 199//200
f 201//202 215//216 214//215 200//201
f 202//203 216//217 215//216 201//202
f 203//204 217//218 216//217 202//203
f 204//205 218//219 217//218 203//204
f 205//206 219//220 218//219 204//205
f 206//207 220//221 219//220 205//206
f 207//208 221//222 220//221 206//207
f 208//209 222//223 221//222 207//208
f 209//210 223//224 222//223 208//209
f 210//198 224//212 223//224 209//210
f 211//211 225//225 238//226 224//212
f 212//213 226//227 225//225 211//211
f 213//214 227//228 226//227 212//213
f 214//215 228//229 227//228 213//214
f 215//216 229//230 228//229 214//215
f 216//217 230//231 229//230 215//216
f 217//218 231//232 230//231 216//217
f 218//219 232//233 231//232 217//218
f 219//220 233//234 232//233 218//219
f 220//221 234//235 233//234 219//220
f 221//222 235//236 234//235 220//221
f 222//223 236//237 235//236 221//222
f 223//224 237//238 236//237 222//223
f 224//212 238//226 237//238 223//224
f 225//225 239//239 252//240 238//226
f 226//227 240//241 239//239 225//225
f 227//228 241//242 240//241 226//227
f 228//229 242//243 241//242 227//228
f 229//230 243//244 242//243 228//229
f 230//231 244//245 243//244 229//230
f 231//232 245//246 244//245 230//231
f 232//233 246//247 245//246 231//232
f 233//234 247//248 246//247 232//233
f 234//235 248//249 247//248 233//234
f 235//236 249//250 248//249 234//235
f 236//237 250//251 249//250 235//236
f 237//238 251//252 250//251 236//237
f 238//226 252//240 251//252 237//238
f 239//239 253//253 266//254 252//240
f 240//241 254//255 253//253 239//239
f 241//242 255//256 254//255 240//241
f 242//243 256//257 255//256 241//242
f 243//244 257//258 256//257 242//243
f 244//245 258//259 257//258 243//244
f 245//246 259//260 258//259 244//245
f 246//247 260//261 259//260 245//246
f 247//248 261//262 260//261 246//247
f 248//249 262//263 261//262 247//248
f 249//250 263//264 262//263 248//249
f 250//251 264//265 263//264 249//250
f 251//252 265//266 264//265 250//251
f 252//240 266//254 265//266 251//252
