# Blender v2.78 (sub 0) OBJ File: ''
# www.blender.org
mtllib Inputs of 35341 - AVHR.mtl
o Inputs_of_35341_-_[AVHR.]
v 0.375837 -1.002597 -4.629807
v 0.377471 -1.000791 -4.627864
v 0.378377 -0.999788 -4.625058
v 0.378377 -0.999788 -4.621942
v 0.377471 -1.000791 -4.619135
v 0.375837 -1.002597 -4.617193
v 0.373800 -1.004850 -4.616500
v 0.371763 -1.007103 -4.617193
v 0.370129 -1.008909 -4.619135
v 0.369223 -1.009912 -4.621942
v 0.369223 -1.009912 -4.625058
v 0.370129 -1.008909 -4.627864
v 0.371763 -1.007103 -4.629807
v 0.373800 -1.004850 -4.630500
v 0.392537 -1.017697 -4.629807
v 0.394171 -1.015891 -4.627864
v 0.395077 -1.014888 -4.625058
v 0.395077 -1.014888 -4.621942
v 0.394171 -1.015891 -4.619135
v 0.392537 -1.017697 -4.617193
v 0.390500 -1.019950 -4.616500
v 0.388463 -1.022203 -4.617193
v 0.386829 -1.024009 -4.619135
v 0.385923 -1.025012 -4.621942
v 0.385923 -1.025012 -4.625058
v 0.386829 -1.024009 -4.627864
v 0.388463 -1.022203 -4.629807
v 0.390500 -1.019950 -4.630500
v 0.514809 -1.091575 -4.915693
v 0.514456 -1.089165 -4.917635
v 0.514260 -1.087828 -4.920442
v 0.514260 -1.087828 -4.923558
v 0.514456 -1.089165 -4.926364
v 0.514809 -1.091575 -4.928307
v 0.515250 -1.094580 -4.929000
v 0.515691 -1.097585 -4.928307
v 0.516044 -1.099995 -4.926364
v 0.516240 -1.101332 -4.923558
v 0.516240 -1.101332 -4.920442
v 0.516044 -1.099995 -4.917635
v 0.515691 -1.097585 -4.915693
v 0.515250 -1.094580 -4.915000
v 0.498309 -1.093995 -4.915693
v 0.497956 -1.091585 -4.917635
v 0.497760 -1.090248 -4.920442
v 0.497760 -1.090248 -4.923558
v 0.497956 -1.091585 -4.926364
v 0.498309 -1.093995 -4.928307
v 0.498750 -1.097000 -4.929000
v 0.499191 -1.100005 -4.928307
v 0.499544 -1.102415 -4.926364
v 0.499740 -1.103752 -4.923558
v 0.499740 -1.103752 -4.920442
v 0.499544 -1.102415 -4.917635
v 0.499191 -1.100005 -4.915693
v 0.498750 -1.097000 -4.915000
v 0.467371 -1.133579 -4.761307
v 0.466867 -1.131196 -4.759365
v 0.466587 -1.129873 -4.756558
v 0.466587 -1.129873 -4.753442
v 0.466867 -1.131196 -4.750636
v 0.467371 -1.133579 -4.748693
v 0.468000 -1.136550 -4.748000
v 0.468629 -1.139521 -4.748693
v 0.469133 -1.141904 -4.750636
v 0.469413 -1.143227 -4.753442
v 0.469413 -1.143227 -4.756558
v 0.469133 -1.141904 -4.759365
v 0.468629 -1.139521 -4.761307
v 0.468000 -1.136550 -4.762000
v 0.485321 -1.129779 -4.761307
v 0.484817 -1.127396 -4.759365
v 0.484537 -1.126073 -4.756558
v 0.484537 -1.126073 -4.753442
v 0.484817 -1.127396 -4.750636
v 0.485321 -1.129779 -4.748693
v 0.485950 -1.132750 -4.748000
v 0.486579 -1.135721 -4.748693
v 0.487083 -1.138104 -4.750636
v 0.487363 -1.139427 -4.753442
v 0.487363 -1.139427 -4.756558
v 0.487083 -1.138104 -4.759365
v 0.486579 -1.135721 -4.761307
v 0.485950 -1.132750 -4.762000
vn 0.2910 0.3218 -0.9010
vn 0.0000 0.0000 -1.0000
vn 0.5243 0.5799 -0.6235
vn 0.6539 0.7231 -0.2225
vn 0.6539 0.7231 0.2225
vn 0.5243 0.5799 0.6235
vn 0.2910 0.3218 0.9010
vn 0.0000 0.0000 1.0000
vn -0.2910 -0.3218 0.9010
vn -0.5243 -0.5799 0.6235
vn -0.6539 -0.7231 0.2225
vn -0.6539 -0.7231 -0.2225
vn -0.5243 -0.5799 -0.6235
vn -0.2910 -0.3218 -0.9010
vn -0.0630 0.4293 0.9010
vn -0.1134 0.7735 0.6235
vn -0.1415 0.9646 0.2225
vn -0.1415 0.9646 -0.2225
vn -0.1134 0.7735 -0.6235
vn -0.0630 0.4293 -0.9010
vn 0.0629 -0.4293 -0.9010
vn 0.1134 -0.7735 -0.6235
vn 0.1415 -0.9646 -0.2225
vn 0.1415 -0.9646 0.2225
vn 0.1134 -0.7735 0.6235
vn 0.0629 -0.4293 0.9010
vn -0.0899 0.4244 -0.9010
vn -0.0899 0.4245 -0.9010
vn -0.1619 0.7648 -0.6235
vn -0.2019 0.9538 -0.2225
vn -0.2019 0.9538 0.2225
vn -0.1619 0.7648 0.6235
vn -0.1619 0.7649 0.6235
vn -0.0898 0.4245 0.9010
vn 0.0898 -0.4245 0.9010
vn 0.1619 -0.7649 0.6235
vn 0.2019 -0.9538 0.2225
vn 0.2019 -0.9538 -0.2225
vn 0.1619 -0.7649 -0.6235
vn 0.0898 -0.4245 -0.9010
s 1
f 1//1 15//1 28//2 14//2
f 2//3 16//3 15//1 1//1
f 3//4 17//4 16//3 2//3
f 4//5 18//5 17//4 3//4
f 5//6 19//6 18//5 4//5
f 6//7 20//7 19//6 5//6
f 7//8 21//8 20//7 6//7
f 8//9 22//9 21//8 7//8
f 9//10 23//10 22//9 8//9
f 10//11 24//11 23//10 9//10
f 11//12 25//12 24//11 10//11
f 12//13 26//13 25//12 11//12
f 13//14 27//14 26//13 12//13
f 14//2 28//2 27//14 13//14
f 29//15 43//15 56//8 42//8
f 30//16 44//16 43//15 29//15
f 31//17 45//17 44//16 30//16
f 32//18 46//18 45//17 31//17
f 33//19 47//19 46//18 32//18
f 34//20 48//20 47//19 33//19
f 35//2 49//2 48//20 34//20
f 36//21 50//21 49//2 35//2
f 37//22 51//22 50//21 36//21
f 38//23 52//23 51//22 37//22
f 39//24 53//24 52//23 38//23
f 40//25 54//25 53//24 39//24
f 41//26 55//26 54//25 40//25
f 42//8 56//8 55//26 41//26
f 57//27 71//28 84//2 70//2
f 58//29 72//29 71//28 57//27
f 59//30 73//30 72//29 58//29
f 60//31 74//31 73//30 59//30
f 61//32 75//33 74//31 60//31
f 62//34 76//34 75//33 61//32
f 63//8 77//8 76//34 62//34
f 64//35 78//35 77//8 63//8
f 65//36 79//36 78//35 64//35
f 66//37 80//37 79//36 65//36
f 67//38 81//38 80//37 66//37
f 68//39 82//39 81//38 67//38
f 69//40 83//40 82//39 68//39
f 70//2 84//2 83//40 69//40
