# Blender v2.78 (sub 0) OBJ File: ''
# www.blender.org
o Inputs_of_55070_-_[AWAL.]
v 0.536939 -0.532411 -4.534807
v 0.534619 -0.531671 -4.532865
v 0.533331 -0.531261 -4.530058
v 0.533331 -0.531261 -4.526942
v 0.534619 -0.531671 -4.524136
v 0.536939 -0.532411 -4.522193
v 0.539833 -0.533333 -4.521500
v 0.542727 -0.534255 -4.522193
v 0.545047 -0.534995 -4.524136
v 0.546335 -0.535405 -4.526942
v 0.546335 -0.535405 -4.530058
v 0.545047 -0.534995 -4.532865
v 0.542727 -0.534255 -4.534807
v 0.539833 -0.533333 -4.535500
v 0.546606 -0.502078 -4.534807
v 0.544286 -0.501338 -4.532865
v 0.542998 -0.500928 -4.530058
v 0.542998 -0.500928 -4.526942
v 0.544286 -0.501338 -4.524136
v 0.546606 -0.502078 -4.522193
v 0.549500 -0.503000 -4.521500
v 0.552394 -0.503922 -4.522193
v 0.554714 -0.504662 -4.524136
v 0.556002 -0.505072 -4.526942
v 0.556002 -0.505072 -4.530058
v 0.554714 -0.504662 -4.532865
v 0.552394 -0.503922 -4.534807
v 0.549500 -0.503000 -4.535500
v 0.415364 -1.115193 -4.757194
v 0.416739 -1.113182 -4.759136
v 0.417502 -1.112066 -4.761942
v 0.417502 -1.112066 -4.765058
v 0.416739 -1.113182 -4.767865
v 0.415364 -1.115193 -4.769807
v 0.413650 -1.117700 -4.770500
v 0.411936 -1.120207 -4.769807
v 0.410561 -1.122218 -4.767865
v 0.409798 -1.123334 -4.765058
v 0.409798 -1.123334 -4.761942
v 0.410561 -1.122218 -4.759136
v 0.411936 -1.120207 -4.757194
v 0.413650 -1.117700 -4.756500
v 0.375214 -1.087743 -4.757194
v 0.376589 -1.085732 -4.759136
v 0.377352 -1.084616 -4.761942
v 0.377352 -1.084616 -4.765058
v 0.376589 -1.085732 -4.767865
v 0.375214 -1.087743 -4.769807
v 0.373500 -1.090250 -4.770500
v 0.371786 -1.092757 -4.769807
v 0.370411 -1.094768 -4.767865
v 0.369648 -1.095884 -4.765058
v 0.369648 -1.095884 -4.761942
v 0.370411 -1.094768 -4.759136
v 0.371786 -1.092757 -4.757194
v 0.373500 -1.090250 -4.756500
v 0.483701 -1.229531 -4.835193
v 0.485786 -1.228273 -4.837135
v 0.486944 -1.227575 -4.839942
v 0.486944 -1.227575 -4.843058
v 0.485786 -1.228273 -4.845864
v 0.483701 -1.229531 -4.847806
v 0.481100 -1.231100 -4.848500
v 0.478499 -1.232669 -4.847806
v 0.476414 -1.233927 -4.845864
v 0.475256 -1.234625 -4.843058
v 0.475256 -1.234625 -4.839942
v 0.476414 -1.233927 -4.837135
v 0.478499 -1.232669 -4.835193
v 0.481100 -1.231100 -4.834500
v 0.466601 -1.201181 -4.835193
v 0.468686 -1.199923 -4.837135
v 0.469844 -1.199225 -4.839942
v 0.469844 -1.199225 -4.843058
v 0.468686 -1.199923 -4.845864
v 0.466601 -1.201181 -4.847806
v 0.464000 -1.202750 -4.848500
v 0.461399 -1.204319 -4.847806
v 0.459314 -1.205577 -4.845864
v 0.458156 -1.206275 -4.843058
v 0.458156 -1.206275 -4.839942
v 0.459314 -1.205577 -4.837135
v 0.461399 -1.204319 -4.835193
v 0.464000 -1.202750 -4.834500
v 0.411873 -1.115237 -4.757194
v 0.410448 -1.113262 -4.759136
v 0.409657 -1.112166 -4.761942
v 0.409657 -1.112166 -4.765058
v 0.410448 -1.113262 -4.767865
v 0.411873 -1.115237 -4.769807
v 0.413650 -1.117700 -4.770500
v 0.415427 -1.120163 -4.769807
v 0.416852 -1.122138 -4.767865
v 0.417643 -1.123234 -4.765058
v 0.417643 -1.123234 -4.761942
v 0.416852 -1.122138 -4.759136
v 0.415427 -1.120163 -4.757194
v 0.413650 -1.117700 -4.756500
v 0.370223 -1.145287 -4.757194
v 0.368798 -1.143312 -4.759136
v 0.368007 -1.142216 -4.761942
v 0.368007 -1.142216 -4.765058
v 0.368798 -1.143312 -4.767865
v 0.370223 -1.145287 -4.769807
v 0.372000 -1.147750 -4.770500
v 0.373777 -1.150213 -4.769807
v 0.375202 -1.152188 -4.767865
v 0.375993 -1.153284 -4.765058
v 0.375993 -1.153284 -4.761942
v 0.375202 -1.152188 -4.759136
v 0.373777 -1.150213 -4.757194
v 0.372000 -1.147750 -4.756500
vn -0.4133 0.1317 -0.9010
vn 0.0000 0.0000 -1.0000
vn -0.7449 0.2374 -0.6235
vn -0.9289 0.2960 -0.2225
vn -0.9289 0.2960 0.2225
vn -0.7449 0.2374 0.6235
vn -0.4134 0.1317 0.9010
vn 0.0000 0.0000 1.0000
vn 0.4134 -0.1317 0.9010
vn 0.7449 -0.2374 0.6235
vn 0.9289 -0.2960 0.2225
vn 0.9289 -0.2960 -0.2225
vn 0.7449 -0.2374 -0.6235
vn 0.4133 -0.1317 -0.9010
vn 0.2448 0.3581 0.9010
vn 0.4412 0.6454 0.6235
vn 0.5502 0.8048 0.2225
vn 0.5502 0.8048 -0.2225
vn 0.4412 0.6454 -0.6235
vn 0.2448 0.3581 -0.9010
vn -0.2449 -0.3582 -0.9010
vn -0.4412 -0.6454 -0.6235
vn -0.5502 -0.8048 -0.2225
vn -0.5502 -0.8048 0.2225
vn -0.4412 -0.6454 0.6235
vn -0.2449 -0.3582 0.9009
vn 0.3715 0.2241 0.9010
vn 0.6695 0.4038 0.6235
vn 0.8348 0.5036 0.2225
vn 0.8348 0.5036 -0.2225
vn 0.6695 0.4038 -0.6235
vn 0.3715 0.2241 -0.9010
vn -0.3715 -0.2241 -0.9010
vn -0.6695 -0.4038 -0.6235
vn -0.8348 -0.5036 -0.2225
vn -0.8348 -0.5036 0.2225
vn -0.6695 -0.4038 0.6235
vn -0.3715 -0.2241 0.9010
vn -0.2538 0.3518 0.9010
vn -0.4574 0.6340 0.6235
vn -0.5704 0.7906 0.2225
vn -0.5704 0.7906 -0.2225
vn -0.4574 0.6340 -0.6235
vn -0.2539 0.3518 -0.9010
vn 0.2539 -0.3518 -0.9010
vn 0.4574 -0.6340 -0.6235
vn 0.5704 -0.7906 -0.2225
vn 0.5704 -0.7906 0.2225
vn 0.4574 -0.6340 0.6235
vn 0.2538 -0.3518 0.9010
s 1
f 1//1 15//1 28//2 14//2
f 2//3 16//3 15//1 1//1
f 3//4 17//4 16//3 2//3
f 4//5 18//5 17//4 3//4
f 5//6 19//6 18//5 4//5
f 6//7 20//7 19//6 5//6
f 7//8 21//8 20//7 6//7
f 8//9 22//9 21//8 7//8
f 9//10 23//10 22//9 8//9
f 10//11 24//11 23//10 9//10
f 11//12 25//12 24//11 10//11
f 12//13 26//13 25//12 11//12
f 13//14 27//14 26//13 12//13
f 14//2 28//2 27//14 13//14
f 29//15 43//15 56//8 42//8
f 30//16 44//16 43//15 29//15
f 31//17 45//17 44//16 30//16
f 32//18 46//18 45//17 31//17
f 33//19 47//19 46//18 32//18
f 34//20 48//20 47//19 33//19
f 35//2 49//2 48//20 34//20
f 36//21 50//21 49//2 35//2
f 37//22 51//22 50//21 36//21
f 38//23 52//23 51//22 37//22
f 39//24 53//24 52//23 38//23
f 40//25 54//25 53//24 39//24
f 41//26 55//26 54//25 40//25
f 42//8 56//8 55//26 41//26
f 57//27 71//27 84//8 70//8
f 58//28 72//28 71//27 57//27
f 59//29 73//29 72//28 58//28
f 60//30 74//30 73//29 59//29
f 61//31 75//31 74//30 60//30
f 62//32 76//32 75//31 61//31
f 63//2 77//2 76//32 62//32
f 64//33 78//33 77//2 63//2
f 65//34 79//34 78//33 64//33
f 66//35 80//35 79//34 65//34
f 67//36 81//36 80//35 66//35
f 68//37 82//37 81//36 67//36
f 69//38 83//38 82//37 68//37
f 70//8 84//8 83//38 69//38
f 85//39 99//39 112//8 98//8
f 86//40 100//40 99//39 85//39
f 87//41 101//41 100//40 86//40
f 88//42 102//42 101//41 87//41
f 89//43 103//43 102//42 88//42
f 90//44 104//44 103//43 89//43
f 91//2 105//2 104//44 90//44
f 92//45 106//45 105//2 91//2
f 93//46 107//46 106//45 92//45
f 94//47 108//47 107//46 93//46
f 95//48 109//48 108//47 94//47
f 96//49 110//49 109//48 95//48
f 97//50 111//50 110//49 96//49
f 98//8 112//8 111//50 97//50
