# Blender v2.78 (sub 0) OBJ File: ''
# www.blender.org
o Inputs_of_496_-_[SMBVR.]
v 0.756991 -1.011707 -4.895693
v 0.758588 -1.009868 -4.897635
v 0.759474 -1.008847 -4.900442
v 0.759474 -1.008847 -4.903558
v 0.758588 -1.009868 -4.906364
v 0.756991 -1.011707 -4.908307
v 0.755000 -1.014000 -4.909000
v 0.753009 -1.016293 -4.908307
v 0.751412 -1.018133 -4.906364
v 0.750526 -1.019153 -4.903558
v 0.750526 -1.019153 -4.900442
v 0.751412 -1.018133 -4.897635
v 0.753009 -1.016293 -4.895693
v 0.755000 -1.014000 -4.895000
v 0.734791 -0.992432 -4.895693
v 0.736388 -0.990592 -4.897635
v 0.737274 -0.989572 -4.900442
v 0.737274 -0.989572 -4.903558
v 0.736388 -0.990592 -4.906364
v 0.734791 -0.992432 -4.908307
v 0.732800 -0.994725 -4.909000
v 0.730809 -0.997018 -4.908307
v 0.729212 -0.998857 -4.906364
v 0.728326 -0.999878 -4.903558
v 0.728326 -0.999878 -4.900442
v 0.729212 -0.998857 -4.897635
v 0.730809 -0.997018 -4.895693
v 0.732800 -0.994725 -4.895000
v 0.715851 -1.003964 -4.699306
v 0.715932 -1.001530 -4.697364
v 0.715977 -1.000179 -4.694558
v 0.715977 -1.000179 -4.691442
v 0.715932 -1.001530 -4.688635
v 0.715851 -1.003964 -4.686693
v 0.715750 -1.007000 -4.686000
v 0.715649 -1.010036 -4.686693
v 0.715568 -1.012470 -4.688635
v 0.715523 -1.013821 -4.691442
v 0.715523 -1.013821 -4.694558
v 0.715568 -1.012470 -4.697364
v 0.715649 -1.010036 -4.699306
v 0.715750 -1.007000 -4.700000
v 0.745944 -1.004964 -4.699306
v 0.746025 -1.002530 -4.697364
v 0.746070 -1.001179 -4.694558
v 0.746070 -1.001179 -4.691442
v 0.746025 -1.002530 -4.688635
v 0.745944 -1.004964 -4.686693
v 0.745843 -1.008000 -4.686000
v 0.745742 -1.011036 -4.686693
v 0.745661 -1.013470 -4.688635
v 0.745616 -1.014821 -4.691442
v 0.745616 -1.014821 -4.694558
v 0.745661 -1.013470 -4.697364
v 0.745742 -1.011036 -4.699306
v 0.745843 -1.008000 -4.700000
v 0.668941 -1.217826 -4.817807
v 0.670097 -1.215682 -4.815865
v 0.670738 -1.214493 -4.813058
v 0.670738 -1.214493 -4.809942
v 0.670097 -1.215682 -4.807136
v 0.668941 -1.217826 -4.805193
v 0.667500 -1.220500 -4.804500
v 0.666059 -1.223174 -4.805193
v 0.664903 -1.225318 -4.807136
v 0.664262 -1.226507 -4.809942
v 0.664262 -1.226507 -4.813058
v 0.664903 -1.225318 -4.815865
v 0.666059 -1.223174 -4.817807
v 0.667500 -1.220500 -4.818500
v 0.713841 -1.242026 -4.817807
v 0.714997 -1.239882 -4.815865
v 0.715638 -1.238693 -4.813058
v 0.715638 -1.238693 -4.809942
v 0.714997 -1.239882 -4.807136
v 0.713841 -1.242026 -4.805193
v 0.712400 -1.244700 -4.804500
v 0.710959 -1.247374 -4.805193
v 0.709803 -1.249518 -4.807136
v 0.709162 -1.250707 -4.809942
v 0.709162 -1.250707 -4.813058
v 0.709803 -1.249518 -4.815865
v 0.710959 -1.247374 -4.817807
v 0.712400 -1.244700 -4.818500
v 0.668456 -1.264117 -4.925694
v 0.669222 -1.261805 -4.927636
v 0.669647 -1.260522 -4.930442
v 0.669647 -1.260522 -4.933558
v 0.669222 -1.261805 -4.936365
v 0.668456 -1.264117 -4.938307
v 0.667500 -1.267000 -4.939000
v 0.666544 -1.269883 -4.938307
v 0.665778 -1.272195 -4.936365
v 0.665353 -1.273478 -4.933558
v 0.665353 -1.273478 -4.930442
v 0.665778 -1.272195 -4.927636
v 0.666544 -1.269883 -4.925694
v 0.667500 -1.267000 -4.925000
v 0.634064 -1.252717 -4.925694
v 0.634830 -1.250405 -4.927636
v 0.635255 -1.249122 -4.930442
v 0.635255 -1.249122 -4.933558
v 0.634830 -1.250405 -4.936365
v 0.634064 -1.252717 -4.938307
v 0.633108 -1.255600 -4.939000
v 0.632152 -1.258483 -4.938307
v 0.631386 -1.260795 -4.936365
v 0.630961 -1.262078 -4.933558
v 0.630961 -1.262078 -4.930442
v 0.631386 -1.260795 -4.927636
v 0.632152 -1.258483 -4.925694
v 0.633108 -1.255600 -4.925000
v 0.743717 -1.228476 -4.758807
v 0.743489 -1.226051 -4.756865
v 0.743363 -1.224705 -4.754058
v 0.743363 -1.224705 -4.750942
v 0.743489 -1.226051 -4.748136
v 0.743717 -1.228476 -4.746193
v 0.744000 -1.231500 -4.745500
v 0.744283 -1.234524 -4.746193
v 0.744511 -1.236949 -4.748136
v 0.744637 -1.238295 -4.750942
v 0.744637 -1.238295 -4.754058
v 0.744511 -1.236949 -4.756865
v 0.744283 -1.234524 -4.758807
v 0.744000 -1.231500 -4.759500
v 0.767717 -1.226226 -4.758807
v 0.767489 -1.223801 -4.756865
v 0.767363 -1.222455 -4.754058
v 0.767363 -1.222455 -4.750942
v 0.767489 -1.223801 -4.748136
v 0.767717 -1.226226 -4.746193
v 0.768000 -1.229250 -4.745500
v 0.768283 -1.232274 -4.746193
v 0.768511 -1.234699 -4.748136
v 0.768637 -1.236045 -4.750942
v 0.768637 -1.236045 -4.754058
v 0.768511 -1.234699 -4.756865
v 0.768283 -1.232274 -4.758807
v 0.768000 -1.229250 -4.759500
v 0.743524 -1.007391 -4.667807
v 0.744346 -1.005098 -4.665864
v 0.744802 -1.003825 -4.663058
v 0.744802 -1.003825 -4.659942
v 0.744346 -1.005098 -4.657135
v 0.743524 -1.007391 -4.655193
v 0.742500 -1.010250 -4.654500
v 0.741476 -1.013109 -4.655193
v 0.740654 -1.015402 -4.657135
v 0.740198 -1.016675 -4.659942
v 0.740198 -1.016675 -4.663058
v 0.740654 -1.015402 -4.665864
v 0.741476 -1.013109 -4.667807
v 0.742500 -1.010250 -4.668500
v 0.765574 -1.015291 -4.667807
v 0.766396 -1.012998 -4.665864
v 0.766852 -1.011725 -4.663058
v 0.766852 -1.011725 -4.659942
v 0.766396 -1.012998 -4.657135
v 0.765574 -1.015291 -4.655193
v 0.764550 -1.018150 -4.654500
v 0.763526 -1.021009 -4.655193
v 0.762704 -1.023302 -4.657135
v 0.762248 -1.024575 -4.659942
v 0.762248 -1.024575 -4.663058
v 0.762704 -1.023302 -4.665864
v 0.763526 -1.021009 -4.667807
v 0.764550 -1.018150 -4.668500
v 0.651604 -1.244228 -4.790807
v 0.653960 -1.243608 -4.788865
v 0.655267 -1.243264 -4.786058
v 0.655267 -1.243264 -4.782942
v 0.653960 -1.243608 -4.780136
v 0.651604 -1.244228 -4.778193
v 0.648667 -1.245000 -4.777500
v 0.645730 -1.245772 -4.778193
v 0.643374 -1.246392 -4.780136
v 0.642067 -1.246736 -4.782942
v 0.642067 -1.246736 -4.786058
v 0.643374 -1.246392 -4.788865
v 0.645730 -1.245772 -4.790807
v 0.648667 -1.245000 -4.791500
v 0.661352 -1.281298 -4.790807
v 0.663708 -1.280678 -4.788865
v 0.665015 -1.280334 -4.786058
v 0.665015 -1.280334 -4.782942
v 0.663708 -1.280678 -4.780136
v 0.661352 -1.281298 -4.778193
v 0.658415 -1.282070 -4.777500
v 0.655478 -1.282842 -4.778193
v 0.653122 -1.283462 -4.780136
v 0.651815 -1.283806 -4.782942
v 0.651815 -1.283806 -4.786058
v 0.653122 -1.283462 -4.788865
v 0.655478 -1.282842 -4.790807
v 0.658415 -1.282070 -4.791500
v 0.723042 -0.996654 -4.789307
v 0.725381 -0.995976 -4.787364
v 0.726680 -0.995600 -4.784558
v 0.726680 -0.995600 -4.781442
v 0.725381 -0.995976 -4.778636
v 0.723042 -0.996654 -4.776693
v 0.720125 -0.997500 -4.776000
v 0.717208 -0.998346 -4.776693
v 0.714869 -0.999024 -4.778636
v 0.713570 -0.999400 -4.781442
v 0.713570 -0.999400 -4.784558
v 0.714869 -0.999024 -4.787364
v 0.717208 -0.998346 -4.789307
v 0.720125 -0.997500 -4.790000
v 0.728260 -1.014654 -4.789307
v 0.730599 -1.013976 -4.787364
v 0.731898 -1.013600 -4.784558
v 0.731898 -1.013600 -4.781442
v 0.730599 -1.013976 -4.778636
v 0.728260 -1.014654 -4.776693
v 0.725343 -1.015500 -4.776000
v 0.722426 -1.016346 -4.776693
v 0.720087 -1.017024 -4.778636
v 0.718788 -1.017400 -4.781442
v 0.718788 -1.017400 -4.784558
v 0.720087 -1.017024 -4.787364
v 0.722426 -1.016346 -4.789307
v 0.725343 -1.015500 -4.790000
vn 0.2844 0.3276 0.9010
vn 0.0000 0.0000 1.0000
vn 0.5125 0.5903 0.6235
vn 0.6392 0.7361 0.2225
vn 0.6392 0.7361 -0.2225
vn 0.5125 0.5903 -0.6235
vn 0.2844 0.3276 -0.9010
vn 0.0000 0.0000 -1.0000
vn -0.2844 -0.3276 -0.9010
vn -0.5125 -0.5903 -0.6235
vn -0.6392 -0.7361 -0.2225
vn -0.6392 -0.7361 0.2225
vn -0.5125 -0.5903 0.6235
vn -0.2844 -0.3276 0.9010
vn 0.0144 0.4336 -0.9010
vn 0.0259 0.7814 -0.6235
vn 0.0323 0.9744 -0.2225
vn 0.0323 0.9744 0.2225
vn 0.0259 0.7814 0.6235
vn 0.0144 0.4336 0.9010
vn -0.0144 -0.4336 0.9010
vn -0.0259 -0.7814 0.6235
vn -0.0324 -0.9744 0.2225
vn -0.0323 -0.9744 -0.2225
vn -0.0259 -0.7814 -0.6235
vn -0.0144 -0.4336 -0.9010
vn 0.2058 0.3819 -0.9009
vn 0.3709 0.6882 -0.6235
vn 0.4625 0.8582 -0.2225
vn 0.4625 0.8582 0.2225
vn 0.3709 0.6882 0.6235
vn 0.2058 0.3819 0.9010
vn -0.2058 -0.3819 0.9010
vn -0.3709 -0.6882 0.6235
vn -0.4625 -0.8582 0.2225
vn -0.4625 -0.8582 -0.2225
vn -0.3709 -0.6882 -0.6235
vn -0.2058 -0.3819 -0.9010
vn 0.1365 0.4118 0.9010
vn 0.2460 0.7421 0.6235
vn 0.3067 0.9254 0.2225
vn 0.3067 0.9254 -0.2225
vn 0.2460 0.7421 -0.6235
vn 0.1365 0.4118 -0.9010
vn -0.1365 -0.4118 -0.9010
vn -0.2460 -0.7421 -0.6235
vn -0.3067 -0.9254 -0.2225
vn -0.3067 -0.9254 0.2225
vn -0.2459 -0.7421 0.6235
vn -0.1365 -0.4118 0.9010
vn -0.0405 0.4320 -0.9010
vn -0.0730 0.7784 -0.6235
vn -0.0910 0.9707 -0.2225
vn -0.0910 0.9707 0.2225
vn -0.0730 0.7784 0.6235
vn -0.0405 0.4320 0.9010
vn 0.0405 -0.4320 0.9010
vn 0.0730 -0.7784 0.6235
vn 0.0910 -0.9706 0.2225
vn 0.0910 -0.9706 -0.2225
vn 0.0730 -0.7784 -0.6235
vn 0.0405 -0.4320 -0.9010
vn 0.1463 0.4084 -0.9010
vn 0.2636 0.7360 -0.6235
vn 0.3288 0.9178 -0.2225
vn 0.3288 0.9178 0.2225
vn 0.2637 0.7360 0.6235
vn 0.1463 0.4084 0.9010
vn -0.1463 -0.4084 0.9010
vn -0.2637 -0.7360 0.6235
vn -0.3288 -0.9178 0.2225
vn -0.3288 -0.9178 -0.2225
vn -0.2637 -0.7360 -0.6235
vn -0.1463 -0.4084 -0.9010
vn 0.4196 0.1103 -0.9010
vn 0.7561 0.1988 -0.6235
vn 0.9429 0.2479 -0.2225
vn 0.9428 0.2479 0.2225
vn 0.9429 0.2479 0.2225
vn 0.7561 0.1988 0.6235
vn 0.4196 0.1103 0.9010
vn -0.4196 -0.1103 0.9010
vn -0.7561 -0.1988 0.6235
vn -0.9429 -0.2479 0.2225
vn -0.9429 -0.2479 -0.2225
vn -0.7561 -0.1988 -0.6235
vn -0.4196 -0.1103 -0.9010
vn 0.4167 0.1208 -0.9010
vn 0.7508 0.2177 -0.6235
vn 0.9364 0.2714 -0.2225
vn 0.9364 0.2714 0.2225
vn 0.7509 0.2177 0.6235
vn 0.4167 0.1208 0.9010
vn -0.4167 -0.1208 0.9010
vn -0.7509 -0.2177 0.6235
vn -0.9363 -0.2714 0.2225
vn -0.9364 -0.2714 -0.2225
vn -0.7509 -0.2177 -0.6235
vn -0.4168 -0.1208 -0.9009
s 1
f 1//1 15//1 28//2 14//2
f 2//3 16//3 15//1 1//1
f 3//4 17//4 16//3 2//3
f 4//5 18//5 17//4 3//4
f 5//6 19//6 18//5 4//5
f 6//7 20//7 19//6 5//6
f 7//8 21//8 20//7 6//7
f 8//9 22//9 21//8 7//8
f 9//10 23//10 22//9 8//9
f 10//11 24//11 23//10 9//10
f 11//12 25//12 24//11 10//11
f 12//13 26//13 25//12 11//12
f 13//14 27//14 26//13 12//13
f 14//2 28//2 27//14 13//14
f 29//15 43//15 56//8 42//8
f 30//16 44//16 43//15 29//15
f 31//17 45//17 44//16 30//16
f 32//18 46//18 45//17 31//17
f 33//19 47//19 46//18 32//18
f 34//20 48//20 47//19 33//19
f 35//2 49//2 48//20 34//20
f 36//21 50//21 49//2 35//2
f 37//22 51//22 50//21 36//21
f 38//23 52//23 51//22 37//22
f 39//24 53//24 52//23 38//23
f 40//25 54//25 53//24 39//24
f 41//26 55//26 54//25 40//25
f 42//8 56//8 55//26 41//26
f 57//27 71//27 84//8 70//8
f 58//28 72//28 71//27 57//27
f 59//29 73//29 72//28 58//28
f 60//30 74//30 73//29 59//29
f 61//31 75//31 74//30 60//30
f 62//32 76//32 75//31 61//31
f 63//2 77//2 76//32 62//32
f 64//33 78//33 77//2 63//2
f 65//34 79//34 78//33 64//33
f 66//35 80//35 79//34 65//34
f 67//36 81//36 80//35 66//35
f 68//37 82//37 81//36 67//36
f 69//38 83//38 82//37 68//37
f 70//8 84//8 83//38 69//38
f 85//39 99//39 112//2 98//2
f 86//40 100//40 99//39 85//39
f 87//41 101//41 100//40 86//40
f 88//42 102//42 101//41 87//41
f 89//43 103//43 102//42 88//42
f 90//44 104//44 103//43 89//43
f 91//8 105//8 104//44 90//44
f 92//45 106//45 105//8 91//8
f 93//46 107//46 106//45 92//45
f 94//47 108//47 107//46 93//46
f 95//48 109//48 108//47 94//47
f 96//49 110//49 109//48 95//48
f 97//50 111//50 110//49 96//49
f 98//2 112//2 111//50 97//50
f 113//51 127//51 140//8 126//8
f 114//52 128//52 127//51 113//51
f 115//53 129//53 128//52 114//52
f 116//54 130//54 129//53 115//53
f 117//55 131//55 130//54 116//54
f 118//56 132//56 131//55 117//55
f 119//2 133//2 132//56 118//56
f 120//57 134//57 133//2 119//2
f 121//58 135//58 134//57 120//57
f 122//59 136//59 135//58 121//58
f 123//60 137//60 136//59 122//59
f 124//61 138//61 137//60 123//60
f 125//62 139//62 138//61 124//61
f 126//8 140//8 139//62 125//62
f 141//63 155//63 168//8 154//8
f 142//64 156//64 155//63 141//63
f 143//65 157//65 156//64 142//64
f 144//66 158//66 157//65 143//65
f 145//67 159//67 158//66 144//66
f 146//68 160//68 159//67 145//67
f 147//2 161//2 160//68 146//68
f 148//69 162//69 161//2 147//2
f 149//70 163//70 162//69 148//69
f 150//71 164//71 163//70 149//70
f 151//72 165//72 164//71 150//71
f 152//73 166//73 165//72 151//72
f 153//74 167//74 166//73 152//73
f 154//8 168//8 167//74 153//74
f 169//75 183//75 196//8 182//8
f 170//76 184//76 183//75 169//75
f 171//77 185//77 184//76 170//76
f 172//78 186//79 185//77 171//77
f 173//80 187//80 186//79 172//78
f 174//81 188//81 187//80 173//80
f 175//2 189//2 188//81 174//81
f 176//82 190//82 189//2 175//2
f 177//83 191//83 190//82 176//82
f 178//84 192//84 191//83 177//83
f 179//85 193//85 192//84 178//84
f 180//86 194//86 193//85 179//85
f 181//87 195//87 194//86 180//86
f 182//8 196//8 195//87 181//87
f 197//88 211//88 224//8 210//8
f 198//89 212//89 211//88 197//88
f 199//90 213//90 212//89 198//89
f 200//91 214//91 213//90 199//90
f 201//92 215//92 214//91 200//91
f 202//93 216//93 215//92 201//92
f 203//2 217//2 216//93 202//93
f 204//94 218//94 217//2 203//2
f 205//95 219//95 218//94 204//94
f 206//96 220//96 219//95 205//95
f 207//97 221//97 220//96 206//96
f 208//98 222//98 221//97 207//97
f 209//99 223//99 222//98 208//98
f 210//8 224//8 223//99 209//99
