# Blender v2.78 (sub 0) OBJ File: ''
# www.blender.org
mtllib Inputs of 54150 - ASHR.mtl
o Inputs_of_54150_-_[ASHR.]
v 0.749762 -1.212744 -4.868193
v 0.749833 -1.210310 -4.870135
v 0.749873 -1.208959 -4.872942
v 0.749873 -1.208959 -4.876058
v 0.749833 -1.210310 -4.878864
v 0.749762 -1.212744 -4.880806
v 0.749672 -1.215780 -4.881500
v 0.749582 -1.218816 -4.880806
v 0.749511 -1.221250 -4.878864
v 0.749471 -1.222602 -4.876058
v 0.749471 -1.222602 -4.872942
v 0.749511 -1.221250 -4.870135
v 0.749582 -1.218816 -4.868193
v 0.749672 -1.215780 -4.867500
v 0.714840 -1.211714 -4.868193
v 0.714911 -1.209280 -4.870135
v 0.714951 -1.207929 -4.872942
v 0.714951 -1.207929 -4.876058
v 0.714911 -1.209280 -4.878864
v 0.714840 -1.211714 -4.880806
v 0.714750 -1.214750 -4.881500
v 0.714660 -1.217786 -4.880806
v 0.714589 -1.220220 -4.878864
v 0.714549 -1.221572 -4.876058
v 0.714549 -1.221572 -4.872942
v 0.714589 -1.220220 -4.870135
v 0.714660 -1.217786 -4.868193
v 0.714750 -1.214750 -4.867500
v 0.848904 -1.150898 -4.844306
v 0.847373 -1.149003 -4.842364
v 0.846523 -1.147952 -4.839558
v 0.846524 -1.147952 -4.836442
v 0.847373 -1.149003 -4.833635
v 0.848904 -1.150898 -4.831693
v 0.850813 -1.153260 -4.831000
v 0.852722 -1.155622 -4.831693
v 0.854253 -1.157517 -4.833635
v 0.855102 -1.158568 -4.836442
v 0.855102 -1.158568 -4.839558
v 0.854253 -1.157517 -4.842364
v 0.852722 -1.155622 -4.844306
v 0.850813 -1.153260 -4.845000
v 0.909241 -1.102138 -4.844306
v 0.907710 -1.100243 -4.842364
v 0.906860 -1.099192 -4.839558
v 0.906860 -1.099192 -4.836442
v 0.907710 -1.100243 -4.833635
v 0.909241 -1.102138 -4.831693
v 0.911150 -1.104500 -4.831000
v 0.913059 -1.106862 -4.831693
v 0.914590 -1.108757 -4.833635
v 0.915439 -1.109808 -4.836442
v 0.915439 -1.109808 -4.839558
v 0.914590 -1.108757 -4.842364
v 0.913059 -1.106862 -4.844306
v 0.911150 -1.104500 -4.845000
v 0.926546 -0.950486 -4.730807
v 0.925179 -0.948470 -4.728865
v 0.924421 -0.947351 -4.726058
v 0.924421 -0.947351 -4.722942
v 0.925179 -0.948470 -4.720136
v 0.926546 -0.950486 -4.718194
v 0.928250 -0.953000 -4.717500
v 0.929954 -0.955514 -4.718194
v 0.931321 -0.957530 -4.720136
v 0.932079 -0.958649 -4.722942
v 0.932079 -0.958649 -4.726058
v 0.931321 -0.957530 -4.728865
v 0.929954 -0.955514 -4.730807
v 0.928250 -0.953000 -4.731500
v 0.965496 -0.924086 -4.730807
v 0.964129 -0.922070 -4.728865
v 0.963371 -0.920951 -4.726058
v 0.963371 -0.920951 -4.722942
v 0.964129 -0.922070 -4.720136
v 0.965496 -0.924086 -4.718194
v 0.967200 -0.926600 -4.717500
v 0.968904 -0.929114 -4.718194
v 0.970271 -0.931130 -4.720136
v 0.971029 -0.932249 -4.722942
v 0.971029 -0.932249 -4.726058
v 0.970271 -0.931130 -4.728865
v 0.968904 -0.929114 -4.730807
v 0.967200 -0.926600 -4.731500
v 0.988191 -0.842978 -4.610307
v 0.990216 -0.841624 -4.608365
v 0.991339 -0.840873 -4.605558
v 0.991339 -0.840873 -4.602442
v 0.990216 -0.841624 -4.599636
v 0.988191 -0.842978 -4.597693
v 0.985667 -0.844667 -4.597000
v 0.983142 -0.846356 -4.597693
v 0.981118 -0.847710 -4.599636
v 0.979995 -0.848461 -4.602442
v 0.979995 -0.848461 -4.605558
v 0.981118 -0.847710 -4.608365
v 0.983142 -0.846356 -4.610307
v 0.985667 -0.844667 -4.611000
v 1.021525 -0.892811 -4.610307
v 1.023549 -0.891457 -4.608365
v 1.024673 -0.890706 -4.605558
v 1.024673 -0.890706 -4.602442
v 1.023549 -0.891457 -4.599636
v 1.021525 -0.892811 -4.597693
v 1.019000 -0.894500 -4.597000
v 1.016476 -0.896189 -4.597693
v 1.014451 -0.897543 -4.599636
v 1.013328 -0.898294 -4.602442
v 1.013328 -0.898294 -4.605558
v 1.014451 -0.897543 -4.608365
v 1.016476 -0.896189 -4.610307
v 1.019000 -0.894500 -4.611000
v 0.918888 -0.628492 -4.554307
v 0.919165 -0.626073 -4.552364
v 0.919318 -0.624730 -4.549558
v 0.919318 -0.624730 -4.546442
v 0.919165 -0.626073 -4.543635
v 0.918888 -0.628493 -4.541693
v 0.918543 -0.631510 -4.541000
v 0.918198 -0.634528 -4.541693
v 0.917921 -0.636947 -4.543635
v 0.917768 -0.638290 -4.546442
v 0.917768 -0.638290 -4.549558
v 0.917921 -0.636947 -4.552364
v 0.918198 -0.634528 -4.554307
v 0.918543 -0.631510 -4.555000
v 0.948678 -0.631899 -4.554307
v 0.948955 -0.629480 -4.552364
v 0.949108 -0.628137 -4.549558
v 0.949108 -0.628137 -4.546442
v 0.948955 -0.629480 -4.543635
v 0.948678 -0.631900 -4.541693
v 0.948333 -0.634917 -4.541000
v 0.947988 -0.637935 -4.541693
v 0.947711 -0.640354 -4.543635
v 0.947558 -0.641697 -4.546442
v 0.947558 -0.641697 -4.549558
v 0.947711 -0.640354 -4.552364
v 0.947988 -0.637935 -4.554307
v 0.948333 -0.634917 -4.555000
vn 0.0128 0.4337 0.9010
vn 0.0000 0.0000 1.0000
vn 0.0230 0.7815 0.6235
vn 0.0287 0.9745 0.2225
vn 0.0287 0.9745 -0.2225
vn 0.0230 0.7815 -0.6235
vn 0.0128 0.4337 -0.9010
vn 0.0000 0.0000 -1.0000
vn -0.0128 -0.4337 -0.9010
vn -0.0230 -0.7815 -0.6235
vn -0.0287 -0.9745 -0.2225
vn -0.0287 -0.9745 0.2225
vn -0.0230 -0.7815 0.6235
vn -0.0128 -0.4337 0.9010
vn -0.2727 0.3374 -0.9009
vn -0.4914 0.6081 -0.6235
vn -0.6128 0.7583 -0.2225
vn -0.6128 0.7583 0.2225
vn -0.4914 0.6081 0.6235
vn -0.2727 0.3374 0.9010
vn 0.2727 -0.3374 0.9010
vn 0.4914 -0.6081 0.6235
vn 0.6128 -0.7583 0.2225
vn 0.6128 -0.7583 -0.2225
vn 0.4914 -0.6081 -0.6235
vn 0.2727 -0.3374 -0.9010
vn -0.2434 0.3591 -0.9010
vn -0.4386 0.6471 -0.6235
vn -0.5470 0.8070 -0.2225
vn -0.5470 0.8070 0.2225
vn -0.4386 0.6471 0.6235
vn -0.2434 0.3591 0.9010
vn 0.2434 -0.3591 0.9010
vn 0.4386 -0.6471 0.6235
vn 0.5470 -0.8070 0.2225
vn 0.5470 -0.8070 -0.2225
vn 0.4387 -0.6471 -0.6235
vn 0.2434 -0.3591 -0.9009
vn 0.3606 0.2412 -0.9010
vn 0.6498 0.4347 -0.6235
vn 0.8104 0.5420 -0.2225
vn 0.8104 0.5420 0.2225
vn 0.6498 0.4347 0.6235
vn 0.6498 0.4346 0.6235
vn 0.3606 0.2412 0.9010
vn -0.3606 -0.2412 0.9010
vn -0.6498 -0.4347 0.6235
vn -0.8104 -0.5420 0.2225
vn -0.8104 -0.5420 -0.2225
vn -0.6498 -0.4347 -0.6235
vn -0.3606 -0.2412 -0.9010
vn 0.0493 0.4310 -0.9010
vn 0.0888 0.7767 -0.6235
vn 0.1108 0.9686 -0.2225
vn 0.1108 0.9686 0.2225
vn 0.0888 0.7767 0.6235
vn 0.0493 0.4310 0.9010
vn -0.0493 -0.4310 0.9010
vn -0.0888 -0.7767 0.6235
vn -0.1108 -0.9686 0.2225
vn -0.1108 -0.9686 -0.2225
vn -0.0888 -0.7767 -0.6235
vn -0.0493 -0.4310 -0.9010
s 1
f 1//1 15//1 28//2 14//2
f 2//3 16//3 15//1 1//1
f 3//4 17//4 16//3 2//3
f 4//5 18//5 17//4 3//4
f 5//6 19//6 18//5 4//5
f 6//7 20//7 19//6 5//6
f 7//8 21//8 20//7 6//7
f 8//9 22//9 21//8 7//8
f 9//10 23//10 22//9 8//9
f 10//11 24//11 23//10 9//10
f 11//12 25//12 24//11 10//11
f 12//13 26//13 25//12 11//12
f 13//14 27//14 26//13 12//13
f 14//2 28//2 27//14 13//14
f 29//15 43//15 56//8 42//8
f 30//16 44//16 43//15 29//15
f 31//17 45//17 44//16 30//16
f 32//18 46//18 45//17 31//17
f 33//19 47//19 46//18 32//18
f 34//20 48//20 47//19 33//19
f 35//2 49//2 48//20 34//20
f 36//21 50//21 49//2 35//2
f 37//22 51//22 50//21 36//21
f 38//23 52//23 51//22 37//22
f 39//24 53//24 52//23 38//23
f 40//25 54//25 53//24 39//24
f 41//26 55//26 54//25 40//25
f 42//8 56//8 55//26 41//26
f 57//27 71//27 84//8 70//8
f 58//28 72//28 71//27 57//27
f 59//29 73//29 72//28 58//28
f 60//30 74//30 73//29 59//29
f 61//31 75//31 74//30 60//30
f 62//32 76//32 75//31 61//31
f 63//2 77//2 76//32 62//32
f 64//33 78//33 77//2 63//2
f 65//34 79//34 78//33 64//33
f 66//35 80//35 79//34 65//34
f 67//36 81//36 80//35 66//35
f 68//37 82//37 81//36 67//36
f 69//38 83//38 82//37 68//37
f 70//8 84//8 83//38 69//38
f 85//39 99//39 112//8 98//8
f 86//40 100//40 99//39 85//39
f 87//41 101//41 100//40 86//40
f 88//42 102//42 101//41 87//41
f 89//43 103//44 102//42 88//42
f 90//45 104//45 103//44 89//43
f 91//2 105//2 104//45 90//45
f 92//46 106//46 105//2 91//2
f 93//47 107//47 106//46 92//46
f 94//48 108//48 107//47 93//47
f 95//49 109//49 108//48 94//48
f 96//50 110//50 109//49 95//49
f 97//51 111//51 110//50 96//50
f 98//8 112//8 111//51 97//51
f 113//52 127//52 140//8 126//8
f 114//53 128//53 127//52 113//52
f 115//54 129//54 128//53 114//53
f 116//55 130//55 129//54 115//54
f 117//56 131//56 130//55 116//55
f 118//57 132//57 131//56 117//56
f 119//2 133//2 132//57 118//57
f 120//58 134//58 133//2 119//2
f 121//59 135//59 134//58 120//58
f 122//60 136//60 135//59 121//59
f 123//61 137//61 136//60 122//60
f 124//62 138//62 137//61 123//61
f 125//63 139//63 138//62 124//62
f 126//8 140//8 139//63 125//63
