# Blender v2.78 (sub 0) OBJ File: ''
# www.blender.org
o Inputs_of_432_-_[ASIL.]
v 0.270761 -0.981010 -4.746306
v 0.268764 -0.979614 -4.744364
v 0.267657 -0.978840 -4.741558
v 0.267657 -0.978840 -4.738442
v 0.268764 -0.979614 -4.735635
v 0.270761 -0.981010 -4.733693
v 0.273250 -0.982750 -4.733000
v 0.275739 -0.984490 -4.733693
v 0.277736 -0.985886 -4.735635
v 0.278843 -0.986660 -4.738442
v 0.278843 -0.986660 -4.741558
v 0.277736 -0.985886 -4.744364
v 0.275739 -0.984490 -4.746306
v 0.273250 -0.982750 -4.747000
v 0.288761 -0.955260 -4.746306
v 0.286764 -0.953864 -4.744364
v 0.285657 -0.953090 -4.741558
v 0.285657 -0.953090 -4.738442
v 0.286764 -0.953865 -4.735635
v 0.288761 -0.955260 -4.733693
v 0.291250 -0.957000 -4.733000
v 0.293739 -0.958740 -4.733693
v 0.295736 -0.960136 -4.735635
v 0.296843 -0.960910 -4.738442
v 0.296843 -0.960910 -4.741558
v 0.295736 -0.960136 -4.744364
v 0.293739 -0.958740 -4.746306
v 0.291250 -0.957000 -4.747000
v 0.461528 -1.247169 -4.842193
v 0.463957 -1.246984 -4.844135
v 0.465305 -1.246881 -4.846942
v 0.465305 -1.246881 -4.850058
v 0.463957 -1.246984 -4.852864
v 0.461528 -1.247169 -4.854806
v 0.458500 -1.247400 -4.855500
v 0.455472 -1.247631 -4.854806
v 0.453043 -1.247817 -4.852864
v 0.451695 -1.247919 -4.850058
v 0.451695 -1.247919 -4.846942
v 0.453043 -1.247817 -4.844135
v 0.455472 -1.247631 -4.842193
v 0.458500 -1.247400 -4.841500
v 0.460028 -1.227519 -4.842193
v 0.462457 -1.227333 -4.844135
v 0.463805 -1.227231 -4.846942
v 0.463805 -1.227231 -4.850058
v 0.462457 -1.227333 -4.852864
v 0.460028 -1.227519 -4.854806
v 0.457000 -1.227750 -4.855500
v 0.453972 -1.227981 -4.854806
v 0.451543 -1.228166 -4.852864
v 0.450195 -1.228269 -4.850058
v 0.450195 -1.228269 -4.846942
v 0.451543 -1.228166 -4.844135
v 0.453972 -1.227981 -4.842193
v 0.457000 -1.227750 -4.841500
v 0.338831 -1.236354 -4.823194
v 0.341182 -1.235716 -4.825136
v 0.342486 -1.235362 -4.827942
v 0.342486 -1.235362 -4.831058
v 0.341182 -1.235716 -4.833865
v 0.338831 -1.236354 -4.835807
v 0.335900 -1.237150 -4.836500
v 0.332969 -1.237945 -4.835807
v 0.330618 -1.238583 -4.833865
v 0.329314 -1.238937 -4.831058
v 0.329314 -1.238937 -4.827942
v 0.330618 -1.238583 -4.825136
v 0.332969 -1.237945 -4.823194
v 0.335900 -1.237150 -4.822500
v 0.321931 -1.174085 -4.823194
v 0.324282 -1.173447 -4.825136
v 0.325586 -1.173092 -4.827942
v 0.325586 -1.173092 -4.831058
v 0.324282 -1.173447 -4.833865
v 0.321931 -1.174085 -4.835807
v 0.319000 -1.174880 -4.836500
v 0.316069 -1.175676 -4.835807
v 0.313718 -1.176314 -4.833865
v 0.312414 -1.176668 -4.831058
v 0.312414 -1.176668 -4.827942
v 0.313718 -1.176314 -4.825136
v 0.316069 -1.175676 -4.823194
v 0.319000 -1.174880 -4.822500
v 0.342197 -1.238213 -4.838807
v 0.342195 -1.235777 -4.836864
v 0.342194 -1.234426 -4.834058
v 0.342194 -1.234426 -4.830942
v 0.342195 -1.235777 -4.828135
v 0.342197 -1.238213 -4.826193
v 0.342200 -1.241250 -4.825500
v 0.342203 -1.244287 -4.826193
v 0.342205 -1.246723 -4.828135
v 0.342206 -1.248075 -4.830942
v 0.342206 -1.248075 -4.834058
v 0.342205 -1.246723 -4.836864
v 0.342203 -1.244287 -4.838807
v 0.342200 -1.241250 -4.839500
v 0.460897 -1.238113 -4.838807
v 0.460895 -1.235677 -4.836864
v 0.460894 -1.234326 -4.834058
v 0.460894 -1.234326 -4.830942
v 0.460895 -1.235677 -4.828135
v 0.460897 -1.238113 -4.826193
v 0.460900 -1.241150 -4.825500
v 0.460903 -1.244187 -4.826193
v 0.460905 -1.246623 -4.828135
v 0.460906 -1.247975 -4.830942
v 0.460906 -1.247975 -4.834058
v 0.460905 -1.246623 -4.836864
v 0.460903 -1.244187 -4.838807
v 0.460900 -1.241150 -4.839500
v 0.496233 -1.309696 -4.923693
v 0.498666 -1.309572 -4.925635
v 0.500016 -1.309503 -4.928442
v 0.500016 -1.309503 -4.931558
v 0.498666 -1.309572 -4.934364
v 0.496233 -1.309696 -4.936306
v 0.493200 -1.309850 -4.937000
v 0.490167 -1.310004 -4.936306
v 0.487734 -1.310128 -4.934364
v 0.486384 -1.310197 -4.931558
v 0.486384 -1.310197 -4.928442
v 0.487734 -1.310128 -4.925635
v 0.490167 -1.310004 -4.923693
v 0.493200 -1.309850 -4.923000
v 0.494483 -1.275296 -4.923693
v 0.496916 -1.275172 -4.925635
v 0.498266 -1.275103 -4.928442
v 0.498266 -1.275103 -4.931558
v 0.496916 -1.275172 -4.934364
v 0.494483 -1.275296 -4.936306
v 0.491450 -1.275450 -4.937000
v 0.488417 -1.275604 -4.936306
v 0.485984 -1.275728 -4.934364
v 0.484634 -1.275797 -4.931558
v 0.484634 -1.275797 -4.928442
v 0.485984 -1.275728 -4.925635
v 0.488417 -1.275604 -4.923693
v 0.491450 -1.275450 -4.923000
v 0.351857 -1.242221 -4.830194
v 0.354149 -1.241395 -4.832136
v 0.355421 -1.240937 -4.834942
v 0.355421 -1.240937 -4.838058
v 0.354149 -1.241395 -4.840865
v 0.351857 -1.242221 -4.842807
v 0.349000 -1.243250 -4.843500
v 0.346143 -1.244279 -4.842807
v 0.343851 -1.245105 -4.840865
v 0.342579 -1.245563 -4.838058
v 0.342579 -1.245563 -4.834942
v 0.343851 -1.245105 -4.832136
v 0.346143 -1.244279 -4.830194
v 0.349000 -1.243250 -4.829500
v 0.332357 -1.188091 -4.830194
v 0.334649 -1.187265 -4.832136
v 0.335921 -1.186807 -4.834942
v 0.335921 -1.186807 -4.838058
v 0.334649 -1.187265 -4.840865
v 0.332357 -1.188091 -4.842807
v 0.329500 -1.189120 -4.843500
v 0.326643 -1.190149 -4.842807
v 0.324351 -1.190975 -4.840865
v 0.323079 -1.191433 -4.838058
v 0.323079 -1.191433 -4.834942
v 0.324351 -1.190975 -4.832136
v 0.326643 -1.190149 -4.830194
v 0.329500 -1.189120 -4.829500
vn -0.3556 0.2486 -0.9010
vn 0.0001 0.0000 -1.0000
vn -0.6408 0.4479 -0.6235
vn -0.7990 0.5585 -0.2225
vn -0.7990 0.5585 0.2225
vn -0.6408 0.4479 0.6235
vn -0.3556 0.2486 0.9010
vn 0.0000 0.0000 1.0000
vn 0.3556 -0.2486 0.9010
vn 0.6408 -0.4479 0.6235
vn 0.7990 -0.5585 0.2225
vn 0.7990 -0.5585 -0.2225
vn 0.6408 -0.4479 -0.6235
vn 0.3557 -0.2485 -0.9009
vn 0.4326 0.0330 0.9010
vn 0.7795 0.0595 0.6235
vn 0.9721 0.0742 0.2225
vn 0.9721 0.0742 -0.2225
vn 0.7795 0.0595 -0.6235
vn 0.4326 0.0330 -0.9010
vn 0.0000 0.0000 -1.0000
vn -0.4326 -0.0330 -0.9010
vn -0.7795 -0.0595 -0.6235
vn -0.9721 -0.0742 -0.2225
vn -0.9721 -0.0742 0.2225
vn -0.7795 -0.0595 0.6235
vn -0.4326 -0.0330 0.9010
vn 0.4187 0.1136 0.9009
vn 0.7545 0.2048 0.6235
vn 0.9409 0.2553 0.2225
vn 0.9409 0.2553 -0.2225
vn 0.7545 0.2047 -0.6235
vn 0.4187 0.1136 -0.9010
vn -0.4187 -0.1136 -0.9010
vn -0.7545 -0.2047 -0.6235
vn -0.9409 -0.2553 -0.2225
vn -0.9409 -0.2553 0.2225
vn -0.7545 -0.2048 0.6235
vn -0.4187 -0.1136 0.9009
vn -0.0003 0.4339 -0.9009
vn -0.0006 0.7818 -0.6235
vn -0.0008 0.9749 -0.2225
vn -0.0008 0.9749 0.2225
vn -0.0006 0.7818 0.6235
vn -0.0003 0.4339 0.9009
vn 0.0003 -0.4339 0.9010
vn 0.0006 -0.7818 0.6235
vn 0.0008 -0.9749 0.2225
vn 0.0008 -0.9749 -0.2225
vn 0.0006 -0.7818 -0.6235
vn 0.0003 -0.4339 -0.9010
vn 0.4333 0.0220 0.9010
vn 0.7808 0.0397 0.6235
vn 0.9737 0.0495 0.2225
vn 0.9737 0.0495 -0.2225
vn 0.7808 0.0397 -0.6235
vn 0.4333 0.0220 -0.9010
vn -0.4333 -0.0220 -0.9010
vn -0.7808 -0.0397 -0.6235
vn -0.9737 -0.0495 -0.2225
vn -0.9737 -0.0495 0.2225
vn -0.7808 -0.0397 0.6235
vn -0.4333 -0.0220 0.9010
vn 0.4082 0.1470 0.9010
vn 0.7356 0.2649 0.6235
vn 0.9172 0.3304 0.2225
vn 0.9172 0.3304 -0.2225
vn 0.7355 0.2650 -0.6235
vn 0.4082 0.1470 -0.9010
vn -0.4082 -0.1470 -0.9010
vn -0.7355 -0.2650 -0.6235
vn -0.9172 -0.3304 -0.2225
vn -0.9172 -0.3304 0.2225
vn -0.7356 -0.2650 0.6235
vn -0.4082 -0.1470 0.9010
s 1
f 1//1 15//1 28//2 14//2
f 2//3 16//3 15//1 1//1
f 3//4 17//4 16//3 2//3
f 4//5 18//5 17//4 3//4
f 5//6 19//6 18//5 4//5
f 6//7 20//7 19//6 5//6
f 7//8 21//8 20//7 6//7
f 8//9 22//9 21//8 7//8
f 9//10 23//10 22//9 8//9
f 10//11 24//11 23//10 9//10
f 11//12 25//12 24//11 10//11
f 12//13 26//13 25//12 11//12
f 13//14 27//14 26//13 12//13
f 14//2 28//2 27//14 13//14
f 29//15 43//15 56//8 42//8
f 30//16 44//16 43//15 29//15
f 31//17 45//17 44//16 30//16
f 32//18 46//18 45//17 31//17
f 33//19 47//19 46//18 32//18
f 34//20 48//20 47//19 33//19
f 35//21 49//21 48//20 34//20
f 36//22 50//22 49//21 35//21
f 37//23 51//23 50//22 36//22
f 38//24 52//24 51//23 37//23
f 39//25 53//25 52//24 38//24
f 40//26 54//26 53//25 39//25
f 41//27 55//27 54//26 40//26
f 42//8 56//8 55//27 41//27
f 57//28 71//28 84//8 70//8
f 58//29 72//29 71//28 57//28
f 59//30 73//30 72//29 58//29
f 60//31 74//31 73//30 59//30
f 61//32 75//32 74//31 60//31
f 62//33 76//33 75//32 61//32
f 63//21 77//21 76//33 62//33
f 64//34 78//34 77//21 63//21
f 65//35 79//35 78//34 64//34
f 66//36 80//36 79//35 65//35
f 67//37 81//37 80//36 66//36
f 68//38 82//38 81//37 67//37
f 69//39 83//39 82//38 68//38
f 70//8 84//8 83//39 69//39
f 85//40 99//40 112//21 98//21
f 86//41 100//41 99//40 85//40
f 87//42 101//42 100//41 86//41
f 88//43 102//43 101//42 87//42
f 89//44 103//44 102//43 88//43
f 90//45 104//45 103//44 89//44
f 91//8 105//8 104//45 90//45
f 92//46 106//46 105//8 91//8
f 93//47 107//47 106//46 92//46
f 94//48 108//48 107//47 93//47
f 95//49 109//49 108//48 94//48
f 96//50 110//50 109//49 95//49
f 97//51 111//51 110//50 96//50
f 98//21 112//21 111//51 97//51
f 113//52 127//52 140//8 126//8
f 114//53 128//53 127//52 113//52
f 115//54 129//54 128//53 114//53
f 116//55 130//55 129//54 115//54
f 117//56 131//56 130//55 116//55
f 118//57 132//57 131//56 117//56
f 119//21 133//21 132//57 118//57
f 120//58 134//58 133//21 119//21
f 121//59 135//59 134//58 120//58
f 122//60 136//60 135//59 121//59
f 123//61 137//61 136//60 122//60
f 124//62 138//62 137//61 123//61
f 125//63 139//63 138//62 124//62
f 126//8 140//8 139//63 125//63
f 141//64 155//64 168//8 154//8
f 142//65 156//65 155//64 141//64
f 143//66 157//66 156//65 142//65
f 144//67 158//67 157//66 143//66
f 145//68 159//68 158//67 144//67
f 146//69 160//69 159//68 145//68
f 147//21 161//21 160//69 146//69
f 148//70 162//70 161//21 147//21
f 149//71 163//71 162//70 148//70
f 150//72 164//72 163//71 149//71
f 151//73 165//73 164//72 150//72
f 152//74 166//74 165//73 151//73
f 153//75 167//75 166//74 152//74
f 154//8 168//8 167//75 153//75
