# Blender v2.78 (sub 0) OBJ File: ''
# www.blender.org
mtllib Inputs of 317 - PVCR.mtl
o Inputs_of_317_-_[PVCR.]
v 0.347808 -0.765825 -4.519693
v 0.345879 -0.764339 -4.521636
v 0.344808 -0.763514 -4.524442
v 0.344808 -0.763514 -4.527558
v 0.345879 -0.764339 -4.530365
v 0.347808 -0.765825 -4.532307
v 0.350214 -0.767679 -4.533000
v 0.352620 -0.769533 -4.532307
v 0.354549 -0.771019 -4.530365
v 0.355620 -0.771844 -4.527558
v 0.355620 -0.771844 -4.524442
v 0.354549 -0.771019 -4.521636
v 0.352620 -0.769533 -4.519693
v 0.350214 -0.767679 -4.519000
v 0.319094 -0.803096 -4.519693
v 0.317165 -0.801610 -4.521636
v 0.316094 -0.800785 -4.524442
v 0.316094 -0.800785 -4.527558
v 0.317165 -0.801610 -4.530365
v 0.319094 -0.803096 -4.532307
v 0.321500 -0.804950 -4.533000
v 0.323906 -0.806804 -4.532307
v 0.325835 -0.808290 -4.530365
v 0.326906 -0.809115 -4.527558
v 0.326906 -0.809115 -4.524442
v 0.325835 -0.808290 -4.521636
v 0.323906 -0.806804 -4.519693
v 0.321500 -0.804950 -4.519000
v 0.863201 -1.042805 -4.715193
v 0.865521 -1.042063 -4.717135
v 0.866808 -1.041652 -4.719942
v 0.866808 -1.041652 -4.723058
v 0.865521 -1.042063 -4.725864
v 0.863201 -1.042805 -4.727807
v 0.860308 -1.043730 -4.728500
v 0.857415 -1.044655 -4.727807
v 0.855095 -1.045397 -4.725864
v 0.853808 -1.045808 -4.723058
v 0.853808 -1.045808 -4.719942
v 0.855095 -1.045397 -4.717135
v 0.857415 -1.044655 -4.715193
v 0.860308 -1.043730 -4.714500
v 0.855115 -1.017515 -4.715193
v 0.857435 -1.016773 -4.717135
v 0.858722 -1.016362 -4.719942
v 0.858722 -1.016362 -4.723058
v 0.857435 -1.016773 -4.725864
v 0.855115 -1.017515 -4.727807
v 0.852222 -1.018440 -4.728500
v 0.849329 -1.019365 -4.727807
v 0.847009 -1.020107 -4.725864
v 0.845722 -1.020518 -4.723058
v 0.845722 -1.020518 -4.719942
v 0.847009 -1.020107 -4.717135
v 0.849329 -1.019365 -4.715193
v 0.852222 -1.018440 -4.714500
v 0.857448 -1.039261 -4.733693
v 0.859805 -1.038645 -4.735635
v 0.861112 -1.038303 -4.738442
v 0.861112 -1.038303 -4.741558
v 0.859805 -1.038645 -4.744364
v 0.857448 -1.039261 -4.746306
v 0.854510 -1.040030 -4.747000
v 0.851572 -1.040799 -4.746306
v 0.849215 -1.041415 -4.744364
v 0.847908 -1.041757 -4.741558
v 0.847908 -1.041757 -4.738442
v 0.849215 -1.041415 -4.735635
v 0.851572 -1.040799 -4.733693
v 0.854510 -1.040030 -4.733000
v 0.850801 -1.013851 -4.733693
v 0.853158 -1.013235 -4.735635
v 0.854465 -1.012893 -4.738442
v 0.854465 -1.012893 -4.741558
v 0.853158 -1.013235 -4.744364
v 0.850801 -1.013851 -4.746306
v 0.847863 -1.014620 -4.747000
v 0.844925 -1.015389 -4.746306
v 0.842568 -1.016005 -4.744364
v 0.841261 -1.016347 -4.741558
v 0.841261 -1.016347 -4.738442
v 0.842568 -1.016005 -4.735635
v 0.844925 -1.015389 -4.733693
v 0.847863 -1.014620 -4.733000
v 0.814411 -1.058997 -4.818807
v 0.816844 -1.058898 -4.816864
v 0.818195 -1.058843 -4.814058
v 0.818195 -1.058843 -4.810942
v 0.816844 -1.058898 -4.808136
v 0.814411 -1.058997 -4.806193
v 0.811376 -1.059120 -4.805500
v 0.808341 -1.059243 -4.806193
v 0.805908 -1.059342 -4.808136
v 0.804557 -1.059397 -4.810942
v 0.804557 -1.059397 -4.814058
v 0.805908 -1.059342 -4.816864
v 0.808341 -1.059243 -4.818807
v 0.811376 -1.059120 -4.819500
v 0.815735 -1.091627 -4.818807
v 0.818168 -1.091528 -4.816864
v 0.819519 -1.091473 -4.814058
v 0.819519 -1.091473 -4.810942
v 0.818168 -1.091528 -4.808136
v 0.815735 -1.091627 -4.806193
v 0.812700 -1.091750 -4.805500
v 0.809665 -1.091873 -4.806193
v 0.807232 -1.091972 -4.808136
v 0.805881 -1.092027 -4.810942
v 0.805881 -1.092027 -4.814058
v 0.807232 -1.091972 -4.816864
v 0.809665 -1.091873 -4.818807
v 0.812700 -1.091750 -4.819500
v 0.996086 -0.882077 -4.568807
v 0.994792 -0.880014 -4.566864
v 0.994073 -0.878869 -4.564058
v 0.994073 -0.878869 -4.560942
v 0.994792 -0.880014 -4.558136
v 0.996086 -0.882077 -4.556193
v 0.997700 -0.884650 -4.555500
v 0.999314 -0.887223 -4.556193
v 1.000608 -0.889286 -4.558136
v 1.001326 -0.890431 -4.560942
v 1.001326 -0.890431 -4.564058
v 1.000608 -0.889286 -4.566864
v 0.999314 -0.887223 -4.568807
v 0.997700 -0.884650 -4.569500
v 1.041806 -0.853397 -4.568807
v 1.040512 -0.851334 -4.566864
v 1.039793 -0.850189 -4.564058
v 1.039793 -0.850189 -4.560942
v 1.040512 -0.851334 -4.558136
v 1.041806 -0.853397 -4.556193
v 1.043420 -0.855970 -4.555500
v 1.045034 -0.858543 -4.556193
v 1.046328 -0.860606 -4.558136
v 1.047046 -0.861751 -4.560942
v 1.047046 -0.861751 -4.564058
v 1.046328 -0.860606 -4.566864
v 1.045034 -0.858543 -4.568807
v 1.043420 -0.855970 -4.569500
v 0.781792 -0.575248 -4.453807
v 0.781424 -0.572840 -4.451865
v 0.781220 -0.571504 -4.449058
v 0.781220 -0.571504 -4.445942
v 0.781424 -0.572840 -4.443136
v 0.781792 -0.575248 -4.441194
v 0.782250 -0.578250 -4.440500
v 0.782708 -0.581252 -4.441194
v 0.783076 -0.583660 -4.443136
v 0.783280 -0.584996 -4.445942
v 0.783280 -0.584996 -4.449058
v 0.783076 -0.583660 -4.451865
v 0.782708 -0.581252 -4.453807
v 0.782250 -0.578250 -4.454500
v 0.847292 -0.565248 -4.453807
v 0.846924 -0.562840 -4.451865
v 0.846720 -0.561504 -4.449058
v 0.846720 -0.561504 -4.445942
v 0.846924 -0.562840 -4.443136
v 0.847292 -0.565248 -4.441194
v 0.847750 -0.568250 -4.440500
v 0.848208 -0.571252 -4.441194
v 0.848576 -0.573660 -4.443136
v 0.848780 -0.574996 -4.445942
v 0.848780 -0.574996 -4.449058
v 0.848576 -0.573660 -4.451865
v 0.848208 -0.571252 -4.453807
v 0.847750 -0.568250 -4.454500
v 1.006107 -0.867264 -4.555807
v 1.004829 -0.865191 -4.553864
v 1.004120 -0.864040 -4.551058
v 1.004120 -0.864040 -4.547942
v 1.004829 -0.865191 -4.545135
v 1.006107 -0.867264 -4.543193
v 1.007700 -0.869850 -4.542500
v 1.009293 -0.872436 -4.543193
v 1.010571 -0.874509 -4.545135
v 1.011280 -0.875660 -4.547942
v 1.011280 -0.875660 -4.551058
v 1.010571 -0.874509 -4.553864
v 1.009293 -0.872436 -4.555807
v 1.007700 -0.869850 -4.556500
v 1.047657 -0.841664 -4.555807
v 1.046379 -0.839591 -4.553864
v 1.045670 -0.838440 -4.551058
v 1.045670 -0.838440 -4.547942
v 1.046379 -0.839591 -4.545135
v 1.047657 -0.841664 -4.543193
v 1.049250 -0.844250 -4.542500
v 1.050843 -0.846836 -4.543193
v 1.052121 -0.848909 -4.545135
v 1.052830 -0.850060 -4.547942
v 1.052830 -0.850060 -4.551058
v 1.052121 -0.848909 -4.553864
v 1.050843 -0.846836 -4.555807
v 1.049250 -0.844250 -4.556500
v 0.901310 -0.586811 -4.462193
v 0.902761 -0.584855 -4.464136
v 0.903567 -0.583770 -4.466942
v 0.903567 -0.583770 -4.470058
v 0.902761 -0.584855 -4.472865
v 0.901310 -0.586811 -4.474807
v 0.899500 -0.589250 -4.475500
v 0.897690 -0.591689 -4.474807
v 0.896239 -0.593645 -4.472865
v 0.895433 -0.594730 -4.470058
v 0.895433 -0.594730 -4.466942
v 0.896239 -0.593645 -4.464136
v 0.897690 -0.591689 -4.462193
v 0.899500 -0.589250 -4.461500
v 0.873010 -0.565811 -4.462193
v 0.874461 -0.563855 -4.464136
v 0.875267 -0.562770 -4.466942
v 0.875267 -0.562770 -4.470058
v 0.874461 -0.563855 -4.472865
v 0.873010 -0.565811 -4.474807
v 0.871200 -0.568250 -4.475500
v 0.869390 -0.570689 -4.474807
v 0.867939 -0.572645 -4.472865
v 0.867133 -0.573730 -4.470058
v 0.867133 -0.573730 -4.466942
v 0.867939 -0.572645 -4.464136
v 0.869390 -0.570689 -4.462193
v 0.871200 -0.568250 -4.461500
v 0.888567 -0.585255 -4.458193
v 0.890065 -0.583334 -4.460135
v 0.890896 -0.582268 -4.462942
v 0.890896 -0.582268 -4.466058
v 0.890065 -0.583334 -4.468864
v 0.888567 -0.585255 -4.470807
v 0.886700 -0.587650 -4.471500
v 0.884833 -0.590045 -4.470807
v 0.883335 -0.591966 -4.468864
v 0.882504 -0.593032 -4.466058
v 0.882504 -0.593032 -4.462942
v 0.883335 -0.591966 -4.460135
v 0.884833 -0.590045 -4.458193
v 0.886700 -0.587650 -4.457500
v 0.861117 -0.563855 -4.458193
v 0.862615 -0.561934 -4.460135
v 0.863446 -0.560868 -4.462942
v 0.863446 -0.560868 -4.466058
v 0.862615 -0.561934 -4.468864
v 0.861117 -0.563855 -4.470807
v 0.859250 -0.566250 -4.471500
v 0.857383 -0.568645 -4.470807
v 0.855885 -0.570566 -4.468864
v 0.855054 -0.571632 -4.466058
v 0.855054 -0.571632 -4.462942
v 0.855885 -0.570566 -4.460135
v 0.857383 -0.568645 -4.458193
v 0.859250 -0.566250 -4.457500
v 0.778216 -1.058564 -4.868307
v 0.778275 -1.056129 -4.866364
v 0.778308 -1.054778 -4.863558
v 0.778308 -1.054778 -4.860442
v 0.778275 -1.056129 -4.857635
v 0.778216 -1.058564 -4.855693
v 0.778142 -1.061600 -4.855000
v 0.778068 -1.064636 -4.855693
v 0.778009 -1.067071 -4.857635
v 0.777976 -1.068422 -4.860442
v 0.777976 -1.068422 -4.863558
v 0.778009 -1.067071 -4.866364
v 0.778068 -1.064636 -4.868307
v 0.778142 -1.061600 -4.869000
v 0.799574 -1.059084 -4.868307
v 0.799633 -1.056649 -4.866364
v 0.799666 -1.055297 -4.863558
v 0.799666 -1.055297 -4.860442
v 0.799633 -1.056649 -4.857635
v 0.799574 -1.059084 -4.855693
v 0.799500 -1.062120 -4.855000
v 0.799426 -1.065156 -4.855693
v 0.799367 -1.067591 -4.857635
v 0.799334 -1.068942 -4.860442
v 0.799334 -1.068942 -4.863558
v 0.799367 -1.067591 -4.866364
v 0.799426 -1.065156 -4.868307
v 0.799500 -1.062120 -4.869000
v 0.810512 -1.056770 -4.783194
v 0.808969 -1.054886 -4.785136
v 0.808113 -1.053841 -4.787942
v 0.808113 -1.053841 -4.791058
v 0.808969 -1.054886 -4.793865
v 0.810512 -1.056770 -4.795807
v 0.812437 -1.059120 -4.796500
v 0.814362 -1.061470 -4.795807
v 0.815905 -1.063354 -4.793865
v 0.816761 -1.064400 -4.791058
v 0.816761 -1.064400 -4.787942
v 0.815905 -1.063354 -4.785136
v 0.814362 -1.061470 -4.783194
v 0.812437 -1.059120 -4.782500
v 0.785325 -1.077400 -4.783194
v 0.783782 -1.075516 -4.785136
v 0.782926 -1.074470 -4.787942
v 0.782926 -1.074470 -4.791058
v 0.783782 -1.075516 -4.793865
v 0.785325 -1.077400 -4.795807
v 0.787250 -1.079750 -4.796500
v 0.789174 -1.082100 -4.795807
v 0.790718 -1.083984 -4.793865
v 0.791574 -1.085029 -4.791058
v 0.791574 -1.085029 -4.787942
v 0.790718 -1.083984 -4.785136
v 0.789174 -1.082100 -4.783194
v 0.787250 -1.079750 -4.782500
v 0.808347 -1.058894 -4.816807
v 0.805918 -1.058713 -4.814865
v 0.804570 -1.058612 -4.812058
v 0.804570 -1.058612 -4.808942
v 0.805918 -1.058713 -4.806136
v 0.808347 -1.058894 -4.804193
v 0.811376 -1.059120 -4.803500
v 0.814405 -1.059346 -4.804193
v 0.816834 -1.059527 -4.806136
v 0.818182 -1.059628 -4.808942
v 0.818182 -1.059628 -4.812058
v 0.816834 -1.059527 -4.814865
v 0.814405 -1.059346 -4.816807
v 0.811376 -1.059120 -4.817500
v 0.810196 -1.034124 -4.816807
v 0.807767 -1.033943 -4.814865
v 0.806419 -1.033842 -4.812058
v 0.806419 -1.033842 -4.808942
v 0.807767 -1.033943 -4.806136
v 0.810196 -1.034124 -4.804193
v 0.813225 -1.034350 -4.803500
v 0.816254 -1.034576 -4.804193
v 0.818683 -1.034757 -4.806136
v 0.820031 -1.034858 -4.808942
v 0.820031 -1.034858 -4.812058
v 0.818683 -1.034757 -4.814865
v 0.816254 -1.034576 -4.816807
v 0.813225 -1.034350 -4.817500
vn -0.3437 0.2648 0.9010
vn 0.0000 0.0000 1.0000
vn -0.6193 0.4771 0.6235
vn -0.7723 0.5950 0.2225
vn -0.7723 0.5950 -0.2225
vn -0.6193 0.4771 -0.6235
vn -0.3437 0.2648 -0.9010
vn 0.0000 0.0000 -1.0000
vn 0.3437 -0.2648 -0.9010
vn 0.6193 -0.4771 -0.6235
vn 0.7723 -0.5950 -0.2225
vn 0.7723 -0.5950 0.2225
vn 0.6193 -0.4771 0.6235
vn 0.3437 -0.2648 0.9010
vn 0.4133 0.1321 0.9010
vn 0.7447 0.2381 0.6235
vn 0.9286 0.2969 0.2225
vn 0.9286 0.2969 -0.2225
vn 0.7447 0.2381 -0.6235
vn 0.4133 0.1321 -0.9009
vn 0.4133 0.1321 -0.9010
vn -0.4133 -0.1321 -0.9010
vn -0.4133 -0.1321 -0.9009
vn -0.7447 -0.2381 -0.6235
vn -0.9286 -0.2969 -0.2225
vn -0.9286 -0.2969 0.2225
vn -0.7447 -0.2381 0.6235
vn -0.4133 -0.1321 0.9010
vn 0.4197 0.1098 0.9010
vn 0.7563 0.1979 0.6235
vn 0.9432 0.2467 0.2225
vn 0.9432 0.2467 -0.2225
vn 0.7563 0.1979 -0.6235
vn 0.4198 0.1098 -0.9009
vn -0.4198 -0.1098 -0.9009
vn -0.7563 -0.1979 -0.6235
vn -0.9432 -0.2467 -0.2225
vn -0.9432 -0.2467 0.2225
vn -0.7563 -0.1979 0.6235
vn -0.4197 -0.1098 0.9010
vn 0.4335 0.0176 -0.9010
vn 0.7812 0.0317 -0.6235
vn 0.9741 0.0395 -0.2225
vn 0.9741 0.0395 0.2225
vn 0.7812 0.0317 0.6235
vn 0.4335 0.0176 0.9010
vn -0.4335 -0.0176 0.9010
vn -0.7812 -0.0317 0.6235
vn -0.9741 -0.0395 0.2225
vn -0.9741 -0.0395 -0.2225
vn -0.7812 -0.0317 -0.6235
vn -0.4335 -0.0176 -0.9010
vn -0.2305 0.3675 -0.9010
vn -0.4154 0.6623 -0.6235
vn -0.5181 0.8259 -0.2225
vn -0.5181 0.8259 0.2225
vn -0.4154 0.6623 0.6235
vn -0.2305 0.3675 0.9010
vn 0.2305 -0.3675 0.9010
vn 0.4154 -0.6623 0.6235
vn 0.5181 -0.8259 0.2225
vn 0.5181 -0.8259 -0.2225
vn 0.4154 -0.6623 -0.6235
vn 0.2305 -0.3675 -0.9010
vn -0.0655 0.4289 -0.9010
vn -0.1180 0.7729 -0.6235
vn -0.1471 0.9637 -0.2225
vn -0.1471 0.9637 0.2225
vn -0.1180 0.7729 0.6235
vn -0.0655 0.4289 0.9010
vn 0.0655 -0.4289 0.9010
vn 0.1180 -0.7729 0.6235
vn 0.1471 -0.9637 0.2225
vn 0.1471 -0.9637 -0.2225
vn 0.1180 -0.7729 -0.6235
vn 0.0655 -0.4289 -0.9010
vn -0.2276 0.3694 -0.9010
vn -0.4101 0.6656 -0.6235
vn -0.5114 0.8300 -0.2225
vn -0.5114 0.8300 0.2225
vn -0.4101 0.6656 0.6235
vn -0.2276 0.3694 0.9010
vn 0.2276 -0.3694 0.9010
vn 0.4101 -0.6656 0.6235
vn 0.5114 -0.8300 0.2225
vn 0.5114 -0.8300 -0.2225
vn 0.4101 -0.6656 -0.6235
vn 0.2276 -0.3694 -0.9010
vn 0.2586 0.3484 0.9009
vn 0.4659 0.6278 0.6235
vn 0.5810 0.7829 0.2225
vn 0.5810 0.7829 -0.2225
vn 0.4659 0.6278 -0.6235
vn 0.2585 0.3484 -0.9010
vn -0.2585 -0.3484 -0.9010
vn -0.4659 -0.6278 -0.6235
vn -0.5810 -0.7829 -0.2225
vn -0.5810 -0.7829 0.2225
vn -0.4659 -0.6278 0.6235
vn -0.2586 -0.3484 0.9009
vn 0.2668 0.3422 0.9010
vn 0.4807 0.6166 0.6235
vn 0.5994 0.7689 0.2225
vn 0.5994 0.7689 -0.2225
vn 0.4807 0.6166 -0.6235
vn 0.2667 0.3422 -0.9010
vn -0.2667 -0.3422 -0.9010
vn -0.4807 -0.6166 -0.6235
vn -0.5994 -0.7689 -0.2225
vn -0.5994 -0.7689 0.2225
vn -0.4807 -0.6166 0.6235
vn -0.2668 -0.3422 0.9010
vn 0.0106 0.4337 -0.9010
vn 0.0190 0.7816 -0.6235
vn 0.0237 0.9746 -0.2225
vn 0.0237 0.9746 0.2225
vn 0.0190 0.7816 0.6235
vn 0.0106 0.4337 0.9010
vn -0.0106 -0.4337 0.9010
vn -0.0190 -0.7816 0.6235
vn -0.0237 -0.9746 0.2225
vn -0.0237 -0.9746 -0.2225
vn -0.0190 -0.7816 -0.6235
vn -0.0106 -0.4337 -0.9010
vn -0.2749 0.3356 0.9010
vn -0.4954 0.6048 0.6235
vn -0.6178 0.7542 0.2225
vn -0.6177 0.7542 -0.2225
vn -0.4953 0.6048 -0.6235
vn -0.2749 0.3356 -0.9010
vn 0.2749 -0.3356 -0.9010
vn 0.4953 -0.6048 -0.6235
vn 0.6177 -0.7542 -0.2225
vn 0.6178 -0.7542 0.2225
vn 0.4954 -0.6048 0.6235
vn 0.2749 -0.3356 0.9010
vn -0.4327 0.0323 -0.9010
vn -0.7796 0.0582 -0.6235
vn -0.9722 0.0726 -0.2225
vn -0.9722 0.0726 0.2225
vn -0.7796 0.0582 0.6235
vn -0.4327 0.0323 0.9010
vn 0.4327 -0.0323 0.9010
vn 0.7796 -0.0582 0.6235
vn 0.9722 -0.0726 0.2225
vn 0.9722 -0.0726 -0.2225
vn 0.7796 -0.0582 -0.6235
vn 0.4327 -0.0323 -0.9010
s 1
f 1//1 15//1 28//2 14//2
f 2//3 16//3 15//1 1//1
f 3//4 17//4 16//3 2//3
f 4//5 18//5 17//4 3//4
f 5//6 19//6 18//5 4//5
f 6//7 20//7 19//6 5//6
f 7//8 21//8 20//7 6//7
f 8//9 22//9 21//8 7//8
f 9//10 23//10 22//9 8//9
f 10//11 24//11 23//10 9//10
f 11//12 25//12 24//11 10//11
f 12//13 26//13 25//12 11//12
f 13//14 27//14 26//13 12//13
f 14//2 28//2 27//14 13//14
f 29//15 43//15 56//2 42//2
f 30//16 44//16 43//15 29//15
f 31//17 45//17 44//16 30//16
f 32//18 46//18 45//17 31//17
f 33//19 47//19 46//18 32//18
f 34//20 48//21 47//19 33//19
f 35//8 49//8 48//21 34//20
f 36//22 50//23 49//8 35//8
f 37//24 51//24 50//23 36//22
f 38//25 52//25 51//24 37//24
f 39//26 53//26 52//25 38//25
f 40//27 54//27 53//26 39//26
f 41//28 55//28 54//27 40//27
f 42//2 56//2 55//28 41//28
f 57//29 71//29 84//2 70//2
f 58//30 72//30 71//29 57//29
f 59//31 73//31 72//30 58//30
f 60//32 74//32 73//31 59//31
f 61//33 75//33 74//32 60//32
f 62//34 76//34 75//33 61//33
f 63//8 77//8 76//34 62//34
f 64//35 78//35 77//8 63//8
f 65//36 79//36 78//35 64//35
f 66//37 80//37 79//36 65//36
f 67//38 81//38 80//37 66//37
f 68//39 82//39 81//38 67//38
f 69//40 83//40 82//39 68//39
f 70//2 84//2 83//40 69//40
f 85//41 99//41 112//8 98//8
f 86//42 100//42 99//41 85//41
f 87//43 101//43 100//42 86//42
f 88//44 102//44 101//43 87//43
f 89//45 103//45 102//44 88//44
f 90//46 104//46 103//45 89//45
f 91//2 105//2 104//46 90//46
f 92//47 106//47 105//2 91//2
f 93//48 107//48 106//47 92//47
f 94//49 108//49 107//48 93//48
f 95//50 109//50 108//49 94//49
f 96//51 110//51 109//50 95//50
f 97//52 111//52 110//51 96//51
f 98//8 112//8 111//52 97//52
f 113//53 127//53 140//8 126//8
f 114//54 128//54 127//53 113//53
f 115//55 129//55 128//54 114//54
f 116//56 130//56 129//55 115//55
f 117//57 131//57 130//56 116//56
f 118//58 132//58 131//57 117//57
f 119//2 133//2 132//58 118//58
f 120//59 134//59 133//2 119//2
f 121//60 135//60 134//59 120//59
f 122//61 136//61 135//60 121//60
f 123//62 137//62 136//61 122//61
f 124//63 138//63 137//62 123//62
f 125//64 139//64 138//63 124//63
f 126//8 140//8 139//64 125//64
f 141//65 155//65 168//8 154//8
f 142//66 156//66 155//65 141//65
f 143//67 157//67 156//66 142//66
f 144//68 158//68 157//67 143//67
f 145//69 159//69 158//68 144//68
f 146//70 160//70 159//69 145//69
f 147//2 161//2 160//70 146//70
f 148//71 162//71 161//2 147//2
f 149//72 163//72 162//71 148//71
f 150//73 164//73 163//72 149//72
f 151//74 165//74 164//73 150//73
f 152//75 166//75 165//74 151//74
f 153//76 167//76 166//75 152//75
f 154//8 168//8 167//76 153//76
f 169//77 183//77 196//8 182//8
f 170//78 184//78 183//77 169//77
f 171//79 185//79 184//78 170//78
f 172//80 186//80 185//79 171//79
f 173//81 187//81 186//80 172//80
f 174//82 188//82 187//81 173//81
f 175//2 189//2 188//82 174//82
f 176//83 190//83 189//2 175//2
f 177//84 191//84 190//83 176//83
f 178//85 192//85 191//84 177//84
f 179//86 193//86 192//85 178//85
f 180//87 194//87 193//86 179//86
f 181//88 195//88 194//87 180//87
f 182//8 196//8 195//88 181//88
f 197//89 211//89 224//2 210//2
f 198//90 212//90 211//89 197//89
f 199//91 213//91 212//90 198//90
f 200//92 214//92 213//91 199//91
f 201//93 215//93 214//92 200//92
f 202//94 216//94 215//93 201//93
f 203//8 217//8 216//94 202//94
f 204//95 218//95 217//8 203//8
f 205//96 219//96 218//95 204//95
f 206//97 220//97 219//96 205//96
f 207//98 221//98 220//97 206//97
f 208//99 222//99 221//98 207//98
f 209//100 223//100 222//99 208//99
f 210//2 224//2 223//100 209//100
f 225//101 239//101 252//2 238//2
f 226//102 240//102 239//101 225//101
f 227//103 241//103 240//102 226//102
f 228//104 242//104 241//103 227//103
f 229//105 243//105 242//104 228//104
f 230//106 244//106 243//105 229//105
f 231//8 245//8 244//106 230//106
f 232//107 246//107 245//8 231//8
f 233//108 247//108 246//107 232//107
f 234//109 248//109 247//108 233//108
f 235//110 249//110 248//109 234//109
f 236//111 250//111 249//110 235//110
f 237//112 251//112 250//111 236//111
f 238//2 252//2 251//112 237//112
f 253//113 267//113 280//8 266//8
f 254//114 268//114 267//113 253//113
f 255//115 269//115 268//114 254//114
f 256//116 270//116 269//115 255//115
f 257//117 271//117 270//116 256//116
f 258//118 272//118 271//117 257//117
f 259//2 273//2 272//118 258//118
f 260//119 274//119 273//2 259//2
f 261//120 275//120 274//119 260//119
f 262//121 276//121 275//120 261//120
f 263//122 277//122 276//121 262//121
f 264//123 278//123 277//122 263//122
f 265//124 279//124 278//123 264//123
f 266//8 280//8 279//124 265//124
f 281//125 295//125 308//2 294//2
f 282//126 296//126 295//125 281//125
f 283//127 297//127 296//126 282//126
f 284//128 298//128 297//127 283//127
f 285//129 299//129 298//128 284//128
f 286//130 300//130 299//129 285//129
f 287//8 301//8 300//130 286//130
f 288//131 302//131 301//8 287//8
f 289//132 303//132 302//131 288//131
f 290//133 304//133 303//132 289//132
f 291//134 305//134 304//133 290//133
f 292//135 306//135 305//134 291//134
f 293//136 307//136 306//135 292//135
f 294//2 308//2 307//136 293//136
f 309//137 323//137 336//8 322//8
f 310//138 324//138 323//137 309//137
f 311//139 325//139 324//138 310//138
f 312//140 326//140 325//139 311//139
f 313//141 327//141 326//140 312//140
f 314//142 328//142 327//141 313//141
f 315//2 329//2 328//142 314//142
f 316//143 330//143 329//2 315//2
f 317//144 331//144 330//143 316//143
f 318//145 332//145 331//144 317//144
f 319//146 333//146 332//145 318//145
f 320//147 334//147 333//146 319//146
f 321//148 335//148 334//147 320//147
f 322//8 336//8 335//148 321//148
