# Blender v2.78 (sub 0) OBJ File: ''
# www.blender.org
mtllib Inputs of 49907 - BWM-VL04.mtl
o Inputs_of_49907_-_BWM-VL04
v 0.528632 -0.949850 -4.490307
v 0.531044 -0.949510 -4.488365
v 0.532382 -0.949321 -4.485558
v 0.532382 -0.949321 -4.482442
v 0.531044 -0.949510 -4.479636
v 0.528632 -0.949850 -4.477694
v 0.525625 -0.950275 -4.477000
v 0.522618 -0.950700 -4.477694
v 0.520206 -0.951040 -4.479636
v 0.518868 -0.951229 -4.482442
v 0.518868 -0.951229 -4.485558
v 0.520206 -0.951040 -4.488365
v 0.522618 -0.950700 -4.490307
v 0.525625 -0.950275 -4.491000
v 0.534757 -0.993225 -4.490307
v 0.537169 -0.992885 -4.488365
v 0.538507 -0.992696 -4.485558
v 0.538507 -0.992696 -4.482442
v 0.537169 -0.992885 -4.479636
v 0.534757 -0.993225 -4.477694
v 0.531750 -0.993650 -4.477000
v 0.528743 -0.994075 -4.477694
v 0.526331 -0.994415 -4.479636
v 0.524993 -0.994604 -4.482442
v 0.524993 -0.994604 -4.485558
v 0.526331 -0.994415 -4.488365
v 0.528743 -0.994075 -4.490307
v 0.531750 -0.993650 -4.491000
v 0.540518 -0.989093 -4.455693
v 0.542597 -0.987824 -4.457635
v 0.543750 -0.987120 -4.460442
v 0.543750 -0.987120 -4.463558
v 0.542597 -0.987824 -4.466364
v 0.540518 -0.989093 -4.468307
v 0.537925 -0.990675 -4.469000
v 0.535333 -0.992257 -4.468307
v 0.533253 -0.993526 -4.466364
v 0.532100 -0.994230 -4.463558
v 0.532100 -0.994230 -4.460442
v 0.533253 -0.993526 -4.457635
v 0.535333 -0.992257 -4.455693
v 0.537925 -0.990675 -4.455000
v 0.505593 -0.931868 -4.455693
v 0.507672 -0.930599 -4.457635
v 0.508825 -0.929895 -4.460442
v 0.508825 -0.929895 -4.463558
v 0.507672 -0.930599 -4.466364
v 0.505593 -0.931868 -4.468307
v 0.503000 -0.933450 -4.469000
v 0.500408 -0.935032 -4.468307
v 0.498329 -0.936301 -4.466364
v 0.497175 -0.937005 -4.463558
v 0.497175 -0.937005 -4.460442
v 0.498329 -0.936301 -4.457635
v 0.500408 -0.935032 -4.455693
v 0.503000 -0.933450 -4.455000
v 0.554460 -1.030856 -4.422194
v 0.552644 -1.029233 -4.424136
v 0.551637 -1.028332 -4.426942
v 0.551637 -1.028332 -4.430058
v 0.552644 -1.029233 -4.432865
v 0.554461 -1.030856 -4.434807
v 0.556725 -1.032880 -4.435500
v 0.558990 -1.034904 -4.434807
v 0.560806 -1.036527 -4.432865
v 0.561813 -1.037428 -4.430058
v 0.561813 -1.037428 -4.426942
v 0.560806 -1.036527 -4.424136
v 0.558990 -1.034904 -4.422194
v 0.556725 -1.032880 -4.421500
v 0.517485 -1.072226 -4.422194
v 0.515669 -1.070603 -4.424136
v 0.514662 -1.069702 -4.426942
v 0.514662 -1.069702 -4.430058
v 0.515669 -1.070603 -4.432865
v 0.517485 -1.072226 -4.434807
v 0.519750 -1.074250 -4.435500
v 0.522015 -1.076274 -4.434807
v 0.523831 -1.077897 -4.432865
v 0.524838 -1.078798 -4.430058
v 0.524838 -1.078798 -4.426942
v 0.523831 -1.077897 -4.424136
v 0.522015 -1.076274 -4.422194
v 0.519750 -1.074250 -4.421500
v 0.516495 -0.945367 -4.497193
v 0.514065 -0.945201 -4.499135
v 0.512716 -0.945108 -4.501942
v 0.512716 -0.945108 -4.505058
v 0.514065 -0.945201 -4.507864
v 0.516495 -0.945367 -4.509807
v 0.519525 -0.945575 -4.510500
v 0.522555 -0.945783 -4.509807
v 0.524985 -0.945949 -4.507864
v 0.526334 -0.946042 -4.505058
v 0.526334 -0.946042 -4.501942
v 0.524985 -0.945949 -4.499135
v 0.522555 -0.945783 -4.497193
v 0.519525 -0.945575 -4.496500
v 0.513720 -0.985842 -4.497193
v 0.511290 -0.985676 -4.499135
v 0.509941 -0.985583 -4.501942
v 0.509941 -0.985583 -4.505058
v 0.511290 -0.985676 -4.507864
v 0.513720 -0.985842 -4.509807
v 0.516750 -0.986050 -4.510500
v 0.519780 -0.986258 -4.509807
v 0.522210 -0.986424 -4.507864
v 0.523558 -0.986517 -4.505058
v 0.523558 -0.986517 -4.501942
v 0.522210 -0.986424 -4.499135
v 0.519780 -0.986258 -4.497193
v 0.516750 -0.986050 -4.496500
vn 0.4296 0.0606 -0.9009
vn 0.0000 0.0000 -1.0000
vn 0.7741 0.1093 -0.6235
vn 0.9653 0.1363 -0.2225
vn 0.9653 0.1363 0.2225
vn 0.7741 0.1093 0.6235
vn 0.4296 0.0606 0.9009
vn 0.0000 0.0000 1.0000
vn -0.4296 -0.0606 0.9009
vn -0.7741 -0.1093 0.6235
vn -0.9653 -0.1363 0.2225
vn -0.9653 -0.1363 -0.2225
vn -0.7741 -0.1093 -0.6235
vn -0.4296 -0.0606 -0.9009
vn 0.3704 0.2260 0.9009
vn 0.6673 0.4073 0.6235
vn 0.8321 0.5079 0.2225
vn 0.8322 0.5079 -0.2225
vn 0.6673 0.4073 -0.6235
vn 0.3703 0.2260 -0.9010
vn -0.3703 -0.2260 -0.9010
vn -0.6673 -0.4073 -0.6235
vn -0.8322 -0.5079 -0.2225
vn -0.8321 -0.5079 0.2225
vn -0.6673 -0.4073 0.6235
vn -0.3704 -0.2260 0.9009
vn -0.3235 0.2891 0.9010
vn -0.5829 0.5210 0.6235
vn -0.7269 0.6497 0.2225
vn -0.7269 0.6497 -0.2225
vn -0.5829 0.5210 -0.6235
vn -0.3235 0.2891 -0.9010
vn 0.3235 -0.2891 -0.9010
vn 0.5829 -0.5210 -0.6235
vn 0.7269 -0.6497 -0.2225
vn 0.7269 -0.6497 0.2225
vn 0.5829 -0.5210 0.6235
vn 0.3235 -0.2891 0.9010
vn -0.4328 0.0297 0.9009
vn -0.4329 0.0297 0.9009
vn -0.7800 0.0535 0.6235
vn -0.9726 0.0667 0.2225
vn -0.9726 0.0667 -0.2225
vn -0.7800 0.0535 -0.6235
vn -0.4328 0.0297 -0.9010
vn 0.4328 -0.0297 -0.9010
vn 0.7800 -0.0535 -0.6235
vn 0.9726 -0.0667 -0.2225
vn 0.9726 -0.0667 0.2225
vn 0.7800 -0.0535 0.6235
vn 0.4328 -0.0297 0.9009
s 1
f 1//1 15//1 28//2 14//2
f 2//3 16//3 15//1 1//1
f 3//4 17//4 16//3 2//3
f 4//5 18//5 17//4 3//4
f 5//6 19//6 18//5 4//5
f 6//7 20//7 19//6 5//6
f 7//8 21//8 20//7 6//7
f 8//9 22//9 21//8 7//8
f 9//10 23//10 22//9 8//9
f 10//11 24//11 23//10 9//10
f 11//12 25//12 24//11 10//11
f 12//13 26//13 25//12 11//12
f 13//14 27//14 26//13 12//13
f 14//2 28//2 27//14 13//14
f 29//15 43//15 56//8 42//8
f 30//16 44//16 43//15 29//15
f 31//17 45//17 44//16 30//16
f 32//18 46//18 45//17 31//17
f 33//19 47//19 46//18 32//18
f 34//20 48//20 47//19 33//19
f 35//2 49//2 48//20 34//20
f 36//21 50//21 49//2 35//2
f 37//22 51//22 50//21 36//21
f 38//23 52//23 51//22 37//22
f 39//24 53//24 52//23 38//23
f 40//25 54//25 53//24 39//24
f 41//26 55//26 54//25 40//25
f 42//8 56//8 55//26 41//26
f 57//27 71//27 84//8 70//8
f 58//28 72//28 71//27 57//27
f 59//29 73//29 72//28 58//28
f 60//30 74//30 73//29 59//29
f 61//31 75//31 74//30 60//30
f 62//32 76//32 75//31 61//31
f 63//2 77//2 76//32 62//32
f 64//33 78//33 77//2 63//2
f 65//34 79//34 78//33 64//33
f 66//35 80//35 79//34 65//34
f 67//36 81//36 80//35 66//35
f 68//37 82//37 81//36 67//36
f 69//38 83//38 82//37 68//37
f 70//8 84//8 83//38 69//38
f 85//39 99//40 112//8 98//8
f 86//41 100//41 99//40 85//39
f 87//42 101//42 100//41 86//41
f 88//43 102//43 101//42 87//42
f 89//44 103//44 102//43 88//43
f 90//45 104//45 103//44 89//44
f 91//2 105//2 104//45 90//45
f 92//46 106//46 105//2 91//2
f 93//47 107//47 106//46 92//46
f 94//48 108//48 107//47 93//47
f 95//49 109//49 108//48 94//48
f 96//50 110//50 109//49 95//49
f 97//51 111//51 110//50 96//50
f 98//8 112//8 111//51 97//51
