# Blender v2.78 (sub 0) OBJ File: ''
# www.blender.org
mtllib Inputs of 35137 - AVFRL.mtl
o Inputs_of_35137_-_[AVFR/L.]
v 0.398910 -0.839631 -4.733307
v 0.401244 -0.838933 -4.731365
v 0.402539 -0.838546 -4.728558
v 0.402539 -0.838546 -4.725442
v 0.401244 -0.838933 -4.722636
v 0.398910 -0.839631 -4.720694
v 0.396000 -0.840500 -4.720000
v 0.393090 -0.841369 -4.720694
v 0.390756 -0.842067 -4.722636
v 0.389461 -0.842454 -4.725442
v 0.389461 -0.842454 -4.728558
v 0.390756 -0.842067 -4.731365
v 0.393090 -0.841369 -4.733307
v 0.396000 -0.840500 -4.734000
v 0.407410 -0.868081 -4.733307
v 0.409744 -0.867383 -4.731365
v 0.411039 -0.866996 -4.728558
v 0.411039 -0.866996 -4.725442
v 0.409744 -0.867383 -4.722636
v 0.407410 -0.868081 -4.720694
v 0.404500 -0.868950 -4.720000
v 0.401590 -0.869819 -4.720694
v 0.399256 -0.870517 -4.722636
v 0.397961 -0.870904 -4.725442
v 0.397961 -0.870904 -4.728558
v 0.399256 -0.870517 -4.731365
v 0.401590 -0.869819 -4.733307
v 0.404500 -0.868950 -4.734000
v 0.936009 -0.766922 -4.682307
v 0.937619 -0.765095 -4.680365
v 0.938513 -0.764081 -4.677558
v 0.938513 -0.764081 -4.674442
v 0.937619 -0.765095 -4.671636
v 0.936009 -0.766922 -4.669693
v 0.934000 -0.769200 -4.669000
v 0.931991 -0.771478 -4.669693
v 0.930381 -0.773305 -4.671636
v 0.929487 -0.774319 -4.674442
v 0.929487 -0.774319 -4.677558
v 0.930381 -0.773305 -4.680365
v 0.931991 -0.771478 -4.682307
v 0.934000 -0.769200 -4.683000
v 0.968959 -0.795972 -4.682307
v 0.970569 -0.794145 -4.680365
v 0.971463 -0.793131 -4.677558
v 0.971463 -0.793131 -4.674442
v 0.970569 -0.794145 -4.671636
v 0.968959 -0.795972 -4.669693
v 0.966950 -0.798250 -4.669000
v 0.964941 -0.800528 -4.669693
v 0.963331 -0.802355 -4.671636
v 0.962437 -0.803369 -4.674442
v 0.962437 -0.803369 -4.677558
v 0.963331 -0.802355 -4.680365
v 0.964941 -0.800528 -4.682307
v 0.966950 -0.798250 -4.683000
v 0.712830 -0.546062 -4.512693
v 0.713964 -0.543906 -4.514636
v 0.714593 -0.542709 -4.517442
v 0.714593 -0.542709 -4.520558
v 0.713964 -0.543906 -4.523365
v 0.712830 -0.546062 -4.525307
v 0.711417 -0.548750 -4.526000
v 0.710004 -0.551438 -4.525307
v 0.708870 -0.553594 -4.523365
v 0.708241 -0.554791 -4.520558
v 0.708241 -0.554791 -4.517442
v 0.708870 -0.553594 -4.514636
v 0.710004 -0.551438 -4.512693
v 0.711417 -0.548750 -4.512000
v 0.670413 -0.523762 -4.512693
v 0.671547 -0.521606 -4.514636
v 0.672176 -0.520409 -4.517442
v 0.672176 -0.520409 -4.520558
v 0.671547 -0.521606 -4.523365
v 0.670413 -0.523762 -4.525307
v 0.669000 -0.526450 -4.526000
v 0.667587 -0.529138 -4.525307
v 0.666453 -0.531294 -4.523365
v 0.665824 -0.532491 -4.520558
v 0.665824 -0.532491 -4.517442
v 0.666453 -0.531294 -4.514636
v 0.667587 -0.529138 -4.512693
v 0.669000 -0.526450 -4.512000
v 0.455004 -1.180551 -4.961194
v 0.457413 -1.180191 -4.963136
v 0.458750 -1.179991 -4.965942
v 0.458750 -1.179991 -4.969058
v 0.457413 -1.180191 -4.971865
v 0.455004 -1.180551 -4.973807
v 0.452000 -1.181000 -4.974500
v 0.448996 -1.181449 -4.973807
v 0.446587 -1.181809 -4.971865
v 0.445250 -1.182009 -4.969058
v 0.445250 -1.182009 -4.965942
v 0.446587 -1.181809 -4.963136
v 0.448996 -1.181449 -4.961194
v 0.452000 -1.181000 -4.960500
v 0.451754 -1.158801 -4.961194
v 0.454163 -1.158441 -4.963136
v 0.455500 -1.158242 -4.965942
v 0.455500 -1.158242 -4.969058
v 0.454163 -1.158441 -4.971865
v 0.451754 -1.158801 -4.973807
v 0.448750 -1.159250 -4.974500
v 0.445746 -1.159699 -4.973807
v 0.443337 -1.160059 -4.971865
v 0.442000 -1.160259 -4.969058
v 0.442000 -1.160259 -4.965942
v 0.443337 -1.160059 -4.963136
v 0.445746 -1.159699 -4.961194
v 0.448750 -1.159250 -4.960500
vn 0.4157 0.1242 -0.9010
vn 0.0000 0.0000 -1.0000
vn 0.7491 0.2238 -0.6235
vn 0.9341 0.2791 -0.2225
vn 0.9341 0.2791 0.2225
vn 0.7490 0.2238 0.6235
vn 0.4157 0.1242 0.9009
vn 0.0000 0.0000 1.0000
vn -0.4157 -0.1242 0.9009
vn -0.7490 -0.2238 0.6235
vn -0.9341 -0.2791 0.2225
vn -0.9341 -0.2791 -0.2225
vn -0.7491 -0.2238 -0.6235
vn -0.4157 -0.1242 -0.9010
vn 0.2869 0.3254 -0.9010
vn -0.0001 0.0000 -1.0000
vn 0.5170 0.5864 -0.6235
vn 0.6447 0.7313 -0.2225
vn 0.6447 0.7313 0.2225
vn 0.5170 0.5864 0.6235
vn 0.2869 0.3254 0.9010
vn -0.2869 -0.3254 0.9010
vn -0.5170 -0.5864 0.6235
vn -0.6447 -0.7313 0.2225
vn -0.6447 -0.7313 -0.2225
vn -0.5170 -0.5864 -0.6235
vn -0.2870 -0.3254 -0.9009
vn 0.2019 0.3840 0.9010
vn 0.3638 0.6920 0.6235
vn 0.4537 0.8629 0.2225
vn 0.4536 0.8629 -0.2225
vn 0.3638 0.6920 -0.6235
vn 0.2019 0.3840 -0.9010
vn -0.2019 -0.3840 -0.9010
vn -0.3638 -0.6920 -0.6235
vn -0.4537 -0.8629 -0.2225
vn -0.4537 -0.8629 0.2225
vn -0.3638 -0.6920 0.6235
vn -0.2019 -0.3840 0.9010
vn 0.4291 0.0641 0.9009
vn 0.7732 0.1155 0.6235
vn 0.9642 0.1441 0.2225
vn 0.9642 0.1440 -0.2225
vn 0.7732 0.1155 -0.6235
vn 0.4291 0.0641 -0.9010
vn -0.4291 -0.0641 -0.9010
vn -0.7732 -0.1155 -0.6235
vn -0.9642 -0.1440 -0.2225
vn -0.9642 -0.1441 0.2225
vn -0.7732 -0.1155 0.6235
vn -0.4291 -0.0641 0.9009
s 1
f 1//1 15//1 28//2 14//2
f 2//3 16//3 15//1 1//1
f 3//4 17//4 16//3 2//3
f 4//5 18//5 17//4 3//4
f 5//6 19//6 18//5 4//5
f 6//7 20//7 19//6 5//6
f 7//8 21//8 20//7 6//7
f 8//9 22//9 21//8 7//8
f 9//10 23//10 22//9 8//9
f 10//11 24//11 23//10 9//10
f 11//12 25//12 24//11 10//11
f 12//13 26//13 25//12 11//12
f 13//14 27//14 26//13 12//13
f 14//2 28//2 27//14 13//14
f 29//15 43//15 56//16 42//16
f 30//17 44//17 43//15 29//15
f 31//18 45//18 44//17 30//17
f 32//19 46//19 45//18 31//18
f 33//20 47//20 46//19 32//19
f 34//21 48//21 47//20 33//20
f 35//8 49//8 48//21 34//21
f 36//22 50//22 49//8 35//8
f 37//23 51//23 50//22 36//22
f 38//24 52//24 51//23 37//23
f 39//25 53//25 52//24 38//24
f 40//26 54//26 53//25 39//25
f 41//27 55//27 54//26 40//26
f 42//16 56//16 55//27 41//27
f 57//28 71//28 84//8 70//8
f 58//29 72//29 71//28 57//28
f 59//30 73//30 72//29 58//29
f 60//31 74//31 73//30 59//30
f 61//32 75//32 74//31 60//31
f 62//33 76//33 75//32 61//32
f 63//2 77//2 76//33 62//33
f 64//34 78//34 77//2 63//2
f 65//35 79//35 78//34 64//34
f 66//36 80//36 79//35 65//35
f 67//37 81//37 80//36 66//36
f 68//38 82//38 81//37 67//37
f 69//39 83//39 82//38 68//38
f 70//8 84//8 83//39 69//39
f 85//40 99//40 112//8 98//8
f 86//41 100//41 99//40 85//40
f 87//42 101//42 100//41 86//41
f 88//43 102//43 101//42 87//42
f 89//44 103//44 102//43 88//43
f 90//45 104//45 103//44 89//44
f 91//2 105//2 104//45 90//45
f 92//46 106//46 105//2 91//2
f 93//47 107//47 106//46 92//46
f 94//48 108//48 107//47 93//47
f 95//49 109//49 108//48 94//48
f 96//50 110//50 109//49 95//49
f 97//51 111//51 110//50 96//50
f 98//8 112//8 111//51 97//51
