# Blender v2.78 (sub 0) OBJ File: ''
# www.blender.org
mtllib Inputs of 1341 - PVNLR.mtl
o Inputs_of_1341_-_[PVNL/R.]
v 0.492491 -0.746089 -4.600807
v 0.490078 -0.745759 -4.598865
v 0.488738 -0.745576 -4.596058
v 0.488738 -0.745576 -4.592942
v 0.490078 -0.745759 -4.590136
v 0.492491 -0.746089 -4.588193
v 0.495500 -0.746500 -4.587500
v 0.498509 -0.746911 -4.588193
v 0.500922 -0.747241 -4.590136
v 0.502262 -0.747424 -4.592942
v 0.502262 -0.747424 -4.596058
v 0.500922 -0.747241 -4.598865
v 0.498509 -0.746911 -4.600807
v 0.495500 -0.746500 -4.601500
v 0.496441 -0.717189 -4.600807
v 0.494028 -0.716859 -4.598865
v 0.492688 -0.716676 -4.596058
v 0.492688 -0.716676 -4.592942
v 0.494028 -0.716859 -4.590136
v 0.496441 -0.717189 -4.588193
v 0.499450 -0.717600 -4.587500
v 0.502459 -0.718011 -4.588193
v 0.504872 -0.718341 -4.590136
v 0.506212 -0.718524 -4.592942
v 0.506212 -0.718524 -4.596058
v 0.504872 -0.718341 -4.598865
v 0.502459 -0.718011 -4.600807
v 0.499450 -0.717600 -4.601500
v 0.852532 -0.969114 -4.744194
v 0.850127 -0.968729 -4.746136
v 0.848792 -0.968515 -4.748942
v 0.848792 -0.968515 -4.752058
v 0.850127 -0.968729 -4.754865
v 0.852532 -0.969114 -4.756807
v 0.855531 -0.969594 -4.757500
v 0.858530 -0.970074 -4.756807
v 0.860935 -0.970459 -4.754865
v 0.862270 -0.970673 -4.752058
v 0.862270 -0.970673 -4.748942
v 0.860935 -0.970459 -4.746136
v 0.858530 -0.970074 -4.744194
v 0.855531 -0.969594 -4.743500
v 0.846364 -1.007640 -4.744194
v 0.843959 -1.007255 -4.746136
v 0.842624 -1.007041 -4.748942
v 0.842624 -1.007041 -4.752058
v 0.843959 -1.007255 -4.754865
v 0.846364 -1.007640 -4.756807
v 0.849363 -1.008120 -4.757500
v 0.852362 -1.008600 -4.756807
v 0.854767 -1.008985 -4.754865
v 0.856102 -1.009199 -4.752058
v 0.856102 -1.009199 -4.748942
v 0.854767 -1.008985 -4.746136
v 0.852362 -1.008600 -4.744194
v 0.849363 -1.008120 -4.743500
v 0.776631 -1.150038 -4.988807
v 0.778941 -1.149267 -4.986865
v 0.780223 -1.148839 -4.984058
v 0.780223 -1.148839 -4.980942
v 0.778941 -1.149267 -4.978136
v 0.776631 -1.150038 -4.976193
v 0.773750 -1.151000 -4.975500
v 0.770869 -1.151962 -4.976193
v 0.768559 -1.152733 -4.978136
v 0.767277 -1.153161 -4.980942
v 0.767277 -1.153161 -4.984058
v 0.768559 -1.152733 -4.986865
v 0.770869 -1.151962 -4.988807
v 0.773750 -1.151000 -4.989500
v 0.786781 -1.180438 -4.988807
v 0.789091 -1.179667 -4.986865
v 0.790373 -1.179239 -4.984058
v 0.790373 -1.179239 -4.980942
v 0.789091 -1.179667 -4.978136
v 0.786781 -1.180438 -4.976193
v 0.783900 -1.181400 -4.975500
v 0.781019 -1.182362 -4.976193
v 0.778709 -1.183133 -4.978136
v 0.777427 -1.183561 -4.980942
v 0.777427 -1.183561 -4.984058
v 0.778709 -1.183133 -4.986865
v 0.781019 -1.182362 -4.988807
v 0.783900 -1.181400 -4.989500
vn -0.4299 0.0587 -0.9010
vn 0.0000 0.0000 -1.0000
vn -0.7746 0.1059 -0.6235
vn -0.9659 0.1320 -0.2225
vn -0.9659 0.1320 0.2225
vn -0.7746 0.1059 0.6235
vn -0.4299 0.0587 0.9010
vn 0.0000 0.0000 1.0000
vn 0.4299 -0.0587 0.9010
vn 0.7746 -0.1059 0.6235
vn 0.9659 -0.1320 0.2225
vn 0.9659 -0.1320 -0.2225
vn 0.7746 -0.1059 -0.6235
vn 0.4299 -0.0587 -0.9010
vn -0.4284 0.0686 0.9009
vn -0.7720 0.1236 0.6235
vn -0.9626 0.1541 0.2225
vn -0.9626 0.1541 -0.2225
vn -0.7720 0.1236 -0.6235
vn -0.4284 0.0686 -0.9010
vn 0.0001 0.0000 -1.0000
vn 0.4284 -0.0686 -0.9009
vn 0.7720 -0.1236 -0.6235
vn 0.9626 -0.1541 -0.2225
vn 0.9626 -0.1541 0.2225
vn 0.7720 -0.1236 0.6235
vn 0.4284 -0.0686 0.9009
vn 0.4115 0.1374 -0.9009
vn 0.7416 0.2476 -0.6235
vn 0.9247 0.3088 -0.2225
vn 0.9247 0.3088 0.2225
vn 0.7415 0.2476 0.6235
vn 0.4115 0.1374 0.9010
vn -0.4115 -0.1374 0.9010
vn -0.7415 -0.2476 0.6235
vn -0.9247 -0.3088 0.2225
vn -0.9247 -0.3088 -0.2225
vn -0.7416 -0.2476 -0.6235
vn -0.4115 -0.1374 -0.9009
s 1
f 1//1 15//1 28//2 14//2
f 2//3 16//3 15//1 1//1
f 3//4 17//4 16//3 2//3
f 4//5 18//5 17//4 3//4
f 5//6 19//6 18//5 4//5
f 6//7 20//7 19//6 5//6
f 7//8 21//8 20//7 6//7
f 8//9 22//9 21//8 7//8
f 9//10 23//10 22//9 8//9
f 10//11 24//11 23//10 9//10
f 11//12 25//12 24//11 10//11
f 12//13 26//13 25//12 11//12
f 13//14 27//14 26//13 12//13
f 14//2 28//2 27//14 13//14
f 29//15 43//15 56//8 42//8
f 30//16 44//16 43//15 29//15
f 31//17 45//17 44//16 30//16
f 32//18 46//18 45//17 31//17
f 33//19 47//19 46//18 32//18
f 34//20 48//20 47//19 33//19
f 35//21 49//21 48//20 34//20
f 36//22 50//22 49//21 35//21
f 37//23 51//23 50//22 36//22
f 38//24 52//24 51//23 37//23
f 39//25 53//25 52//24 38//24
f 40//26 54//26 53//25 39//25
f 41//27 55//27 54//26 40//26
f 42//8 56//8 55//27 41//27
f 57//28 71//28 84//2 70//2
f 58//29 72//29 71//28 57//28
f 59//30 73//30 72//29 58//29
f 60//31 74//31 73//30 59//30
f 61//32 75//32 74//31 60//31
f 62//33 76//33 75//32 61//32
f 63//8 77//8 76//33 62//33
f 64//34 78//34 77//8 63//8
f 65//35 79//35 78//34 64//34
f 66//36 80//36 79//35 65//35
f 67//37 81//37 80//36 66//36
f 68//38 82//38 81//37 67//37
f 69//39 83//39 82//38 68//38
f 70//2 84//2 83//39 69//39
