# Blender v2.78 (sub 0) OBJ File: ''
# www.blender.org
mtllib Inputs of 36890 - SDQR.mtl
o Inputs_of_36890_-_[SDQR.]
v 0.874192 -0.855728 -4.665807
v 0.875549 -0.853705 -4.663865
v 0.876302 -0.852582 -4.661058
v 0.876302 -0.852582 -4.657942
v 0.875549 -0.853705 -4.655136
v 0.874192 -0.855728 -4.653193
v 0.872500 -0.858250 -4.652500
v 0.870808 -0.860772 -4.653193
v 0.869451 -0.862795 -4.655136
v 0.868698 -0.863918 -4.657942
v 0.868698 -0.863918 -4.661058
v 0.869451 -0.862795 -4.663865
v 0.870808 -0.860772 -4.665807
v 0.872500 -0.858250 -4.666500
v 0.886342 -0.863878 -4.665807
v 0.887699 -0.861855 -4.663865
v 0.888452 -0.860732 -4.661058
v 0.888452 -0.860732 -4.657942
v 0.887699 -0.861855 -4.655136
v 0.886342 -0.863878 -4.653193
v 0.884650 -0.866400 -4.652500
v 0.882958 -0.868922 -4.653193
v 0.881601 -0.870945 -4.655136
v 0.880848 -0.872068 -4.657942
v 0.880848 -0.872068 -4.661058
v 0.881601 -0.870945 -4.663865
v 0.882958 -0.868922 -4.665807
v 0.884650 -0.866400 -4.666500
v 1.188482 -0.491662 -4.754193
v 1.186061 -0.491391 -4.756135
v 1.184718 -0.491240 -4.758942
v 1.184718 -0.491240 -4.762058
v 1.186061 -0.491391 -4.764864
v 1.188482 -0.491662 -4.766807
v 1.191500 -0.492000 -4.767500
v 1.194518 -0.492338 -4.766807
v 1.196939 -0.492609 -4.764864
v 1.198282 -0.492760 -4.762058
v 1.198282 -0.492760 -4.758942
v 1.196939 -0.492609 -4.756135
v 1.194518 -0.492338 -4.754193
v 1.191500 -0.492000 -4.753500
v 1.184982 -0.522912 -4.754193
v 1.182561 -0.522641 -4.756135
v 1.181218 -0.522490 -4.758942
v 1.181218 -0.522490 -4.762058
v 1.182561 -0.522641 -4.764864
v 1.184982 -0.522912 -4.766807
v 1.188000 -0.523250 -4.767500
v 1.191018 -0.523588 -4.766807
v 1.193439 -0.523859 -4.764864
v 1.194782 -0.524010 -4.762058
v 1.194782 -0.524010 -4.758942
v 1.193439 -0.523859 -4.756135
v 1.191018 -0.523588 -4.754193
v 1.188000 -0.523250 -4.753500
vn 0.2417 0.3603 -0.9010
vn 0.0000 0.0000 -1.0000
vn 0.4355 0.6493 -0.6235
vn 0.5431 0.8096 -0.2225
vn 0.5431 0.8096 0.2225
vn 0.4355 0.6493 0.6235
vn 0.2417 0.3603 0.9010
vn 0.0000 0.0000 1.0000
vn -0.2416 -0.3603 0.9010
vn -0.4355 -0.6493 0.6235
vn -0.5431 -0.8096 0.2225
vn -0.5431 -0.8096 -0.2225
vn -0.4355 -0.6493 -0.6235
vn -0.2417 -0.3603 -0.9010
vn -0.4312 0.0483 0.9010
vn 0.0001 0.0000 1.0000
vn -0.7769 0.0870 0.6235
vn -0.9688 0.1085 0.2225
vn -0.9688 0.1085 -0.2225
vn -0.7770 0.0870 -0.6235
vn -0.4312 0.0483 -0.9009
vn -0.0001 0.0000 -1.0000
vn 0.4311 -0.0483 -0.9010
vn 0.7769 -0.0870 -0.6235
vn 0.9688 -0.1085 -0.2225
vn 0.9688 -0.1085 0.2225
vn 0.7769 -0.0870 0.6236
vn 0.4312 -0.0483 0.9010
vn 0.4312 -0.0483 0.9009
s 1
f 1//1 15//1 28//2 14//2
f 2//3 16//3 15//1 1//1
f 3//4 17//4 16//3 2//3
f 4//5 18//5 17//4 3//4
f 5//6 19//6 18//5 4//5
f 6//7 20//7 19//6 5//6
f 7//8 21//8 20//7 6//7
f 8//9 22//9 21//8 7//8
f 9//10 23//10 22//9 8//9
f 10//11 24//11 23//10 9//10
f 11//12 25//12 24//11 10//11
f 12//13 26//13 25//12 11//12
f 13//14 27//14 26//13 12//13
f 14//2 28//2 27//14 13//14
f 29//15 43//15 56//16 42//16
f 30//17 44//17 43//15 29//15
f 31//18 45//18 44//17 30//17
f 32//19 46//19 45//18 31//18
f 33//20 47//20 46//19 32//19
f 34//21 48//21 47//20 33//20
f 35//22 49//22 48//21 34//21
f 36//23 50//23 49//22 35//22
f 37//24 51//24 50//23 36//23
f 38//25 52//25 51//24 37//24
f 39//26 53//26 52//25 38//25
f 40//27 54//27 53//26 39//26
f 41//28 55//29 54//27 40//27
f 42//16 56//16 55//29 41//28
