# Blender v2.78 (sub 0) OBJ File: ''
# www.blender.org
o Inputs_of_35025_-_[RIFR.]
v 0.775485 -1.146048 -4.809307
v 0.777920 -1.145966 -4.807364
v 0.779271 -1.145921 -4.804558
v 0.779271 -1.145921 -4.801442
v 0.777920 -1.145966 -4.798635
v 0.775485 -1.146048 -4.796693
v 0.772450 -1.146150 -4.796000
v 0.769414 -1.146252 -4.796693
v 0.766980 -1.146334 -4.798635
v 0.765629 -1.146379 -4.801442
v 0.765629 -1.146379 -4.804558
v 0.766980 -1.146334 -4.807364
v 0.769414 -1.146252 -4.809307
v 0.772450 -1.146150 -4.810000
v 0.776335 -1.171348 -4.809307
v 0.778770 -1.171266 -4.807364
v 0.780121 -1.171221 -4.804558
v 0.780121 -1.171221 -4.801442
v 0.778770 -1.171266 -4.798635
v 0.776335 -1.171348 -4.796693
v 0.773300 -1.171450 -4.796000
v 0.770265 -1.171552 -4.796693
v 0.767830 -1.171634 -4.798635
v 0.766479 -1.171679 -4.801442
v 0.766479 -1.171679 -4.804558
v 0.767830 -1.171634 -4.807364
v 0.770265 -1.171552 -4.809307
v 0.773300 -1.171450 -4.810000
v 0.757469 -1.162231 -4.833694
v 0.758888 -1.160251 -4.835636
v 0.759675 -1.159153 -4.838442
v 0.759675 -1.159153 -4.841558
v 0.758888 -1.160251 -4.844365
v 0.757469 -1.162231 -4.846307
v 0.755700 -1.164700 -4.847000
v 0.753931 -1.167169 -4.846307
v 0.752512 -1.169149 -4.844365
v 0.751725 -1.170248 -4.841558
v 0.751725 -1.170248 -4.838442
v 0.752512 -1.169149 -4.835636
v 0.753931 -1.167169 -4.833694
v 0.755700 -1.164700 -4.833000
v 0.727364 -1.140661 -4.833694
v 0.728783 -1.138681 -4.835636
v 0.729570 -1.137582 -4.838442
v 0.729570 -1.137582 -4.841558
v 0.728783 -1.138681 -4.844365
v 0.727364 -1.140661 -4.846307
v 0.725595 -1.143130 -4.847000
v 0.723826 -1.145599 -4.846307
v 0.722407 -1.147579 -4.844365
v 0.721620 -1.148677 -4.841558
v 0.721620 -1.148677 -4.838442
v 0.722407 -1.147579 -4.835636
v 0.723826 -1.145599 -4.833694
v 0.725595 -1.143130 -4.833000
v 0.761008 -1.146787 -4.873806
v 0.762539 -1.144892 -4.871864
v 0.763388 -1.143841 -4.869058
v 0.763388 -1.143841 -4.865942
v 0.762539 -1.144892 -4.863135
v 0.761008 -1.146787 -4.861193
v 0.759100 -1.149150 -4.860500
v 0.757192 -1.151513 -4.861193
v 0.755661 -1.153408 -4.863135
v 0.754812 -1.154459 -4.865942
v 0.754812 -1.154459 -4.869058
v 0.755661 -1.153408 -4.871864
v 0.757192 -1.151513 -4.873806
v 0.759100 -1.149150 -4.874500
v 0.810658 -1.186887 -4.873806
v 0.812189 -1.184992 -4.871864
v 0.813038 -1.183941 -4.869058
v 0.813038 -1.183941 -4.865942
v 0.812189 -1.184992 -4.863135
v 0.810658 -1.186887 -4.861193
v 0.808750 -1.189250 -4.860500
v 0.806842 -1.191613 -4.861193
v 0.805311 -1.193508 -4.863135
v 0.804462 -1.194559 -4.865942
v 0.804462 -1.194559 -4.869058
v 0.805311 -1.193508 -4.871864
v 0.806842 -1.191613 -4.873806
v 0.808750 -1.189250 -4.874500
v 0.685979 -1.108610 -4.896194
v 0.683556 -1.108362 -4.898136
v 0.682211 -1.108224 -4.900942
v 0.682211 -1.108224 -4.904058
v 0.683556 -1.108362 -4.906865
v 0.685979 -1.108610 -4.908807
v 0.689000 -1.108920 -4.909500
v 0.692021 -1.109230 -4.908807
v 0.694444 -1.109478 -4.906865
v 0.695789 -1.109616 -4.904058
v 0.695789 -1.109616 -4.900942
v 0.694444 -1.109478 -4.898136
v 0.692021 -1.109230 -4.896194
v 0.689000 -1.108920 -4.895500
v 0.683279 -1.134940 -4.896194
v 0.680856 -1.134692 -4.898136
v 0.679511 -1.134554 -4.900942
v 0.679511 -1.134554 -4.904058
v 0.680856 -1.134692 -4.906865
v 0.683279 -1.134940 -4.908807
v 0.686300 -1.135250 -4.909500
v 0.689321 -1.135560 -4.908807
v 0.691744 -1.135808 -4.906865
v 0.693089 -1.135946 -4.904058
v 0.693089 -1.135946 -4.900942
v 0.691744 -1.135808 -4.898136
v 0.689321 -1.135560 -4.896194
v 0.686300 -1.135250 -4.895500
v 0.776309 -1.234568 -4.918193
v 0.774749 -1.232698 -4.920135
v 0.773883 -1.231660 -4.922942
v 0.773883 -1.231660 -4.926058
v 0.774749 -1.232698 -4.928864
v 0.776309 -1.234568 -4.930807
v 0.778255 -1.236900 -4.931500
v 0.780201 -1.239232 -4.930807
v 0.781761 -1.241102 -4.928864
v 0.782627 -1.242140 -4.926058
v 0.782627 -1.242140 -4.922942
v 0.781761 -1.241102 -4.920135
v 0.780201 -1.239232 -4.918193
v 0.778255 -1.236900 -4.917500
v 0.740729 -1.264258 -4.918193
v 0.739169 -1.262388 -4.920135
v 0.738303 -1.261350 -4.922942
v 0.738303 -1.261350 -4.926058
v 0.739169 -1.262388 -4.928864
v 0.740729 -1.264258 -4.930807
v 0.742675 -1.266590 -4.931500
v 0.744621 -1.268922 -4.930807
v 0.746181 -1.270792 -4.928864
v 0.747047 -1.271830 -4.926058
v 0.747047 -1.271830 -4.922942
v 0.746181 -1.270792 -4.920135
v 0.744621 -1.268922 -4.918193
v 0.742675 -1.266590 -4.917500
v 0.911443 -0.876984 -4.646693
v 0.910636 -0.874686 -4.648635
v 0.910188 -0.873411 -4.651442
v 0.910188 -0.873411 -4.654558
v 0.910636 -0.874686 -4.657364
v 0.911443 -0.876984 -4.659307
v 0.912450 -0.879850 -4.660000
v 0.913457 -0.882716 -4.659307
v 0.914264 -0.885014 -4.657364
v 0.914712 -0.886289 -4.654558
v 0.914712 -0.886289 -4.651442
v 0.914264 -0.885013 -4.648635
v 0.913457 -0.882716 -4.646693
v 0.912450 -0.879850 -4.646000
v 0.862193 -0.894284 -4.646693
v 0.861386 -0.891986 -4.648635
v 0.860938 -0.890711 -4.651442
v 0.860938 -0.890711 -4.654558
v 0.861386 -0.891986 -4.657364
v 0.862193 -0.894284 -4.659307
v 0.863200 -0.897150 -4.660000
v 0.864207 -0.900016 -4.659307
v 0.865014 -0.902314 -4.657364
v 0.865462 -0.903589 -4.654558
v 0.865462 -0.903589 -4.651442
v 0.865014 -0.902313 -4.648635
v 0.864207 -0.900016 -4.646693
v 0.863200 -0.897150 -4.646000
v 0.765880 -1.146667 -4.879807
v 0.767791 -1.145157 -4.877864
v 0.768852 -1.144319 -4.875058
v 0.768852 -1.144319 -4.871942
v 0.767791 -1.145157 -4.869135
v 0.765880 -1.146667 -4.867193
v 0.763497 -1.148550 -4.866500
v 0.761114 -1.150433 -4.867193
v 0.759203 -1.151943 -4.869135
v 0.758142 -1.152781 -4.871942
v 0.758142 -1.152781 -4.875058
v 0.759203 -1.151943 -4.877864
v 0.761114 -1.150433 -4.879807
v 0.763497 -1.148550 -4.880500
v 0.802783 -1.193367 -4.879807
v 0.804694 -1.191857 -4.877864
v 0.805755 -1.191019 -4.875058
v 0.805755 -1.191019 -4.871942
v 0.804694 -1.191857 -4.869135
v 0.802783 -1.193367 -4.867193
v 0.800400 -1.195250 -4.866500
v 0.798017 -1.197133 -4.867193
v 0.796106 -1.198643 -4.869135
v 0.795045 -1.199481 -4.871942
v 0.795045 -1.199481 -4.875058
v 0.796106 -1.198643 -4.877864
v 0.798017 -1.197133 -4.879807
v 0.800400 -1.195250 -4.880500
vn 0.4336 0.0146 -0.9009
vn 0.0000 0.0000 -1.0000
vn 0.7813 0.0262 -0.6235
vn 0.7814 0.0262 -0.6235
vn 0.9744 0.0327 -0.2225
vn 0.9744 0.0327 0.2225
vn 0.7814 0.0262 0.6235
vn 0.4336 0.0146 0.9010
vn 0.0000 0.0000 1.0000
vn -0.4336 -0.0146 0.9010
vn -0.7814 -0.0262 0.6235
vn -0.9744 -0.0327 0.2225
vn -0.9744 -0.0327 -0.2225
vn -0.7814 -0.0262 -0.6235
vn -0.7813 -0.0262 -0.6235
vn -0.4336 -0.0146 -0.9009
vn 0.2527 0.3527 0.9010
vn 0.4553 0.6355 0.6235
vn 0.5678 0.7925 0.2225
vn 0.5678 0.7925 -0.2225
vn 0.4553 0.6355 -0.6235
vn 0.2527 0.3527 -0.9010
vn -0.2527 -0.3527 -0.9010
vn -0.4553 -0.6355 -0.6235
vn -0.5678 -0.7925 -0.2225
vn -0.5678 -0.7925 0.2225
vn -0.4553 -0.6355 0.6235
vn -0.2527 -0.3527 0.9010
vn 0.2726 0.3375 -0.9010
vn 0.4912 0.6082 -0.6235
vn 0.6126 0.7584 -0.2225
vn 0.6126 0.7584 0.2225
vn 0.4912 0.6082 0.6235
vn 0.2726 0.3375 0.9010
vn -0.2726 -0.3375 0.9010
vn -0.4912 -0.6082 0.6235
vn -0.6126 -0.7584 0.2225
vn -0.6126 -0.7584 -0.2225
vn -0.4912 -0.6082 -0.6235
vn -0.2726 -0.3375 -0.9010
vn -0.4316 0.0443 0.9010
vn -0.7777 0.0797 0.6235
vn -0.9698 0.0994 0.2225
vn -0.9698 0.0994 -0.2225
vn -0.7777 0.0797 -0.6235
vn -0.4316 0.0443 -0.9010
vn 0.4316 -0.0443 -0.9010
vn 0.7777 -0.0797 -0.6235
vn 0.9698 -0.0994 -0.2225
vn 0.9698 -0.0994 0.2225
vn 0.7777 -0.0797 0.6235
vn 0.4316 -0.0443 0.9009
vn 0.4316 -0.0443 0.9010
vn -0.2780 0.3331 0.9009
vn -0.5009 0.6002 0.6235
vn -0.6246 0.7485 0.2225
vn -0.6246 0.7485 -0.2225
vn -0.5009 0.6003 -0.6235
vn -0.2780 0.3331 -0.9010
vn 0.2780 -0.3331 -0.9010
vn 0.5009 -0.6002 -0.6235
vn 0.6246 -0.7485 -0.2225
vn 0.6246 -0.7485 0.2225
vn 0.5008 -0.6003 0.6235
vn 0.2779 -0.3331 0.9010
vn -0.1438 0.4093 0.9010
vn -0.2591 0.7376 0.6235
vn -0.3231 0.9198 0.2225
vn -0.3231 0.9198 -0.2225
vn -0.2591 0.7376 -0.6235
vn -0.1438 0.4093 -0.9009
vn 0.1438 -0.4093 -0.9010
vn 0.2591 -0.7376 -0.6235
vn 0.3231 -0.9198 -0.2225
vn 0.3231 -0.9198 0.2225
vn 0.2591 -0.7376 0.6235
vn 0.1438 -0.4093 0.9009
vn 0.3404 0.2690 -0.9010
vn 0.6134 0.4847 -0.6235
vn 0.7649 0.6044 -0.2225
vn 0.7649 0.6044 0.2225
vn 0.6134 0.4847 0.6235
vn 0.3404 0.2690 0.9010
vn -0.3404 -0.2690 0.9010
vn -0.6134 -0.4847 0.6235
vn -0.7649 -0.6044 0.2225
vn -0.7649 -0.6044 -0.2225
vn -0.6134 -0.4847 -0.6235
vn -0.3404 -0.2690 -0.9010
s 1
f 1//1 15//1 28//2 14//2
f 2//3 16//4 15//1 1//1
f 3//5 17//5 16//4 2//3
f 4//6 18//6 17//5 3//5
f 5//7 19//7 18//6 4//6
f 6//8 20//8 19//7 5//7
f 7//9 21//9 20//8 6//8
f 8//10 22//10 21//9 7//9
f 9//11 23//11 22//10 8//10
f 10//12 24//12 23//11 9//11
f 11//13 25//13 24//12 10//12
f 12//14 26//15 25//13 11//13
f 13//16 27//16 26//15 12//14
f 14//2 28//2 27//16 13//16
f 29//17 43//17 56//9 42//9
f 30//18 44//18 43//17 29//17
f 31//19 45//19 44//18 30//18
f 32//20 46//20 45//19 31//19
f 33//21 47//21 46//20 32//20
f 34//22 48//22 47//21 33//21
f 35//2 49//2 48//22 34//22
f 36//23 50//23 49//2 35//2
f 37//24 51//24 50//23 36//23
f 38//25 52//25 51//24 37//24
f 39//26 53//26 52//25 38//25
f 40//27 54//27 53//26 39//26
f 41//28 55//28 54//27 40//27
f 42//9 56//9 55//28 41//28
f 57//29 71//29 84//2 70//2
f 58//30 72//30 71//29 57//29
f 59//31 73//31 72//30 58//30
f 60//32 74//32 73//31 59//31
f 61//33 75//33 74//32 60//32
f 62//34 76//34 75//33 61//33
f 63//9 77//9 76//34 62//34
f 64//35 78//35 77//9 63//9
f 65//36 79//36 78//35 64//35
f 66//37 80//37 79//36 65//36
f 67//38 81//38 80//37 66//37
f 68//39 82//39 81//38 67//38
f 69//40 83//40 82//39 68//39
f 70//2 84//2 83//40 69//40
f 85//41 99//41 112//9 98//9
f 86//42 100//42 99//41 85//41
f 87//43 101//43 100//42 86//42
f 88//44 102//44 101//43 87//43
f 89//45 103//45 102//44 88//44
f 90//46 104//46 103//45 89//45
f 91//2 105//2 104//46 90//46
f 92//47 106//47 105//2 91//2
f 93//48 107//48 106//47 92//47
f 94//49 108//49 107//48 93//48
f 95//50 109//50 108//49 94//49
f 96//51 110//51 109//50 95//50
f 97//52 111//53 110//51 96//51
f 98//9 112//9 111//53 97//52
f 113//54 127//54 140//9 126//9
f 114//55 128//55 127//54 113//54
f 115//56 129//56 128//55 114//55
f 116//57 130//57 129//56 115//56
f 117//58 131//58 130//57 116//57
f 118//59 132//59 131//58 117//58
f 119//2 133//2 132//59 118//59
f 120//60 134//60 133//2 119//2
f 121//61 135//61 134//60 120//60
f 122//62 136//62 135//61 121//61
f 123//63 137//63 136//62 122//62
f 124//64 138//64 137//63 123//63
f 125//65 139//65 138//64 124//64
f 126//9 140//9 139//65 125//65
f 141//66 155//66 168//9 154//9
f 142//67 156//67 155//66 141//66
f 143//68 157//68 156//67 142//67
f 144//69 158//69 157//68 143//68
f 145//70 159//70 158//69 144//69
f 146//71 160//71 159//70 145//70
f 147//2 161//2 160//71 146//71
f 148//72 162//72 161//2 147//2
f 149//73 163//73 162//72 148//72
f 150//74 164//74 163//73 149//73
f 151//75 165//75 164//74 150//74
f 152//76 166//76 165//75 151//75
f 153//77 167//77 166//76 152//76
f 154//9 168//9 167//77 153//77
f 169//78 183//78 196//2 182//2
f 170//79 184//79 183//78 169//78
f 171//80 185//80 184//79 170//79
f 172//81 186//81 185//80 171//80
f 173//82 187//82 186//81 172//81
f 174//83 188//83 187//82 173//82
f 175//9 189//9 188//83 174//83
f 176//84 190//84 189//9 175//9
f 177//85 191//85 190//84 176//84
f 178//86 192//86 191//85 177//85
f 179//87 193//87 192//86 178//86
f 180//88 194//88 193//87 179//87
f 181//89 195//89 194//88 180//88
f 182//2 196//2 195//89 181//89
