# Blender v2.78 (sub 0) OBJ File: ''
# www.blender.org
mtllib Inputs of 82 - RMED.mtl
o Inputs_of_82_-_RMED.
v 0.768467 -0.724511 -4.350807
v 0.769081 -0.722154 -4.348865
v 0.769423 -0.720847 -4.346058
v 0.769423 -0.720847 -4.342942
v 0.769081 -0.722154 -4.340136
v 0.768467 -0.724511 -4.338193
v 0.767700 -0.727450 -4.337500
v 0.766933 -0.730389 -4.338193
v 0.766319 -0.732746 -4.340136
v 0.765977 -0.734053 -4.342942
v 0.765977 -0.734053 -4.346058
v 0.766319 -0.732746 -4.348865
v 0.766933 -0.730389 -4.350807
v 0.767700 -0.727450 -4.351500
v 0.785717 -0.729011 -4.350807
v 0.786331 -0.726654 -4.348865
v 0.786673 -0.725347 -4.346058
v 0.786673 -0.725347 -4.342942
v 0.786331 -0.726654 -4.340136
v 0.785717 -0.729011 -4.338193
v 0.784950 -0.731950 -4.337500
v 0.784183 -0.734889 -4.338193
v 0.783569 -0.737246 -4.340136
v 0.783227 -0.738553 -4.342942
v 0.783227 -0.738553 -4.346058
v 0.783569 -0.737246 -4.348865
v 0.784183 -0.734889 -4.350807
v 0.784950 -0.731950 -4.351500
v 0.739665 -0.310618 -4.377693
v 0.737391 -0.309745 -4.379635
v 0.736129 -0.309261 -4.382442
v 0.736129 -0.309261 -4.385558
v 0.737391 -0.309745 -4.388364
v 0.739665 -0.310618 -4.390306
v 0.742500 -0.311707 -4.391000
v 0.745335 -0.312796 -4.390306
v 0.747609 -0.313669 -4.388364
v 0.748871 -0.314153 -4.385558
v 0.748871 -0.314153 -4.382442
v 0.747609 -0.313669 -4.379635
v 0.745335 -0.312796 -4.377693
v 0.742500 -0.311707 -4.377000
v 0.727165 -0.343174 -4.377693
v 0.724891 -0.342301 -4.379635
v 0.723629 -0.341817 -4.382442
v 0.723629 -0.341817 -4.385558
v 0.724891 -0.342301 -4.388364
v 0.727165 -0.343174 -4.390306
v 0.730000 -0.344263 -4.391000
v 0.732835 -0.345352 -4.390306
v 0.735109 -0.346225 -4.388364
v 0.736371 -0.346709 -4.385558
v 0.736371 -0.346709 -4.382442
v 0.735109 -0.346225 -4.379635
v 0.732835 -0.345352 -4.377693
v 0.730000 -0.344263 -4.377000
v 0.636982 -0.668017 -4.280307
v 0.639413 -0.667870 -4.278365
v 0.640762 -0.667789 -4.275558
v 0.640762 -0.667789 -4.272442
v 0.639413 -0.667870 -4.269636
v 0.636982 -0.668017 -4.267694
v 0.633950 -0.668200 -4.267000
v 0.630918 -0.668383 -4.267694
v 0.628487 -0.668530 -4.269636
v 0.627138 -0.668611 -4.272442
v 0.627138 -0.668611 -4.275558
v 0.628487 -0.668530 -4.278365
v 0.630918 -0.668383 -4.280307
v 0.633950 -0.668200 -4.281000
v 0.638282 -0.689567 -4.280307
v 0.640713 -0.689420 -4.278365
v 0.642062 -0.689339 -4.275558
v 0.642062 -0.689339 -4.272442
v 0.640713 -0.689420 -4.269636
v 0.638282 -0.689567 -4.267694
v 0.635250 -0.689750 -4.267000
v 0.632218 -0.689933 -4.267694
v 0.629787 -0.690080 -4.269636
v 0.628438 -0.690161 -4.272442
v 0.628438 -0.690161 -4.275558
v 0.629787 -0.690080 -4.278365
v 0.632218 -0.689933 -4.280307
v 0.635250 -0.689750 -4.281000
v 0.874617 -0.683959 -4.189307
v 0.876716 -0.682724 -4.187365
v 0.877881 -0.682038 -4.184558
v 0.877881 -0.682038 -4.181442
v 0.876716 -0.682724 -4.178636
v 0.874617 -0.683959 -4.176693
v 0.872000 -0.685500 -4.176000
v 0.869383 -0.687041 -4.176693
v 0.867283 -0.688276 -4.178636
v 0.866119 -0.688962 -4.181442
v 0.866119 -0.688962 -4.184558
v 0.867283 -0.688276 -4.187365
v 0.869383 -0.687041 -4.189307
v 0.872000 -0.685500 -4.190000
v 0.900867 -0.728559 -4.189307
v 0.902966 -0.727324 -4.187365
v 0.904131 -0.726638 -4.184558
v 0.904131 -0.726638 -4.181442
v 0.902966 -0.727324 -4.178636
v 0.900867 -0.728559 -4.176693
v 0.898250 -0.730100 -4.176000
v 0.895633 -0.731641 -4.176693
v 0.893533 -0.732876 -4.178636
v 0.892369 -0.733562 -4.181442
v 0.892369 -0.733562 -4.184558
v 0.893533 -0.732876 -4.187365
v 0.895633 -0.731641 -4.189307
v 0.898250 -0.730100 -4.190000
v 0.933339 -0.749799 -4.191693
v 0.931356 -0.748385 -4.193635
v 0.930255 -0.747600 -4.196442
v 0.930255 -0.747600 -4.199558
v 0.931356 -0.748385 -4.202364
v 0.933339 -0.749799 -4.204307
v 0.935812 -0.751562 -4.205000
v 0.938285 -0.753325 -4.204307
v 0.940268 -0.754739 -4.202364
v 0.941369 -0.755524 -4.199558
v 0.941369 -0.755524 -4.196442
v 0.940268 -0.754739 -4.193635
v 0.938285 -0.753325 -4.191693
v 0.935812 -0.751562 -4.191000
v 0.910177 -0.782287 -4.191693
v 0.908194 -0.780873 -4.193635
v 0.907093 -0.780088 -4.196442
v 0.907093 -0.780088 -4.199558
v 0.908194 -0.780873 -4.202364
v 0.910177 -0.782287 -4.204307
v 0.912650 -0.784050 -4.205000
v 0.915123 -0.785813 -4.204307
v 0.917106 -0.787227 -4.202364
v 0.918207 -0.788012 -4.199558
v 0.918207 -0.788012 -4.196442
v 0.917106 -0.787227 -4.193635
v 0.915123 -0.785813 -4.191693
v 0.912650 -0.784050 -4.191000
v 0.644804 -0.720410 -4.344193
v 0.645489 -0.718073 -4.346136
v 0.645869 -0.716776 -4.348942
v 0.645869 -0.716776 -4.352058
v 0.645489 -0.718073 -4.354865
v 0.644804 -0.720410 -4.356807
v 0.643950 -0.723325 -4.357500
v 0.643096 -0.726240 -4.356807
v 0.642411 -0.728577 -4.354865
v 0.642030 -0.729874 -4.352058
v 0.642030 -0.729874 -4.348942
v 0.642411 -0.728577 -4.346136
v 0.643096 -0.726240 -4.344193
v 0.643950 -0.723325 -4.343500
v 0.630304 -0.716160 -4.344193
v 0.630989 -0.713823 -4.346136
v 0.631370 -0.712526 -4.348942
v 0.631370 -0.712526 -4.352058
v 0.630989 -0.713823 -4.354865
v 0.630304 -0.716160 -4.356807
v 0.629450 -0.719075 -4.357500
v 0.628596 -0.721990 -4.356807
v 0.627911 -0.724327 -4.354865
v 0.627531 -0.725624 -4.352058
v 0.627531 -0.725624 -4.348942
v 0.627911 -0.724327 -4.346136
v 0.628596 -0.721990 -4.344193
v 0.629450 -0.719075 -4.343500
vn 0.1095 0.4198 -0.9010
vn 0.0000 0.0000 -1.0000
vn 0.1973 0.7565 -0.6235
vn 0.2461 0.9434 -0.2225
vn 0.2461 0.9434 0.2225
vn 0.1973 0.7565 0.6235
vn 0.1095 0.4198 0.9010
vn 0.0000 0.0000 1.0000
vn -0.1095 -0.4198 0.9010
vn -0.1973 -0.7565 0.6235
vn -0.2461 -0.9433 0.2225
vn -0.2461 -0.9434 0.2225
vn -0.2461 -0.9434 -0.2225
vn -0.1973 -0.7565 -0.6235
vn -0.1095 -0.4198 -0.9010
vn -0.4050 0.1555 0.9010
vn -0.7299 0.2802 0.6235
vn -0.9101 0.3494 0.2225
vn -0.9101 0.3494 -0.2225
vn -0.7299 0.2802 -0.6235
vn -0.4050 0.1555 -0.9010
vn 0.4050 -0.1555 -0.9010
vn 0.7299 -0.2802 -0.6235
vn 0.9101 -0.3494 -0.2225
vn 0.9101 -0.3494 0.2225
vn 0.7299 -0.2802 0.6235
vn 0.4050 -0.1555 0.9010
vn 0.4331 0.0261 -0.9009
vn 0.7804 0.0471 -0.6235
vn 0.9731 0.0587 -0.2225
vn 0.9731 0.0587 0.2225
vn 0.7804 0.0471 0.6235
vn 0.4331 0.0261 0.9009
vn -0.4331 -0.0261 0.9009
vn -0.7804 -0.0471 0.6235
vn -0.9731 -0.0587 0.2225
vn -0.9731 -0.0587 -0.2225
vn -0.7804 -0.0471 -0.6235
vn -0.4331 -0.0261 -0.9009
vn 0.3739 0.2201 -0.9010
vn 0.6738 0.3965 -0.6235
vn 0.8402 0.4945 -0.2225
vn 0.8402 0.4945 0.2225
vn 0.6738 0.3966 0.6235
vn 0.3739 0.2201 0.9010
vn -0.3739 -0.2201 0.9010
vn -0.6738 -0.3966 0.6235
vn -0.8402 -0.4945 0.2225
vn -0.8402 -0.4945 -0.2225
vn -0.6737 -0.3966 -0.6235
vn -0.3739 -0.2201 -0.9010
vn -0.3533 0.2519 0.9010
vn -0.6366 0.4538 0.6235
vn -0.7938 0.5659 0.2225
vn -0.7938 0.5659 -0.2225
vn -0.6366 0.4538 -0.6235
vn -0.3533 0.2518 -0.9010
vn 0.3533 -0.2518 -0.9010
vn 0.6366 -0.4538 -0.6235
vn 0.7938 -0.5659 -0.2225
vn 0.7938 -0.5659 0.2225
vn 0.6366 -0.4538 0.6235
vn 0.3533 -0.2519 0.9010
vn 0.1220 0.4163 0.9010
vn 0.2199 0.7502 0.6235
vn 0.2742 0.9355 0.2225
vn 0.2742 0.9355 -0.2225
vn 0.2199 0.7502 -0.6235
vn 0.1220 0.4163 -0.9010
vn -0.1220 -0.4163 -0.9010
vn -0.2199 -0.7502 -0.6235
vn -0.2742 -0.9355 -0.2225
vn -0.2742 -0.9355 0.2225
vn -0.2199 -0.7502 0.6235
vn -0.1220 -0.4163 0.9010
s 1
f 1//1 15//1 28//2 14//2
f 2//3 16//3 15//1 1//1
f 3//4 17//4 16//3 2//3
f 4//5 18//5 17//4 3//4
f 5//6 19//6 18//5 4//5
f 6//7 20//7 19//6 5//6
f 7//8 21//8 20//7 6//7
f 8//9 22//9 21//8 7//8
f 9//10 23//10 22//9 8//9
f 10//11 24//12 23//10 9//10
f 11//13 25//13 24//12 10//11
f 12//14 26//14 25//13 11//13
f 13//15 27//15 26//14 12//14
f 14//2 28//2 27//15 13//15
f 29//16 43//16 56//8 42//8
f 30//17 44//17 43//16 29//16
f 31//18 45//18 44//17 30//17
f 32//19 46//19 45//18 31//18
f 33//20 47//20 46//19 32//19
f 34//21 48//21 47//20 33//20
f 35//2 49//2 48//21 34//21
f 36//22 50//22 49//2 35//2
f 37//23 51//23 50//22 36//22
f 38//24 52//24 51//23 37//23
f 39//25 53//25 52//24 38//24
f 40//26 54//26 53//25 39//25
f 41//27 55//27 54//26 40//26
f 42//8 56//8 55//27 41//27
f 57//28 71//28 84//2 70//2
f 58//29 72//29 71//28 57//28
f 59//30 73//30 72//29 58//29
f 60//31 74//31 73//30 59//30
f 61//32 75//32 74//31 60//31
f 62//33 76//33 75//32 61//32
f 63//8 77//8 76//33 62//33
f 64//34 78//34 77//8 63//8
f 65//35 79//35 78//34 64//34
f 66//36 80//36 79//35 65//35
f 67//37 81//37 80//36 66//36
f 68//38 82//38 81//37 67//37
f 69//39 83//39 82//38 68//38
f 70//2 84//2 83//39 69//39
f 85//40 99//40 112//2 98//2
f 86//41 100//41 99//40 85//40
f 87//42 101//42 100//41 86//41
f 88//43 102//43 101//42 87//42
f 89//44 103//44 102//43 88//43
f 90//45 104//45 103//44 89//44
f 91//8 105//8 104//45 90//45
f 92//46 106//46 105//8 91//8
f 93//47 107//47 106//46 92//46
f 94//48 108//48 107//47 93//47
f 95//49 109//49 108//48 94//48
f 96//50 110//50 109//49 95//49
f 97//51 111//51 110//50 96//50
f 98//2 112//2 111//51 97//51
f 113//52 127//52 140//8 126//8
f 114//53 128//53 127//52 113//52
f 115//54 129//54 128//53 114//53
f 116//55 130//55 129//54 115//54
f 117//56 131//56 130//55 116//55
f 118//57 132//57 131//56 117//56
f 119//2 133//2 132//57 118//57
f 120//58 134//58 133//2 119//2
f 121//59 135//59 134//58 120//58
f 122//60 136//60 135//59 121//59
f 123//61 137//61 136//60 122//60
f 124//62 138//62 137//61 123//61
f 125//63 139//63 138//62 124//62
f 126//8 140//8 139//63 125//63
f 141//64 155//64 168//8 154//8
f 142//65 156//65 155//64 141//64
f 143//66 157//66 156//65 142//65
f 144//67 158//67 157//66 143//66
f 145//68 159//68 158//67 144//67
f 146//69 160//69 159//68 145//68
f 147//2 161//2 160//69 146//69
f 148//70 162//70 161//2 147//2
f 149//71 163//71 162//70 148//70
f 150//72 164//72 163//71 149//71
f 151//73 165//73 164//72 150//72
f 152//74 166//74 165//73 151//73
f 153//75 167//75 166//74 152//74
f 154//8 168//8 167//75 153//75
