# Blender v2.78 (sub 0) OBJ File: ''
# www.blender.org
o Inputs_of_18095_-_URBL.
v 0.455423 -0.845715 -4.439307
v 0.456765 -0.843683 -4.437365
v 0.457510 -0.842555 -4.434558
v 0.457510 -0.842555 -4.431442
v 0.456765 -0.843683 -4.428636
v 0.455423 -0.845715 -4.426693
v 0.453750 -0.848250 -4.426000
v 0.452077 -0.850785 -4.426693
v 0.450735 -0.852817 -4.428636
v 0.449990 -0.853945 -4.431442
v 0.449990 -0.853945 -4.434558
v 0.450735 -0.852817 -4.437365
v 0.452077 -0.850785 -4.439307
v 0.453750 -0.848250 -4.440000
v 0.481173 -0.862715 -4.439307
v 0.482515 -0.860683 -4.437365
v 0.483260 -0.859555 -4.434558
v 0.483260 -0.859555 -4.431442
v 0.482515 -0.860683 -4.428636
v 0.481173 -0.862715 -4.426693
v 0.479500 -0.865250 -4.426000
v 0.477827 -0.867785 -4.426693
v 0.476485 -0.869817 -4.428636
v 0.475740 -0.870945 -4.431442
v 0.475740 -0.870945 -4.434558
v 0.476485 -0.869817 -4.437365
v 0.477827 -0.867785 -4.439307
v 0.479500 -0.865250 -4.440000
v 0.451220 -0.746372 -4.572807
v 0.451997 -0.744064 -4.570865
v 0.452429 -0.742783 -4.568058
v 0.452429 -0.742783 -4.564942
v 0.451997 -0.744064 -4.562136
v 0.451220 -0.746372 -4.560194
v 0.450250 -0.749250 -4.559500
v 0.449280 -0.752128 -4.560194
v 0.448503 -0.754436 -4.562136
v 0.448071 -0.755717 -4.564942
v 0.448071 -0.755717 -4.568058
v 0.448503 -0.754436 -4.570865
v 0.449280 -0.752128 -4.572807
v 0.450250 -0.749250 -4.573500
v 0.483870 -0.757372 -4.572807
v 0.484647 -0.755064 -4.570865
v 0.485079 -0.753783 -4.568058
v 0.485079 -0.753783 -4.564942
v 0.484647 -0.755064 -4.562136
v 0.483870 -0.757372 -4.560194
v 0.482900 -0.760250 -4.559500
v 0.481930 -0.763128 -4.560194
v 0.481153 -0.765436 -4.562136
v 0.480721 -0.766717 -4.564942
v 0.480721 -0.766717 -4.568058
v 0.481153 -0.765436 -4.570865
v 0.481930 -0.763128 -4.572807
v 0.482900 -0.760250 -4.573500
v 0.453318 -0.836680 -4.444694
v 0.450886 -0.836544 -4.446636
v 0.449536 -0.836468 -4.449442
v 0.449536 -0.836468 -4.452558
v 0.450886 -0.836544 -4.455365
v 0.453318 -0.836680 -4.457307
v 0.456350 -0.836850 -4.458000
v 0.459382 -0.837020 -4.457307
v 0.461814 -0.837156 -4.455365
v 0.463164 -0.837232 -4.452558
v 0.463164 -0.837232 -4.449442
v 0.461814 -0.837156 -4.446636
v 0.459382 -0.837020 -4.444694
v 0.456350 -0.836850 -4.444000
v 0.452018 -0.859880 -4.444694
v 0.449586 -0.859744 -4.446636
v 0.448236 -0.859668 -4.449442
v 0.448236 -0.859668 -4.452558
v 0.449586 -0.859744 -4.455365
v 0.452018 -0.859880 -4.457307
v 0.455050 -0.860050 -4.458000
v 0.458082 -0.860220 -4.457307
v 0.460514 -0.860356 -4.455365
v 0.461864 -0.860432 -4.452558
v 0.461864 -0.860432 -4.449442
v 0.460514 -0.860356 -4.446636
v 0.458082 -0.860220 -4.444694
v 0.455050 -0.860050 -4.444000
v 0.467447 -0.814821 -4.526807
v 0.465320 -0.813635 -4.524865
v 0.464140 -0.812976 -4.522058
v 0.464140 -0.812976 -4.518942
v 0.465320 -0.813635 -4.516136
v 0.467447 -0.814821 -4.514194
v 0.470100 -0.816300 -4.513500
v 0.472753 -0.817779 -4.514194
v 0.474880 -0.818965 -4.516136
v 0.476060 -0.819624 -4.518942
v 0.476060 -0.819624 -4.522058
v 0.474880 -0.818965 -4.524865
v 0.472753 -0.817779 -4.526807
v 0.470100 -0.816300 -4.527500
v 0.498713 -0.758750 -4.526807
v 0.496586 -0.757564 -4.524865
v 0.495406 -0.756905 -4.522058
v 0.495406 -0.756905 -4.518942
v 0.496586 -0.757564 -4.516136
v 0.498713 -0.758750 -4.514194
v 0.501366 -0.760229 -4.513500
v 0.504019 -0.761708 -4.514194
v 0.506146 -0.762894 -4.516136
v 0.507326 -0.763553 -4.518942
v 0.507326 -0.763553 -4.522058
v 0.506146 -0.762894 -4.524865
v 0.504019 -0.761708 -4.526807
v 0.501366 -0.760229 -4.527500
v 0.467849 -0.835018 -4.461693
v 0.465723 -0.833829 -4.463635
v 0.464543 -0.833170 -4.466442
v 0.464543 -0.833170 -4.469558
v 0.465723 -0.833829 -4.472364
v 0.467849 -0.835018 -4.474307
v 0.470500 -0.836500 -4.475000
v 0.473151 -0.837982 -4.474307
v 0.475277 -0.839171 -4.472364
v 0.476457 -0.839830 -4.469558
v 0.476457 -0.839830 -4.466442
v 0.475277 -0.839171 -4.463635
v 0.473151 -0.837982 -4.461693
v 0.470500 -0.836500 -4.461000
v 0.458149 -0.852368 -4.461693
v 0.456023 -0.851179 -4.463635
v 0.454843 -0.850520 -4.466442
v 0.454843 -0.850520 -4.469558
v 0.456023 -0.851179 -4.472364
v 0.458149 -0.852368 -4.474307
v 0.460800 -0.853850 -4.475000
v 0.463451 -0.855332 -4.474307
v 0.465577 -0.856521 -4.472364
v 0.466757 -0.857180 -4.469558
v 0.466757 -0.857180 -4.466442
v 0.465577 -0.856521 -4.463635
v 0.463451 -0.855332 -4.461693
v 0.460800 -0.853850 -4.461000
v 0.432760 -0.959771 -4.286694
v 0.434573 -0.958144 -4.288636
v 0.435579 -0.957242 -4.291442
v 0.435579 -0.957242 -4.294558
v 0.434573 -0.958144 -4.297365
v 0.432760 -0.959771 -4.299307
v 0.430500 -0.961800 -4.300000
v 0.428240 -0.963829 -4.299307
v 0.426427 -0.965456 -4.297365
v 0.425421 -0.966358 -4.294558
v 0.425421 -0.966358 -4.291442
v 0.426427 -0.965456 -4.288636
v 0.428240 -0.963829 -4.286694
v 0.430500 -0.961800 -4.286000
v 0.402550 -0.926112 -4.286694
v 0.404363 -0.924485 -4.288636
v 0.405369 -0.923583 -4.291442
v 0.405369 -0.923583 -4.294558
v 0.404363 -0.924485 -4.297365
v 0.402550 -0.926112 -4.299307
v 0.400290 -0.928141 -4.300000
v 0.398030 -0.930170 -4.299307
v 0.396217 -0.931797 -4.297365
v 0.395211 -0.932699 -4.294558
v 0.395211 -0.932699 -4.291442
v 0.396217 -0.931797 -4.288636
v 0.398030 -0.930170 -4.286694
v 0.400290 -0.928141 -4.286000
v 0.438543 -0.998927 -4.310693
v 0.438777 -0.996503 -4.312635
v 0.438907 -0.995157 -4.315442
v 0.438907 -0.995157 -4.318558
v 0.438777 -0.996503 -4.321364
v 0.438543 -0.998927 -4.323307
v 0.438250 -1.001950 -4.324000
v 0.437957 -1.004973 -4.323307
v 0.437723 -1.007397 -4.321364
v 0.437593 -1.008743 -4.318558
v 0.437593 -1.008743 -4.315442
v 0.437723 -1.007397 -4.312635
v 0.437957 -1.004973 -4.310693
v 0.438250 -1.001950 -4.310000
v 0.403323 -0.995519 -4.310693
v 0.403557 -0.993095 -4.312635
v 0.403687 -0.991749 -4.315442
v 0.403687 -0.991749 -4.318558
v 0.403557 -0.993095 -4.321364
v 0.403323 -0.995519 -4.323307
v 0.403030 -0.998542 -4.324000
v 0.402737 -1.001565 -4.323307
v 0.402503 -1.003989 -4.321364
v 0.402373 -1.005335 -4.318558
v 0.402373 -1.005335 -4.315442
v 0.402503 -1.003989 -4.312635
v 0.402737 -1.001565 -4.310693
v 0.403030 -0.998542 -4.310000
vn 0.2390 0.3621 -0.9010
vn 0.0000 0.0000 -1.0000
vn 0.4307 0.6524 -0.6235
vn 0.5371 0.8136 -0.2225
vn 0.5371 0.8136 0.2225
vn 0.4307 0.6524 0.6235
vn 0.2391 0.3621 0.9009
vn 0.0000 0.0000 1.0000
vn -0.2391 -0.3621 0.9009
vn -0.4307 -0.6524 0.6235
vn -0.5371 -0.8136 0.2225
vn -0.5371 -0.8136 -0.2225
vn -0.4307 -0.6524 -0.6235
vn -0.2390 -0.3621 -0.9010
vn 0.1385 0.4111 -0.9010
vn 0.2496 0.7409 -0.6235
vn 0.3113 0.9239 -0.2225
vn 0.3113 0.9239 0.2225
vn 0.2496 0.7409 0.6235
vn 0.1385 0.4111 0.9010
vn -0.1385 -0.4111 0.9010
vn -0.2496 -0.7409 0.6235
vn -0.3113 -0.9239 0.2225
vn -0.3113 -0.9239 -0.2225
vn -0.2496 -0.7409 -0.6235
vn -0.1385 -0.4111 -0.9010
vn -0.4331 0.0243 0.9010
vn -0.7806 0.0437 0.6235
vn -0.9734 0.0545 0.2225
vn -0.9734 0.0545 -0.2225
vn -0.7806 0.0437 -0.6235
vn -0.4332 0.0243 -0.9009
vn 0.4332 -0.0243 -0.9009
vn 0.7806 -0.0437 -0.6235
vn 0.9734 -0.0545 -0.2225
vn 0.9734 -0.0545 0.2225
vn 0.7806 -0.0437 0.6235
vn 0.4331 -0.0243 0.9010
vn -0.3789 0.2113 -0.9009
vn -0.6828 0.3807 -0.6235
vn -0.8515 0.4748 -0.2225
vn -0.8515 0.4748 0.2225
vn -0.6828 0.3807 0.6235
vn -0.3789 0.2113 0.9010
vn 0.3789 -0.2113 0.9010
vn 0.6828 -0.3807 0.6235
vn 0.8515 -0.4748 0.2225
vn 0.8515 -0.4748 -0.2225
vn 0.6828 -0.3807 -0.6235
vn 0.3790 -0.2113 -0.9009
vn -0.3787 0.2117 0.9009
vn -0.6824 0.3815 0.6235
vn -0.8509 0.4758 0.2225
vn -0.8509 0.4757 -0.2225
vn -0.6824 0.3815 -0.6235
vn -0.3787 0.2117 -0.9010
vn 0.3787 -0.2117 -0.9010
vn 0.6824 -0.3815 -0.6235
vn 0.8509 -0.4757 -0.2225
vn 0.8509 -0.4758 0.2225
vn 0.6824 -0.3815 0.6235
vn 0.3787 -0.2117 0.9009
vn 0.3229 0.2898 0.9010
vn 0.5818 0.5222 0.6235
vn 0.7255 0.6512 0.2225
vn 0.7255 0.6512 -0.2225
vn 0.5818 0.5222 -0.6235
vn 0.3229 0.2898 -0.9010
vn -0.3229 -0.2898 -0.9010
vn -0.5818 -0.5222 -0.6235
vn -0.7255 -0.6512 -0.2225
vn -0.7255 -0.6512 0.2225
vn -0.5818 -0.5222 0.6235
vn -0.3229 -0.2898 0.9010
vn 0.0418 0.4318 0.9010
vn 0.0753 0.7782 0.6235
vn 0.0939 0.9704 0.2225
vn 0.0939 0.9704 -0.2225
vn 0.0753 0.7782 -0.6235
vn 0.0418 0.4318 -0.9010
vn -0.0418 -0.4318 -0.9010
vn -0.0753 -0.7782 -0.6235
vn -0.0939 -0.9704 -0.2225
vn -0.0939 -0.9704 0.2225
vn -0.0753 -0.7782 0.6235
vn -0.0418 -0.4318 0.9010
s 1
f 1//1 15//1 28//2 14//2
f 2//3 16//3 15//1 1//1
f 3//4 17//4 16//3 2//3
f 4//5 18//5 17//4 3//4
f 5//6 19//6 18//5 4//5
f 6//7 20//7 19//6 5//6
f 7//8 21//8 20//7 6//7
f 8//9 22//9 21//8 7//8
f 9//10 23//10 22//9 8//9
f 10//11 24//11 23//10 9//10
f 11//12 25//12 24//11 10//11
f 12//13 26//13 25//12 11//12
f 13//14 27//14 26//13 12//13
f 14//2 28//2 27//14 13//14
f 29//15 43//15 56//2 42//2
f 30//16 44//16 43//15 29//15
f 31//17 45//17 44//16 30//16
f 32//18 46//18 45//17 31//17
f 33//19 47//19 46//18 32//18
f 34//20 48//20 47//19 33//19
f 35//8 49//8 48//20 34//20
f 36//21 50//21 49//8 35//8
f 37//22 51//22 50//21 36//21
f 38//23 52//23 51//22 37//22
f 39//24 53//24 52//23 38//23
f 40//25 54//25 53//24 39//24
f 41//26 55//26 54//25 40//25
f 42//2 56//2 55//26 41//26
f 57//27 71//27 84//8 70//8
f 58//28 72//28 71//27 57//27
f 59//29 73//29 72//28 58//28
f 60//30 74//30 73//29 59//29
f 61//31 75//31 74//30 60//30
f 62//32 76//32 75//31 61//31
f 63//2 77//2 76//32 62//32
f 64//33 78//33 77//2 63//2
f 65//34 79//34 78//33 64//33
f 66//35 80//35 79//34 65//34
f 67//36 81//36 80//35 66//35
f 68//37 82//37 81//36 67//36
f 69//38 83//38 82//37 68//37
f 70//8 84//8 83//38 69//38
f 85//39 99//39 112//2 98//2
f 86//40 100//40 99//39 85//39
f 87//41 101//41 100//40 86//40
f 88//42 102//42 101//41 87//41
f 89//43 103//43 102//42 88//42
f 90//44 104//44 103//43 89//43
f 91//8 105//8 104//44 90//44
f 92//45 106//45 105//8 91//8
f 93//46 107//46 106//45 92//45
f 94//47 108//47 107//46 93//46
f 95//48 109//48 108//47 94//47
f 96//49 110//49 109//48 95//48
f 97//50 111//50 110//49 96//49
f 98//2 112//2 111//50 97//50
f 113//51 127//51 140//8 126//8
f 114//52 128//52 127//51 113//51
f 115//53 129//53 128//52 114//52
f 116//54 130//54 129//53 115//53
f 117//55 131//55 130//54 116//54
f 118//56 132//56 131//55 117//55
f 119//2 133//2 132//56 118//56
f 120//57 134//57 133//2 119//2
f 121//58 135//58 134//57 120//57
f 122//59 136//59 135//58 121//58
f 123//60 137//60 136//59 122//59
f 124//61 138//61 137//60 123//60
f 125//62 139//62 138//61 124//61
f 126//8 140//8 139//62 125//62
f 141//63 155//63 168//8 154//8
f 142//64 156//64 155//63 141//63
f 143//65 157//65 156//64 142//64
f 144//66 158//66 157//65 143//65
f 145//67 159//67 158//66 144//66
f 146//68 160//68 159//67 145//67
f 147//2 161//2 160//68 146//68
f 148//69 162//69 161//2 147//2
f 149//70 163//70 162//69 148//69
f 150//71 164//71 163//70 149//70
f 151//72 165//72 164//71 150//71
f 152//73 166//73 165//72 151//72
f 153//74 167//74 166//73 152//73
f 154//8 168//8 167//74 153//74
f 169//75 183//75 196//8 182//8
f 170//76 184//76 183//75 169//75
f 171//77 185//77 184//76 170//76
f 172//78 186//78 185//77 171//77
f 173//79 187//79 186//78 172//78
f 174//80 188//80 187//79 173//79
f 175//2 189//2 188//80 174//80
f 176//81 190//81 189//2 175//2
f 177//82 191//82 190//81 176//81
f 178//83 192//83 191//82 177//82
f 179//84 193//84 192//83 178//83
f 180//85 194//85 193//84 179//84
f 181//86 195//86 194//85 180//85
f 182//8 196//8 195//86 181//86
