# Blender v2.78 (sub 0) OBJ File: ''
# www.blender.org
mtllib Inputs of 508 - AVJR.mtl
o Inputs_of_508_-_[AVJR.]
v 0.385958 -0.966589 -4.631807
v 0.383919 -0.965256 -4.629865
v 0.382787 -0.964517 -4.627058
v 0.382787 -0.964517 -4.623942
v 0.383919 -0.965256 -4.621136
v 0.385958 -0.966589 -4.619194
v 0.388500 -0.968250 -4.618500
v 0.391042 -0.969911 -4.619194
v 0.393081 -0.971244 -4.621136
v 0.394213 -0.971983 -4.623942
v 0.394213 -0.971983 -4.627058
v 0.393081 -0.971244 -4.629865
v 0.391042 -0.969911 -4.631807
v 0.388500 -0.968250 -4.632500
v 0.418958 -0.916089 -4.631807
v 0.416919 -0.914756 -4.629865
v 0.415787 -0.914017 -4.627058
v 0.415787 -0.914017 -4.623942
v 0.416919 -0.914756 -4.621136
v 0.418958 -0.916089 -4.619194
v 0.421500 -0.917750 -4.618500
v 0.424042 -0.919411 -4.619194
v 0.426081 -0.920744 -4.621136
v 0.427213 -0.921483 -4.623942
v 0.427213 -0.921483 -4.627058
v 0.426081 -0.920744 -4.629865
v 0.424042 -0.919411 -4.631807
v 0.421500 -0.917750 -4.632500
v 0.427066 -0.636108 -4.502193
v 0.424693 -0.635561 -4.504136
v 0.423376 -0.635257 -4.506942
v 0.423376 -0.635257 -4.510058
v 0.424693 -0.635561 -4.512865
v 0.427066 -0.636108 -4.514807
v 0.430026 -0.636790 -4.515500
v 0.432986 -0.637472 -4.514807
v 0.435359 -0.638019 -4.512865
v 0.436676 -0.638323 -4.510058
v 0.436676 -0.638323 -4.506942
v 0.435359 -0.638019 -4.504136
v 0.432986 -0.637472 -4.502193
v 0.430026 -0.636790 -4.501500
v 0.414891 -0.688927 -4.502193
v 0.412518 -0.688380 -4.504136
v 0.411201 -0.688076 -4.506942
v 0.411201 -0.688076 -4.510058
v 0.412518 -0.688380 -4.512865
v 0.414891 -0.688927 -4.514807
v 0.417851 -0.689609 -4.515500
v 0.420811 -0.690291 -4.514807
v 0.423184 -0.690838 -4.512865
v 0.424501 -0.691142 -4.510058
v 0.424501 -0.691142 -4.506942
v 0.423184 -0.690838 -4.504136
v 0.420811 -0.690291 -4.502193
v 0.417851 -0.689609 -4.501500
v 0.456575 -1.049791 -4.845694
v 0.458799 -1.048798 -4.847636
v 0.460033 -1.048247 -4.850442
v 0.460033 -1.048247 -4.853558
v 0.458799 -1.048798 -4.856365
v 0.456575 -1.049791 -4.858307
v 0.453802 -1.051030 -4.859000
v 0.451029 -1.052269 -4.858307
v 0.448805 -1.053262 -4.856365
v 0.447571 -1.053813 -4.853558
v 0.447571 -1.053813 -4.850442
v 0.448805 -1.053262 -4.847636
v 0.451029 -1.052269 -4.845694
v 0.453802 -1.051030 -4.845000
v 0.443273 -1.020011 -4.845694
v 0.445497 -1.019018 -4.847636
v 0.446731 -1.018467 -4.850442
v 0.446731 -1.018467 -4.853558
v 0.445497 -1.019018 -4.856365
v 0.443273 -1.020011 -4.858307
v 0.440500 -1.021250 -4.859000
v 0.437727 -1.022489 -4.858307
v 0.435503 -1.023482 -4.856365
v 0.434269 -1.024033 -4.853558
v 0.434269 -1.024033 -4.850442
v 0.435503 -1.023482 -4.847636
v 0.437727 -1.022489 -4.845694
v 0.440500 -1.021250 -4.845000
v 0.792088 -0.612314 -4.485806
v 0.793327 -0.610217 -4.483864
v 0.794015 -0.609054 -4.481058
v 0.794015 -0.609054 -4.477942
v 0.793327 -0.610217 -4.475135
v 0.792088 -0.612314 -4.473193
v 0.790543 -0.614929 -4.472500
v 0.788998 -0.617544 -4.473193
v 0.787759 -0.619641 -4.475135
v 0.787071 -0.620804 -4.477942
v 0.787071 -0.620804 -4.481058
v 0.787759 -0.619641 -4.483864
v 0.788998 -0.617544 -4.485806
v 0.790543 -0.614929 -4.486500
v 0.831045 -0.635335 -4.485806
v 0.832284 -0.633238 -4.483864
v 0.832972 -0.632075 -4.481058
v 0.832972 -0.632075 -4.477942
v 0.832284 -0.633238 -4.475135
v 0.831045 -0.635335 -4.473193
v 0.829500 -0.637950 -4.472500
v 0.827955 -0.640565 -4.473193
v 0.826716 -0.642662 -4.475135
v 0.826028 -0.643825 -4.477942
v 0.826028 -0.643825 -4.481058
v 0.826716 -0.642662 -4.483864
v 0.827955 -0.640565 -4.485806
v 0.829500 -0.637950 -4.486500
v 1.109881 -0.563074 -4.806694
v 1.108784 -0.560899 -4.808636
v 1.108175 -0.559693 -4.811442
v 1.108175 -0.559693 -4.814558
v 1.108784 -0.560899 -4.817365
v 1.109881 -0.563074 -4.819307
v 1.111250 -0.565785 -4.820000
v 1.112619 -0.568496 -4.819307
v 1.113716 -0.570671 -4.817365
v 1.114325 -0.571877 -4.814558
v 1.114325 -0.571877 -4.811442
v 1.113716 -0.570671 -4.808636
v 1.112619 -0.568496 -4.806694
v 1.111250 -0.565785 -4.806000
v 1.091131 -0.572539 -4.806694
v 1.090034 -0.570364 -4.808636
v 1.089425 -0.569158 -4.811442
v 1.089425 -0.569158 -4.814558
v 1.090034 -0.570364 -4.817365
v 1.091131 -0.572539 -4.819307
v 1.092500 -0.575250 -4.820000
v 1.093869 -0.577961 -4.819307
v 1.094966 -0.580136 -4.817365
v 1.095575 -0.581342 -4.814558
v 1.095575 -0.581342 -4.811442
v 1.094966 -0.580136 -4.808636
v 1.093869 -0.577961 -4.806694
v 1.092500 -0.575250 -4.806000
v 0.425155 -1.068868 -4.771693
v 0.422737 -1.068570 -4.773635
v 0.421396 -1.068404 -4.776442
v 0.421396 -1.068404 -4.779558
v 0.422737 -1.068570 -4.782364
v 0.425155 -1.068868 -4.784307
v 0.428169 -1.069240 -4.785000
v 0.431183 -1.069612 -4.784307
v 0.433601 -1.069910 -4.782364
v 0.434942 -1.070076 -4.779558
v 0.434942 -1.070076 -4.776442
v 0.433601 -1.069910 -4.773635
v 0.431183 -1.069612 -4.771693
v 0.428169 -1.069240 -4.771000
v 0.417686 -1.129378 -4.771693
v 0.415268 -1.129080 -4.773635
v 0.413927 -1.128914 -4.776442
v 0.413927 -1.128914 -4.779558
v 0.415268 -1.129080 -4.782364
v 0.417686 -1.129378 -4.784307
v 0.420700 -1.129750 -4.785000
v 0.423714 -1.130122 -4.784307
v 0.426132 -1.130420 -4.782364
v 0.427473 -1.130586 -4.779558
v 0.427473 -1.130586 -4.776442
v 0.426132 -1.130420 -4.773635
v 0.423714 -1.130122 -4.771693
v 0.420700 -1.129750 -4.771000
v 0.884737 -0.616018 -4.543807
v 0.885681 -0.613772 -4.541864
v 0.886204 -0.612526 -4.539058
v 0.886204 -0.612526 -4.535942
v 0.885681 -0.613772 -4.533135
v 0.884737 -0.616018 -4.531193
v 0.883561 -0.618818 -4.530500
v 0.882385 -0.621618 -4.531193
v 0.881441 -0.623864 -4.533135
v 0.880918 -0.625110 -4.535942
v 0.880918 -0.625110 -4.539058
v 0.881441 -0.623864 -4.541864
v 0.882385 -0.621618 -4.543807
v 0.883561 -0.618818 -4.544500
v 0.918376 -0.630150 -4.543807
v 0.919320 -0.627904 -4.541864
v 0.919843 -0.626658 -4.539058
v 0.919843 -0.626658 -4.535942
v 0.919320 -0.627904 -4.533135
v 0.918376 -0.630150 -4.531193
v 0.917200 -0.632950 -4.530500
v 0.916024 -0.635750 -4.531193
v 0.915080 -0.637996 -4.533135
v 0.914557 -0.639242 -4.535942
v 0.914557 -0.639242 -4.539058
v 0.915080 -0.637996 -4.541864
v 0.916024 -0.635750 -4.543807
v 0.917200 -0.632950 -4.544500
v 1.004943 -0.573014 -4.611693
v 1.004496 -0.570620 -4.613636
v 1.004248 -0.569291 -4.616442
v 1.004248 -0.569291 -4.619558
v 1.004496 -0.570620 -4.622365
v 1.004943 -0.573014 -4.624307
v 1.005500 -0.576000 -4.625000
v 1.006057 -0.578986 -4.624307
v 1.006504 -0.581380 -4.622365
v 1.006752 -0.582709 -4.619558
v 1.006752 -0.582709 -4.616442
v 1.006504 -0.581380 -4.613636
v 1.006057 -0.578986 -4.611693
v 1.005500 -0.576000 -4.611000
v 0.967443 -0.580014 -4.611693
v 0.966996 -0.577620 -4.613636
v 0.966748 -0.576291 -4.616442
v 0.966748 -0.576291 -4.619558
v 0.966996 -0.577620 -4.622365
v 0.967443 -0.580014 -4.624307
v 0.968000 -0.583000 -4.625000
v 0.968557 -0.585986 -4.624307
v 0.969004 -0.588380 -4.622365
v 0.969252 -0.589709 -4.619558
v 0.969252 -0.589709 -4.616442
v 0.969004 -0.588380 -4.613636
v 0.968557 -0.585986 -4.611693
v 0.968000 -0.583000 -4.611000
v 0.915326 -0.617408 -4.624307
v 0.914431 -0.615143 -4.622365
v 0.913934 -0.613886 -4.619558
v 0.913934 -0.613886 -4.616442
v 0.914431 -0.615143 -4.613636
v 0.915326 -0.617408 -4.611693
v 0.916442 -0.620233 -4.611000
v 0.917558 -0.623058 -4.611693
v 0.918453 -0.625323 -4.613636
v 0.918949 -0.626580 -4.616442
v 0.918949 -0.626580 -4.619558
v 0.918453 -0.625323 -4.622365
v 0.917558 -0.623058 -4.624307
v 0.916442 -0.620233 -4.625000
v 0.953884 -0.602175 -4.624307
v 0.952989 -0.599910 -4.622365
v 0.952492 -0.598653 -4.619558
v 0.952492 -0.598653 -4.616442
v 0.952989 -0.599910 -4.613636
v 0.953884 -0.602175 -4.611693
v 0.955000 -0.605000 -4.611000
v 0.956116 -0.607825 -4.611693
v 0.957011 -0.610090 -4.613636
v 0.957507 -0.611347 -4.616442
v 0.957507 -0.611347 -4.619558
v 0.957011 -0.610090 -4.622365
v 0.956116 -0.607825 -4.624307
v 0.955000 -0.605000 -4.625000
vn -0.3632 0.2373 -0.9009
vn 0.0000 0.0000 -1.0000
vn -0.6545 0.4277 -0.6235
vn -0.8161 0.5333 -0.2225
vn -0.8161 0.5333 0.2225
vn -0.6545 0.4277 0.6235
vn -0.3632 0.2373 0.9010
vn 0.0000 0.0000 1.0000
vn 0.3632 -0.2373 0.9010
vn 0.6545 -0.4277 0.6235
vn 0.8161 -0.5333 0.2225
vn 0.8161 -0.5333 -0.2225
vn 0.6545 -0.4277 -0.6235
vn 0.3632 -0.2373 -0.9010
vn -0.4228 0.0974 0.9010
vn -0.7618 0.1756 0.6235
vn -0.9500 0.2190 0.2225
vn -0.9500 0.2190 -0.2225
vn -0.7618 0.1756 -0.6235
vn -0.4228 0.0974 -0.9010
vn 0.4228 -0.0974 -0.9010
vn 0.7618 -0.1756 -0.6235
vn 0.9500 -0.2190 -0.2225
vn 0.9500 -0.2190 0.2225
vn 0.7618 -0.1756 0.6235
vn 0.4228 -0.0974 0.9010
vn 0.4228 -0.0974 0.9009
vn 0.3961 0.1769 0.9010
vn 0.7138 0.3188 0.6235
vn 0.8902 0.3976 0.2225
vn 0.8901 0.3976 -0.2225
vn 0.7138 0.3188 -0.6235
vn 0.3961 0.1769 -0.9010
vn -0.3961 -0.1769 -0.9010
vn -0.7138 -0.3188 -0.6235
vn -0.7139 -0.3188 -0.6235
vn -0.8901 -0.3976 -0.2225
vn -0.8902 -0.3976 0.2225
vn -0.7138 -0.3188 0.6235
vn -0.3961 -0.1769 0.9010
vn 0.2207 0.3735 -0.9010
vn 0.3977 0.6731 -0.6235
vn 0.4960 0.8393 -0.2225
vn 0.4960 0.8393 0.2225
vn 0.3977 0.6731 0.6235
vn 0.2207 0.3735 0.9010
vn -0.2207 -0.3735 0.9009
vn -0.3977 -0.6731 0.6235
vn -0.4959 -0.8394 0.2225
vn -0.4960 -0.8393 -0.2225
vn -0.3977 -0.6731 -0.6235
vn -0.2207 -0.3735 -0.9010
vn -0.1955 0.3873 0.9010
vn -0.3523 0.6979 0.6235
vn -0.4393 0.8703 0.2225
vn -0.4393 0.8703 -0.2225
vn -0.3523 0.6979 -0.6235
vn -0.1955 0.3873 -0.9010
vn 0.1955 -0.3873 -0.9010
vn 0.3523 -0.6979 -0.6235
vn 0.4393 -0.8703 -0.2225
vn 0.4393 -0.8703 0.2225
vn 0.3523 -0.6979 0.6235
vn 0.1955 -0.3873 0.9010
vn -0.4306 0.0531 0.9010
vn -0.7759 0.0958 0.6235
vn -0.9676 0.1194 0.2225
vn -0.9676 0.1194 -0.2225
vn -0.7759 0.0958 -0.6235
vn -0.4306 0.0531 -0.9010
vn 0.4306 -0.0531 -0.9010
vn 0.7759 -0.0958 -0.6235
vn 0.9676 -0.1194 -0.2225
vn 0.9676 -0.1194 0.2225
vn 0.7759 -0.0958 0.6235
vn 0.4306 -0.0531 0.9010
vn 0.1680 0.4000 -0.9010
vn 0.3028 0.7208 -0.6235
vn 0.3776 0.8988 -0.2225
vn 0.3776 0.8988 0.2225
vn 0.3028 0.7208 0.6235
vn 0.1680 0.4000 0.9010
vn -0.1680 -0.4000 0.9010
vn -0.3028 -0.7208 0.6235
vn -0.3776 -0.8988 0.2225
vn -0.3776 -0.8988 -0.2225
vn -0.3028 -0.7208 -0.6235
vn -0.1680 -0.4000 -0.9010
vn -0.0796 0.4265 0.9010
vn -0.1434 0.7685 0.6235
vn -0.1789 0.9583 0.2225
vn -0.1789 0.9583 -0.2225
vn -0.1435 0.7685 -0.6235
vn -0.0796 0.4265 -0.9010
vn 0.0796 -0.4265 -0.9010
vn 0.1434 -0.7685 -0.6235
vn 0.1789 -0.9583 -0.2225
vn 0.1789 -0.9584 0.2225
vn 0.1434 -0.7685 0.6235
vn 0.0796 -0.4265 0.9010
vn -0.1594 0.4035 -0.9010
vn -0.2872 0.7271 -0.6235
vn -0.3582 0.9067 -0.2225
vn -0.3582 0.9067 0.2225
vn -0.2872 0.7271 0.6235
vn -0.1594 0.4035 0.9010
vn 0.1594 -0.4035 0.9010
vn 0.2872 -0.7271 0.6235
vn 0.3582 -0.9067 0.2225
vn 0.3582 -0.9067 -0.2225
vn 0.2872 -0.7271 -0.6235
vn 0.1594 -0.4035 -0.9010
s 1
f 1//1 15//1 28//2 14//2
f 2//3 16//3 15//1 1//1
f 3//4 17//4 16//3 2//3
f 4//5 18//5 17//4 3//4
f 5//6 19//6 18//5 4//5
f 6//7 20//7 19//6 5//6
f 7//8 21//8 20//7 6//7
f 8//9 22//9 21//8 7//8
f 9//10 23//10 22//9 8//9
f 10//11 24//11 23//10 9//10
f 11//12 25//12 24//11 10//11
f 12//13 26//13 25//12 11//12
f 13//14 27//14 26//13 12//13
f 14//2 28//2 27//14 13//14
f 29//15 43//15 56//8 42//8
f 30//16 44//16 43//15 29//15
f 31//17 45//17 44//16 30//16
f 32//18 46//18 45//17 31//17
f 33//19 47//19 46//18 32//18
f 34//20 48//20 47//19 33//19
f 35//2 49//2 48//20 34//20
f 36//21 50//21 49//2 35//2
f 37//22 51//22 50//21 36//21
f 38//23 52//23 51//22 37//22
f 39//24 53//24 52//23 38//23
f 40//25 54//25 53//24 39//24
f 41//26 55//27 54//25 40//25
f 42//8 56//8 55//27 41//26
f 57//28 71//28 84//8 70//8
f 58//29 72//29 71//28 57//28
f 59//30 73//30 72//29 58//29
f 60//31 74//31 73//30 59//30
f 61//32 75//32 74//31 60//31
f 62//33 76//33 75//32 61//32
f 63//2 77//2 76//33 62//33
f 64//34 78//34 77//2 63//2
f 65//35 79//36 78//34 64//34
f 66//37 80//37 79//36 65//35
f 67//38 81//38 80//37 66//37
f 68//39 82//39 81//38 67//38
f 69//40 83//40 82//39 68//39
f 70//8 84//8 83//40 69//40
f 85//41 99//41 112//2 98//2
f 86//42 100//42 99//41 85//41
f 87//43 101//43 100//42 86//42
f 88//44 102//44 101//43 87//43
f 89//45 103//45 102//44 88//44
f 90//46 104//46 103//45 89//45
f 91//8 105//8 104//46 90//46
f 92//47 106//47 105//8 91//8
f 93//48 107//48 106//47 92//47
f 94//49 108//49 107//48 93//48
f 95//50 109//50 108//49 94//49
f 96//51 110//51 109//50 95//50
f 97//52 111//52 110//51 96//51
f 98//2 112//2 111//52 97//52
f 113//53 127//53 140//8 126//8
f 114//54 128//54 127//53 113//53
f 115//55 129//55 128//54 114//54
f 116//56 130//56 129//55 115//55
f 117//57 131//57 130//56 116//56
f 118//58 132//58 131//57 117//57
f 119//2 133//2 132//58 118//58
f 120//59 134//59 133//2 119//2
f 121//60 135//60 134//59 120//59
f 122//61 136//61 135//60 121//60
f 123//62 137//62 136//61 122//61
f 124//63 138//63 137//62 123//62
f 125//64 139//64 138//63 124//63
f 126//8 140//8 139//64 125//64
f 141//65 155//65 168//8 154//8
f 142//66 156//66 155//65 141//65
f 143//67 157//67 156//66 142//66
f 144//68 158//68 157//67 143//67
f 145//69 159//69 158//68 144//68
f 146//70 160//70 159//69 145//69
f 147//2 161//2 160//70 146//70
f 148//71 162//71 161//2 147//2
f 149//72 163//72 162//71 148//71
f 150//73 164//73 163//72 149//72
f 151//74 165//74 164//73 150//73
f 152//75 166//75 165//74 151//74
f 153//76 167//76 166//75 152//75
f 154//8 168//8 167//76 153//76
f 169//77 183//77 196//2 182//2
f 170//78 184//78 183//77 169//77
f 171//79 185//79 184//78 170//78
f 172//80 186//80 185//79 171//79
f 173//81 187//81 186//80 172//80
f 174//82 188//82 187//81 173//81
f 175//8 189//8 188//82 174//82
f 176//83 190//83 189//8 175//8
f 177//84 191//84 190//83 176//83
f 178//85 192//85 191//84 177//84
f 179//86 193//86 192//85 178//85
f 180//87 194//87 193//86 179//86
f 181//88 195//88 194//87 180//87
f 182//2 196//2 195//88 181//88
f 197//89 211//89 224//8 210//8
f 198//90 212//90 211//89 197//89
f 199//91 213//91 212//90 198//90
f 200//92 214//92 213//91 199//91
f 201//93 215//93 214//92 200//92
f 202//94 216//94 215//93 201//93
f 203//2 217//2 216//94 202//94
f 204//95 218//95 217//2 203//2
f 205//96 219//96 218//95 204//95
f 206//97 220//97 219//96 205//96
f 207//98 221//98 220//97 206//97
f 208//99 222//99 221//98 207//98
f 209//100 223//100 222//99 208//99
f 210//8 224//8 223//100 209//100
f 225//101 239//101 252//2 238//2
f 226//102 240//102 239//101 225//101
f 227//103 241//103 240//102 226//102
f 228//104 242//104 241//103 227//103
f 229//105 243//105 242//104 228//104
f 230//106 244//106 243//105 229//105
f 231//8 245//8 244//106 230//106
f 232//107 246//107 245//8 231//8
f 233//108 247//108 246//107 232//107
f 234//109 248//109 247//108 233//108
f 235//110 249//110 248//109 234//109
f 236//111 250//111 249//110 235//110
f 237//112 251//112 250//111 236//111
f 238//2 252//2 251//112 237//112
