# Blender v2.78 (sub 0) OBJ File: ''
# www.blender.org
mtllib Inputs of 54696 - CEPDL.mtl
o Inputs_of_54696_-_CEPDL.
v 0.480535 -0.719393 -4.549307
v 0.478157 -0.718866 -4.547365
v 0.476837 -0.718574 -4.544558
v 0.476837 -0.718574 -4.541442
v 0.478157 -0.718866 -4.538636
v 0.480535 -0.719393 -4.536694
v 0.483500 -0.720050 -4.536000
v 0.486465 -0.720707 -4.536694
v 0.488843 -0.721234 -4.538636
v 0.490163 -0.721526 -4.541442
v 0.490163 -0.721526 -4.544558
v 0.488843 -0.721234 -4.547365
v 0.486465 -0.720707 -4.549307
v 0.483500 -0.720050 -4.550000
v 0.485785 -0.695693 -4.549307
v 0.483407 -0.695166 -4.547365
v 0.482087 -0.694874 -4.544558
v 0.482087 -0.694874 -4.541442
v 0.483407 -0.695166 -4.538636
v 0.485785 -0.695693 -4.536694
v 0.488750 -0.696350 -4.536000
v 0.491715 -0.697007 -4.536694
v 0.494093 -0.697534 -4.538636
v 0.495413 -0.697826 -4.541442
v 0.495413 -0.697826 -4.544558
v 0.494093 -0.697534 -4.547365
v 0.491715 -0.697007 -4.549307
v 0.488750 -0.696350 -4.550000
vn -0.4236 0.0938 -0.9009
vn 0.0000 0.0000 -1.0000
vn -0.7633 0.1691 -0.6235
vn -0.9518 0.2109 -0.2225
vn -0.9518 0.2109 0.2225
vn -0.7633 0.1691 0.6235
vn -0.4236 0.0938 0.9009
vn 0.0000 0.0000 1.0000
vn 0.4236 -0.0938 0.9009
vn 0.7633 -0.1691 0.6235
vn 0.9518 -0.2109 0.2225
vn 0.9518 -0.2109 -0.2225
vn 0.7633 -0.1691 -0.6235
vn 0.4236 -0.0938 -0.9009
s 1
f 1//1 15//1 28//2 14//2
f 2//3 16//3 15//1 1//1
f 3//4 17//4 16//3 2//3
f 4//5 18//5 17//4 3//4
f 5//6 19//6 18//5 4//5
f 6//7 20//7 19//6 5//6
f 7//8 21//8 20//7 6//7
f 8//9 22//9 21//8 7//8
f 9//10 23//10 22//9 8//9
f 10//11 24//11 23//10 9//10
f 11//12 25//12 24//11 10//11
f 12//13 26//13 25//12 11//12
f 13//14 27//14 26//13 12//13
f 14//2 28//2 27//14 13//14
