# Blender v2.78 (sub 0) OBJ File: ''
# www.blender.org
mtllib Inputs of 27470 - BWM-DR02.mtl
o Inputs_of_27470_-_BWM-DR02
v 0.841915 -0.843949 -4.456306
v 0.840504 -0.841964 -4.454364
v 0.839721 -0.840863 -4.451558
v 0.839721 -0.840863 -4.448442
v 0.840504 -0.841964 -4.445635
v 0.841915 -0.843949 -4.443693
v 0.843675 -0.846425 -4.443000
v 0.845435 -0.848900 -4.443693
v 0.846846 -0.850886 -4.445635
v 0.847629 -0.851987 -4.448442
v 0.847629 -0.851987 -4.451558
v 0.846846 -0.850886 -4.454364
v 0.845435 -0.848900 -4.456306
v 0.843675 -0.846425 -4.457000
v 0.885490 -0.812975 -4.456306
v 0.884079 -0.810989 -4.454364
v 0.883296 -0.809888 -4.451558
v 0.883296 -0.809888 -4.448442
v 0.884079 -0.810989 -4.445635
v 0.885490 -0.812975 -4.443693
v 0.887250 -0.815450 -4.443000
v 0.889010 -0.817926 -4.443693
v 0.890421 -0.819911 -4.445635
v 0.891204 -0.821012 -4.448442
v 0.891204 -0.821012 -4.451558
v 0.890421 -0.819911 -4.454364
v 0.889010 -0.817926 -4.456306
v 0.887250 -0.815450 -4.457000
v 0.868969 -0.889389 -4.316807
v 0.868523 -0.886995 -4.314865
v 0.868276 -0.885666 -4.312058
v 0.868276 -0.885666 -4.308942
v 0.868523 -0.886995 -4.306136
v 0.868969 -0.889389 -4.304193
v 0.869525 -0.892375 -4.303500
v 0.870081 -0.895361 -4.304193
v 0.870527 -0.897755 -4.306136
v 0.870774 -0.899084 -4.308942
v 0.870774 -0.899084 -4.312058
v 0.870527 -0.897755 -4.314865
v 0.870081 -0.895361 -4.316807
v 0.869525 -0.892375 -4.317500
v 0.940382 -0.876093 -4.316807
v 0.939936 -0.873699 -4.314865
v 0.939689 -0.872370 -4.312058
v 0.939689 -0.872370 -4.308942
v 0.939936 -0.873699 -4.306136
v 0.940382 -0.876093 -4.304193
v 0.940938 -0.879079 -4.303500
v 0.941494 -0.882065 -4.304193
v 0.941940 -0.884459 -4.306136
v 0.942187 -0.885788 -4.308942
v 0.942187 -0.885788 -4.312058
v 0.941940 -0.884459 -4.314865
v 0.941494 -0.882065 -4.316807
v 0.940938 -0.879079 -4.317500
v 0.872364 -0.893947 -4.357306
v 0.873878 -0.892039 -4.355364
v 0.874719 -0.890981 -4.352558
v 0.874719 -0.890981 -4.349442
v 0.873878 -0.892039 -4.346635
v 0.872364 -0.893947 -4.344693
v 0.870475 -0.896325 -4.344000
v 0.868586 -0.898703 -4.344693
v 0.867072 -0.900611 -4.346635
v 0.866231 -0.901669 -4.349442
v 0.866231 -0.901669 -4.352558
v 0.867072 -0.900611 -4.355364
v 0.868586 -0.898703 -4.357306
v 0.870475 -0.896325 -4.358000
v 0.905639 -0.920372 -4.357306
v 0.907153 -0.918464 -4.355364
v 0.907994 -0.917406 -4.352558
v 0.907994 -0.917406 -4.349442
v 0.907153 -0.918464 -4.346635
v 0.905639 -0.920372 -4.344693
v 0.903750 -0.922750 -4.344000
v 0.901861 -0.925128 -4.344693
v 0.900347 -0.927036 -4.346635
v 0.899506 -0.928094 -4.349442
v 0.899506 -0.928094 -4.352558
v 0.900347 -0.927036 -4.355364
v 0.901861 -0.925128 -4.357306
v 0.903750 -0.922750 -4.358000
v 0.844674 -0.846381 -4.448807
v 0.843630 -0.844180 -4.446865
v 0.843051 -0.842959 -4.444058
v 0.843051 -0.842959 -4.440942
v 0.843630 -0.844180 -4.438136
v 0.844674 -0.846381 -4.436193
v 0.845975 -0.849125 -4.435500
v 0.847276 -0.851869 -4.436193
v 0.848320 -0.854070 -4.438136
v 0.848899 -0.855291 -4.440942
v 0.848899 -0.855291 -4.444058
v 0.848320 -0.854070 -4.446865
v 0.847276 -0.851869 -4.448807
v 0.845975 -0.849125 -4.449500
v 0.886799 -0.826406 -4.448807
v 0.885755 -0.824205 -4.446865
v 0.885176 -0.822984 -4.444058
v 0.885176 -0.822984 -4.440942
v 0.885755 -0.824205 -4.438136
v 0.886799 -0.826406 -4.436193
v 0.888100 -0.829150 -4.435500
v 0.889401 -0.831894 -4.436193
v 0.890445 -0.834095 -4.438136
v 0.891024 -0.835316 -4.440942
v 0.891024 -0.835316 -4.444058
v 0.890445 -0.834095 -4.446865
v 0.889401 -0.831894 -4.448807
v 0.888100 -0.829150 -4.449500
v 0.866470 -0.951104 -4.338807
v 0.868892 -0.950847 -4.336864
v 0.870236 -0.950705 -4.334058
v 0.870236 -0.950705 -4.330942
v 0.868892 -0.950847 -4.328135
v 0.866470 -0.951104 -4.326193
v 0.863450 -0.951425 -4.325500
v 0.860430 -0.951746 -4.326193
v 0.858008 -0.952003 -4.328135
v 0.856664 -0.952145 -4.330942
v 0.856664 -0.952145 -4.334058
v 0.858008 -0.952003 -4.336864
v 0.860430 -0.951746 -4.338807
v 0.863450 -0.951425 -4.339500
v 0.870320 -0.987379 -4.338807
v 0.872742 -0.987122 -4.336864
v 0.874086 -0.986980 -4.334058
v 0.874086 -0.986980 -4.330942
v 0.872742 -0.987122 -4.328135
v 0.870320 -0.987379 -4.326193
v 0.867300 -0.987700 -4.325500
v 0.864280 -0.988021 -4.326193
v 0.861858 -0.988278 -4.328135
v 0.860514 -0.988420 -4.330942
v 0.860514 -0.988420 -4.334058
v 0.861858 -0.988278 -4.336864
v 0.864280 -0.988021 -4.338807
v 0.867300 -0.987700 -4.339500
v 0.869920 -0.895864 -4.343807
v 0.870237 -0.893449 -4.341865
v 0.870413 -0.892109 -4.339058
v 0.870413 -0.892109 -4.335942
v 0.870237 -0.893449 -4.333136
v 0.869920 -0.895864 -4.331193
v 0.869525 -0.898875 -4.330500
v 0.869130 -0.901886 -4.331193
v 0.868813 -0.904301 -4.333136
v 0.868637 -0.905641 -4.335942
v 0.868637 -0.905641 -4.339058
v 0.868813 -0.904301 -4.341865
v 0.869130 -0.901886 -4.343807
v 0.869525 -0.898875 -4.344500
v 0.930965 -0.903879 -4.343807
v 0.931282 -0.901464 -4.341865
v 0.931458 -0.900124 -4.339058
v 0.931458 -0.900124 -4.335942
v 0.931282 -0.901464 -4.333136
v 0.930965 -0.903879 -4.331193
v 0.930570 -0.906890 -4.330500
v 0.930175 -0.909901 -4.331193
v 0.929858 -0.912316 -4.333136
v 0.929682 -0.913656 -4.335942
v 0.929682 -0.913656 -4.339058
v 0.929858 -0.912316 -4.341865
v 0.930175 -0.909901 -4.343807
v 0.930570 -0.906890 -4.344500
v 0.853033 -0.787154 -4.387806
v 0.850976 -0.785849 -4.385864
v 0.849835 -0.785125 -4.383058
v 0.849835 -0.785125 -4.379942
v 0.850976 -0.785849 -4.377135
v 0.853033 -0.787154 -4.375193
v 0.855598 -0.788780 -4.374500
v 0.858163 -0.790406 -4.375193
v 0.860220 -0.791711 -4.377135
v 0.861361 -0.792435 -4.379942
v 0.861361 -0.792435 -4.383058
v 0.860220 -0.791711 -4.385864
v 0.858163 -0.790406 -4.387806
v 0.855598 -0.788780 -4.388500
v 0.866685 -0.765624 -4.387806
v 0.864628 -0.764319 -4.385864
v 0.863487 -0.763595 -4.383058
v 0.863487 -0.763595 -4.379942
v 0.864628 -0.764319 -4.377135
v 0.866685 -0.765624 -4.375193
v 0.869250 -0.767250 -4.374500
v 0.871815 -0.768876 -4.375193
v 0.873872 -0.770181 -4.377135
v 0.875013 -0.770905 -4.379942
v 0.875013 -0.770905 -4.383058
v 0.873872 -0.770181 -4.385864
v 0.871815 -0.768876 -4.387806
v 0.869250 -0.767250 -4.388500
v 0.849886 -0.904332 -4.451807
v 0.851632 -0.902633 -4.449864
v 0.852600 -0.901690 -4.447058
v 0.852600 -0.901690 -4.443942
v 0.851632 -0.902633 -4.441135
v 0.849886 -0.904332 -4.439193
v 0.847710 -0.906450 -4.438500
v 0.845534 -0.908568 -4.439193
v 0.843788 -0.910267 -4.441135
v 0.842820 -0.911210 -4.443942
v 0.842820 -0.911210 -4.447058
v 0.843788 -0.910267 -4.449864
v 0.845534 -0.908568 -4.451807
v 0.847710 -0.906450 -4.452500
v 0.885746 -0.941172 -4.451807
v 0.887492 -0.939473 -4.449864
v 0.888460 -0.938530 -4.447058
v 0.888460 -0.938530 -4.443942
v 0.887492 -0.939473 -4.441135
v 0.885746 -0.941172 -4.439193
v 0.883570 -0.943290 -4.438500
v 0.881394 -0.945408 -4.439193
v 0.879648 -0.947107 -4.441135
v 0.878680 -0.948050 -4.443942
v 0.878680 -0.948050 -4.447058
v 0.879648 -0.947107 -4.449864
v 0.881394 -0.945408 -4.451807
v 0.883570 -0.943290 -4.452500
vn -0.2514 0.3536 -0.9009
vn 0.0000 0.0000 -1.0000
vn -0.4529 0.6372 -0.6235
vn -0.5648 0.7946 -0.2225
vn -0.5648 0.7946 0.2225
vn -0.4530 0.6372 0.6235
vn -0.2514 0.3536 0.9010
vn 0.0000 0.0000 1.0000
vn 0.2514 -0.3536 0.9010
vn 0.4530 -0.6372 0.6235
vn 0.5648 -0.7946 0.2225
vn 0.5648 -0.7946 -0.2225
vn 0.4529 -0.6372 -0.6235
vn 0.2514 -0.3536 -0.9010
vn -0.0794 0.4265 -0.9010
vn -0.1431 0.7686 -0.6235
vn -0.1784 0.9584 -0.2225
vn -0.1784 0.9584 0.2225
vn -0.1431 0.7686 0.6235
vn -0.0794 0.4265 0.9010
vn 0.0794 -0.4265 0.9010
vn 0.1431 -0.7686 0.6235
vn 0.1784 -0.9584 0.2225
vn 0.1784 -0.9584 -0.2225
vn 0.1431 -0.7686 -0.6235
vn 0.0794 -0.4265 -0.9010
vn 0.2698 0.3398 -0.9010
vn 0.4862 0.6122 -0.6235
vn 0.6063 0.7635 -0.2225
vn 0.6063 0.7635 0.2225
vn 0.4862 0.6122 0.6235
vn 0.2698 0.3398 0.9010
vn -0.2698 -0.3398 0.9010
vn -0.4862 -0.6122 0.6235
vn -0.6063 -0.7635 0.2225
vn -0.6063 -0.7635 -0.2225
vn -0.4862 -0.6122 -0.6235
vn -0.2698 -0.3398 -0.9009
vn -0.1859 0.3920 -0.9010
vn -0.3350 0.7064 -0.6235
vn -0.4177 0.8809 -0.2225
vn -0.4177 0.8809 0.2225
vn -0.3349 0.7064 0.6235
vn -0.1859 0.3920 0.9010
vn 0.1859 -0.3920 0.9010
vn 0.3349 -0.7064 0.6235
vn 0.4177 -0.8809 0.2225
vn 0.4177 -0.8809 -0.2225
vn 0.3350 -0.7064 -0.6235
vn 0.1859 -0.3920 -0.9010
vn 0.4314 0.0458 -0.9009
vn 0.7774 0.0825 -0.6235
vn 0.9695 0.1029 -0.2225
vn 0.9695 0.1029 0.2225
vn 0.7774 0.0825 0.6235
vn 0.4314 0.0458 0.9009
vn -0.4314 -0.0458 0.9009
vn -0.7774 -0.0825 0.6235
vn -0.9695 -0.1029 0.2225
vn -0.9695 -0.1029 -0.2225
vn -0.7774 -0.0825 -0.6235
vn -0.4314 -0.0458 -0.9009
vn 0.0565 0.4302 -0.9010
vn 0.1018 0.7751 -0.6235
vn 0.1269 0.9666 -0.2225
vn 0.1269 0.9666 0.2225
vn 0.1017 0.7751 0.6235
vn 0.0565 0.4302 0.9010
vn -0.0565 -0.4302 0.9010
vn -0.1018 -0.7751 0.6235
vn -0.1269 -0.9666 0.2225
vn -0.1269 -0.9666 -0.2225
vn -0.1018 -0.7751 -0.6235
vn -0.0565 -0.4302 -0.9010
vn -0.3664 0.2323 -0.9010
vn -0.6603 0.4187 -0.6235
vn -0.8233 0.5221 -0.2225
vn -0.8233 0.5220 0.2225
vn -0.6602 0.4187 0.6235
vn -0.3664 0.2323 0.9010
vn 0.3664 -0.2323 0.9010
vn 0.6602 -0.4187 0.6235
vn 0.8234 -0.5220 0.2225
vn 0.8233 -0.5221 -0.2225
vn 0.6603 -0.4187 -0.6235
vn 0.3664 -0.2323 -0.9010
vn 0.3109 0.3026 -0.9010
vn 0.5602 0.5453 -0.6235
vn 0.6986 0.6800 -0.2225
vn 0.6986 0.6800 0.2225
vn 0.5602 0.5453 0.6235
vn 0.3109 0.3026 0.9010
vn -0.3109 -0.3026 0.9009
vn -0.5602 -0.5453 0.6235
vn -0.6986 -0.6800 0.2225
vn -0.6986 -0.6800 -0.2225
vn -0.5602 -0.5453 -0.6235
vn -0.3109 -0.3026 -0.9009
s 1
f 1//1 15//1 28//2 14//2
f 2//3 16//3 15//1 1//1
f 3//4 17//4 16//3 2//3
f 4//5 18//5 17//4 3//4
f 5//6 19//6 18//5 4//5
f 6//7 20//7 19//6 5//6
f 7//8 21//8 20//7 6//7
f 8//9 22//9 21//8 7//8
f 9//10 23//10 22//9 8//9
f 10//11 24//11 23//10 9//10
f 11//12 25//12 24//11 10//11
f 12//13 26//13 25//12 11//12
f 13//14 27//14 26//13 12//13
f 14//2 28//2 27//14 13//14
f 29//15 43//15 56//2 42//2
f 30//16 44//16 43//15 29//15
f 31//17 45//17 44//16 30//16
f 32//18 46//18 45//17 31//17
f 33//19 47//19 46//18 32//18
f 34//20 48//20 47//19 33//19
f 35//8 49//8 48//20 34//20
f 36//21 50//21 49//8 35//8
f 37//22 51//22 50//21 36//21
f 38//23 52//23 51//22 37//22
f 39//24 53//24 52//23 38//23
f 40//25 54//25 53//24 39//24
f 41//26 55//26 54//25 40//25
f 42//2 56//2 55//26 41//26
f 57//27 71//27 84//2 70//2
f 58//28 72//28 71//27 57//27
f 59//29 73//29 72//28 58//28
f 60//30 74//30 73//29 59//29
f 61//31 75//31 74//30 60//30
f 62//32 76//32 75//31 61//31
f 63//8 77//8 76//32 62//32
f 64//33 78//33 77//8 63//8
f 65//34 79//34 78//33 64//33
f 66//35 80//35 79//34 65//34
f 67//36 81//36 80//35 66//35
f 68//37 82//37 81//36 67//36
f 69//38 83//38 82//37 68//37
f 70//2 84//2 83//38 69//38
f 85//39 99//39 112//2 98//2
f 86//40 100//40 99//39 85//39
f 87//41 101//41 100//40 86//40
f 88//42 102//42 101//41 87//41
f 89//43 103//43 102//42 88//42
f 90//44 104//44 103//43 89//43
f 91//8 105//8 104//44 90//44
f 92//45 106//45 105//8 91//8
f 93//46 107//46 106//45 92//45
f 94//47 108//47 107//46 93//46
f 95//48 109//48 108//47 94//47
f 96//49 110//49 109//48 95//48
f 97//50 111//50 110//49 96//49
f 98//2 112//2 111//50 97//50
f 113//51 127//51 140//2 126//2
f 114//52 128//52 127//51 113//51
f 115//53 129//53 128//52 114//52
f 116//54 130//54 129//53 115//53
f 117//55 131//55 130//54 116//54
f 118//56 132//56 131//55 117//55
f 119//8 133//8 132//56 118//56
f 120//57 134//57 133//8 119//8
f 121//58 135//58 134//57 120//57
f 122//59 136//59 135//58 121//58
f 123//60 137//60 136//59 122//59
f 124//61 138//61 137//60 123//60
f 125//62 139//62 138//61 124//61
f 126//2 140//2 139//62 125//62
f 141//63 155//63 168//2 154//2
f 142//64 156//64 155//63 141//63
f 143//65 157//65 156//64 142//64
f 144//66 158//66 157//65 143//65
f 145//67 159//67 158//66 144//66
f 146//68 160//68 159//67 145//67
f 147//8 161//8 160//68 146//68
f 148//69 162//69 161//8 147//8
f 149//70 163//70 162//69 148//69
f 150//71 164//71 163//70 149//70
f 151//72 165//72 164//71 150//71
f 152//73 166//73 165//72 151//72
f 153//74 167//74 166//73 152//73
f 154//2 168//2 167//74 153//74
f 169//75 183//75 196//2 182//2
f 170//76 184//76 183//75 169//75
f 171//77 185//77 184//76 170//76
f 172//78 186//78 185//77 171//77
f 173//79 187//79 186//78 172//78
f 174//80 188//80 187//79 173//79
f 175//8 189//8 188//80 174//80
f 176//81 190//81 189//8 175//8
f 177//82 191//82 190//81 176//81
f 178//83 192//83 191//82 177//82
f 179//84 193//84 192//83 178//83
f 180//85 194//85 193//84 179//84
f 181//86 195//86 194//85 180//85
f 182//2 196//2 195//86 181//86
f 197//87 211//87 224//2 210//2
f 198//88 212//88 211//87 197//87
f 199//89 213//89 212//88 198//88
f 200//90 214//90 213//89 199//89
f 201//91 215//91 214//90 200//90
f 202//92 216//92 215//91 201//91
f 203//8 217//8 216//92 202//92
f 204//93 218//93 217//8 203//8
f 205//94 219//94 218//93 204//93
f 206//95 220//95 219//94 205//94
f 207//96 221//96 220//95 206//95
f 208//97 222//97 221//96 207//96
f 209//98 223//98 222//97 208//97
f 210//2 224//2 223//98 209//98
