# Blender v2.78 (sub 0) OBJ File: ''
# www.blender.org
o Inputs_of_18074_-_URBR.
v 0.897180 -0.807653 -4.566693
v 0.895370 -0.806024 -4.568635
v 0.894366 -0.805119 -4.571442
v 0.894366 -0.805119 -4.574558
v 0.895370 -0.806024 -4.577364
v 0.897180 -0.807653 -4.579307
v 0.899437 -0.809686 -4.580000
v 0.901694 -0.811719 -4.579307
v 0.903504 -0.813348 -4.577364
v 0.904508 -0.814253 -4.574558
v 0.904508 -0.814253 -4.571442
v 0.903504 -0.813348 -4.568635
v 0.901694 -0.811719 -4.566693
v 0.899437 -0.809686 -4.566000
v 0.860243 -0.848668 -4.566693
v 0.858433 -0.847038 -4.568635
v 0.857429 -0.846133 -4.571442
v 0.857429 -0.846133 -4.574558
v 0.858433 -0.847038 -4.577364
v 0.860243 -0.848668 -4.579307
v 0.862500 -0.850700 -4.580000
v 0.864757 -0.852733 -4.579307
v 0.866567 -0.854362 -4.577364
v 0.867571 -0.855267 -4.574558
v 0.867571 -0.855267 -4.571442
v 0.866567 -0.854362 -4.568635
v 0.864757 -0.852733 -4.566693
v 0.862500 -0.850700 -4.566000
v 0.921895 -0.853395 -4.454193
v 0.919967 -0.851907 -4.456135
v 0.918897 -0.851081 -4.458942
v 0.918897 -0.851081 -4.462058
v 0.919967 -0.851907 -4.464864
v 0.921895 -0.853395 -4.466806
v 0.924300 -0.855250 -4.467500
v 0.926705 -0.857105 -4.466806
v 0.928633 -0.858593 -4.464864
v 0.929703 -0.859419 -4.462058
v 0.929703 -0.859419 -4.458942
v 0.928633 -0.858593 -4.456135
v 0.926705 -0.857105 -4.454193
v 0.924300 -0.855250 -4.453500
v 0.898095 -0.884245 -4.454193
v 0.896167 -0.882757 -4.456135
v 0.895097 -0.881931 -4.458942
v 0.895097 -0.881931 -4.462058
v 0.896167 -0.882757 -4.464864
v 0.898095 -0.884245 -4.466806
v 0.900500 -0.886100 -4.467500
v 0.902905 -0.887955 -4.466806
v 0.904833 -0.889443 -4.464864
v 0.905903 -0.890269 -4.462058
v 0.905903 -0.890269 -4.458942
v 0.904833 -0.889443 -4.456135
v 0.902905 -0.887955 -4.454193
v 0.900500 -0.886100 -4.453500
v 0.884042 -0.881678 -4.599194
v 0.882472 -0.879816 -4.601136
v 0.881601 -0.878782 -4.603942
v 0.881601 -0.878782 -4.607058
v 0.882472 -0.879816 -4.609865
v 0.884042 -0.881678 -4.611807
v 0.886000 -0.884000 -4.612500
v 0.887958 -0.886322 -4.611807
v 0.889528 -0.888184 -4.609865
v 0.890399 -0.889218 -4.607058
v 0.890399 -0.889218 -4.603942
v 0.889528 -0.888184 -4.601136
v 0.887958 -0.886322 -4.599194
v 0.886000 -0.884000 -4.598500
v 0.867792 -0.895378 -4.599194
v 0.866222 -0.893516 -4.601136
v 0.865351 -0.892482 -4.603942
v 0.865351 -0.892482 -4.607058
v 0.866222 -0.893516 -4.609865
v 0.867792 -0.895378 -4.611807
v 0.869750 -0.897700 -4.612500
v 0.871708 -0.900022 -4.611807
v 0.873278 -0.901884 -4.609865
v 0.874149 -0.902918 -4.607058
v 0.874149 -0.902918 -4.603942
v 0.873278 -0.901884 -4.601136
v 0.871708 -0.900022 -4.599194
v 0.869750 -0.897700 -4.598500
v 0.901891 -0.797122 -4.578193
v 0.899670 -0.796122 -4.580135
v 0.898437 -0.795567 -4.582942
v 0.898437 -0.795567 -4.586058
v 0.899670 -0.796122 -4.588864
v 0.901891 -0.797122 -4.590806
v 0.904660 -0.798369 -4.591500
v 0.907429 -0.799616 -4.590806
v 0.909650 -0.800616 -4.588864
v 0.910883 -0.801171 -4.586058
v 0.910883 -0.801171 -4.582942
v 0.909650 -0.800616 -4.580135
v 0.907429 -0.799616 -4.578193
v 0.904660 -0.798369 -4.577500
v 0.868331 -0.871653 -4.578193
v 0.866110 -0.870653 -4.580135
v 0.864877 -0.870098 -4.582942
v 0.864877 -0.870098 -4.586058
v 0.866110 -0.870653 -4.588864
v 0.868331 -0.871653 -4.590806
v 0.871100 -0.872900 -4.591500
v 0.873869 -0.874147 -4.590806
v 0.876090 -0.875147 -4.588864
v 0.877323 -0.875702 -4.586058
v 0.877323 -0.875702 -4.582942
v 0.876090 -0.875147 -4.580135
v 0.873869 -0.874147 -4.578193
v 0.871100 -0.872900 -4.577500
vn -0.3224 0.2904 0.9010
vn 0.0000 0.0000 1.0000
vn -0.5810 0.5232 0.6235
vn -0.7244 0.6524 0.2225
vn -0.7244 0.6524 -0.2225
vn -0.5810 0.5232 -0.6235
vn -0.3224 0.2904 -0.9010
vn 0.0000 0.0000 -1.0000
vn 0.3224 -0.2904 -0.9010
vn 0.5810 -0.5232 -0.6235
vn 0.7244 -0.6524 -0.2225
vn 0.7244 -0.6524 0.2225
vn 0.5810 -0.5232 0.6235
vn 0.3224 -0.2903 0.9010
vn -0.3435 0.2650 0.9009
vn -0.6190 0.4776 0.6235
vn -0.7719 0.5955 0.2225
vn -0.7719 0.5955 -0.2225
vn -0.6190 0.4776 -0.6235
vn -0.3435 0.2650 -0.9010
vn 0.3435 -0.2650 -0.9010
vn 0.6190 -0.4776 -0.6235
vn 0.7719 -0.5955 -0.2225
vn 0.7719 -0.5955 0.2225
vn 0.6190 -0.4776 0.6235
vn 0.3435 -0.2650 0.9009
vn -0.2796 0.3317 0.9010
vn -0.5039 0.5977 0.6235
vn -0.6284 0.7454 0.2225
vn -0.6284 0.7454 -0.2225
vn -0.5039 0.5977 -0.6235
vn -0.2797 0.3317 -0.9009
vn 0.2797 -0.3317 -0.9009
vn 0.5039 -0.5977 -0.6235
vn 0.6284 -0.7454 -0.2225
vn 0.6284 -0.7454 0.2225
vn 0.5039 -0.5977 0.6235
vn 0.2796 -0.3317 0.9010
vn -0.3956 0.1781 0.9010
vn -0.7129 0.3210 0.6235
vn -0.8889 0.4003 0.2225
vn -0.8889 0.4003 -0.2225
vn -0.7129 0.3210 -0.6235
vn -0.3956 0.1781 -0.9010
vn 0.3956 -0.1781 -0.9010
vn 0.7129 -0.3210 -0.6235
vn 0.8889 -0.4003 -0.2225
vn 0.8889 -0.4003 0.2225
vn 0.7129 -0.3210 0.6235
vn 0.3956 -0.1781 0.9010
s 1
f 1//1 15//1 28//2 14//2
f 2//3 16//3 15//1 1//1
f 3//4 17//4 16//3 2//3
f 4//5 18//5 17//4 3//4
f 5//6 19//6 18//5 4//5
f 6//7 20//7 19//6 5//6
f 7//8 21//8 20//7 6//7
f 8//9 22//9 21//8 7//8
f 9//10 23//10 22//9 8//9
f 10//11 24//11 23//10 9//10
f 11//12 25//12 24//11 10//11
f 12//13 26//13 25//12 11//12
f 13//14 27//14 26//13 12//13
f 14//2 28//2 27//14 13//14
f 29//15 43//15 56//2 42//2
f 30//16 44//16 43//15 29//15
f 31//17 45//17 44//16 30//16
f 32//18 46//18 45//17 31//17
f 33//19 47//19 46//18 32//18
f 34//20 48//20 47//19 33//19
f 35//8 49//8 48//20 34//20
f 36//21 50//21 49//8 35//8
f 37//22 51//22 50//21 36//21
f 38//23 52//23 51//22 37//22
f 39//24 53//24 52//23 38//23
f 40//25 54//25 53//24 39//24
f 41//26 55//26 54//25 40//25
f 42//2 56//2 55//26 41//26
f 57//27 71//27 84//2 70//2
f 58//28 72//28 71//27 57//27
f 59//29 73//29 72//28 58//28
f 60//30 74//30 73//29 59//29
f 61//31 75//31 74//30 60//30
f 62//32 76//32 75//31 61//31
f 63//8 77//8 76//32 62//32
f 64//33 78//33 77//8 63//8
f 65//34 79//34 78//33 64//33
f 66//35 80//35 79//34 65//34
f 67//36 81//36 80//35 66//35
f 68//37 82//37 81//36 67//36
f 69//38 83//38 82//37 68//37
f 70//2 84//2 83//38 69//38
f 85//39 99//39 112//2 98//2
f 86//40 100//40 99//39 85//39
f 87//41 101//41 100//40 86//40
f 88//42 102//42 101//41 87//41
f 89//43 103//43 102//42 88//42
f 90//44 104//44 103//43 89//43
f 91//8 105//8 104//44 90//44
f 92//45 106//45 105//8 91//8
f 93//46 107//46 106//45 92//45
f 94//47 108//47 107//46 93//46
f 95//48 109//48 108//47 94//47
f 96//49 110//49 109//48 95//48
f 97//50 111//50 110//49 96//49
f 98//2 112//2 111//50 97//50
