# Blender v2.78 (sub 0) OBJ File: ''
# www.blender.org
o Inputs_of_1112_-_CEPDR.
v 0.877485 -0.585201 -4.254307
v 0.879076 -0.583357 -4.252365
v 0.879960 -0.582334 -4.249558
v 0.879960 -0.582334 -4.246442
v 0.879076 -0.583357 -4.243636
v 0.877485 -0.585201 -4.241693
v 0.875500 -0.587500 -4.241000
v 0.873515 -0.589799 -4.241693
v 0.871924 -0.591642 -4.243636
v 0.871040 -0.592666 -4.246442
v 0.871040 -0.592666 -4.249558
v 0.871924 -0.591642 -4.252365
v 0.873515 -0.589799 -4.254307
v 0.875500 -0.587500 -4.255000
v 0.917735 -0.619951 -4.254307
v 0.919326 -0.618107 -4.252365
v 0.920210 -0.617084 -4.249558
v 0.920210 -0.617084 -4.246442
v 0.919326 -0.618107 -4.243636
v 0.917735 -0.619951 -4.241693
v 0.915750 -0.622250 -4.241000
v 0.913765 -0.624549 -4.241693
v 0.912174 -0.626393 -4.243636
v 0.911290 -0.627416 -4.246442
v 0.911290 -0.627416 -4.249558
v 0.912174 -0.626393 -4.252365
v 0.913765 -0.624549 -4.254307
v 0.915750 -0.622250 -4.255000
v 0.879801 -0.739472 -4.552307
v 0.877395 -0.739089 -4.550364
v 0.876061 -0.738876 -4.547558
v 0.876061 -0.738876 -4.544442
v 0.877395 -0.739089 -4.541636
v 0.879801 -0.739472 -4.539693
v 0.882800 -0.739950 -4.539000
v 0.885799 -0.740428 -4.539693
v 0.888205 -0.740811 -4.541636
v 0.889539 -0.741024 -4.544442
v 0.889539 -0.741024 -4.547558
v 0.888205 -0.740811 -4.550364
v 0.885799 -0.740428 -4.552307
v 0.882800 -0.739950 -4.553000
v 0.884701 -0.708722 -4.552307
v 0.882295 -0.708339 -4.550364
v 0.880961 -0.708126 -4.547558
v 0.880961 -0.708126 -4.544442
v 0.882295 -0.708339 -4.541636
v 0.884701 -0.708722 -4.539693
v 0.887700 -0.709200 -4.539000
v 0.890699 -0.709678 -4.539693
v 0.893105 -0.710061 -4.541636
v 0.894439 -0.710274 -4.544442
v 0.894439 -0.710274 -4.547558
v 0.893105 -0.710061 -4.550364
v 0.890699 -0.709678 -4.552307
v 0.887700 -0.709200 -4.553000
v 0.914446 -0.636604 -4.142694
v 0.912792 -0.634816 -4.144636
v 0.911874 -0.633824 -4.147442
v 0.911874 -0.633824 -4.150558
v 0.912792 -0.634816 -4.153365
v 0.914446 -0.636604 -4.155307
v 0.916508 -0.638834 -4.156000
v 0.918570 -0.641064 -4.155307
v 0.920224 -0.642852 -4.153365
v 0.921142 -0.643844 -4.150558
v 0.921142 -0.643844 -4.147442
v 0.920224 -0.642852 -4.144636
v 0.918570 -0.641064 -4.142694
v 0.916508 -0.638834 -4.142000
v 0.890018 -0.659195 -4.142694
v 0.888364 -0.657407 -4.144636
v 0.887446 -0.656415 -4.147442
v 0.887446 -0.656415 -4.150558
v 0.888364 -0.657407 -4.153365
v 0.890018 -0.659195 -4.155307
v 0.892080 -0.661425 -4.156000
v 0.894142 -0.663655 -4.155307
v 0.895796 -0.665443 -4.153365
v 0.896714 -0.666435 -4.150558
v 0.896714 -0.666435 -4.147442
v 0.895796 -0.665443 -4.144636
v 0.894142 -0.663655 -4.142694
v 0.892080 -0.661425 -4.142000
vn 0.2835 0.3284 -0.9010
vn 0.0000 0.0000 -1.0000
vn 0.5109 0.5918 -0.6235
vn 0.6371 0.7379 -0.2225
vn 0.6371 0.7379 0.2225
vn 0.5109 0.5918 0.6235
vn 0.2835 0.3284 0.9010
vn 0.0000 0.0000 1.0000
vn -0.2835 -0.3284 0.9010
vn -0.5109 -0.5918 0.6235
vn -0.6371 -0.7379 0.2225
vn -0.6371 -0.7379 -0.2225
vn -0.5109 -0.5918 -0.6235
vn -0.2835 -0.3284 -0.9010
vn -0.4285 0.0683 -0.9009
vn -0.7721 0.1230 -0.6235
vn -0.9628 0.1534 -0.2225
vn -0.9628 0.1534 0.2225
vn -0.7721 0.1230 0.6235
vn -0.4285 0.0683 0.9009
vn 0.4285 -0.0683 0.9009
vn 0.7721 -0.1230 0.6235
vn 0.9628 -0.1534 0.2225
vn 0.9628 -0.1534 -0.2225
vn 0.7721 -0.1230 -0.6235
vn 0.4285 -0.0683 -0.9009
vn -0.2946 0.3185 0.9010
vn -0.5308 0.5740 0.6235
vn -0.6619 0.7158 0.2225
vn -0.6619 0.7158 -0.2225
vn -0.5308 0.5740 -0.6235
vn -0.2946 0.3185 -0.9010
vn 0.2946 -0.3185 -0.9010
vn 0.5308 -0.5740 -0.6235
vn 0.6619 -0.7158 -0.2225
vn 0.6619 -0.7158 0.2225
vn 0.5308 -0.5740 0.6235
vn 0.2946 -0.3185 0.9010
s 1
f 1//1 15//1 28//2 14//2
f 2//3 16//3 15//1 1//1
f 3//4 17//4 16//3 2//3
f 4//5 18//5 17//4 3//4
f 5//6 19//6 18//5 4//5
f 6//7 20//7 19//6 5//6
f 7//8 21//8 20//7 6//7
f 8//9 22//9 21//8 7//8
f 9//10 23//10 22//9 8//9
f 10//11 24//11 23//10 9//10
f 11//12 25//12 24//11 10//11
f 12//13 26//13 25//12 11//12
f 13//14 27//14 26//13 12//13
f 14//2 28//2 27//14 13//14
f 29//15 43//15 56//2 42//2
f 30//16 44//16 43//15 29//15
f 31//17 45//17 44//16 30//16
f 32//18 46//18 45//17 31//17
f 33//19 47//19 46//18 32//18
f 34//20 48//20 47//19 33//19
f 35//8 49//8 48//20 34//20
f 36//21 50//21 49//8 35//8
f 37//22 51//22 50//21 36//21
f 38//23 52//23 51//22 37//22
f 39//24 53//24 52//23 38//23
f 40//25 54//25 53//24 39//24
f 41//26 55//26 54//25 40//25
f 42//2 56//2 55//26 41//26
f 57//27 71//27 84//8 70//8
f 58//28 72//28 71//27 57//27
f 59//29 73//29 72//28 58//28
f 60//30 74//30 73//29 59//29
f 61//31 75//31 74//30 60//30
f 62//32 76//32 75//31 61//31
f 63//2 77//2 76//32 62//32
f 64//33 78//33 77//2 63//2
f 65//34 79//34 78//33 64//33
f 66//35 80//35 79//34 65//34
f 67//36 81//36 80//35 66//35
f 68//37 82//37 81//36 67//36
f 69//38 83//38 82//37 68//37
f 70//8 84//8 83//38 69//38
