# Blender v2.78 (sub 0) OBJ File: ''
# www.blender.org
mtllib Inputs of 524 - ASHL.mtl
o Inputs_of_524_-_[ASHL.]
v 0.426263 -1.125896 -4.850194
v 0.423828 -1.125853 -4.852136
v 0.422477 -1.125829 -4.854942
v 0.422477 -1.125829 -4.858058
v 0.423828 -1.125853 -4.860865
v 0.426263 -1.125896 -4.862807
v 0.429300 -1.125950 -4.863500
v 0.432337 -1.126004 -4.862807
v 0.434772 -1.126047 -4.860865
v 0.436123 -1.126071 -4.858058
v 0.436123 -1.126071 -4.854942
v 0.434772 -1.126047 -4.852136
v 0.432337 -1.126004 -4.850194
v 0.429300 -1.125950 -4.849500
v 0.425213 -1.185196 -4.850194
v 0.422778 -1.185153 -4.852136
v 0.421427 -1.185129 -4.854942
v 0.421427 -1.185129 -4.858058
v 0.422778 -1.185153 -4.860865
v 0.425213 -1.185196 -4.862807
v 0.428250 -1.185250 -4.863500
v 0.431287 -1.185304 -4.862807
v 0.433722 -1.185347 -4.860865
v 0.435073 -1.185371 -4.858058
v 0.435073 -1.185371 -4.854942
v 0.433722 -1.185347 -4.852136
v 0.431287 -1.185304 -4.850194
v 0.428250 -1.185250 -4.849500
v 0.406553 -1.073604 -4.774693
v 0.408308 -1.071915 -4.776636
v 0.409282 -1.070978 -4.779442
v 0.409282 -1.070978 -4.782558
v 0.408308 -1.071915 -4.785365
v 0.406553 -1.073604 -4.787307
v 0.404365 -1.075710 -4.788000
v 0.402177 -1.077816 -4.787307
v 0.400422 -1.079505 -4.785365
v 0.399448 -1.080442 -4.782558
v 0.399448 -1.080442 -4.779442
v 0.400422 -1.079505 -4.776636
v 0.402177 -1.077816 -4.774693
v 0.404365 -1.075710 -4.774000
v 0.384938 -1.051144 -4.774693
v 0.386693 -1.049455 -4.776636
v 0.387667 -1.048518 -4.779442
v 0.387667 -1.048518 -4.782558
v 0.386693 -1.049455 -4.785365
v 0.384938 -1.051144 -4.787307
v 0.382750 -1.053250 -4.788000
v 0.380562 -1.055356 -4.787307
v 0.378807 -1.057045 -4.785365
v 0.377833 -1.057982 -4.782558
v 0.377833 -1.057982 -4.779442
v 0.378807 -1.057045 -4.776636
v 0.380562 -1.055356 -4.774693
v 0.382750 -1.053250 -4.774000
v 0.447842 -1.140874 -4.847806
v 0.450167 -1.140147 -4.845864
v 0.451457 -1.139744 -4.843058
v 0.451457 -1.139744 -4.839942
v 0.450167 -1.140147 -4.837135
v 0.447842 -1.140874 -4.835193
v 0.444943 -1.141780 -4.834500
v 0.442044 -1.142686 -4.835193
v 0.439719 -1.143413 -4.837135
v 0.438429 -1.143816 -4.839942
v 0.438429 -1.143816 -4.843058
v 0.439719 -1.143413 -4.845864
v 0.442044 -1.142686 -4.847806
v 0.444943 -1.141780 -4.848500
v 0.466899 -1.201844 -4.847806
v 0.469224 -1.201117 -4.845864
v 0.470514 -1.200714 -4.843058
v 0.470514 -1.200714 -4.839942
v 0.469224 -1.201117 -4.837135
v 0.466899 -1.201844 -4.835193
v 0.464000 -1.202750 -4.834500
v 0.461101 -1.203656 -4.835193
v 0.458776 -1.204383 -4.837135
v 0.457486 -1.204786 -4.839942
v 0.457486 -1.204786 -4.843058
v 0.458776 -1.204383 -4.845864
v 0.461101 -1.203656 -4.847806
v 0.464000 -1.202750 -4.848500
v 0.400019 -0.875911 -4.626194
v 0.402451 -0.875782 -4.628136
v 0.403801 -0.875710 -4.630942
v 0.403801 -0.875710 -4.634058
v 0.402451 -0.875782 -4.636865
v 0.400019 -0.875911 -4.638807
v 0.396986 -0.876072 -4.639500
v 0.393953 -0.876233 -4.638807
v 0.391521 -0.876362 -4.636865
v 0.390171 -0.876434 -4.634058
v 0.390171 -0.876434 -4.630942
v 0.391521 -0.876362 -4.628136
v 0.393953 -0.876233 -4.626194
v 0.396986 -0.876072 -4.625500
v 0.396181 -0.803622 -4.626194
v 0.398613 -0.803493 -4.628136
v 0.399963 -0.803421 -4.630942
v 0.399963 -0.803421 -4.634058
v 0.398613 -0.803493 -4.636865
v 0.396181 -0.803622 -4.638807
v 0.393148 -0.803783 -4.639500
v 0.390115 -0.803944 -4.638807
v 0.387683 -0.804073 -4.636865
v 0.386333 -0.804145 -4.634058
v 0.386333 -0.804145 -4.630942
v 0.387683 -0.804073 -4.628136
v 0.390115 -0.803944 -4.626194
v 0.393148 -0.803783 -4.625500
v 0.508602 -1.219654 -4.943807
v 0.510977 -1.219112 -4.941864
v 0.512294 -1.218811 -4.939058
v 0.512294 -1.218811 -4.935942
v 0.510977 -1.219112 -4.933136
v 0.508602 -1.219654 -4.931193
v 0.505641 -1.220330 -4.930500
v 0.502680 -1.221006 -4.931193
v 0.500305 -1.221548 -4.933136
v 0.498988 -1.221849 -4.935942
v 0.498988 -1.221849 -4.939058
v 0.500305 -1.221548 -4.941864
v 0.502680 -1.221006 -4.943807
v 0.505641 -1.220330 -4.944500
v 0.514461 -1.245324 -4.943807
v 0.516836 -1.244782 -4.941864
v 0.518153 -1.244481 -4.939058
v 0.518153 -1.244481 -4.935942
v 0.516836 -1.244782 -4.933136
v 0.514461 -1.245324 -4.931193
v 0.511500 -1.246000 -4.930500
v 0.508539 -1.246676 -4.931193
v 0.506164 -1.247218 -4.933136
v 0.504847 -1.247519 -4.935942
v 0.504847 -1.247519 -4.939058
v 0.506164 -1.247218 -4.941864
v 0.508539 -1.246676 -4.943807
v 0.511500 -1.246000 -4.944500
vn -0.4338 0.0077 0.9010
vn 0.0000 0.0000 1.0000
vn -0.7817 0.0138 0.6235
vn -0.9748 0.0172 0.2225
vn -0.9748 0.0172 -0.2225
vn -0.7817 0.0138 -0.6235
vn -0.4338 0.0077 -0.9010
vn 0.0000 0.0000 -1.0000
vn 0.4338 -0.0077 -0.9010
vn 0.7817 -0.0138 -0.6235
vn 0.9748 -0.0172 -0.2225
vn 0.9748 -0.0172 0.2225
vn 0.7817 -0.0138 0.6235
vn 0.4338 -0.0077 0.9010
vn 0.3126 0.3009 0.9010
vn 0.5633 0.5421 0.6235
vn 0.7024 0.6760 0.2225
vn 0.7024 0.6760 -0.2225
vn 0.5633 0.5421 -0.6235
vn 0.3126 0.3009 -0.9009
vn -0.3126 -0.3009 -0.9009
vn -0.3126 -0.3009 -0.9010
vn -0.5633 -0.5421 -0.6235
vn -0.7024 -0.6760 -0.2225
vn -0.7024 -0.6760 0.2225
vn -0.5633 -0.5421 0.6235
vn -0.3126 -0.3009 0.9010
vn 0.4141 0.1294 -0.9009
vn 0.7462 0.2332 -0.6235
vn 0.9305 0.2908 -0.2225
vn 0.9305 0.2908 0.2225
vn 0.7462 0.2332 0.6235
vn 0.4141 0.1294 0.9010
vn -0.4141 -0.1294 0.9010
vn -0.4140 -0.1294 0.9010
vn -0.7462 -0.2332 0.6235
vn -0.9305 -0.2908 0.2225
vn -0.9305 -0.2908 -0.2225
vn -0.7462 -0.2332 -0.6235
vn -0.4141 -0.1294 -0.9010
vn 0.4333 0.0230 0.9009
vn 0.7807 0.0414 0.6235
vn 0.9735 0.0517 0.2225
vn 0.9735 0.0517 -0.2225
vn 0.7807 0.0414 -0.6235
vn 0.4333 0.0230 -0.9009
vn -0.4333 -0.0230 -0.9009
vn -0.7807 -0.0414 -0.6235
vn -0.9735 -0.0517 -0.2225
vn -0.9735 -0.0517 0.2225
vn -0.7807 -0.0414 0.6235
vn -0.4333 -0.0230 0.9009
vn 0.4230 0.0965 -0.9010
vn 0.7622 0.1740 -0.6235
vn 0.9505 0.2169 -0.2225
vn 0.9505 0.2169 0.2225
vn 0.7622 0.1740 0.6235
vn 0.4230 0.0965 0.9010
vn -0.4230 -0.0965 0.9010
vn -0.7622 -0.1740 0.6236
vn -0.7622 -0.1740 0.6235
vn -0.9505 -0.2169 0.2225
vn -0.9505 -0.2169 -0.2225
vn -0.7622 -0.1740 -0.6236
vn -0.7622 -0.1740 -0.6235
vn -0.4230 -0.0965 -0.9010
s 1
f 1//1 15//1 28//2 14//2
f 2//3 16//3 15//1 1//1
f 3//4 17//4 16//3 2//3
f 4//5 18//5 17//4 3//4
f 5//6 19//6 18//5 4//5
f 6//7 20//7 19//6 5//6
f 7//8 21//8 20//7 6//7
f 8//9 22//9 21//8 7//8
f 9//10 23//10 22//9 8//9
f 10//11 24//11 23//10 9//10
f 11//12 25//12 24//11 10//11
f 12//13 26//13 25//12 11//12
f 13//14 27//14 26//13 12//13
f 14//2 28//2 27//14 13//14
f 29//15 43//15 56//2 42//2
f 30//16 44//16 43//15 29//15
f 31//17 45//17 44//16 30//16
f 32//18 46//18 45//17 31//17
f 33//19 47//19 46//18 32//18
f 34//20 48//20 47//19 33//19
f 35//8 49//8 48//20 34//20
f 36//21 50//22 49//8 35//8
f 37//23 51//23 50//22 36//21
f 38//24 52//24 51//23 37//23
f 39//25 53//25 52//24 38//24
f 40//26 54//26 53//25 39//25
f 41//27 55//27 54//26 40//26
f 42//2 56//2 55//27 41//27
f 57//28 71//28 84//8 70//8
f 58//29 72//29 71//28 57//28
f 59//30 73//30 72//29 58//29
f 60//31 74//31 73//30 59//30
f 61//32 75//32 74//31 60//31
f 62//33 76//33 75//32 61//32
f 63//2 77//2 76//33 62//33
f 64//34 78//35 77//2 63//2
f 65//36 79//36 78//35 64//34
f 66//37 80//37 79//36 65//36
f 67//38 81//38 80//37 66//37
f 68//39 82//39 81//38 67//38
f 69//40 83//40 82//39 68//39
f 70//8 84//8 83//40 69//40
f 85//41 99//41 112//2 98//2
f 86//42 100//42 99//41 85//41
f 87//43 101//43 100//42 86//42
f 88//44 102//44 101//43 87//43
f 89//45 103//45 102//44 88//44
f 90//46 104//46 103//45 89//45
f 91//8 105//8 104//46 90//46
f 92//47 106//47 105//8 91//8
f 93//48 107//48 106//47 92//47
f 94//49 108//49 107//48 93//48
f 95//50 109//50 108//49 94//49
f 96//51 110//51 109//50 95//50
f 97//52 111//52 110//51 96//51
f 98//2 112//2 111//52 97//52
f 113//53 127//53 140//8 126//8
f 114//54 128//54 127//53 113//53
f 115//55 129//55 128//54 114//54
f 116//56 130//56 129//55 115//55
f 117//57 131//57 130//56 116//56
f 118//58 132//58 131//57 117//57
f 119//2 133//2 132//58 118//58
f 120//59 134//59 133//2 119//2
f 121//60 135//61 134//59 120//59
f 122//62 136//62 135//61 121//60
f 123//63 137//63 136//62 122//62
f 124//64 138//65 137//63 123//63
f 125//66 139//66 138//65 124//64
f 126//8 140//8 139//66 125//66
