# Blender v2.78 (sub 0) OBJ File: ''
# www.blender.org
mtllib Inputs of 29962 - URAVL.mtl
o Inputs_of_29962_-_URAVL.
v 0.457747 -1.027714 -4.299694
v 0.459582 -1.026113 -4.301636
v 0.460601 -1.025224 -4.304442
v 0.460601 -1.025224 -4.307558
v 0.459582 -1.026113 -4.310365
v 0.457747 -1.027714 -4.312307
v 0.455458 -1.029710 -4.313000
v 0.453169 -1.031706 -4.312307
v 0.451334 -1.033307 -4.310365
v 0.450315 -1.034196 -4.307558
v 0.450315 -1.034196 -4.304442
v 0.451334 -1.033307 -4.301636
v 0.453169 -1.031706 -4.299694
v 0.455458 -1.029710 -4.299000
v 0.442039 -1.009704 -4.299694
v 0.443874 -1.008103 -4.301636
v 0.444893 -1.007214 -4.304442
v 0.444893 -1.007214 -4.307558
v 0.443874 -1.008103 -4.310365
v 0.442039 -1.009704 -4.312307
v 0.439750 -1.011700 -4.313000
v 0.437461 -1.013696 -4.312307
v 0.435626 -1.015297 -4.310365
v 0.434607 -1.016186 -4.307558
v 0.434607 -1.016186 -4.304442
v 0.435626 -1.015297 -4.301636
v 0.437461 -1.013696 -4.299694
v 0.439750 -1.011700 -4.299000
vn 0.3269 0.2852 0.9010
vn 0.0000 0.0000 1.0000
vn 0.5892 0.5139 0.6235
vn 0.7347 0.6408 0.2225
vn 0.7347 0.6408 -0.2225
vn 0.5892 0.5139 -0.6235
vn 0.3270 0.2852 -0.9010
vn 0.0000 0.0000 -1.0000
vn -0.3270 -0.2852 -0.9009
vn -0.5892 -0.5139 -0.6235
vn -0.7347 -0.6408 -0.2225
vn -0.7347 -0.6408 0.2225
vn -0.5892 -0.5139 0.6235
vn -0.3269 -0.2852 0.9010
s 1
f 1//1 15//1 28//2 14//2
f 2//3 16//3 15//1 1//1
f 3//4 17//4 16//3 2//3
f 4//5 18//5 17//4 3//4
f 5//6 19//6 18//5 4//5
f 6//7 20//7 19//6 5//6
f 7//8 21//8 20//7 6//7
f 8//9 22//9 21//8 7//8
f 9//10 23//10 22//9 8//9
f 10//11 24//11 23//10 9//10
f 11//12 25//12 24//11 10//11
f 12//13 26//13 25//12 11//12
f 13//14 27//14 26//13 12//13
f 14//2 28//2 27//14 13//14
