# Blender v2.78 (sub 0) OBJ File: ''
# www.blender.org
mtllib Inputs of 52580 - BWM-DL02.mtl
o Inputs_of_52580_-_BWM-DL02
v 0.542670 -0.823636 -4.437693
v 0.541120 -0.821758 -4.439635
v 0.540259 -0.820715 -4.442442
v 0.540259 -0.820715 -4.445558
v 0.541120 -0.821758 -4.448364
v 0.542670 -0.823636 -4.450306
v 0.544603 -0.825979 -4.451000
v 0.546536 -0.828322 -4.450306
v 0.548086 -0.830200 -4.448364
v 0.548947 -0.831243 -4.445558
v 0.548947 -0.831243 -4.442442
v 0.548086 -0.830200 -4.439635
v 0.546536 -0.828322 -4.437693
v 0.544603 -0.825979 -4.437000
v 0.519317 -0.842907 -4.437693
v 0.517767 -0.841029 -4.439635
v 0.516906 -0.839986 -4.442442
v 0.516906 -0.839986 -4.445558
v 0.517767 -0.841029 -4.448364
v 0.519317 -0.842907 -4.450306
v 0.521250 -0.845250 -4.451000
v 0.523183 -0.847593 -4.450306
v 0.524733 -0.849471 -4.448364
v 0.525594 -0.850514 -4.445558
v 0.525594 -0.850514 -4.442442
v 0.524733 -0.849471 -4.439635
v 0.523183 -0.847593 -4.437693
v 0.521250 -0.845250 -4.437000
v 0.316058 -0.578241 -4.347806
v 0.317265 -0.576125 -4.345864
v 0.317935 -0.574951 -4.343058
v 0.317935 -0.574951 -4.339942
v 0.317265 -0.576125 -4.337135
v 0.316058 -0.578241 -4.335193
v 0.314553 -0.580879 -4.334500
v 0.313048 -0.583517 -4.335193
v 0.311841 -0.585633 -4.337135
v 0.311171 -0.586807 -4.339942
v 0.311171 -0.586807 -4.343058
v 0.311841 -0.585633 -4.345864
v 0.313048 -0.583517 -4.347806
v 0.314553 -0.580879 -4.348500
v 0.346505 -0.595612 -4.347806
v 0.347712 -0.593496 -4.345864
v 0.348382 -0.592322 -4.343058
v 0.348382 -0.592322 -4.339942
v 0.347712 -0.593496 -4.337135
v 0.346505 -0.595612 -4.335193
v 0.345000 -0.598250 -4.334500
v 0.343495 -0.600888 -4.335193
v 0.342288 -0.603004 -4.337135
v 0.341618 -0.604178 -4.339942
v 0.341618 -0.604178 -4.343058
v 0.342288 -0.603004 -4.345864
v 0.343495 -0.600888 -4.347806
v 0.345000 -0.598250 -4.348500
v 0.500267 -0.870344 -4.350194
v 0.499560 -0.868013 -4.352136
v 0.499167 -0.866720 -4.354942
v 0.499167 -0.866720 -4.358058
v 0.499560 -0.868013 -4.360865
v 0.500267 -0.870344 -4.362807
v 0.501150 -0.873250 -4.363500
v 0.502033 -0.876156 -4.362807
v 0.502740 -0.878487 -4.360865
v 0.503133 -0.879780 -4.358058
v 0.503133 -0.879780 -4.354942
v 0.502740 -0.878487 -4.352136
v 0.502033 -0.876156 -4.350194
v 0.501150 -0.873250 -4.349500
v 0.480017 -0.876494 -4.350194
v 0.479310 -0.874163 -4.352136
v 0.478917 -0.872870 -4.354942
v 0.478917 -0.872870 -4.358058
v 0.479310 -0.874163 -4.360865
v 0.480017 -0.876494 -4.362807
v 0.480900 -0.879400 -4.363500
v 0.481783 -0.882306 -4.362807
v 0.482490 -0.884637 -4.360865
v 0.482883 -0.885930 -4.358058
v 0.482883 -0.885930 -4.354942
v 0.482490 -0.884637 -4.352136
v 0.481783 -0.882306 -4.350194
v 0.480900 -0.879400 -4.349500
v 0.542251 -0.988767 -4.346694
v 0.543735 -0.986836 -4.348636
v 0.544559 -0.985764 -4.351442
v 0.544559 -0.985764 -4.354558
v 0.543735 -0.986836 -4.357365
v 0.542251 -0.988767 -4.359307
v 0.540400 -0.991175 -4.360000
v 0.538549 -0.993583 -4.359307
v 0.537065 -0.995514 -4.357365
v 0.536241 -0.996586 -4.354558
v 0.536241 -0.996586 -4.351442
v 0.537065 -0.995514 -4.348636
v 0.538549 -0.993583 -4.346694
v 0.540400 -0.991175 -4.346000
v 0.526151 -0.976392 -4.346694
v 0.527635 -0.974461 -4.348636
v 0.528459 -0.973389 -4.351442
v 0.528459 -0.973389 -4.354558
v 0.527635 -0.974461 -4.357365
v 0.526151 -0.976392 -4.359307
v 0.524300 -0.978800 -4.360000
v 0.522449 -0.981208 -4.359307
v 0.520965 -0.983139 -4.357365
v 0.520141 -0.984211 -4.354558
v 0.520141 -0.984211 -4.351442
v 0.520965 -0.983139 -4.348636
v 0.522449 -0.981208 -4.346694
v 0.524300 -0.978800 -4.346000
v 0.545540 -0.821553 -4.441194
v 0.546892 -0.819528 -4.443136
v 0.547643 -0.818403 -4.445942
v 0.547643 -0.818403 -4.449058
v 0.546892 -0.819528 -4.451865
v 0.545540 -0.821553 -4.453807
v 0.543853 -0.824079 -4.454500
v 0.542166 -0.826605 -4.453807
v 0.540814 -0.828630 -4.451865
v 0.540063 -0.829754 -4.449058
v 0.540063 -0.829754 -4.445942
v 0.540814 -0.828630 -4.443136
v 0.542166 -0.826605 -4.441194
v 0.543853 -0.824079 -4.440500
v 0.512737 -0.799649 -4.441194
v 0.514089 -0.797624 -4.443136
v 0.514840 -0.796499 -4.445942
v 0.514840 -0.796499 -4.449058
v 0.514089 -0.797624 -4.451865
v 0.512737 -0.799649 -4.453807
v 0.511050 -0.802175 -4.454500
v 0.509363 -0.804701 -4.453807
v 0.508011 -0.806726 -4.451865
v 0.507260 -0.807850 -4.449058
v 0.507260 -0.807850 -4.445942
v 0.508011 -0.806726 -4.443136
v 0.509363 -0.804701 -4.441194
v 0.511050 -0.802175 -4.440500
v 0.525275 -0.908925 -4.455194
v 0.525495 -0.906500 -4.457136
v 0.525617 -0.905153 -4.459942
v 0.525617 -0.905153 -4.463058
v 0.525495 -0.906500 -4.465865
v 0.525275 -0.908925 -4.467807
v 0.525000 -0.911950 -4.468500
v 0.524725 -0.914975 -4.467807
v 0.524505 -0.917400 -4.465865
v 0.524383 -0.918747 -4.463058
v 0.524383 -0.918747 -4.459942
v 0.524505 -0.917400 -4.457136
v 0.524725 -0.914975 -4.455194
v 0.525000 -0.911950 -4.454500
v 0.489135 -0.905645 -4.455194
v 0.489355 -0.903220 -4.457136
v 0.489477 -0.901873 -4.459942
v 0.489477 -0.901873 -4.463058
v 0.489355 -0.903220 -4.465865
v 0.489135 -0.905645 -4.467807
v 0.488860 -0.908670 -4.468500
v 0.488586 -0.911695 -4.467807
v 0.488365 -0.914120 -4.465865
v 0.488243 -0.915467 -4.463058
v 0.488243 -0.915467 -4.459942
v 0.488365 -0.914120 -4.457136
v 0.488586 -0.911695 -4.455194
v 0.488860 -0.908670 -4.454500
v 0.508985 -0.960954 -4.411193
v 0.509444 -0.958562 -4.413136
v 0.509698 -0.957235 -4.415942
v 0.509698 -0.957235 -4.419058
v 0.509444 -0.958562 -4.421865
v 0.508985 -0.960954 -4.423807
v 0.508413 -0.963937 -4.424500
v 0.507841 -0.966920 -4.423807
v 0.507382 -0.969312 -4.421865
v 0.507128 -0.970639 -4.419058
v 0.507128 -0.970639 -4.415942
v 0.507382 -0.969312 -4.413136
v 0.507841 -0.966920 -4.411193
v 0.508413 -0.963937 -4.410500
v 0.488600 -0.957045 -4.411193
v 0.489059 -0.954653 -4.413136
v 0.489313 -0.953326 -4.415942
v 0.489313 -0.953326 -4.419058
v 0.489059 -0.954653 -4.421865
v 0.488600 -0.957045 -4.423807
v 0.488028 -0.960028 -4.424500
v 0.487456 -0.963011 -4.423807
v 0.486997 -0.965403 -4.421865
v 0.486743 -0.966730 -4.419058
v 0.486743 -0.966730 -4.415942
v 0.486997 -0.965403 -4.413136
v 0.487456 -0.963011 -4.411193
v 0.488028 -0.960028 -4.410500
v 0.544585 -0.834436 -4.407693
v 0.542204 -0.833920 -4.409636
v 0.540883 -0.833634 -4.412442
v 0.540883 -0.833634 -4.415558
v 0.542204 -0.833920 -4.418365
v 0.544585 -0.834436 -4.420307
v 0.547553 -0.835079 -4.421000
v 0.550521 -0.835722 -4.420307
v 0.552902 -0.836238 -4.418365
v 0.554223 -0.836524 -4.415558
v 0.554223 -0.836524 -4.412442
v 0.552902 -0.836238 -4.409636
v 0.550521 -0.835722 -4.407693
v 0.547553 -0.835079 -4.407000
v 0.527882 -0.911507 -4.407693
v 0.525501 -0.910991 -4.409636
v 0.524180 -0.910705 -4.412442
v 0.524180 -0.910705 -4.415558
v 0.525501 -0.910991 -4.418365
v 0.527882 -0.911507 -4.420307
v 0.530850 -0.912150 -4.421000
v 0.533818 -0.912793 -4.420307
v 0.536199 -0.913309 -4.418365
v 0.537520 -0.913595 -4.415558
v 0.537520 -0.913595 -4.412442
v 0.536199 -0.913309 -4.409636
v 0.533818 -0.912793 -4.407693
v 0.530850 -0.912150 -4.407000
v 0.535446 -0.847953 -4.363693
v 0.534959 -0.845567 -4.365635
v 0.534689 -0.844242 -4.368442
v 0.534689 -0.844242 -4.371558
v 0.534959 -0.845567 -4.374364
v 0.535446 -0.847953 -4.376307
v 0.536053 -0.850929 -4.377000
v 0.536660 -0.853905 -4.376307
v 0.537147 -0.856291 -4.374364
v 0.537417 -0.857616 -4.371558
v 0.537417 -0.857616 -4.368442
v 0.537147 -0.856291 -4.365635
v 0.536660 -0.853905 -4.363693
v 0.536053 -0.850929 -4.363000
v 0.474293 -0.860424 -4.363693
v 0.473806 -0.858038 -4.365635
v 0.473536 -0.856713 -4.368442
v 0.473536 -0.856713 -4.371558
v 0.473806 -0.858038 -4.374364
v 0.474293 -0.860424 -4.376307
v 0.474900 -0.863400 -4.377000
v 0.475507 -0.866376 -4.376307
v 0.475994 -0.868762 -4.374364
v 0.476264 -0.870087 -4.371558
v 0.476264 -0.870087 -4.368442
v 0.475994 -0.868762 -4.365635
v 0.475507 -0.866376 -4.363693
v 0.474900 -0.863400 -4.363000
v 0.543884 -0.816073 -4.448194
v 0.544230 -0.813662 -4.450136
v 0.544422 -0.812324 -4.452942
v 0.544422 -0.812324 -4.456058
v 0.544230 -0.813662 -4.458865
v 0.543884 -0.816073 -4.460807
v 0.543453 -0.819079 -4.461500
v 0.543022 -0.822085 -4.460807
v 0.542676 -0.824496 -4.458865
v 0.542484 -0.825834 -4.456058
v 0.542484 -0.825834 -4.452942
v 0.542676 -0.824496 -4.450136
v 0.543022 -0.822085 -4.448194
v 0.543453 -0.819079 -4.447500
v 0.465409 -0.804817 -4.448194
v 0.465755 -0.802406 -4.450136
v 0.465947 -0.801068 -4.452942
v 0.465947 -0.801068 -4.456058
v 0.465755 -0.802406 -4.458865
v 0.465409 -0.804817 -4.460807
v 0.464978 -0.807823 -4.461500
v 0.464547 -0.810829 -4.460807
v 0.464201 -0.813240 -4.458865
v 0.464009 -0.814578 -4.456058
v 0.464009 -0.814578 -4.452942
v 0.464201 -0.813240 -4.450136
v 0.464547 -0.810829 -4.448194
v 0.464978 -0.807823 -4.447500
v 0.540521 -0.867648 -4.331693
v 0.540054 -0.865258 -4.333635
v 0.539795 -0.863931 -4.336442
v 0.539795 -0.863931 -4.339558
v 0.540054 -0.865258 -4.342364
v 0.540521 -0.867648 -4.344306
v 0.541103 -0.870629 -4.345000
v 0.541685 -0.873610 -4.344306
v 0.542152 -0.876000 -4.342364
v 0.542411 -0.877327 -4.339558
v 0.542411 -0.877327 -4.336442
v 0.542152 -0.876000 -4.333635
v 0.541685 -0.873610 -4.331693
v 0.541103 -0.870629 -4.331000
v 0.474618 -0.880519 -4.331693
v 0.474151 -0.878129 -4.333635
v 0.473892 -0.876802 -4.336442
v 0.473892 -0.876802 -4.339558
v 0.474151 -0.878129 -4.342364
v 0.474618 -0.880519 -4.344306
v 0.475200 -0.883500 -4.345000
v 0.475782 -0.886481 -4.344306
v 0.476249 -0.888871 -4.342364
v 0.476508 -0.890198 -4.339558
v 0.476508 -0.890198 -4.336442
v 0.476249 -0.888871 -4.333635
v 0.475782 -0.886481 -4.331693
v 0.475200 -0.883500 -4.331000
v 0.533750 -0.845923 -4.367193
v 0.531342 -0.845557 -4.369135
v 0.530006 -0.845354 -4.371942
v 0.530006 -0.845354 -4.375058
v 0.531342 -0.845557 -4.377864
v 0.533750 -0.845923 -4.379807
v 0.536753 -0.846379 -4.380500
v 0.539756 -0.846835 -4.379807
v 0.542164 -0.847201 -4.377864
v 0.543500 -0.847404 -4.375058
v 0.543500 -0.847404 -4.371942
v 0.542164 -0.847201 -4.369135
v 0.539756 -0.846835 -4.367193
v 0.536753 -0.846379 -4.366500
v 0.518797 -0.944344 -4.367193
v 0.516389 -0.943978 -4.369135
v 0.515053 -0.943775 -4.371942
v 0.515053 -0.943775 -4.375058
v 0.516389 -0.943978 -4.377864
v 0.518797 -0.944344 -4.379807
v 0.521800 -0.944800 -4.380500
v 0.524803 -0.945256 -4.379807
v 0.527211 -0.945622 -4.377864
v 0.528547 -0.945825 -4.375058
v 0.528547 -0.945825 -4.371942
v 0.527211 -0.945622 -4.369135
v 0.524803 -0.945256 -4.367193
v 0.521800 -0.944800 -4.366500
vn -0.2762 0.3346 0.9010
vn 0.0000 0.0000 1.0000
vn -0.4976 0.6030 0.6235
vn -0.6205 0.7519 0.2225
vn -0.6205 0.7519 -0.2225
vn -0.4976 0.6030 -0.6235
vn -0.2761 0.3346 -0.9010
vn -0.0000 0.0000 -1.0000
vn 0.2761 -0.3346 -0.9010
vn 0.4976 -0.6030 -0.6235
vn 0.6205 -0.7519 -0.2225
vn 0.6205 -0.7519 0.2225
vn 0.4976 -0.6030 0.6235
vn 0.2762 -0.3346 0.9010
vn 0.2150 0.3768 -0.9010
vn 0.3874 0.6790 -0.6235
vn 0.4831 0.8468 -0.2225
vn 0.4831 0.8468 0.2225
vn 0.3874 0.6791 0.6235
vn 0.2150 0.3768 0.9010
vn -0.2150 -0.3768 0.9010
vn -0.3874 -0.6791 0.6235
vn -0.4831 -0.8468 0.2225
vn -0.4831 -0.8468 -0.2225
vn -0.3874 -0.6790 -0.6235
vn -0.2150 -0.3768 -0.9010
vn -0.1261 0.4151 0.9010
vn -0.2272 0.7480 0.6235
vn -0.2833 0.9328 0.2225
vn -0.2833 0.9328 -0.2225
vn -0.2272 0.7481 -0.6235
vn -0.2272 0.7480 -0.6235
vn -0.1261 0.4151 -0.9010
vn 0.1261 -0.4151 -0.9010
vn 0.2272 -0.7481 -0.6235
vn 0.2833 -0.9328 -0.2225
vn 0.2833 -0.9328 0.2225
vn 0.2272 -0.7481 0.6235
vn 0.1261 -0.4151 0.9010
vn 0.2644 0.3440 0.9009
vn 0.4764 0.6199 0.6235
vn 0.5941 0.7730 0.2225
vn 0.5941 0.7730 -0.2225
vn 0.4765 0.6199 -0.6235
vn 0.2644 0.3440 -0.9009
vn -0.2644 -0.3440 -0.9010
vn -0.4764 -0.6199 -0.6235
vn -0.5941 -0.7730 -0.2225
vn -0.5941 -0.7730 0.2225
vn -0.4764 -0.6198 0.6235
vn -0.2644 -0.3440 0.9010
vn 0.2409 0.3608 0.9009
vn 0.4342 0.6502 0.6235
vn 0.5414 0.8108 0.2225
vn 0.5414 0.8108 -0.2225
vn 0.4342 0.6502 -0.6235
vn 0.2409 0.3608 -0.9010
vn -0.2409 -0.3608 -0.9010
vn -0.4341 -0.6502 -0.6235
vn -0.5414 -0.8108 -0.2225
vn -0.5414 -0.8108 0.2225
vn -0.4341 -0.6502 0.6235
vn -0.2409 -0.3608 0.9010
vn 0.0392 0.4321 0.9010
vn 0.0707 0.7786 0.6235
vn 0.0881 0.9709 0.2225
vn 0.0881 0.9709 -0.2225
vn 0.0707 0.7786 -0.6235
vn 0.0392 0.4321 -0.9010
vn -0.0392 -0.4321 -0.9010
vn -0.0707 -0.7786 -0.6235
vn -0.0881 -0.9709 -0.2225
vn -0.0881 -0.9709 0.2225
vn -0.0707 -0.7786 0.6235
vn -0.0392 -0.4321 0.9010
vn 0.0817 0.4261 0.9010
vn 0.1472 0.7678 0.6235
vn 0.1836 0.9575 0.2225
vn 0.1836 0.9575 -0.2225
vn 0.1472 0.7678 -0.6235
vn 0.0817 0.4261 -0.9010
vn -0.0817 -0.4261 -0.9010
vn -0.1472 -0.7678 -0.6235
vn -0.1836 -0.9575 -0.2225
vn -0.1836 -0.9575 0.2225
vn -0.1472 -0.7678 0.6235
vn -0.0817 -0.4261 0.9010
vn -0.4240 0.0919 0.9009
vn -0.7641 0.1656 0.6235
vn -0.9528 0.2065 0.2225
vn -0.9528 0.2065 -0.2225
vn -0.7641 0.1656 -0.6235
vn -0.4240 0.0919 -0.9010
vn 0.4240 -0.0919 -0.9010
vn 0.7641 -0.1656 -0.6235
vn 0.9528 -0.2065 -0.2225
vn 0.9528 -0.2065 0.2225
vn 0.7641 -0.1656 0.6235
vn 0.4240 -0.0919 0.9009
vn -0.0867 0.4251 0.9010
vn -0.1562 0.7660 0.6235
vn -0.1948 0.9553 0.2225
vn -0.1948 0.9553 -0.2225
vn -0.1562 0.7660 -0.6235
vn -0.0867 0.4251 -0.9010
vn 0.0867 -0.4251 -0.9010
vn 0.1562 -0.7660 -0.6235
vn 0.1948 -0.9553 -0.2225
vn 0.1948 -0.9553 0.2225
vn 0.1562 -0.7660 0.6235
vn 0.0867 -0.4251 0.9010
vn 0.0616 0.4295 0.9010
vn 0.1110 0.7739 0.6235
vn 0.1384 0.9650 0.2225
vn 0.1384 0.9650 -0.2225
vn 0.1110 0.7739 -0.6235
vn 0.0616 0.4295 -0.9010
vn -0.0616 -0.4295 -0.9010
vn -0.1110 -0.7739 -0.6235
vn -0.1384 -0.9650 -0.2225
vn -0.1384 -0.9650 0.2225
vn -0.1110 -0.7739 0.6235
vn -0.0616 -0.4295 0.9010
vn -0.0832 0.4258 0.9010
vn -0.1498 0.7673 0.6235
vn -0.1869 0.9568 0.2225
vn -0.1869 0.9568 -0.2225
vn -0.1498 0.7673 -0.6235
vn -0.0832 0.4258 -0.9010
vn 0.0832 -0.4258 -0.9010
vn 0.1498 -0.7673 -0.6235
vn 0.1869 -0.9568 -0.2225
vn 0.1869 -0.9568 0.2225
vn 0.1498 -0.7673 0.6235
vn 0.0832 -0.4258 0.9010
vn -0.4290 0.0652 0.9009
vn -0.7729 0.1174 0.6235
vn -0.9638 0.1464 0.2225
vn -0.9639 0.1464 -0.2225
vn -0.7729 0.1174 -0.6235
vn -0.4289 0.0652 -0.9010
vn 0.4289 -0.0652 -0.9010
vn 0.7729 -0.1174 -0.6235
vn 0.9639 -0.1464 -0.2225
vn 0.9638 -0.1464 0.2225
vn 0.7729 -0.1174 0.6235
vn 0.4290 -0.0652 0.9009
s 1
f 1//1 15//1 28//2 14//2
f 2//3 16//3 15//1 1//1
f 3//4 17//4 16//3 2//3
f 4//5 18//5 17//4 3//4
f 5//6 19//6 18//5 4//5
f 6//7 20//7 19//6 5//6
f 7//8 21//8 20//7 6//7
f 8//9 22//9 21//8 7//8
f 9//10 23//10 22//9 8//9
f 10//11 24//11 23//10 9//10
f 11//12 25//12 24//11 10//11
f 12//13 26//13 25//12 11//12
f 13//14 27//14 26//13 12//13
f 14//2 28//2 27//14 13//14
f 29//15 43//15 56//8 42//8
f 30//16 44//16 43//15 29//15
f 31//17 45//17 44//16 30//16
f 32//18 46//18 45//17 31//17
f 33//19 47//19 46//18 32//18
f 34//20 48//20 47//19 33//19
f 35//2 49//2 48//20 34//20
f 36//21 50//21 49//2 35//2
f 37//22 51//22 50//21 36//21
f 38//23 52//23 51//22 37//22
f 39//24 53//24 52//23 38//23
f 40//25 54//25 53//24 39//24
f 41//26 55//26 54//25 40//25
f 42//8 56//8 55//26 41//26
f 57//27 71//27 84//2 70//2
f 58//28 72//28 71//27 57//27
f 59//29 73//29 72//28 58//28
f 60//30 74//30 73//29 59//29
f 61//31 75//32 74//30 60//30
f 62//33 76//33 75//32 61//31
f 63//8 77//8 76//33 62//33
f 64//34 78//34 77//8 63//8
f 65//35 79//35 78//34 64//34
f 66//36 80//36 79//35 65//35
f 67//37 81//37 80//36 66//36
f 68//38 82//38 81//37 67//37
f 69//39 83//39 82//38 68//38
f 70//2 84//2 83//39 69//39
f 85//40 99//40 112//2 98//2
f 86//41 100//41 99//40 85//40
f 87//42 101//42 100//41 86//41
f 88//43 102//43 101//42 87//42
f 89//44 103//44 102//43 88//43
f 90//45 104//45 103//44 89//44
f 91//8 105//8 104//45 90//45
f 92//46 106//46 105//8 91//8
f 93//47 107//47 106//46 92//46
f 94//48 108//48 107//47 93//47
f 95//49 109//49 108//48 94//48
f 96//50 110//50 109//49 95//49
f 97//51 111//51 110//50 96//50
f 98//2 112//2 111//51 97//51
f 113//52 127//52 140//2 126//2
f 114//53 128//53 127//52 113//52
f 115//54 129//54 128//53 114//53
f 116//55 130//55 129//54 115//54
f 117//56 131//56 130//55 116//55
f 118//57 132//57 131//56 117//56
f 119//8 133//8 132//57 118//57
f 120//58 134//58 133//8 119//8
f 121//59 135//59 134//58 120//58
f 122//60 136//60 135//59 121//59
f 123//61 137//61 136//60 122//60
f 124//62 138//62 137//61 123//61
f 125//63 139//63 138//62 124//62
f 126//2 140//2 139//63 125//63
f 141//64 155//64 168//2 154//2
f 142//65 156//65 155//64 141//64
f 143//66 157//66 156//65 142//65
f 144//67 158//67 157//66 143//66
f 145//68 159//68 158//67 144//67
f 146//69 160//69 159//68 145//68
f 147//8 161//8 160//69 146//69
f 148//70 162//70 161//8 147//8
f 149//71 163//71 162//70 148//70
f 150//72 164//72 163//71 149//71
f 151//73 165//73 164//72 150//72
f 152//74 166//74 165//73 151//73
f 153//75 167//75 166//74 152//74
f 154//2 168//2 167//75 153//75
f 169//76 183//76 196//2 182//2
f 170//77 184//77 183//76 169//76
f 171//78 185//78 184//77 170//77
f 172//79 186//79 185//78 171//78
f 173//80 187//80 186//79 172//79
f 174//81 188//81 187//80 173//80
f 175//8 189//8 188//81 174//81
f 176//82 190//82 189//8 175//8
f 177//83 191//83 190//82 176//82
f 178//84 192//84 191//83 177//83
f 179//85 193//85 192//84 178//84
f 180//86 194//86 193//85 179//85
f 181//87 195//87 194//86 180//86
f 182//2 196//2 195//87 181//87
f 197//88 211//88 224//2 210//2
f 198//89 212//89 211//88 197//88
f 199//90 213//90 212//89 198//89
f 200//91 214//91 213//90 199//90
f 201//92 215//92 214//91 200//91
f 202//93 216//93 215//92 201//92
f 203//8 217//8 216//93 202//93
f 204//94 218//94 217//8 203//8
f 205//95 219//95 218//94 204//94
f 206//96 220//96 219//95 205//95
f 207//97 221//97 220//96 206//96
f 208//98 222//98 221//97 207//97
f 209//99 223//99 222//98 208//98
f 210//2 224//2 223//99 209//99
f 225//100 239//100 252//2 238//2
f 226//101 240//101 239//100 225//100
f 227//102 241//102 240//101 226//101
f 228//103 242//103 241//102 227//102
f 229//104 243//104 242//103 228//103
f 230//105 244//105 243//104 229//104
f 231//8 245//8 244//105 230//105
f 232//106 246//106 245//8 231//8
f 233//107 247//107 246//106 232//106
f 234//108 248//108 247//107 233//107
f 235//109 249//109 248//108 234//108
f 236//110 250//110 249//109 235//109
f 237//111 251//111 250//110 236//110
f 238//2 252//2 251//111 237//111
f 253//112 267//112 280//2 266//2
f 254//113 268//113 267//112 253//112
f 255//114 269//114 268//113 254//113
f 256//115 270//115 269//114 255//114
f 257//116 271//116 270//115 256//115
f 258//117 272//117 271//116 257//116
f 259//8 273//8 272//117 258//117
f 260//118 274//118 273//8 259//8
f 261//119 275//119 274//118 260//118
f 262//120 276//120 275//119 261//119
f 263//121 277//121 276//120 262//120
f 264//122 278//122 277//121 263//121
f 265//123 279//123 278//122 264//122
f 266//2 280//2 279//123 265//123
f 281//124 295//124 308//2 294//2
f 282//125 296//125 295//124 281//124
f 283//126 297//126 296//125 282//125
f 284//127 298//127 297//126 283//126
f 285//128 299//128 298//127 284//127
f 286//129 300//129 299//128 285//128
f 287//8 301//8 300//129 286//129
f 288//130 302//130 301//8 287//8
f 289//131 303//131 302//130 288//130
f 290//132 304//132 303//131 289//131
f 291//133 305//133 304//132 290//132
f 292//134 306//134 305//133 291//133
f 293//135 307//135 306//134 292//134
f 294//2 308//2 307//135 293//135
f 309//136 323//136 336//2 322//2
f 310//137 324//137 323//136 309//136
f 311//138 325//138 324//137 310//137
f 312//139 326//139 325//138 311//138
f 313//140 327//140 326//139 312//139
f 314//141 328//141 327//140 313//140
f 315//8 329//8 328//141 314//141
f 316//142 330//142 329//8 315//8
f 317//143 331//143 330//142 316//142
f 318//144 332//144 331//143 317//143
f 319//145 333//145 332//144 318//144
f 320//146 334//146 333//145 319//145
f 321//147 335//147 334//146 320//146
f 322//2 336//2 335//147 321//147
