# Blender v2.78 (sub 0) OBJ File: ''
# www.blender.org
mtllib Outputs of 56682 - VA1DB1.mtl
o Outputs_of_56682_-_[VA1/DB1.]
v 0.617262 -1.409563 -4.982693
v 0.619377 -1.408355 -4.984635
v 0.620550 -1.407684 -4.987442
v 0.620550 -1.407684 -4.990558
v 0.619377 -1.408355 -4.993364
v 0.617262 -1.409563 -4.995306
v 0.614625 -1.411070 -4.996000
v 0.611988 -1.412577 -4.995306
v 0.609873 -1.413785 -4.993364
v 0.608700 -1.414456 -4.990558
v 0.608700 -1.414456 -4.987442
v 0.609873 -1.413785 -4.984635
v 0.611988 -1.412577 -4.982693
v 0.614625 -1.411070 -4.982000
v 0.613262 -1.402563 -4.982693
v 0.615377 -1.401355 -4.984635
v 0.616550 -1.400684 -4.987442
v 0.616550 -1.400684 -4.990558
v 0.615377 -1.401355 -4.993364
v 0.613262 -1.402563 -4.995306
v 0.610625 -1.404070 -4.996000
v 0.607988 -1.405577 -4.995306
v 0.605873 -1.406785 -4.993364
v 0.604700 -1.407456 -4.990558
v 0.604700 -1.407456 -4.987442
v 0.605873 -1.406785 -4.984635
v 0.607988 -1.405577 -4.982693
v 0.610625 -1.404070 -4.982000
vn 0.3767 0.2152 0.9010
vn -0.0001 0.0000 1.0000
vn 0.6788 0.3878 0.6235
vn 0.8465 0.4837 0.2225
vn 0.8465 0.4837 -0.2225
vn 0.6788 0.3879 -0.6235
vn 0.3767 0.2152 -0.9010
vn 0.0000 0.0000 -1.0000
vn -0.3767 -0.2152 -0.9010
vn -0.6788 -0.3879 -0.6235
vn -0.8465 -0.4837 -0.2225
vn -0.8464 -0.4837 0.2225
vn -0.6787 -0.3879 0.6235
vn -0.6787 -0.3879 0.6236
vn -0.3768 -0.2152 0.9009
s 1
f 1//1 15//1 28//2 14//2
f 2//3 16//3 15//1 1//1
f 3//4 17//4 16//3 2//3
f 4//5 18//5 17//4 3//4
f 5//6 19//6 18//5 4//5
f 6//7 20//7 19//6 5//6
f 7//8 21//8 20//7 6//7
f 8//9 22//9 21//8 7//8
f 9//10 23//10 22//9 8//9
f 10//11 24//11 23//10 9//10
f 11//12 25//12 24//11 10//11
f 12//13 26//14 25//12 11//12
f 13//15 27//15 26//14 12//13
f 14//2 28//2 27//15 13//15
