# Blender v2.78 (sub 0) OBJ File: ''
# www.blender.org
mtllib Outputs of 48757 - ADEL.mtl
o Outputs_of_48757_-_[ADEL.]
v 0.486693 -0.875841 -4.426693
v 0.488975 -0.874990 -4.428636
v 0.490241 -0.874518 -4.431442
v 0.490241 -0.874518 -4.434558
v 0.488975 -0.874990 -4.437365
v 0.486693 -0.875841 -4.439307
v 0.483847 -0.876903 -4.440000
v 0.481001 -0.877964 -4.439307
v 0.478719 -0.878816 -4.437365
v 0.477453 -0.879288 -4.434558
v 0.477453 -0.879288 -4.431442
v 0.478719 -0.878816 -4.428636
v 0.481001 -0.877964 -4.426693
v 0.483847 -0.876903 -4.426000
v 0.482346 -0.864188 -4.426693
v 0.484628 -0.863337 -4.428636
v 0.485894 -0.862865 -4.431442
v 0.485894 -0.862865 -4.434558
v 0.484628 -0.863337 -4.437365
v 0.482346 -0.864188 -4.439307
v 0.479500 -0.865250 -4.440000
v 0.476654 -0.866311 -4.439307
v 0.474372 -0.867163 -4.437365
v 0.473106 -0.867635 -4.434558
v 0.473106 -0.867635 -4.431442
v 0.474372 -0.867163 -4.428636
v 0.476654 -0.866311 -4.426693
v 0.479500 -0.865250 -4.426000
v 0.486919 -0.858112 -4.464807
v 0.489269 -0.857472 -4.462864
v 0.490573 -0.857117 -4.460058
v 0.490573 -0.857117 -4.456942
v 0.489269 -0.857472 -4.454135
v 0.486919 -0.858112 -4.452193
v 0.483989 -0.858911 -4.451500
v 0.481059 -0.859710 -4.452193
v 0.478709 -0.860350 -4.454135
v 0.477405 -0.860705 -4.456942
v 0.477405 -0.860705 -4.460058
v 0.478709 -0.860350 -4.462864
v 0.481059 -0.859710 -4.464807
v 0.483989 -0.858911 -4.465500
v 0.491277 -0.874104 -4.464807
v 0.493627 -0.873464 -4.462864
v 0.494931 -0.873109 -4.460058
v 0.494931 -0.873109 -4.456942
v 0.493627 -0.873464 -4.454135
v 0.491277 -0.874104 -4.452193
v 0.488347 -0.874903 -4.451500
v 0.485417 -0.875702 -4.452193
v 0.483067 -0.876342 -4.454135
v 0.481763 -0.876697 -4.456942
v 0.481763 -0.876697 -4.460058
v 0.483067 -0.876342 -4.462864
v 0.485417 -0.875702 -4.464807
v 0.488347 -0.874903 -4.465500
v 0.482832 -0.895090 -4.428807
v 0.485225 -0.894638 -4.426865
v 0.486553 -0.894388 -4.424058
v 0.486553 -0.894388 -4.420942
v 0.485225 -0.894638 -4.418136
v 0.482832 -0.895090 -4.416193
v 0.479847 -0.895653 -4.415500
v 0.476862 -0.896216 -4.416193
v 0.474469 -0.896668 -4.418136
v 0.473141 -0.896918 -4.420942
v 0.473141 -0.896918 -4.424058
v 0.474469 -0.896668 -4.426865
v 0.476862 -0.896216 -4.428807
v 0.479847 -0.895653 -4.429500
v 0.487832 -0.921590 -4.428807
v 0.490225 -0.921138 -4.426865
v 0.491553 -0.920888 -4.424058
v 0.491553 -0.920888 -4.420942
v 0.490225 -0.921138 -4.418136
v 0.487832 -0.921590 -4.416193
v 0.484847 -0.922153 -4.415500
v 0.481862 -0.922716 -4.416193
v 0.479469 -0.923168 -4.418136
v 0.478141 -0.923418 -4.420942
v 0.478141 -0.923418 -4.424058
v 0.479469 -0.923168 -4.426865
v 0.481862 -0.922716 -4.428807
v 0.484847 -0.922153 -4.429500
v 0.482455 -0.917763 -4.374807
v 0.482420 -0.915328 -4.372865
v 0.482400 -0.913976 -4.370058
v 0.482400 -0.913976 -4.366942
v 0.482420 -0.915328 -4.364136
v 0.482455 -0.917763 -4.362194
v 0.482500 -0.920800 -4.361500
v 0.482545 -0.923837 -4.362194
v 0.482580 -0.926272 -4.364136
v 0.482600 -0.927624 -4.366942
v 0.482600 -0.927624 -4.370058
v 0.482580 -0.926272 -4.372865
v 0.482545 -0.923837 -4.374807
v 0.482500 -0.920800 -4.375500
v 0.499455 -0.917513 -4.374807
v 0.499420 -0.915078 -4.372865
v 0.499400 -0.913726 -4.370058
v 0.499400 -0.913726 -4.366942
v 0.499420 -0.915078 -4.364136
v 0.499455 -0.917513 -4.362194
v 0.499500 -0.920550 -4.361500
v 0.499545 -0.923587 -4.362194
v 0.499580 -0.926022 -4.364136
v 0.499600 -0.927374 -4.366942
v 0.499600 -0.927374 -4.370058
v 0.499580 -0.926022 -4.372865
v 0.499545 -0.923587 -4.374807
v 0.499500 -0.920550 -4.375500
v 0.492263 -0.756472 -4.560194
v 0.492074 -0.754044 -4.562136
v 0.491969 -0.752696 -4.564942
v 0.491969 -0.752696 -4.568058
v 0.492074 -0.754044 -4.570865
v 0.492263 -0.756472 -4.572807
v 0.492500 -0.759500 -4.573500
v 0.492737 -0.762528 -4.572807
v 0.492926 -0.764956 -4.570865
v 0.493032 -0.766304 -4.568058
v 0.493032 -0.766304 -4.564942
v 0.492926 -0.764956 -4.562136
v 0.492737 -0.762528 -4.560194
v 0.492500 -0.759500 -4.559500
v 0.482663 -0.757222 -4.560194
v 0.482474 -0.754794 -4.562136
v 0.482368 -0.753446 -4.564942
v 0.482368 -0.753446 -4.568058
v 0.482474 -0.754794 -4.570865
v 0.482663 -0.757222 -4.572807
v 0.482900 -0.760250 -4.573500
v 0.483137 -0.763278 -4.572807
v 0.483326 -0.765706 -4.570865
v 0.483431 -0.767054 -4.568058
v 0.483431 -0.767054 -4.564942
v 0.483326 -0.765706 -4.562136
v 0.483137 -0.763278 -4.560194
v 0.482900 -0.760250 -4.559500
vn 0.4065 0.1516 0.9010
vn 0.0000 0.0000 1.0000
vn 0.7325 0.2732 0.6235
vn 0.9134 0.3407 0.2225
vn 0.9134 0.3407 -0.2225
vn 0.7325 0.2732 -0.6235
vn 0.4065 0.1516 -0.9010
vn 0.0000 0.0000 -1.0000
vn -0.4065 -0.1516 -0.9010
vn -0.7325 -0.2732 -0.6235
vn -0.9134 -0.3407 -0.2225
vn -0.9134 -0.3407 0.2225
vn -0.7325 -0.2732 0.6235
vn -0.4065 -0.1516 0.9010
vn 0.4186 0.1141 -0.9010
vn 0.7543 0.2055 -0.6235
vn 0.9406 0.2563 -0.2225
vn 0.9406 0.2563 0.2225
vn 0.7543 0.2055 0.6235
vn 0.4186 0.1140 0.9010
vn -0.4186 -0.1140 0.9010
vn -0.7543 -0.2055 0.6235
vn -0.9406 -0.2563 0.2225
vn -0.9406 -0.2563 -0.2225
vn -0.7543 -0.2055 -0.6235
vn -0.4186 -0.1141 -0.9010
vn 0.4263 0.0804 -0.9010
vn 0.7682 0.1449 -0.6235
vn 0.9580 0.1807 -0.2225
vn 0.9580 0.1807 0.2225
vn 0.7682 0.1449 0.6235
vn 0.4263 0.0804 0.9010
vn -0.4263 -0.0804 0.9010
vn -0.7682 -0.1449 0.6235
vn -0.9580 -0.1807 0.2225
vn -0.9580 -0.1807 -0.2225
vn -0.7682 -0.1449 -0.6235
vn -0.4263 -0.0804 -0.9010
vn -0.0064 0.4338 -0.9010
vn -0.0115 0.7817 -0.6235
vn -0.0143 0.9748 -0.2225
vn -0.0143 0.9748 0.2225
vn -0.0115 0.7817 0.6235
vn -0.0064 0.4338 0.9010
vn 0.0063 -0.4338 0.9010
vn 0.0115 -0.7817 0.6235
vn 0.0143 -0.9748 0.2225
vn 0.0143 -0.9748 -0.2225
vn 0.0115 -0.7817 -0.6235
vn 0.0063 -0.4338 -0.9010
vn -0.0338 0.4325 0.9010
vn -0.0609 0.7794 0.6235
vn -0.0759 0.9720 0.2225
vn -0.0759 0.9720 -0.2225
vn -0.0609 0.7794 -0.6235
vn -0.0338 0.4325 -0.9010
vn 0.0338 -0.4325 -0.9010
vn 0.0609 -0.7794 -0.6235
vn 0.0759 -0.9720 -0.2225
vn 0.0759 -0.9720 0.2225
vn 0.0609 -0.7794 0.6235
vn 0.0338 -0.4325 0.9010
s 1
f 1//1 15//1 28//2 14//2
f 2//3 16//3 15//1 1//1
f 3//4 17//4 16//3 2//3
f 4//5 18//5 17//4 3//4
f 5//6 19//6 18//5 4//5
f 6//7 20//7 19//6 5//6
f 7//8 21//8 20//7 6//7
f 8//9 22//9 21//8 7//8
f 9//10 23//10 22//9 8//9
f 10//11 24//11 23//10 9//10
f 11//12 25//12 24//11 10//11
f 12//13 26//13 25//12 11//12
f 13//14 27//14 26//13 12//13
f 14//2 28//2 27//14 13//14
f 29//15 43//15 56//8 42//8
f 30//16 44//16 43//15 29//15
f 31//17 45//17 44//16 30//16
f 32//18 46//18 45//17 31//17
f 33//19 47//19 46//18 32//18
f 34//20 48//20 47//19 33//19
f 35//2 49//2 48//20 34//20
f 36//21 50//21 49//2 35//2
f 37//22 51//22 50//21 36//21
f 38//23 52//23 51//22 37//22
f 39//24 53//24 52//23 38//23
f 40//25 54//25 53//24 39//24
f 41//26 55//26 54//25 40//25
f 42//8 56//8 55//26 41//26
f 57//27 71//27 84//8 70//8
f 58//28 72//28 71//27 57//27
f 59//29 73//29 72//28 58//28
f 60//30 74//30 73//29 59//29
f 61//31 75//31 74//30 60//30
f 62//32 76//32 75//31 61//31
f 63//2 77//2 76//32 62//32
f 64//33 78//33 77//2 63//2
f 65//34 79//34 78//33 64//33
f 66//35 80//35 79//34 65//34
f 67//36 81//36 80//35 66//35
f 68//37 82//37 81//36 67//36
f 69//38 83//38 82//37 68//37
f 70//8 84//8 83//38 69//38
f 85//39 99//39 112//8 98//8
f 86//40 100//40 99//39 85//39
f 87//41 101//41 100//40 86//40
f 88//42 102//42 101//41 87//41
f 89//43 103//43 102//42 88//42
f 90//44 104//44 103//43 89//43
f 91//2 105//2 104//44 90//44
f 92//45 106//45 105//2 91//2
f 93//46 107//46 106//45 92//45
f 94//47 108//47 107//46 93//46
f 95//48 109//48 108//47 94//47
f 96//49 110//49 109//48 95//48
f 97//50 111//50 110//49 96//49
f 98//8 112//8 111//50 97//50
f 113//51 127//51 140//2 126//2
f 114//52 128//52 127//51 113//51
f 115//53 129//53 128//52 114//52
f 116//54 130//54 129//53 115//53
f 117//55 131//55 130//54 116//54
f 118//56 132//56 131//55 117//55
f 119//8 133//8 132//56 118//56
f 120//57 134//57 133//8 119//8
f 121//58 135//58 134//57 120//57
f 122//59 136//59 135//58 121//58
f 123//60 137//60 136//59 122//59
f 124//61 138//61 137//60 123//60
f 125//62 139//62 138//61 124//61
f 126//2 140//2 139//62 125//62
