# Blender v2.78 (sub 0) OBJ File: ''
# www.blender.org
o Outputs_of_54093_-_URXR.
v 1.045352 -0.973341 -4.589193
v 1.043028 -0.972612 -4.591136
v 1.041738 -0.972207 -4.593942
v 1.041738 -0.972207 -4.597058
v 1.043028 -0.972612 -4.599864
v 1.045352 -0.973341 -4.601807
v 1.048250 -0.974250 -4.602500
v 1.051148 -0.975159 -4.601807
v 1.053472 -0.975888 -4.599864
v 1.054762 -0.976293 -4.597058
v 1.054762 -0.976293 -4.593942
v 1.053472 -0.975888 -4.591136
v 1.051148 -0.975159 -4.589193
v 1.048250 -0.974250 -4.588500
v 1.025352 -1.037091 -4.589193
v 1.023028 -1.036362 -4.591136
v 1.021738 -1.035957 -4.593942
v 1.021738 -1.035957 -4.597058
v 1.023028 -1.036362 -4.599864
v 1.025352 -1.037091 -4.601807
v 1.028250 -1.038000 -4.602500
v 1.031148 -1.038909 -4.601807
v 1.033472 -1.039638 -4.599864
v 1.034762 -1.040043 -4.597058
v 1.034762 -1.040043 -4.593942
v 1.033472 -1.039638 -4.591136
v 1.031148 -1.038909 -4.589193
v 1.028250 -1.038000 -4.588500
v 0.918068 -1.179325 -4.680193
v 0.915917 -1.178182 -4.682136
v 0.914723 -1.177548 -4.684942
v 0.914723 -1.177548 -4.688058
v 0.915917 -1.178182 -4.690865
v 0.918068 -1.179325 -4.692807
v 0.920750 -1.180750 -4.693500
v 0.923432 -1.182175 -4.692807
v 0.925583 -1.183318 -4.690865
v 0.926777 -1.183952 -4.688058
v 0.926777 -1.183952 -4.684942
v 0.925583 -1.183318 -4.682136
v 0.923432 -1.182175 -4.680193
v 0.920750 -1.180750 -4.679500
v 0.909568 -1.195325 -4.680193
v 0.907417 -1.194182 -4.682136
v 0.906223 -1.193548 -4.684942
v 0.906223 -1.193548 -4.688058
v 0.907417 -1.194182 -4.690865
v 0.909568 -1.195325 -4.692807
v 0.912250 -1.196750 -4.693500
v 0.914932 -1.198175 -4.692807
v 0.917083 -1.199318 -4.690865
v 0.918277 -1.199952 -4.688058
v 0.918277 -1.199952 -4.684942
v 0.917083 -1.199318 -4.682136
v 0.914932 -1.198175 -4.680193
v 0.912250 -1.196750 -4.679500
v 0.986981 -1.117669 -4.643193
v 0.984560 -1.117403 -4.645135
v 0.983216 -1.117255 -4.647942
v 0.983216 -1.117255 -4.651058
v 0.984560 -1.117403 -4.653864
v 0.986981 -1.117669 -4.655807
v 0.990000 -1.118000 -4.656500
v 0.993019 -1.118331 -4.655807
v 0.995440 -1.118597 -4.653864
v 0.996784 -1.118745 -4.651058
v 0.996784 -1.118745 -4.647942
v 0.995440 -1.118597 -4.645135
v 0.993019 -1.118331 -4.643193
v 0.990000 -1.118000 -4.642500
v 0.984731 -1.138169 -4.643193
v 0.982310 -1.137903 -4.645135
v 0.980966 -1.137755 -4.647942
v 0.980966 -1.137755 -4.651058
v 0.982310 -1.137903 -4.653864
v 0.984731 -1.138169 -4.655807
v 0.987750 -1.138500 -4.656500
v 0.990769 -1.138831 -4.655807
v 0.993190 -1.139097 -4.653864
v 0.994534 -1.139245 -4.651058
v 0.994534 -1.139245 -4.647942
v 0.993190 -1.139097 -4.645135
v 0.990769 -1.138831 -4.643193
v 0.987750 -1.138500 -4.642500
v 0.908905 -0.835922 -4.611807
v 0.906824 -0.834657 -4.609865
v 0.905669 -0.833955 -4.607058
v 0.905669 -0.833955 -4.603942
v 0.906824 -0.834657 -4.601136
v 0.908905 -0.835922 -4.599194
v 0.911500 -0.837500 -4.598500
v 0.914095 -0.839078 -4.599194
v 0.916176 -0.840343 -4.601136
v 0.917331 -0.841045 -4.603942
v 0.917331 -0.841045 -4.607058
v 0.916176 -0.840343 -4.609865
v 0.914095 -0.839078 -4.611807
v 0.911500 -0.837500 -4.612500
v 0.927905 -0.804672 -4.611807
v 0.925824 -0.803407 -4.609865
v 0.924669 -0.802705 -4.607058
v 0.924669 -0.802705 -4.603942
v 0.925824 -0.803407 -4.601136
v 0.927905 -0.804672 -4.599194
v 0.930500 -0.806250 -4.598500
v 0.933095 -0.807828 -4.599194
v 0.935176 -0.809093 -4.601136
v 0.936331 -0.809795 -4.603942
v 0.936331 -0.809795 -4.607058
v 0.935176 -0.809093 -4.609865
v 0.933095 -0.807828 -4.611807
v 0.930500 -0.806250 -4.612500
v 1.048496 -0.968051 -4.618307
v 1.046087 -0.967692 -4.616364
v 1.044750 -0.967492 -4.613558
v 1.044750 -0.967492 -4.610442
v 1.046087 -0.967692 -4.607635
v 1.048496 -0.968052 -4.605693
v 1.051500 -0.968500 -4.605000
v 1.054504 -0.968949 -4.605693
v 1.056913 -0.969308 -4.607635
v 1.058250 -0.969508 -4.610442
v 1.058250 -0.969508 -4.613558
v 1.056913 -0.969308 -4.616364
v 1.054504 -0.968948 -4.618307
v 1.051500 -0.968500 -4.619000
v 1.080746 -0.752051 -4.618307
v 1.078337 -0.751692 -4.616364
v 1.077000 -0.751492 -4.613558
v 1.077000 -0.751492 -4.610442
v 1.078337 -0.751692 -4.607635
v 1.080746 -0.752052 -4.605693
v 1.083750 -0.752500 -4.605000
v 1.086754 -0.752949 -4.605693
v 1.089163 -0.753308 -4.607635
v 1.090500 -0.753508 -4.610442
v 1.090500 -0.753508 -4.613558
v 1.089163 -0.753308 -4.616364
v 1.086754 -0.752948 -4.618307
v 1.083750 -0.752500 -4.619000
vn -0.4140 0.1299 0.9009
vn -0.0001 0.0000 1.0000
vn -0.7459 0.2340 0.6235
vn -0.9302 0.2918 0.2225
vn -0.9302 0.2918 -0.2225
vn -0.7460 0.2340 -0.6235
vn -0.4139 0.1299 -0.9010
vn 0.0001 0.0000 -1.0000
vn 0.4140 -0.1299 -0.9009
vn 0.7459 -0.2340 -0.6235
vn 0.9302 -0.2918 -0.2225
vn 0.9302 -0.2918 0.2225
vn 0.7460 -0.2340 0.6235
vn 0.4139 -0.1299 0.9010
vn -0.3832 0.2035 0.9009
vn -0.3832 0.2035 0.9010
vn 0.0000 0.0000 1.0000
vn -0.6904 0.3668 0.6235
vn -0.8610 0.4574 0.2225
vn -0.8610 0.4574 -0.2225
vn -0.6904 0.3668 -0.6235
vn -0.3832 0.2035 -0.9009
vn 0.0000 0.0000 -1.0000
vn 0.3832 -0.2035 -0.9009
vn 0.6904 -0.3668 -0.6235
vn 0.8610 -0.4574 -0.2225
vn 0.8610 -0.4574 0.2225
vn 0.6904 -0.3668 0.6235
vn 0.3832 -0.2035 0.9009
vn -0.4313 0.0473 0.9009
vn -0.7771 0.0853 0.6235
vn -0.9691 0.1064 0.2225
vn -0.9691 0.1064 -0.2225
vn -0.7771 0.0853 -0.6235
vn -0.4313 0.0473 -0.9010
vn 0.4313 -0.0473 -0.9010
vn 0.7771 -0.0853 -0.6235
vn 0.9691 -0.1064 -0.2225
vn 0.9691 -0.1064 0.2225
vn 0.7771 -0.0853 0.6235
vn 0.4313 -0.0473 0.9009
vn -0.3707 0.2254 -0.9010
vn -0.6680 0.4061 -0.6235
vn -0.8330 0.5065 -0.2225
vn -0.8330 0.5065 0.2225
vn -0.6680 0.4061 0.6235
vn -0.3707 0.2254 0.9010
vn 0.3707 -0.2254 0.9010
vn 0.6680 -0.4061 0.6235
vn 0.8330 -0.5065 0.2225
vn 0.8330 -0.5065 -0.2225
vn 0.6680 -0.4061 -0.6235
vn 0.3707 -0.2254 -0.9010
vn -0.4291 0.0641 -0.9009
vn -0.7732 0.1154 -0.6235
vn -0.9642 0.1440 -0.2225
vn -0.9642 0.1440 0.2225
vn -0.7732 0.1154 0.6235
vn -0.4291 0.0641 0.9010
vn 0.4291 -0.0641 0.9010
vn 0.7732 -0.1154 0.6235
vn 0.9642 -0.1440 0.2225
vn 0.9642 -0.1440 -0.2225
vn 0.7732 -0.1154 -0.6235
vn 0.4291 -0.0641 -0.9009
vn 0.4291 -0.0641 -0.9010
s 1
f 1//1 15//1 28//2 14//2
f 2//3 16//3 15//1 1//1
f 3//4 17//4 16//3 2//3
f 4//5 18//5 17//4 3//4
f 5//6 19//6 18//5 4//5
f 6//7 20//7 19//6 5//6
f 7//8 21//8 20//7 6//7
f 8//9 22//9 21//8 7//8
f 9//10 23//10 22//9 8//9
f 10//11 24//11 23//10 9//10
f 11//12 25//12 24//11 10//11
f 12//13 26//13 25//12 11//12
f 13//14 27//14 26//13 12//13
f 14//2 28//2 27//14 13//14
f 29//15 43//16 56//17 42//17
f 30//18 44//18 43//16 29//15
f 31//19 45//19 44//18 30//18
f 32//20 46//20 45//19 31//19
f 33//21 47//21 46//20 32//20
f 34//22 48//22 47//21 33//21
f 35//23 49//23 48//22 34//22
f 36//24 50//24 49//23 35//23
f 37//25 51//25 50//24 36//24
f 38//26 52//26 51//25 37//25
f 39//27 53//27 52//26 38//26
f 40//28 54//28 53//27 39//27
f 41//29 55//29 54//28 40//28
f 42//17 56//17 55//29 41//29
f 57//30 71//30 84//17 70//17
f 58//31 72//31 71//30 57//30
f 59//32 73//32 72//31 58//31
f 60//33 74//33 73//32 59//32
f 61//34 75//34 74//33 60//33
f 62//35 76//35 75//34 61//34
f 63//23 77//23 76//35 62//35
f 64//36 78//36 77//23 63//23
f 65//37 79//37 78//36 64//36
f 66//38 80//38 79//37 65//37
f 67//39 81//39 80//38 66//38
f 68//40 82//40 81//39 67//39
f 69//41 83//41 82//40 68//40
f 70//17 84//17 83//41 69//41
f 85//42 99//42 112//23 98//23
f 86//43 100//43 99//42 85//42
f 87//44 101//44 100//43 86//43
f 88//45 102//45 101//44 87//44
f 89//46 103//46 102//45 88//45
f 90//47 104//47 103//46 89//46
f 91//17 105//17 104//47 90//47
f 92//48 106//48 105//17 91//17
f 93//49 107//49 106//48 92//48
f 94//50 108//50 107//49 93//49
f 95//51 109//51 108//50 94//50
f 96//52 110//52 109//51 95//51
f 97//53 111//53 110//52 96//52
f 98//23 112//23 111//53 97//53
f 113//54 127//54 140//23 126//23
f 114//55 128//55 127//54 113//54
f 115//56 129//56 128//55 114//55
f 116//57 130//57 129//56 115//56
f 117//58 131//58 130//57 116//57
f 118//59 132//59 131//58 117//58
f 119//17 133//17 132//59 118//59
f 120//60 134//60 133//17 119//17
f 121//61 135//61 134//60 120//60
f 122//62 136//62 135//61 121//61
f 123//63 137//63 136//62 122//62
f 124//64 138//64 137//63 123//63
f 125//65 139//66 138//64 124//64
f 126//23 140//23 139//66 125//65
