# Blender v2.78 (sub 0) OBJ File: ''
# www.blender.org
mtllib Outputs of 55804 - AVFLR.mtl
o Outputs_of_55804_-_[AVFL/R.]
v 0.474562 -1.158870 -4.989306
v 0.476617 -1.157562 -4.987364
v 0.477758 -1.156836 -4.984558
v 0.477758 -1.156836 -4.981442
v 0.476617 -1.157562 -4.978635
v 0.474562 -1.158870 -4.976693
v 0.472000 -1.160500 -4.976000
v 0.469438 -1.162131 -4.976693
v 0.467383 -1.163438 -4.978635
v 0.466242 -1.164164 -4.981442
v 0.466242 -1.164164 -4.984558
v 0.467383 -1.163438 -4.987364
v 0.469438 -1.162131 -4.989306
v 0.472000 -1.160500 -4.990000
v 0.478062 -1.164369 -4.989306
v 0.480117 -1.163062 -4.987364
v 0.481258 -1.162336 -4.984558
v 0.481258 -1.162336 -4.981442
v 0.480117 -1.163062 -4.978635
v 0.478062 -1.164369 -4.976693
v 0.475500 -1.166000 -4.976000
v 0.472938 -1.167631 -4.976693
v 0.470883 -1.168938 -4.978635
v 0.469742 -1.169664 -4.981442
v 0.469742 -1.169664 -4.984558
v 0.470883 -1.168938 -4.987364
v 0.472938 -1.167631 -4.989306
v 0.475500 -1.166000 -4.990000
v 0.454992 -1.147769 -4.961194
v 0.453181 -1.146140 -4.963136
v 0.452176 -1.145236 -4.965942
v 0.452176 -1.145236 -4.969058
v 0.453181 -1.146140 -4.971865
v 0.454992 -1.147769 -4.973807
v 0.457250 -1.149800 -4.974500
v 0.459508 -1.151831 -4.973807
v 0.461319 -1.153460 -4.971865
v 0.462324 -1.154364 -4.969058
v 0.462324 -1.154364 -4.965942
v 0.461319 -1.153460 -4.963136
v 0.459508 -1.151831 -4.961194
v 0.457250 -1.149800 -4.960500
v 0.446492 -1.157219 -4.961194
v 0.444681 -1.155590 -4.963136
v 0.443676 -1.154686 -4.965942
v 0.443676 -1.154686 -4.969058
v 0.444681 -1.155590 -4.971865
v 0.446492 -1.157219 -4.973807
v 0.448750 -1.159250 -4.974500
v 0.451008 -1.161281 -4.973807
v 0.452819 -1.162910 -4.971865
v 0.453824 -1.163814 -4.969058
v 0.453824 -1.163814 -4.965942
v 0.452819 -1.162910 -4.963136
v 0.451008 -1.161281 -4.961194
v 0.448750 -1.159250 -4.960500
v 0.398426 -0.841471 -4.683193
v 0.396000 -0.841247 -4.685135
v 0.394654 -0.841123 -4.687942
v 0.394654 -0.841123 -4.691058
v 0.396000 -0.841247 -4.693864
v 0.398426 -0.841471 -4.695807
v 0.401450 -0.841750 -4.696500
v 0.404474 -0.842029 -4.695807
v 0.406900 -0.842253 -4.693864
v 0.408246 -0.842377 -4.691058
v 0.408246 -0.842377 -4.687942
v 0.406900 -0.842253 -4.685135
v 0.404474 -0.842029 -4.683193
v 0.401450 -0.841750 -4.682500
v 0.397226 -0.854471 -4.683193
v 0.394800 -0.854247 -4.685135
v 0.393454 -0.854123 -4.687942
v 0.393454 -0.854123 -4.691058
v 0.394800 -0.854247 -4.693864
v 0.397226 -0.854471 -4.695807
v 0.400250 -0.854750 -4.696500
v 0.403274 -0.855029 -4.695807
v 0.405700 -0.855253 -4.693864
v 0.407046 -0.855377 -4.691058
v 0.407046 -0.855377 -4.687942
v 0.405700 -0.855253 -4.685135
v 0.403274 -0.855029 -4.683193
v 0.400250 -0.854750 -4.682500
v 0.409568 -0.878007 -4.720694
v 0.411949 -0.877492 -4.722636
v 0.413270 -0.877206 -4.725442
v 0.413270 -0.877206 -4.728558
v 0.411949 -0.877492 -4.731365
v 0.409568 -0.878007 -4.733307
v 0.406600 -0.878650 -4.734000
v 0.403632 -0.879293 -4.733307
v 0.401251 -0.879808 -4.731365
v 0.399930 -0.880094 -4.728558
v 0.399930 -0.880094 -4.725442
v 0.401251 -0.879808 -4.722636
v 0.403632 -0.879293 -4.720694
v 0.406600 -0.878650 -4.720000
v 0.407468 -0.868307 -4.720694
v 0.409849 -0.867792 -4.722636
v 0.411170 -0.867506 -4.725442
v 0.411170 -0.867506 -4.728558
v 0.409849 -0.867792 -4.731365
v 0.407468 -0.868307 -4.733307
v 0.404500 -0.868950 -4.734000
v 0.401532 -0.869593 -4.733307
v 0.399151 -0.870108 -4.731365
v 0.397830 -0.870394 -4.728558
v 0.397830 -0.870394 -4.725442
v 0.399151 -0.870108 -4.722636
v 0.401532 -0.869593 -4.720694
v 0.404500 -0.868950 -4.720000
v 0.417907 -1.081373 -4.874693
v 0.420318 -1.081030 -4.876636
v 0.421657 -1.080840 -4.879442
v 0.421657 -1.080840 -4.882558
v 0.420318 -1.081030 -4.885365
v 0.417907 -1.081373 -4.887307
v 0.414900 -1.081800 -4.888000
v 0.411893 -1.082227 -4.887307
v 0.409482 -1.082570 -4.885365
v 0.408143 -1.082760 -4.882558
v 0.408143 -1.082760 -4.879442
v 0.409482 -1.082570 -4.876636
v 0.411893 -1.082227 -4.874693
v 0.414900 -1.081800 -4.874000
v 0.417073 -1.075503 -4.874693
v 0.419484 -1.075160 -4.876636
v 0.420823 -1.074970 -4.879442
v 0.420823 -1.074970 -4.882558
v 0.419484 -1.075160 -4.885365
v 0.417073 -1.075503 -4.887307
v 0.414066 -1.075930 -4.888000
v 0.411059 -1.076357 -4.887307
v 0.408648 -1.076700 -4.885365
v 0.407309 -1.076890 -4.882558
v 0.407309 -1.076890 -4.879442
v 0.408648 -1.076700 -4.876636
v 0.411059 -1.076357 -4.874693
v 0.414066 -1.075930 -4.874000
v 0.402784 -0.824610 -4.692807
v 0.405217 -0.824497 -4.690865
v 0.406567 -0.824434 -4.688058
v 0.406567 -0.824434 -4.684942
v 0.405217 -0.824497 -4.682136
v 0.402784 -0.824610 -4.680193
v 0.399750 -0.824750 -4.679500
v 0.396716 -0.824890 -4.680193
v 0.394283 -0.825003 -4.682136
v 0.392933 -0.825066 -4.684942
v 0.392933 -0.825066 -4.688058
v 0.394283 -0.825003 -4.690865
v 0.396716 -0.824890 -4.692807
v 0.399750 -0.824750 -4.693500
v 0.403534 -0.840810 -4.692807
v 0.405967 -0.840697 -4.690865
v 0.407317 -0.840634 -4.688058
v 0.407317 -0.840634 -4.684942
v 0.405967 -0.840697 -4.682136
v 0.403534 -0.840810 -4.680193
v 0.400500 -0.840950 -4.679500
v 0.397466 -0.841091 -4.680193
v 0.395033 -0.841203 -4.682136
v 0.393683 -0.841266 -4.684942
v 0.393683 -0.841266 -4.688058
v 0.395033 -0.841203 -4.690865
v 0.397466 -0.841091 -4.692807
v 0.400500 -0.840950 -4.693500
v 0.486156 -0.591390 -4.547693
v 0.483755 -0.590981 -4.549635
v 0.482422 -0.590753 -4.552442
v 0.482422 -0.590753 -4.555558
v 0.483755 -0.590981 -4.558364
v 0.486156 -0.591390 -4.560307
v 0.489150 -0.591900 -4.561000
v 0.492144 -0.592410 -4.560307
v 0.494545 -0.592819 -4.558364
v 0.495878 -0.593046 -4.555558
v 0.495878 -0.593046 -4.552442
v 0.494545 -0.592819 -4.549635
v 0.492144 -0.592410 -4.547693
v 0.489150 -0.591900 -4.547000
v 0.483506 -0.606940 -4.547693
v 0.481105 -0.606531 -4.549635
v 0.479772 -0.606304 -4.552442
v 0.479772 -0.606304 -4.555558
v 0.481105 -0.606531 -4.558364
v 0.483506 -0.606940 -4.560307
v 0.486500 -0.607450 -4.561000
v 0.489494 -0.607960 -4.560307
v 0.491895 -0.608369 -4.558364
v 0.493228 -0.608597 -4.555558
v 0.493228 -0.608597 -4.552442
v 0.491895 -0.608369 -4.549635
v 0.489494 -0.607960 -4.547693
v 0.486500 -0.607450 -4.547000
vn 0.3660 0.2329 -0.9010
vn 0.0000 0.0000 -1.0000
vn 0.6596 0.4197 -0.6235
vn 0.8225 0.5234 -0.2225
vn 0.8225 0.5234 0.2225
vn 0.6596 0.4197 0.6235
vn 0.3660 0.2329 0.9010
vn -0.0000 0.0000 1.0000
vn -0.3661 -0.2329 0.9009
vn -0.6596 -0.4197 0.6235
vn -0.8225 -0.5234 0.2225
vn -0.8225 -0.5234 -0.2225
vn -0.6596 -0.4197 -0.6235
vn -0.3660 -0.2329 -0.9010
vn -0.3226 0.2901 0.9010
vn -0.5813 0.5228 0.6235
vn -0.7248 0.6520 0.2225
vn -0.7248 0.6520 -0.2225
vn -0.5813 0.5228 -0.6235
vn -0.3226 0.2901 -0.9009
vn 0.3226 -0.2901 -0.9009
vn 0.5813 -0.5228 -0.6235
vn 0.7248 -0.6520 -0.2225
vn 0.7248 -0.6520 0.2225
vn 0.5813 -0.5228 0.6235
vn 0.3226 -0.2901 0.9010
vn -0.4320 0.0399 0.9010
vn -0.7785 0.0718 0.6235
vn -0.9708 0.0896 0.2225
vn -0.9708 0.0896 -0.2225
vn -0.7785 0.0718 -0.6235
vn -0.4321 0.0399 -0.9009
vn 0.4320 -0.0399 -0.9010
vn 0.7785 -0.0718 -0.6235
vn 0.9708 -0.0896 -0.2225
vn 0.9708 -0.0896 0.2225
vn 0.7785 -0.0718 0.6235
vn 0.4320 -0.0399 0.9010
vn 0.4241 0.0918 0.9009
vn 0.7641 0.1654 0.6235
vn 0.9528 0.2063 0.2225
vn 0.9528 0.2063 -0.2225
vn 0.7641 0.1654 -0.6235
vn 0.4240 0.0918 -0.9010
vn -0.4240 -0.0918 -0.9010
vn -0.7641 -0.1654 -0.6235
vn -0.9528 -0.2063 -0.2225
vn -0.9528 -0.2063 0.2225
vn -0.7641 -0.1654 0.6235
vn -0.4240 -0.0918 0.9010
vn 0.4295 0.0610 0.9010
vn 0.7740 0.1100 0.6235
vn 0.9652 0.1371 0.2225
vn 0.9652 0.1371 -0.2225
vn 0.7740 0.1100 -0.6235
vn 0.4296 0.0610 -0.9009
vn -0.4296 -0.0610 -0.9009
vn -0.7740 -0.1100 -0.6235
vn -0.9652 -0.1371 -0.2225
vn -0.9652 -0.1371 0.2225
vn -0.7740 -0.1100 0.6235
vn -0.4295 -0.0610 0.9010
vn 0.4334 0.0201 -0.9009
vn 0.7809 0.0361 -0.6235
vn 0.9739 0.0451 -0.2225
vn 0.9739 0.0451 0.2225
vn 0.7809 0.0361 0.6235
vn 0.4334 0.0201 0.9010
vn -0.4334 -0.0201 0.9010
vn -0.7809 -0.0361 0.6235
vn -0.9739 -0.0451 0.2225
vn -0.9739 -0.0451 -0.2225
vn -0.7809 -0.0361 -0.6235
vn -0.4334 -0.0201 -0.9009
vn -0.4277 0.0729 0.9010
vn -0.7707 0.1313 0.6235
vn -0.9611 0.1638 0.2225
vn -0.9611 0.1638 -0.2225
vn -0.7707 0.1313 -0.6235
vn -0.4277 0.0729 -0.9010
vn 0.4277 -0.0729 -0.9010
vn 0.7707 -0.1313 -0.6235
vn 0.9611 -0.1638 -0.2225
vn 0.9611 -0.1638 0.2225
vn 0.7707 -0.1313 0.6235
vn 0.4277 -0.0729 0.9010
s 1
f 1//1 15//1 28//2 14//2
f 2//3 16//3 15//1 1//1
f 3//4 17//4 16//3 2//3
f 4//5 18//5 17//4 3//4
f 5//6 19//6 18//5 4//5
f 6//7 20//7 19//6 5//6
f 7//8 21//8 20//7 6//7
f 8//9 22//9 21//8 7//8
f 9//10 23//10 22//9 8//9
f 10//11 24//11 23//10 9//10
f 11//12 25//12 24//11 10//11
f 12//13 26//13 25//12 11//12
f 13//14 27//14 26//13 12//13
f 14//2 28//2 27//14 13//14
f 29//15 43//15 56//8 42//8
f 30//16 44//16 43//15 29//15
f 31//17 45//17 44//16 30//16
f 32//18 46//18 45//17 31//17
f 33//19 47//19 46//18 32//18
f 34//20 48//20 47//19 33//19
f 35//2 49//2 48//20 34//20
f 36//21 50//21 49//2 35//2
f 37//22 51//22 50//21 36//21
f 38//23 52//23 51//22 37//22
f 39//24 53//24 52//23 38//23
f 40//25 54//25 53//24 39//24
f 41//26 55//26 54//25 40//25
f 42//8 56//8 55//26 41//26
f 57//27 71//27 84//8 70//8
f 58//28 72//28 71//27 57//27
f 59//29 73//29 72//28 58//28
f 60//30 74//30 73//29 59//29
f 61//31 75//31 74//30 60//30
f 62//32 76//32 75//31 61//31
f 63//2 77//2 76//32 62//32
f 64//33 78//33 77//2 63//2
f 65//34 79//34 78//33 64//33
f 66//35 80//35 79//34 65//34
f 67//36 81//36 80//35 66//35
f 68//37 82//37 81//36 67//36
f 69//38 83//38 82//37 68//37
f 70//8 84//8 83//38 69//38
f 85//39 99//39 112//8 98//8
f 86//40 100//40 99//39 85//39
f 87//41 101//41 100//40 86//40
f 88//42 102//42 101//41 87//41
f 89//43 103//43 102//42 88//42
f 90//44 104//44 103//43 89//43
f 91//2 105//2 104//44 90//44
f 92//45 106//45 105//2 91//2
f 93//46 107//46 106//45 92//45
f 94//47 108//47 107//46 93//46
f 95//48 109//48 108//47 94//47
f 96//49 110//49 109//48 95//48
f 97//50 111//50 110//49 96//49
f 98//8 112//8 111//50 97//50
f 113//51 127//51 140//8 126//8
f 114//52 128//52 127//51 113//51
f 115//53 129//53 128//52 114//52
f 116//54 130//54 129//53 115//53
f 117//55 131//55 130//54 116//54
f 118//56 132//56 131//55 117//55
f 119//2 133//2 132//56 118//56
f 120//57 134//57 133//2 119//2
f 121//58 135//58 134//57 120//57
f 122//59 136//59 135//58 121//58
f 123//60 137//60 136//59 122//59
f 124//61 138//61 137//60 123//60
f 125//62 139//62 138//61 124//61
f 126//8 140//8 139//62 125//62
f 141//63 155//63 168//2 154//2
f 142//64 156//64 155//63 141//63
f 143//65 157//65 156//64 142//64
f 144//66 158//66 157//65 143//65
f 145//67 159//67 158//66 144//66
f 146//68 160//68 159//67 145//67
f 147//8 161//8 160//68 146//68
f 148//69 162//69 161//8 147//8
f 149//70 163//70 162//69 148//69
f 150//71 164//71 163//70 149//70
f 151//72 165//72 164//71 150//71
f 152//73 166//73 165//72 151//72
f 153//74 167//74 166//73 152//73
f 154//2 168//2 167//74 153//74
f 169//75 183//75 196//8 182//8
f 170//76 184//76 183//75 169//75
f 171//77 185//77 184//76 170//76
f 172//78 186//78 185//77 171//77
f 173//79 187//79 186//78 172//78
f 174//80 188//80 187//79 173//79
f 175//2 189//2 188//80 174//80
f 176//81 190//81 189//2 175//2
f 177//82 191//82 190//81 176//81
f 178//83 192//83 191//82 177//82
f 179//84 193//84 192//83 178//83
f 180//85 194//85 193//84 179//84
f 181//86 195//86 194//85 180//85
f 182//8 196//8 195//86 181//86
