# Blender v2.78 (sub 0) OBJ File: ''
# www.blender.org
mtllib Outputs of 49671 - RIR.mtl
o Outputs_of_49671_-_[RIR.]
v 0.296385 -0.780091 -4.571193
v 0.296934 -0.777718 -4.573135
v 0.297238 -0.776401 -4.575942
v 0.297238 -0.776401 -4.579058
v 0.296934 -0.777718 -4.581864
v 0.296385 -0.780091 -4.583807
v 0.295700 -0.783050 -4.584500
v 0.295015 -0.786009 -4.583807
v 0.294466 -0.788382 -4.581864
v 0.294162 -0.789699 -4.579058
v 0.294162 -0.789699 -4.575942
v 0.294466 -0.788382 -4.573135
v 0.295015 -0.786009 -4.571193
v 0.295700 -0.783050 -4.570500
v 0.289685 -0.778541 -4.571193
v 0.290234 -0.776168 -4.573135
v 0.290538 -0.774851 -4.575942
v 0.290538 -0.774851 -4.579058
v 0.290234 -0.776168 -4.581864
v 0.289685 -0.778541 -4.583807
v 0.289000 -0.781500 -4.584500
v 0.288315 -0.784459 -4.583807
v 0.287766 -0.786832 -4.581864
v 0.287462 -0.788149 -4.579058
v 0.287462 -0.788149 -4.575942
v 0.287766 -0.786832 -4.573135
v 0.288315 -0.784459 -4.571193
v 0.289000 -0.781500 -4.570500
v 0.878423 -1.225714 -4.686807
v 0.878362 -1.223279 -4.684865
v 0.878328 -1.221928 -4.682058
v 0.878328 -1.221928 -4.678942
v 0.878362 -1.223279 -4.676136
v 0.878423 -1.225714 -4.674193
v 0.878500 -1.228750 -4.673500
v 0.878577 -1.231786 -4.674193
v 0.878638 -1.234221 -4.676136
v 0.878672 -1.235572 -4.678942
v 0.878672 -1.235572 -4.682058
v 0.878638 -1.234221 -4.684865
v 0.878577 -1.231786 -4.686807
v 0.878500 -1.228750 -4.687500
v 0.888340 -1.225464 -4.686807
v 0.888279 -1.223029 -4.684865
v 0.888245 -1.221678 -4.682058
v 0.888245 -1.221678 -4.678942
v 0.888279 -1.223029 -4.676136
v 0.888340 -1.225464 -4.674193
v 0.888417 -1.228500 -4.673500
v 0.888494 -1.231536 -4.674193
v 0.888555 -1.233971 -4.676136
v 0.888589 -1.235322 -4.678942
v 0.888589 -1.235322 -4.682058
v 0.888555 -1.233971 -4.684865
v 0.888494 -1.231536 -4.686807
v 0.888417 -1.228500 -4.687500
v 0.960294 -0.559805 -4.507807
v 0.961458 -0.557665 -4.505865
v 0.962104 -0.556478 -4.503058
v 0.962104 -0.556478 -4.499942
v 0.961458 -0.557665 -4.497136
v 0.960294 -0.559805 -4.495193
v 0.958843 -0.562473 -4.494500
v 0.957392 -0.565141 -4.495193
v 0.956228 -0.567281 -4.497136
v 0.955582 -0.568468 -4.499942
v 0.955582 -0.568468 -4.503058
v 0.956228 -0.567281 -4.505865
v 0.957392 -0.565141 -4.507807
v 0.958843 -0.562473 -4.508500
v 0.974468 -0.567514 -4.507807
v 0.975632 -0.565374 -4.505865
v 0.976278 -0.564187 -4.503058
v 0.976278 -0.564187 -4.499942
v 0.975632 -0.565374 -4.497136
v 0.974468 -0.567514 -4.495193
v 0.973017 -0.570182 -4.494500
v 0.971566 -0.572850 -4.495193
v 0.970402 -0.574990 -4.497136
v 0.969756 -0.576177 -4.499942
v 0.969756 -0.576177 -4.503058
v 0.970402 -0.574990 -4.505865
v 0.971566 -0.572850 -4.507807
v 0.973017 -0.570182 -4.508500
v 0.675868 -0.506556 -4.446806
v 0.674319 -0.504677 -4.444864
v 0.673459 -0.503634 -4.442058
v 0.673459 -0.503634 -4.438942
v 0.674319 -0.504677 -4.436135
v 0.675868 -0.506556 -4.434193
v 0.677800 -0.508900 -4.433500
v 0.679732 -0.511244 -4.434193
v 0.681281 -0.513123 -4.436135
v 0.682141 -0.514166 -4.438942
v 0.682141 -0.514166 -4.442058
v 0.681281 -0.513123 -4.444864
v 0.679732 -0.511244 -4.446806
v 0.677800 -0.508900 -4.447500
v 0.681846 -0.501628 -4.446806
v 0.680297 -0.499749 -4.444864
v 0.679437 -0.498706 -4.442058
v 0.679437 -0.498706 -4.438942
v 0.680297 -0.499749 -4.436135
v 0.681846 -0.501628 -4.434193
v 0.683778 -0.503972 -4.433500
v 0.685710 -0.506316 -4.434193
v 0.687259 -0.508195 -4.436135
v 0.688119 -0.509238 -4.438942
v 0.688119 -0.509238 -4.442058
v 0.687259 -0.508195 -4.444864
v 0.685710 -0.506316 -4.446806
v 0.683778 -0.503972 -4.447500
v 0.405992 -0.578275 -4.494693
v 0.404142 -0.576692 -4.496635
v 0.403115 -0.575813 -4.499442
v 0.403115 -0.575813 -4.502558
v 0.404142 -0.576692 -4.505364
v 0.405992 -0.578275 -4.507307
v 0.408300 -0.580250 -4.508000
v 0.410608 -0.582225 -4.507307
v 0.412458 -0.583808 -4.505364
v 0.413485 -0.584687 -4.502558
v 0.413485 -0.584687 -4.499442
v 0.412458 -0.583808 -4.496635
v 0.410608 -0.582225 -4.494693
v 0.408300 -0.580250 -4.494000
v 0.389092 -0.598025 -4.494693
v 0.387242 -0.596442 -4.496635
v 0.386215 -0.595563 -4.499442
v 0.386215 -0.595563 -4.502558
v 0.387242 -0.596442 -4.505364
v 0.389092 -0.598025 -4.507307
v 0.391400 -0.600000 -4.508000
v 0.393708 -0.601975 -4.507307
v 0.395558 -0.603558 -4.505364
v 0.396585 -0.604437 -4.502558
v 0.396585 -0.604437 -4.499442
v 0.395558 -0.603558 -4.496635
v 0.393708 -0.601975 -4.494693
v 0.391400 -0.600000 -4.494000
v 0.393710 -1.135591 -4.654193
v 0.391754 -1.134140 -4.656136
v 0.390668 -1.133335 -4.658942
v 0.390668 -1.133335 -4.662058
v 0.391754 -1.134140 -4.664865
v 0.393710 -1.135591 -4.666807
v 0.396150 -1.137400 -4.667500
v 0.398590 -1.139209 -4.666807
v 0.400546 -1.140660 -4.664865
v 0.401632 -1.141465 -4.662058
v 0.401632 -1.141465 -4.658942
v 0.400546 -1.140660 -4.656136
v 0.398590 -1.139209 -4.654193
v 0.396150 -1.137400 -4.653500
v 0.383810 -1.148941 -4.654193
v 0.381854 -1.147490 -4.656136
v 0.380768 -1.146685 -4.658942
v 0.380768 -1.146685 -4.662058
v 0.381854 -1.147490 -4.664865
v 0.383810 -1.148941 -4.666807
v 0.386250 -1.150750 -4.667500
v 0.388690 -1.152559 -4.666807
v 0.390646 -1.154010 -4.664865
v 0.391732 -1.154815 -4.662058
v 0.391732 -1.154815 -4.658942
v 0.390646 -1.154010 -4.656136
v 0.388690 -1.152559 -4.654193
v 0.386250 -1.150750 -4.653500
v 0.863854 -0.507965 -4.472806
v 0.863012 -0.505680 -4.470864
v 0.862544 -0.504411 -4.468058
v 0.862544 -0.504411 -4.464942
v 0.863012 -0.505680 -4.462135
v 0.863854 -0.507965 -4.460193
v 0.864904 -0.510815 -4.459500
v 0.865954 -0.513665 -4.460193
v 0.866796 -0.515950 -4.462135
v 0.867264 -0.517219 -4.464942
v 0.867264 -0.517219 -4.468058
v 0.866796 -0.515950 -4.470864
v 0.865954 -0.513665 -4.472806
v 0.864904 -0.510815 -4.473500
v 0.875700 -0.503600 -4.472806
v 0.874858 -0.501315 -4.470864
v 0.874390 -0.500046 -4.468058
v 0.874390 -0.500046 -4.464942
v 0.874858 -0.501315 -4.462135
v 0.875700 -0.503600 -4.460193
v 0.876750 -0.506450 -4.459500
v 0.877800 -0.509300 -4.460193
v 0.878642 -0.511585 -4.462135
v 0.879110 -0.512854 -4.464942
v 0.879110 -0.512854 -4.468058
v 0.878642 -0.511585 -4.470864
v 0.877800 -0.509300 -4.472806
v 0.876750 -0.506450 -4.473500
v 0.398023 -1.135009 -4.654193
v 0.399526 -1.133092 -4.656136
v 0.400359 -1.132028 -4.658942
v 0.400359 -1.132028 -4.662058
v 0.399526 -1.133092 -4.664865
v 0.398023 -1.135009 -4.666807
v 0.396150 -1.137400 -4.667500
v 0.394277 -1.139791 -4.666807
v 0.392774 -1.141708 -4.664865
v 0.391941 -1.142772 -4.662058
v 0.391941 -1.142772 -4.658942
v 0.392774 -1.141708 -4.656136
v 0.394277 -1.139791 -4.654193
v 0.396150 -1.137400 -4.653500
v 0.387623 -1.126859 -4.654193
v 0.389126 -1.124942 -4.656136
v 0.389959 -1.123878 -4.658942
v 0.389959 -1.123878 -4.662058
v 0.389126 -1.124942 -4.664865
v 0.387623 -1.126859 -4.666807
v 0.385750 -1.129250 -4.667500
v 0.383877 -1.131641 -4.666807
v 0.382374 -1.133558 -4.664865
v 0.381541 -1.134622 -4.662058
v 0.381541 -1.134622 -4.658942
v 0.382374 -1.133558 -4.656136
v 0.383877 -1.131641 -4.654193
v 0.385750 -1.129250 -4.653500
v 0.297105 -0.756696 -4.555693
v 0.299035 -0.755209 -4.557635
v 0.300105 -0.754384 -4.560442
v 0.300105 -0.754384 -4.563558
v 0.299035 -0.755209 -4.566364
v 0.297105 -0.756696 -4.568306
v 0.294700 -0.758550 -4.569000
v 0.292295 -0.760404 -4.568306
v 0.290365 -0.761891 -4.566364
v 0.289295 -0.762716 -4.563558
v 0.289295 -0.762716 -4.560442
v 0.290365 -0.761891 -4.557635
v 0.292295 -0.760404 -4.555693
v 0.294700 -0.758550 -4.555000
v 0.282306 -0.737496 -4.555693
v 0.284235 -0.736009 -4.557635
v 0.285305 -0.735184 -4.560442
v 0.285305 -0.735184 -4.563558
v 0.284235 -0.736009 -4.566364
v 0.282305 -0.737496 -4.568306
v 0.279900 -0.739350 -4.569000
v 0.277495 -0.741204 -4.568306
v 0.275565 -0.742691 -4.566364
v 0.274495 -0.743516 -4.563558
v 0.274495 -0.743516 -4.560442
v 0.275565 -0.742691 -4.557635
v 0.277495 -0.741204 -4.555693
v 0.279900 -0.739350 -4.555000
v 1.052233 -0.726648 -4.602307
v 1.051890 -0.724237 -4.600365
v 1.051700 -0.722898 -4.597558
v 1.051700 -0.722898 -4.594442
v 1.051890 -0.724237 -4.591636
v 1.052233 -0.726648 -4.589694
v 1.052660 -0.729655 -4.589000
v 1.053087 -0.732662 -4.589694
v 1.053430 -0.735073 -4.591636
v 1.053620 -0.736412 -4.594442
v 1.053620 -0.736412 -4.597558
v 1.053430 -0.735073 -4.600365
v 1.053087 -0.732662 -4.602307
v 1.052660 -0.729655 -4.603000
v 1.058703 -0.725729 -4.602307
v 1.058360 -0.723318 -4.600365
v 1.058170 -0.721979 -4.597558
v 1.058170 -0.721979 -4.594442
v 1.058360 -0.723318 -4.591636
v 1.058703 -0.725729 -4.589694
v 1.059130 -0.728736 -4.589000
v 1.059557 -0.731743 -4.589694
v 1.059900 -0.734154 -4.591636
v 1.060090 -0.735493 -4.594442
v 1.060090 -0.735493 -4.597558
v 1.059900 -0.734154 -4.600365
v 1.059557 -0.731743 -4.602307
v 1.059130 -0.728736 -4.603000
v 0.876336 -1.226619 -4.686807
v 0.874601 -1.224909 -4.684865
v 0.873638 -1.223961 -4.682058
v 0.873638 -1.223961 -4.678942
v 0.874601 -1.224909 -4.676136
v 0.876336 -1.226619 -4.674193
v 0.878500 -1.228750 -4.673500
v 0.880664 -1.230881 -4.674193
v 0.882399 -1.232591 -4.676136
v 0.883362 -1.233539 -4.678942
v 0.883362 -1.233539 -4.682058
v 0.882399 -1.232591 -4.684865
v 0.880664 -1.230881 -4.686807
v 0.878500 -1.228750 -4.687500
v 0.898253 -1.204369 -4.686807
v 0.896518 -1.202659 -4.684865
v 0.895555 -1.201711 -4.682058
v 0.895555 -1.201711 -4.678942
v 0.896518 -1.202659 -4.676136
v 0.898253 -1.204369 -4.674193
v 0.900417 -1.206500 -4.673500
v 0.902581 -1.208631 -4.674193
v 0.904316 -1.210341 -4.676136
v 0.905279 -1.211289 -4.678942
v 0.905279 -1.211289 -4.682058
v 0.904316 -1.210341 -4.684865
v 0.902581 -1.208631 -4.686807
v 0.900417 -1.206500 -4.687500
vn 0.0978 0.4227 0.9010
vn 0.0000 0.0000 1.0000
vn 0.1762 0.7617 0.6235
vn 0.2197 0.9498 0.2225
vn 0.2197 0.9498 -0.2225
vn 0.1762 0.7617 -0.6235
vn 0.0978 0.4227 -0.9010
vn 0.0000 0.0000 -1.0000
vn -0.0978 -0.4227 -0.9010
vn -0.1762 -0.7617 -0.6235
vn -0.2197 -0.9498 -0.2225
vn -0.2197 -0.9498 0.2225
vn -0.1762 -0.7617 0.6235
vn -0.0978 -0.4227 0.9010
vn -0.0109 0.4337 -0.9010
vn -0.0197 0.7815 -0.6235
vn -0.0246 0.9746 -0.2225
vn -0.0246 0.9746 0.2225
vn -0.0197 0.7815 0.6235
vn -0.0109 0.4337 0.9010
vn 0.0109 -0.4337 0.9010
vn 0.0197 -0.7815 0.6235
vn 0.0245 -0.9746 0.2225
vn 0.0245 -0.9746 -0.2225
vn 0.0197 -0.7815 -0.6235
vn 0.0109 -0.4337 -0.9010
vn 0.2073 0.3811 -0.9010
vn 0.3735 0.6868 -0.6235
vn 0.4658 0.8564 -0.2225
vn 0.4658 0.8564 0.2225
vn 0.3735 0.6868 0.6235
vn 0.2073 0.3811 0.9010
vn -0.2073 -0.3811 0.9010
vn -0.3735 -0.6868 0.6235
vn -0.4658 -0.8564 0.2225
vn -0.4658 -0.8564 -0.2225
vn -0.3735 -0.6868 -0.6235
vn -0.2073 -0.3811 -0.9010
vn -0.2759 0.3348 -0.9010
vn -0.4973 0.6032 -0.6235
vn -0.6201 0.7523 -0.2225
vn -0.6201 0.7523 0.2225
vn -0.4973 0.6032 0.6235
vn -0.2759 0.3348 0.9010
vn 0.2759 -0.3348 0.9010
vn 0.4973 -0.6032 0.6235
vn 0.6201 -0.7523 0.2225
vn 0.6201 -0.7523 -0.2225
vn 0.4973 -0.6032 -0.6235
vn 0.2759 -0.3348 -0.9010
vn -0.3296 0.2821 0.9010
vn -0.5940 0.5083 0.6235
vn -0.7407 0.6338 0.2225
vn -0.7407 0.6338 -0.2225
vn -0.5940 0.5083 -0.6235
vn -0.3296 0.2821 -0.9010
vn 0.3296 -0.2821 -0.9010
vn 0.5940 -0.5083 -0.6235
vn 0.7407 -0.6338 -0.2225
vn 0.7407 -0.6338 0.2225
vn 0.5940 -0.5083 0.6235
vn 0.3296 -0.2821 0.9010
vn -0.3485 0.2584 0.9009
vn -0.6280 0.4657 0.6235
vn -0.7831 0.5807 0.2225
vn -0.7831 0.5807 -0.2225
vn -0.6279 0.4657 -0.6235
vn -0.3486 0.2584 -0.9009
vn 0.3485 -0.2584 -0.9009
vn 0.6280 -0.4657 -0.6235
vn 0.7831 -0.5807 -0.2225
vn 0.7831 -0.5807 0.2225
vn 0.6279 -0.4657 0.6235
vn 0.3485 -0.2584 0.9009
vn -0.1500 0.4071 -0.9010
vn -0.2703 0.7336 -0.6235
vn -0.3371 0.9148 -0.2225
vn -0.3370 0.9148 0.2225
vn -0.2703 0.7336 0.6235
vn -0.1500 0.4071 0.9010
vn 0.1500 -0.4071 0.9010
vn 0.2703 -0.7336 0.6235
vn 0.3370 -0.9148 0.2225
vn 0.3371 -0.9148 -0.2225
vn 0.2703 -0.7336 -0.6235
vn 0.1500 -0.4071 -0.9010
vn 0.2676 0.3415 0.9010
vn 0.4822 0.6154 0.6235
vn 0.6013 0.7674 0.2225
vn 0.6013 0.7674 -0.2225
vn 0.4822 0.6154 -0.6235
vn 0.2676 0.3415 -0.9010
vn -0.2676 -0.3415 -0.9009
vn -0.4822 -0.6154 -0.6235
vn -0.6013 -0.7674 -0.2225
vn -0.6013 -0.7674 0.2225
vn -0.4822 -0.6153 0.6235
vn -0.4822 -0.6154 0.6235
vn -0.2676 -0.3415 0.9010
vn 0.3436 0.2649 0.9009
vn 0.6192 0.4773 0.6235
vn 0.7721 0.5952 0.2225
vn 0.7721 0.5952 -0.2225
vn 0.6192 0.4773 -0.6235
vn 0.3436 0.2649 -0.9009
vn -0.3437 -0.2649 -0.9009
vn -0.6192 -0.4773 -0.6235
vn -0.7721 -0.5952 -0.2225
vn -0.7721 -0.5952 0.2225
vn -0.6192 -0.4773 0.6235
vn -0.3436 -0.2649 0.9009
vn -0.0610 0.4295 -0.9010
vn -0.1100 0.7740 -0.6235
vn -0.1371 0.9652 -0.2225
vn -0.1371 0.9652 0.2225
vn -0.1099 0.7740 0.6235
vn -0.0610 0.4295 0.9010
vn 0.0610 -0.4295 0.9010
vn 0.1099 -0.7740 0.6235
vn 0.1371 -0.9652 0.2225
vn 0.1371 -0.9652 -0.2225
vn 0.1099 -0.7740 -0.6235
vn 0.0610 -0.4295 -0.9010
vn 0.0610 -0.4295 -0.9009
vn -0.3091 0.3045 -0.9010
vn -0.5570 0.5486 -0.6235
vn -0.6945 0.6841 -0.2225
vn -0.6945 0.6841 0.2225
vn -0.5570 0.5486 0.6235
vn -0.3091 0.3045 0.9009
vn 0.3091 -0.3045 0.9009
vn 0.5570 -0.5486 0.6235
vn 0.6945 -0.6841 0.2225
vn 0.6945 -0.6841 -0.2225
vn 0.5570 -0.5486 -0.6235
vn 0.3091 -0.3045 -0.9010
s 1
f 1//1 15//1 28//2 14//2
f 2//3 16//3 15//1 1//1
f 3//4 17//4 16//3 2//3
f 4//5 18//5 17//4 3//4
f 5//6 19//6 18//5 4//5
f 6//7 20//7 19//6 5//6
f 7//8 21//8 20//7 6//7
f 8//9 22//9 21//8 7//8
f 9//10 23//10 22//9 8//9
f 10//11 24//11 23//10 9//10
f 11//12 25//12 24//11 10//11
f 12//13 26//13 25//12 11//12
f 13//14 27//14 26//13 12//13
f 14//2 28//2 27//14 13//14
f 29//15 43//15 56//8 42//8
f 30//16 44//16 43//15 29//15
f 31//17 45//17 44//16 30//16
f 32//18 46//18 45//17 31//17
f 33//19 47//19 46//18 32//18
f 34//20 48//20 47//19 33//19
f 35//2 49//2 48//20 34//20
f 36//21 50//21 49//2 35//2
f 37//22 51//22 50//21 36//21
f 38//23 52//23 51//22 37//22
f 39//24 53//24 52//23 38//23
f 40//25 54//25 53//24 39//24
f 41//26 55//26 54//25 40//25
f 42//8 56//8 55//26 41//26
f 57//27 71//27 84//8 70//8
f 58//28 72//28 71//27 57//27
f 59//29 73//29 72//28 58//28
f 60//30 74//30 73//29 59//29
f 61//31 75//31 74//30 60//30
f 62//32 76//32 75//31 61//31
f 63//2 77//2 76//32 62//32
f 64//33 78//33 77//2 63//2
f 65//34 79//34 78//33 64//33
f 66//35 80//35 79//34 65//34
f 67//36 81//36 80//35 66//35
f 68//37 82//37 81//36 67//36
f 69//38 83//38 82//37 68//37
f 70//8 84//8 83//38 69//38
f 85//39 99//39 112//8 98//8
f 86//40 100//40 99//39 85//39
f 87//41 101//41 100//40 86//40
f 88//42 102//42 101//41 87//41
f 89//43 103//43 102//42 88//42
f 90//44 104//44 103//43 89//43
f 91//2 105//2 104//44 90//44
f 92//45 106//45 105//2 91//2
f 93//46 107//46 106//45 92//45
f 94//47 108//47 107//46 93//46
f 95//48 109//48 108//47 94//47
f 96//49 110//49 109//48 95//48
f 97//50 111//50 110//49 96//49
f 98//8 112//8 111//50 97//50
f 113//51 127//51 140//2 126//2
f 114//52 128//52 127//51 113//51
f 115//53 129//53 128//52 114//52
f 116//54 130//54 129//53 115//53
f 117//55 131//55 130//54 116//54
f 118//56 132//56 131//55 117//55
f 119//8 133//8 132//56 118//56
f 120//57 134//57 133//8 119//8
f 121//58 135//58 134//57 120//57
f 122//59 136//59 135//58 121//58
f 123//60 137//60 136//59 122//59
f 124//61 138//61 137//60 123//60
f 125//62 139//62 138//61 124//61
f 126//2 140//2 139//62 125//62
f 141//63 155//63 168//2 154//2
f 142//64 156//64 155//63 141//63
f 143//65 157//65 156//64 142//64
f 144//66 158//66 157//65 143//65
f 145//67 159//67 158//66 144//66
f 146//68 160//68 159//67 145//67
f 147//8 161//8 160//68 146//68
f 148//69 162//69 161//8 147//8
f 149//70 163//70 162//69 148//69
f 150//71 164//71 163//70 149//70
f 151//72 165//72 164//71 150//71
f 152//73 166//73 165//72 151//72
f 153//74 167//74 166//73 152//73
f 154//2 168//2 167//74 153//74
f 169//75 183//75 196//8 182//8
f 170//76 184//76 183//75 169//75
f 171//77 185//77 184//76 170//76
f 172//78 186//78 185//77 171//77
f 173//79 187//79 186//78 172//78
f 174//80 188//80 187//79 173//79
f 175//2 189//2 188//80 174//80
f 176//81 190//81 189//2 175//2
f 177//82 191//82 190//81 176//81
f 178//83 192//83 191//82 177//82
f 179//84 193//84 192//83 178//83
f 180//85 194//85 193//84 179//84
f 181//86 195//86 194//85 180//85
f 182//8 196//8 195//86 181//86
f 197//87 211//87 224//2 210//2
f 198//88 212//88 211//87 197//87
f 199//89 213//89 212//88 198//88
f 200//90 214//90 213//89 199//89
f 201//91 215//91 214//90 200//90
f 202//92 216//92 215//91 201//91
f 203//8 217//8 216//92 202//92
f 204//93 218//93 217//8 203//8
f 205//94 219//94 218//93 204//93
f 206//95 220//95 219//94 205//94
f 207//96 221//96 220//95 206//95
f 208//97 222//98 221//96 207//96
f 209//99 223//99 222//98 208//97
f 210//2 224//2 223//99 209//99
f 225//100 239//100 252//2 238//2
f 226//101 240//101 239//100 225//100
f 227//102 241//102 240//101 226//101
f 228//103 242//103 241//102 227//102
f 229//104 243//104 242//103 228//103
f 230//105 244//105 243//104 229//104
f 231//8 245//8 244//105 230//105
f 232//106 246//106 245//8 231//8
f 233//107 247//107 246//106 232//106
f 234//108 248//108 247//107 233//107
f 235//109 249//109 248//108 234//108
f 236//110 250//110 249//109 235//109
f 237//111 251//111 250//110 236//110
f 238//2 252//2 251//111 237//111
f 253//112 267//112 280//8 266//8
f 254//113 268//113 267//112 253//112
f 255//114 269//114 268//113 254//113
f 256//115 270//115 269//114 255//114
f 257//116 271//116 270//115 256//115
f 258//117 272//117 271//116 257//116
f 259//2 273//2 272//117 258//117
f 260//118 274//118 273//2 259//2
f 261//119 275//119 274//118 260//118
f 262//120 276//120 275//119 261//119
f 263//121 277//121 276//120 262//120
f 264//122 278//122 277//121 263//121
f 265//123 279//124 278//122 264//122
f 266//8 280//8 279//124 265//123
f 281//125 295//125 308//8 294//8
f 282//126 296//126 295//125 281//125
f 283//127 297//127 296//126 282//126
f 284//128 298//128 297//127 283//127
f 285//129 299//129 298//128 284//128
f 286//130 300//130 299//129 285//129
f 287//2 301//2 300//130 286//130
f 288//131 302//131 301//2 287//2
f 289//132 303//132 302//131 288//131
f 290//133 304//133 303//132 289//132
f 291//134 305//134 304//133 290//133
f 292//135 306//135 305//134 291//134
f 293//136 307//136 306//135 292//135
f 294//8 308//8 307//136 293//136
