# Blender v2.78 (sub 0) OBJ File: ''
# www.blender.org
mtllib Outputs of 2536 - IL2DL.mtl
o Outputs_of_2536_-_IL2DL.
v 0.525685 -0.632717 -4.441693
v 0.528038 -0.632090 -4.443635
v 0.529344 -0.631742 -4.446442
v 0.529344 -0.631742 -4.449558
v 0.528038 -0.632090 -4.452364
v 0.525685 -0.632717 -4.454307
v 0.522750 -0.633500 -4.455000
v 0.519815 -0.634283 -4.454307
v 0.517462 -0.634910 -4.452364
v 0.516156 -0.635258 -4.449558
v 0.516156 -0.635258 -4.446442
v 0.517462 -0.634910 -4.443635
v 0.519815 -0.634283 -4.441693
v 0.522750 -0.633500 -4.441000
v 0.520685 -0.613967 -4.441693
v 0.523038 -0.613340 -4.443635
v 0.524344 -0.612992 -4.446442
v 0.524344 -0.612992 -4.449558
v 0.523038 -0.613340 -4.452364
v 0.520685 -0.613967 -4.454307
v 0.517750 -0.614750 -4.455000
v 0.514815 -0.615533 -4.454307
v 0.512462 -0.616160 -4.452364
v 0.511156 -0.616508 -4.449558
v 0.511156 -0.616508 -4.446442
v 0.512462 -0.616160 -4.443635
v 0.514815 -0.615533 -4.441693
v 0.517750 -0.614750 -4.441000
v 0.495824 -0.615124 -4.417693
v 0.495041 -0.612817 -4.419635
v 0.494607 -0.611537 -4.422442
v 0.494607 -0.611537 -4.425558
v 0.495041 -0.612817 -4.428364
v 0.495824 -0.615124 -4.430306
v 0.496800 -0.618000 -4.431000
v 0.497776 -0.620876 -4.430306
v 0.498559 -0.623182 -4.428364
v 0.498993 -0.624462 -4.425558
v 0.498993 -0.624462 -4.422442
v 0.498559 -0.623182 -4.419635
v 0.497776 -0.620876 -4.417693
v 0.496800 -0.618000 -4.417000
v 0.484774 -0.618874 -4.417693
v 0.483991 -0.616567 -4.419635
v 0.483557 -0.615287 -4.422442
v 0.483557 -0.615287 -4.425558
v 0.483991 -0.616567 -4.428364
v 0.484774 -0.618874 -4.430306
v 0.485750 -0.621750 -4.431000
v 0.486726 -0.624626 -4.430306
v 0.487509 -0.626933 -4.428364
v 0.487943 -0.628213 -4.425558
v 0.487943 -0.628213 -4.422442
v 0.487509 -0.626933 -4.419635
v 0.486726 -0.624626 -4.417693
v 0.485750 -0.621750 -4.417000
v 0.440968 -0.479839 -4.375807
v 0.441663 -0.477505 -4.373865
v 0.442049 -0.476210 -4.371058
v 0.442049 -0.476210 -4.367942
v 0.441663 -0.477505 -4.365136
v 0.440968 -0.479839 -4.363194
v 0.440100 -0.482750 -4.362500
v 0.439232 -0.485661 -4.363194
v 0.438537 -0.487995 -4.365136
v 0.438151 -0.489290 -4.367942
v 0.438151 -0.489290 -4.371058
v 0.438537 -0.487995 -4.373865
v 0.439232 -0.485661 -4.375807
v 0.440100 -0.482750 -4.376500
v 0.452543 -0.483289 -4.375807
v 0.453238 -0.480955 -4.373865
v 0.453624 -0.479660 -4.371058
v 0.453624 -0.479660 -4.367942
v 0.453238 -0.480955 -4.365136
v 0.452543 -0.483289 -4.363194
v 0.451675 -0.486200 -4.362500
v 0.450807 -0.489111 -4.363194
v 0.450112 -0.491445 -4.365136
v 0.449726 -0.492740 -4.367942
v 0.449726 -0.492740 -4.371058
v 0.450112 -0.491445 -4.373865
v 0.450807 -0.489111 -4.375807
v 0.451675 -0.486200 -4.376500
v 0.431969 -0.481242 -4.395807
v 0.430340 -0.479431 -4.393865
v 0.429436 -0.478426 -4.391058
v 0.429436 -0.478426 -4.387942
v 0.430340 -0.479431 -4.385136
v 0.431969 -0.481242 -4.383193
v 0.434000 -0.483500 -4.382500
v 0.436031 -0.485758 -4.383193
v 0.437660 -0.487569 -4.385136
v 0.438564 -0.488574 -4.387942
v 0.438564 -0.488574 -4.391058
v 0.437660 -0.487569 -4.393865
v 0.436031 -0.485758 -4.395807
v 0.434000 -0.483500 -4.396500
v 0.445644 -0.468942 -4.395807
v 0.444015 -0.467131 -4.393865
v 0.443111 -0.466126 -4.391058
v 0.443111 -0.466126 -4.387942
v 0.444015 -0.467131 -4.385136
v 0.445644 -0.468942 -4.383193
v 0.447675 -0.471200 -4.382500
v 0.449706 -0.473458 -4.383193
v 0.451335 -0.475269 -4.385136
v 0.452239 -0.476274 -4.387942
v 0.452239 -0.476274 -4.391058
v 0.451335 -0.475269 -4.393865
v 0.449706 -0.473458 -4.395807
v 0.447675 -0.471200 -4.396500
vn 0.4192 0.1118 0.9010
vn 0.0000 0.0000 1.0000
vn 0.7554 0.2014 0.6235
vn 0.9420 0.2512 0.2225
vn 0.9420 0.2512 -0.2225
vn 0.7554 0.2014 -0.6235
vn 0.4192 0.1118 -0.9010
vn 0.0000 0.0000 -1.0000
vn -0.4192 -0.1118 -0.9010
vn -0.7554 -0.2014 -0.6235
vn -0.9420 -0.2512 -0.2225
vn -0.9420 -0.2512 0.2225
vn -0.7554 -0.2014 0.6236
vn -0.4191 -0.1118 0.9010
vn -0.1394 0.4108 0.9010
vn -0.2512 0.7403 0.6235
vn -0.3133 0.9232 0.2225
vn -0.3133 0.9232 -0.2225
vn -0.2512 0.7403 -0.6235
vn -0.1394 0.4108 -0.9010
vn 0.1394 -0.4109 -0.9009
vn 0.2512 -0.7403 -0.6235
vn 0.3133 -0.9232 -0.2225
vn 0.3133 -0.9232 0.2225
vn 0.2512 -0.7403 0.6235
vn 0.1394 -0.4109 0.9010
vn 0.1239 0.4158 -0.9010
vn 0.2233 0.7492 -0.6235
vn 0.2785 0.9343 -0.2225
vn 0.2785 0.9343 0.2225
vn 0.2233 0.7492 0.6235
vn 0.1239 0.4158 0.9010
vn -0.1239 -0.4158 0.9010
vn -0.2233 -0.7492 0.6235
vn -0.2785 -0.9343 0.2225
vn -0.2785 -0.9343 -0.2225
vn -0.2233 -0.7492 -0.6235
vn -0.1239 -0.4158 -0.9010
vn -0.2902 0.3226 -0.9009
vn -0.5228 0.5813 -0.6235
vn -0.6520 0.7248 -0.2225
vn -0.6520 0.7248 0.2225
vn -0.5228 0.5813 0.6235
vn -0.2901 0.3226 0.9010
vn 0.2901 -0.3226 0.9010
vn 0.5228 -0.5813 0.6235
vn 0.6520 -0.7248 0.2225
vn 0.6520 -0.7248 -0.2225
vn 0.5228 -0.5813 -0.6235
vn 0.2901 -0.3226 -0.9010
s 1
f 1//1 15//1 28//2 14//2
f 2//3 16//3 15//1 1//1
f 3//4 17//4 16//3 2//3
f 4//5 18//5 17//4 3//4
f 5//6 19//6 18//5 4//5
f 6//7 20//7 19//6 5//6
f 7//8 21//8 20//7 6//7
f 8//9 22//9 21//8 7//8
f 9//10 23//10 22//9 8//9
f 10//11 24//11 23//10 9//10
f 11//12 25//12 24//11 10//11
f 12//13 26//13 25//12 11//12
f 13//14 27//14 26//13 12//13
f 14//2 28//2 27//14 13//14
f 29//15 43//15 56//2 42//2
f 30//16 44//16 43//15 29//15
f 31//17 45//17 44//16 30//16
f 32//18 46//18 45//17 31//17
f 33//19 47//19 46//18 32//18
f 34//20 48//20 47//19 33//19
f 35//8 49//8 48//20 34//20
f 36//21 50//21 49//8 35//8
f 37//22 51//22 50//21 36//21
f 38//23 52//23 51//22 37//22
f 39//24 53//24 52//23 38//23
f 40//25 54//25 53//24 39//24
f 41//26 55//26 54//25 40//25
f 42//2 56//2 55//26 41//26
f 57//27 71//27 84//8 70//8
f 58//28 72//28 71//27 57//27
f 59//29 73//29 72//28 58//28
f 60//30 74//30 73//29 59//29
f 61//31 75//31 74//30 60//30
f 62//32 76//32 75//31 61//31
f 63//2 77//2 76//32 62//32
f 64//33 78//33 77//2 63//2
f 65//34 79//34 78//33 64//33
f 66//35 80//35 79//34 65//34
f 67//36 81//36 80//35 66//35
f 68//37 82//37 81//36 67//36
f 69//38 83//38 82//37 68//37
f 70//8 84//8 83//38 69//38
f 85//39 99//39 112//8 98//8
f 86//40 100//40 99//39 85//39
f 87//41 101//41 100//40 86//40
f 88//42 102//42 101//41 87//41
f 89//43 103//43 102//42 88//42
f 90//44 104//44 103//43 89//43
f 91//2 105//2 104//44 90//44
f 92//45 106//45 105//2 91//2
f 93//46 107//46 106//45 92//45
f 94//47 108//47 107//46 93//46
f 95//48 109//48 108//47 94//47
f 96//49 110//49 109//48 95//48
f 97//50 111//50 110//49 96//49
f 98//8 112//8 111//50 97//50
