# Blender v2.78 (sub 0) OBJ File: ''
# www.blender.org
mtllib Outputs of 693 - ADAR.mtl
o Outputs_of_693_-_[ADAR.]
v 0.816552 -1.113761 -4.853193
v 0.818197 -1.111965 -4.855135
v 0.819110 -1.110968 -4.857942
v 0.819110 -1.110968 -4.861058
v 0.818197 -1.111965 -4.863864
v 0.816552 -1.113761 -4.865807
v 0.814500 -1.116000 -4.866500
v 0.812448 -1.118239 -4.865807
v 0.810803 -1.120035 -4.863864
v 0.809889 -1.121032 -4.861058
v 0.809889 -1.121032 -4.857942
v 0.810803 -1.120035 -4.855135
v 0.812448 -1.118239 -4.853193
v 0.814500 -1.116000 -4.852500
v 0.805202 -1.103361 -4.853193
v 0.806847 -1.101565 -4.855135
v 0.807760 -1.100568 -4.857942
v 0.807760 -1.100568 -4.861058
v 0.806847 -1.101565 -4.863864
v 0.805202 -1.103361 -4.865807
v 0.803150 -1.105600 -4.866500
v 0.801098 -1.107839 -4.865807
v 0.799453 -1.109635 -4.863864
v 0.798540 -1.110632 -4.861058
v 0.798540 -1.110632 -4.857942
v 0.799453 -1.109635 -4.855135
v 0.801098 -1.107839 -4.853193
v 0.803150 -1.105600 -4.852500
v 0.797182 -0.524257 -4.468693
v 0.794842 -0.523581 -4.470635
v 0.793544 -0.523206 -4.473442
v 0.793544 -0.523206 -4.476558
v 0.794842 -0.523581 -4.479364
v 0.797182 -0.524257 -4.481307
v 0.800100 -0.525100 -4.482000
v 0.803018 -0.525943 -4.481307
v 0.805358 -0.526619 -4.479364
v 0.806656 -0.526994 -4.476558
v 0.806656 -0.526994 -4.473442
v 0.805358 -0.526619 -4.470635
v 0.803018 -0.525943 -4.468693
v 0.800100 -0.525100 -4.468000
v 0.792082 -0.541907 -4.468693
v 0.789742 -0.541231 -4.470635
v 0.788444 -0.540856 -4.473442
v 0.788444 -0.540856 -4.476558
v 0.789742 -0.541231 -4.479364
v 0.792082 -0.541907 -4.481307
v 0.795000 -0.542750 -4.482000
v 0.797918 -0.543593 -4.481307
v 0.800258 -0.544269 -4.479364
v 0.801556 -0.544644 -4.476558
v 0.801556 -0.544644 -4.473442
v 0.800258 -0.544269 -4.470635
v 0.797918 -0.543593 -4.468693
v 0.795000 -0.542750 -4.468000
vn 0.2931 0.3199 0.9010
vn 0.0000 0.0000 1.0000
vn 0.5282 0.5764 0.6235
vn 0.6587 0.7188 0.2225
vn 0.6586 0.7188 -0.2225
vn 0.5282 0.5764 -0.6235
vn 0.2931 0.3199 -0.9009
vn 0.0000 0.0000 -1.0000
vn -0.2931 -0.3199 -0.9010
vn -0.5282 -0.5764 -0.6235
vn -0.6586 -0.7188 -0.2225
vn -0.6587 -0.7188 0.2225
vn -0.5282 -0.5764 0.6235
vn -0.2931 -0.3199 0.9010
vn -0.4168 0.1204 0.9010
vn -0.7511 0.2170 0.6235
vn -0.9366 0.2706 0.2225
vn -0.9366 0.2706 -0.2225
vn -0.7511 0.2170 -0.6235
vn -0.4169 0.1204 -0.9009
vn 0.4169 -0.1204 -0.9009
vn 0.7511 -0.2170 -0.6235
vn 0.9366 -0.2706 -0.2225
vn 0.9366 -0.2706 0.2225
vn 0.7511 -0.2170 0.6235
vn 0.4168 -0.1204 0.9010
s 1
f 1//1 15//1 28//2 14//2
f 2//3 16//3 15//1 1//1
f 3//4 17//4 16//3 2//3
f 4//5 18//5 17//4 3//4
f 5//6 19//6 18//5 4//5
f 6//7 20//7 19//6 5//6
f 7//8 21//8 20//7 6//7
f 8//9 22//9 21//8 7//8
f 9//10 23//10 22//9 8//9
f 10//11 24//11 23//10 9//10
f 11//12 25//12 24//11 10//11
f 12//13 26//13 25//12 11//12
f 13//14 27//14 26//13 12//13
f 14//2 28//2 27//14 13//14
f 29//15 43//15 56//2 42//2
f 30//16 44//16 43//15 29//15
f 31//17 45//17 44//16 30//16
f 32//18 46//18 45//17 31//17
f 33//19 47//19 46//18 32//18
f 34//20 48//20 47//19 33//19
f 35//8 49//8 48//20 34//20
f 36//21 50//21 49//8 35//8
f 37//22 51//22 50//21 36//21
f 38//23 52//23 51//22 37//22
f 39//24 53//24 52//23 38//23
f 40//25 54//25 53//24 39//24
f 41//26 55//26 54//25 40//25
f 42//2 56//2 55//26 41//26
