# Blender v2.78 (sub 0) OBJ File: ''
# www.blender.org
mtllib Outputs of 18074 - URBR.mtl
o Outputs_of_18074_-_URBR.
v 0.926983 -0.874704 -4.451807
v 0.924563 -0.874426 -4.449864
v 0.923220 -0.874272 -4.447058
v 0.923220 -0.874272 -4.443942
v 0.924563 -0.874426 -4.441135
v 0.926983 -0.874704 -4.439193
v 0.930000 -0.875050 -4.438500
v 0.933017 -0.875396 -4.439193
v 0.935437 -0.875674 -4.441135
v 0.936780 -0.875828 -4.443942
v 0.936780 -0.875828 -4.447058
v 0.935437 -0.875674 -4.449864
v 0.933017 -0.875396 -4.451807
v 0.930000 -0.875050 -4.452500
v 0.928383 -0.862504 -4.451807
v 0.925963 -0.862226 -4.449864
v 0.924620 -0.862072 -4.447058
v 0.924620 -0.862072 -4.443942
v 0.925963 -0.862226 -4.441135
v 0.928383 -0.862504 -4.439193
v 0.931400 -0.862850 -4.438500
v 0.934417 -0.863196 -4.439193
v 0.936837 -0.863474 -4.441135
v 0.938180 -0.863628 -4.443942
v 0.938180 -0.863628 -4.447058
v 0.936837 -0.863474 -4.449864
v 0.934417 -0.863196 -4.451807
v 0.931400 -0.862850 -4.452500
v 0.894444 -0.678754 -4.501194
v 0.896805 -0.678156 -4.503136
v 0.898116 -0.677824 -4.505942
v 0.898116 -0.677824 -4.509058
v 0.896805 -0.678156 -4.511865
v 0.894444 -0.678754 -4.513807
v 0.891500 -0.679500 -4.514500
v 0.888556 -0.680246 -4.513807
v 0.886195 -0.680844 -4.511865
v 0.884884 -0.681176 -4.509058
v 0.884884 -0.681176 -4.505942
v 0.886195 -0.680844 -4.503136
v 0.888556 -0.680246 -4.501194
v 0.891500 -0.679500 -4.500500
v 0.891544 -0.667304 -4.501194
v 0.893905 -0.666706 -4.503136
v 0.895216 -0.666374 -4.505942
v 0.895216 -0.666374 -4.509058
v 0.893905 -0.666706 -4.511865
v 0.891544 -0.667304 -4.513807
v 0.888600 -0.668050 -4.514500
v 0.885656 -0.668796 -4.513807
v 0.883295 -0.669394 -4.511865
v 0.881984 -0.669726 -4.509058
v 0.881984 -0.669726 -4.505942
v 0.883295 -0.669394 -4.503136
v 0.885656 -0.668796 -4.501194
v 0.888600 -0.668050 -4.500500
v 0.922520 -0.733552 -4.610806
v 0.922181 -0.731140 -4.608864
v 0.921993 -0.729802 -4.606058
v 0.921993 -0.729802 -4.602942
v 0.922181 -0.731140 -4.600135
v 0.922520 -0.733552 -4.598193
v 0.922942 -0.736560 -4.597500
v 0.923364 -0.739568 -4.598193
v 0.923703 -0.741980 -4.600135
v 0.923891 -0.743318 -4.602942
v 0.923891 -0.743318 -4.606058
v 0.923703 -0.741980 -4.608864
v 0.923364 -0.739568 -4.610806
v 0.922942 -0.736560 -4.611500
v 0.930502 -0.732431 -4.610806
v 0.930163 -0.730019 -4.608864
v 0.929975 -0.728681 -4.606058
v 0.929975 -0.728681 -4.602942
v 0.930163 -0.730019 -4.600135
v 0.930502 -0.732431 -4.598193
v 0.930924 -0.735439 -4.597500
v 0.931346 -0.738447 -4.598193
v 0.931685 -0.740859 -4.600135
v 0.931873 -0.742197 -4.602942
v 0.931873 -0.742197 -4.606058
v 0.931685 -0.740859 -4.608864
v 0.931346 -0.738447 -4.610806
v 0.930924 -0.735439 -4.611500
v 0.901379 -0.798466 -4.527194
v 0.899277 -0.797235 -4.529136
v 0.898110 -0.796552 -4.531942
v 0.898110 -0.796552 -4.535058
v 0.899277 -0.797235 -4.537865
v 0.901379 -0.798466 -4.539807
v 0.904000 -0.800000 -4.540500
v 0.906621 -0.801534 -4.539807
v 0.908723 -0.802765 -4.537865
v 0.909890 -0.803448 -4.535058
v 0.909890 -0.803448 -4.531942
v 0.908723 -0.802765 -4.529136
v 0.906621 -0.801534 -4.527194
v 0.904000 -0.800000 -4.526500
v 0.889379 -0.818966 -4.527194
v 0.887277 -0.817735 -4.529136
v 0.886110 -0.817052 -4.531942
v 0.886110 -0.817052 -4.535058
v 0.887277 -0.817735 -4.537865
v 0.889379 -0.818966 -4.539807
v 0.892000 -0.820500 -4.540500
v 0.894621 -0.822034 -4.539807
v 0.896723 -0.823265 -4.537865
v 0.897890 -0.823948 -4.535058
v 0.897890 -0.823948 -4.531942
v 0.896723 -0.823265 -4.529136
v 0.894621 -0.822034 -4.527194
v 0.892000 -0.820500 -4.526500
v 1.003678 -0.653156 -4.645693
v 1.002000 -0.651391 -4.647635
v 1.001069 -0.650411 -4.650442
v 1.001069 -0.650411 -4.653558
v 1.002000 -0.651391 -4.656364
v 1.003678 -0.653156 -4.658307
v 1.005770 -0.655358 -4.659000
v 1.007862 -0.657560 -4.658307
v 1.009540 -0.659325 -4.656364
v 1.010471 -0.660305 -4.653558
v 1.010471 -0.660305 -4.650442
v 1.009540 -0.659325 -4.647635
v 1.007862 -0.657560 -4.645693
v 1.005770 -0.655358 -4.645000
v 0.991606 -0.664629 -4.645693
v 0.989928 -0.662864 -4.647635
v 0.988997 -0.661884 -4.650442
v 0.988997 -0.661884 -4.653558
v 0.989928 -0.662864 -4.656364
v 0.991606 -0.664629 -4.658307
v 0.993698 -0.666831 -4.659000
v 0.995790 -0.669033 -4.658307
v 0.997468 -0.670798 -4.656364
v 0.998399 -0.671778 -4.653558
v 0.998399 -0.671778 -4.650442
v 0.997468 -0.670798 -4.647635
v 0.995790 -0.669033 -4.645693
v 0.993698 -0.666831 -4.645000
vn -0.4310 0.0494 -0.9010
vn 0.0000 0.0000 -1.0000
vn -0.7767 0.0891 -0.6235
vn -0.9686 0.1111 -0.2225
vn -0.9686 0.1111 0.2225
vn -0.7767 0.0891 0.6235
vn -0.4310 0.0494 0.9010
vn 0.0000 0.0000 1.0000
vn 0.4310 -0.0494 0.9010
vn 0.7767 -0.0891 0.6235
vn 0.9686 -0.1111 0.2225
vn 0.9686 -0.1111 -0.2225
vn 0.7767 -0.0891 -0.6235
vn 0.4310 -0.0494 -0.9010
vn 0.4206 0.1065 0.9009
vn 0.7579 0.1919 0.6235
vn 0.9451 0.2394 0.2225
vn 0.9451 0.2394 -0.2225
vn 0.7579 0.1919 -0.6235
vn 0.4206 0.1065 -0.9010
vn -0.4206 -0.1065 -0.9010
vn -0.7578 -0.1919 -0.6235
vn -0.9451 -0.2394 -0.2225
vn -0.9451 -0.2394 0.2225
vn -0.7579 -0.1919 0.6235
vn -0.4206 -0.1065 0.9009
vn -0.0603 0.4296 -0.9010
vn -0.1087 0.7742 -0.6235
vn -0.1356 0.9655 -0.2225
vn -0.1356 0.9655 0.2225
vn -0.1087 0.7742 0.6235
vn -0.0603 0.4296 0.9010
vn 0.0603 -0.4296 0.9010
vn 0.1087 -0.7742 0.6235
vn 0.1356 -0.9654 0.2225
vn 0.1356 -0.9654 -0.2225
vn 0.1087 -0.7742 -0.6235
vn 0.0603 -0.4296 -0.9010
vn -0.3744 0.2192 0.9009
vn -0.6747 0.3949 0.6235
vn -0.8414 0.4925 0.2225
vn -0.8414 0.4925 -0.2225
vn -0.6747 0.3949 -0.6235
vn -0.3744 0.2192 -0.9009
vn 0.3745 -0.2192 -0.9009
vn 0.6747 -0.3949 -0.6235
vn 0.8414 -0.4925 -0.2225
vn 0.8414 -0.4925 0.2225
vn 0.6747 -0.3949 0.6235
vn 0.3745 -0.2192 0.9009
vn -0.2989 0.3145 0.9010
vn -0.5386 0.5667 0.6235
vn -0.6716 0.7067 0.2225
vn -0.6716 0.7067 -0.2225
vn -0.5386 0.5667 -0.6235
vn -0.2989 0.3145 -0.9010
vn 0.2989 -0.3145 -0.9010
vn 0.5386 -0.5667 -0.6235
vn 0.6716 -0.7067 -0.2225
vn 0.6716 -0.7067 0.2225
vn 0.5386 -0.5667 0.6235
vn 0.2989 -0.3145 0.9009
s 1
f 1//1 15//1 28//2 14//2
f 2//3 16//3 15//1 1//1
f 3//4 17//4 16//3 2//3
f 4//5 18//5 17//4 3//4
f 5//6 19//6 18//5 4//5
f 6//7 20//7 19//6 5//6
f 7//8 21//8 20//7 6//7
f 8//9 22//9 21//8 7//8
f 9//10 23//10 22//9 8//9
f 10//11 24//11 23//10 9//10
f 11//12 25//12 24//11 10//11
f 12//13 26//13 25//12 11//12
f 13//14 27//14 26//13 12//13
f 14//2 28//2 27//14 13//14
f 29//15 43//15 56//8 42//8
f 30//16 44//16 43//15 29//15
f 31//17 45//17 44//16 30//16
f 32//18 46//18 45//17 31//17
f 33//19 47//19 46//18 32//18
f 34//20 48//20 47//19 33//19
f 35//2 49//2 48//20 34//20
f 36//21 50//21 49//2 35//2
f 37//22 51//22 50//21 36//21
f 38//23 52//23 51//22 37//22
f 39//24 53//24 52//23 38//23
f 40//25 54//25 53//24 39//24
f 41//26 55//26 54//25 40//25
f 42//8 56//8 55//26 41//26
f 57//27 71//27 84//2 70//2
f 58//28 72//28 71//27 57//27
f 59//29 73//29 72//28 58//28
f 60//30 74//30 73//29 59//29
f 61//31 75//31 74//30 60//30
f 62//32 76//32 75//31 61//31
f 63//8 77//8 76//32 62//32
f 64//33 78//33 77//8 63//8
f 65//34 79//34 78//33 64//33
f 66//35 80//35 79//34 65//34
f 67//36 81//36 80//35 66//35
f 68//37 82//37 81//36 67//36
f 69//38 83//38 82//37 68//37
f 70//2 84//2 83//38 69//38
f 85//39 99//39 112//8 98//8
f 86//40 100//40 99//39 85//39
f 87//41 101//41 100//40 86//40
f 88//42 102//42 101//41 87//41
f 89//43 103//43 102//42 88//42
f 90//44 104//44 103//43 89//43
f 91//2 105//2 104//44 90//44
f 92//45 106//45 105//2 91//2
f 93//46 107//46 106//45 92//45
f 94//47 108//47 107//46 93//46
f 95//48 109//48 108//47 94//47
f 96//49 110//49 109//48 95//48
f 97//50 111//50 110//49 96//49
f 98//8 112//8 111//50 97//50
f 113//51 127//51 140//8 126//8
f 114//52 128//52 127//51 113//51
f 115//53 129//53 128//52 114//52
f 116//54 130//54 129//53 115//53
f 117//55 131//55 130//54 116//54
f 118//56 132//56 131//55 117//55
f 119//2 133//2 132//56 118//56
f 120//57 134//57 133//2 119//2
f 121//58 135//58 134//57 120//57
f 122//59 136//59 135//58 121//58
f 123//60 137//60 136//59 122//59
f 124//61 138//61 137//60 123//60
f 125//62 139//62 138//61 124//61
f 126//8 140//8 139//62 125//62
