# Blender v2.78 (sub 0) OBJ File: ''
# www.blender.org
mtllib Outputs of 168 - AVKL.mtl
o Outputs_of_168_-_[AVKL.]
v 0.660664 -1.188347 -4.768693
v 0.659031 -1.186539 -4.770636
v 0.658125 -1.185537 -4.773442
v 0.658125 -1.185537 -4.776558
v 0.659031 -1.186539 -4.779365
v 0.660664 -1.188347 -4.781307
v 0.662700 -1.190600 -4.782000
v 0.664736 -1.192853 -4.781307
v 0.666369 -1.194661 -4.779365
v 0.667275 -1.195664 -4.776558
v 0.667275 -1.195664 -4.773442
v 0.666369 -1.194661 -4.770636
v 0.664736 -1.192853 -4.768693
v 0.662700 -1.190600 -4.768000
v 0.648214 -1.199597 -4.768693
v 0.646581 -1.197789 -4.770636
v 0.645675 -1.196787 -4.773442
v 0.645675 -1.196787 -4.776558
v 0.646581 -1.197789 -4.779365
v 0.648214 -1.199597 -4.781307
v 0.650250 -1.201850 -4.782000
v 0.652286 -1.204103 -4.781307
v 0.653919 -1.205911 -4.779365
v 0.654825 -1.206914 -4.776558
v 0.654825 -1.206914 -4.773442
v 0.653919 -1.205911 -4.770636
v 0.652286 -1.204103 -4.768693
v 0.650250 -1.201850 -4.768000
v 0.675154 -1.157191 -4.837306
v 0.676080 -1.154938 -4.835364
v 0.676594 -1.153687 -4.832558
v 0.676594 -1.153687 -4.829442
v 0.676080 -1.154938 -4.826635
v 0.675154 -1.157191 -4.824693
v 0.674000 -1.160000 -4.824000
v 0.672846 -1.162809 -4.824693
v 0.671920 -1.165062 -4.826635
v 0.671407 -1.166312 -4.829442
v 0.671407 -1.166312 -4.832558
v 0.671920 -1.165062 -4.835364
v 0.672846 -1.162809 -4.837306
v 0.674000 -1.160000 -4.838000
v 0.681604 -1.159841 -4.837306
v 0.682530 -1.157588 -4.835364
v 0.683044 -1.156337 -4.832558
v 0.683044 -1.156337 -4.829442
v 0.682530 -1.157588 -4.826635
v 0.681604 -1.159841 -4.824693
v 0.680450 -1.162650 -4.824000
v 0.679296 -1.165459 -4.824693
v 0.678370 -1.167712 -4.826635
v 0.677857 -1.168962 -4.829442
v 0.677857 -1.168962 -4.832558
v 0.678370 -1.167712 -4.835364
v 0.679296 -1.165459 -4.837306
v 0.680450 -1.162650 -4.838000
v 1.059465 -0.694280 -4.309693
v 1.061538 -0.693001 -4.311635
v 1.062688 -0.692291 -4.314442
v 1.062688 -0.692291 -4.317558
v 1.061538 -0.693001 -4.320364
v 1.059465 -0.694280 -4.322307
v 1.056880 -0.695875 -4.323000
v 1.054295 -0.697470 -4.322307
v 1.052222 -0.698749 -4.320364
v 1.051072 -0.699459 -4.317558
v 1.051072 -0.699459 -4.314442
v 1.052222 -0.698749 -4.311635
v 1.054295 -0.697470 -4.309693
v 1.056880 -0.695875 -4.309000
v 1.039335 -0.661655 -4.309693
v 1.041408 -0.660376 -4.311635
v 1.042558 -0.659666 -4.314442
v 1.042558 -0.659666 -4.317558
v 1.041408 -0.660376 -4.320364
v 1.039335 -0.661655 -4.322307
v 1.036750 -0.663250 -4.323000
v 1.034165 -0.664845 -4.322307
v 1.032092 -0.666124 -4.320364
v 1.030942 -0.666834 -4.317558
v 1.030942 -0.666834 -4.314442
v 1.032092 -0.666124 -4.311635
v 1.034165 -0.664845 -4.309693
v 1.036750 -0.663250 -4.309000
v 0.419045 -1.145489 -4.565807
v 0.420945 -1.143964 -4.563865
v 0.421999 -1.143118 -4.561058
v 0.421999 -1.143118 -4.557942
v 0.420945 -1.143964 -4.555136
v 0.419045 -1.145489 -4.553194
v 0.416677 -1.147390 -4.552500
v 0.414308 -1.149291 -4.553194
v 0.412409 -1.150816 -4.555136
v 0.411355 -1.151662 -4.557942
v 0.411355 -1.151662 -4.561058
v 0.412409 -1.150816 -4.563865
v 0.414309 -1.149291 -4.565807
v 0.416677 -1.147390 -4.566500
v 0.429368 -1.158349 -4.565807
v 0.431268 -1.156824 -4.563865
v 0.432322 -1.155978 -4.561058
v 0.432322 -1.155978 -4.557942
v 0.431268 -1.156824 -4.555136
v 0.429368 -1.158349 -4.553194
v 0.427000 -1.160250 -4.552500
v 0.424631 -1.162151 -4.553194
v 0.422732 -1.163676 -4.555136
v 0.421678 -1.164522 -4.557942
v 0.421678 -1.164522 -4.561058
v 0.422732 -1.163676 -4.563865
v 0.424632 -1.162151 -4.565807
v 0.427000 -1.160250 -4.566500
v 1.062932 -0.716607 -4.343194
v 1.060592 -0.715931 -4.345136
v 1.059294 -0.715556 -4.347942
v 1.059294 -0.715556 -4.351058
v 1.060592 -0.715931 -4.353865
v 1.062932 -0.716607 -4.355807
v 1.065850 -0.717450 -4.356500
v 1.068768 -0.718293 -4.355807
v 1.071108 -0.718969 -4.353865
v 1.072406 -0.719344 -4.351058
v 1.072406 -0.719344 -4.347942
v 1.071108 -0.718969 -4.345136
v 1.068768 -0.718293 -4.343194
v 1.065850 -0.717450 -4.342500
v 1.056432 -0.739107 -4.343194
v 1.054092 -0.738431 -4.345136
v 1.052794 -0.738056 -4.347942
v 1.052794 -0.738056 -4.351058
v 1.054092 -0.738431 -4.353865
v 1.056432 -0.739107 -4.355807
v 1.059350 -0.739950 -4.356500
v 1.062268 -0.740793 -4.355807
v 1.064608 -0.741469 -4.353865
v 1.065906 -0.741844 -4.351058
v 1.065906 -0.741844 -4.347942
v 1.064608 -0.741469 -4.345136
v 1.062268 -0.740793 -4.343194
v 1.059350 -0.739950 -4.342500
v 1.021118 -1.132790 -4.443193
v 1.019689 -1.130818 -4.445136
v 1.018896 -1.129723 -4.447942
v 1.018896 -1.129723 -4.451058
v 1.019689 -1.130818 -4.453865
v 1.021118 -1.132790 -4.455807
v 1.022900 -1.135250 -4.456500
v 1.024682 -1.137709 -4.455807
v 1.026111 -1.139682 -4.453865
v 1.026904 -1.140777 -4.451058
v 1.026904 -1.140777 -4.447942
v 1.026111 -1.139682 -4.445136
v 1.024682 -1.137709 -4.443193
v 1.022900 -1.135250 -4.442500
v 1.004968 -1.144490 -4.443193
v 1.003539 -1.142518 -4.445136
v 1.002746 -1.141423 -4.447942
v 1.002746 -1.141423 -4.451058
v 1.003539 -1.142518 -4.453865
v 1.004968 -1.144490 -4.455807
v 1.006750 -1.146950 -4.456500
v 1.008532 -1.149410 -4.455807
v 1.009961 -1.151382 -4.453865
v 1.010754 -1.152477 -4.451058
v 1.010754 -1.152477 -4.447942
v 1.009961 -1.151382 -4.445136
v 1.008532 -1.149410 -4.443193
v 1.006750 -1.146950 -4.442500
v 0.298584 -1.013258 -4.470807
v 0.297949 -1.010907 -4.468864
v 0.297596 -1.009602 -4.466058
v 0.297596 -1.009602 -4.462942
v 0.297949 -1.010907 -4.460135
v 0.298584 -1.013258 -4.458193
v 0.299377 -1.016190 -4.457500
v 0.300170 -1.019122 -4.458193
v 0.300805 -1.021473 -4.460135
v 0.301158 -1.022778 -4.462942
v 0.301158 -1.022778 -4.466058
v 0.300805 -1.021473 -4.468864
v 0.300170 -1.019122 -4.470807
v 0.299377 -1.016190 -4.471500
v 0.313934 -1.009108 -4.470807
v 0.313299 -1.006757 -4.468864
v 0.312946 -1.005452 -4.466058
v 0.312946 -1.005452 -4.462942
v 0.313299 -1.006757 -4.460135
v 0.313934 -1.009108 -4.458193
v 0.314727 -1.012040 -4.457500
v 0.315520 -1.014972 -4.458193
v 0.316155 -1.017323 -4.460135
v 0.316508 -1.018628 -4.462942
v 0.316508 -1.018628 -4.466058
v 0.316155 -1.017323 -4.468864
v 0.315520 -1.014972 -4.470807
v 0.314727 -1.012040 -4.471500
v 0.995434 -1.163074 -4.491193
v 0.994780 -1.160728 -4.493135
v 0.994417 -1.159426 -4.495942
v 0.994417 -1.159426 -4.499058
v 0.994780 -1.160728 -4.501864
v 0.995434 -1.163074 -4.503807
v 0.996250 -1.166000 -4.504500
v 0.997066 -1.168926 -4.503807
v 0.997720 -1.171272 -4.501864
v 0.998083 -1.172574 -4.499058
v 0.998083 -1.172574 -4.495942
v 0.997720 -1.171272 -4.493135
v 0.997066 -1.168926 -4.491193
v 0.996250 -1.166000 -4.490500
v 0.965134 -1.171525 -4.491193
v 0.964480 -1.169178 -4.493135
v 0.964117 -1.167876 -4.495942
v 0.964117 -1.167876 -4.499058
v 0.964480 -1.169178 -4.501864
v 0.965134 -1.171525 -4.503807
v 0.965950 -1.174450 -4.504500
v 0.966766 -1.177376 -4.503807
v 0.967420 -1.179722 -4.501864
v 0.967783 -1.181024 -4.499058
v 0.967783 -1.181024 -4.495942
v 0.967420 -1.179722 -4.493135
v 0.966766 -1.177376 -4.491193
v 0.965950 -1.174450 -4.490500
v 0.447069 -0.577447 -4.334307
v 0.449464 -0.577003 -4.332365
v 0.450793 -0.576757 -4.329558
v 0.450793 -0.576757 -4.326442
v 0.449464 -0.577003 -4.323636
v 0.447069 -0.577447 -4.321693
v 0.444083 -0.578000 -4.321000
v 0.441097 -0.578553 -4.321693
v 0.438702 -0.578997 -4.323636
v 0.437373 -0.579243 -4.326442
v 0.437373 -0.579243 -4.329558
v 0.438702 -0.578997 -4.332365
v 0.441097 -0.578553 -4.334307
v 0.444083 -0.578000 -4.335000
v 0.449569 -0.590947 -4.334307
v 0.451964 -0.590503 -4.332365
v 0.453293 -0.590257 -4.329558
v 0.453293 -0.590257 -4.326442
v 0.451964 -0.590503 -4.323636
v 0.449569 -0.590947 -4.321693
v 0.446583 -0.591500 -4.321000
v 0.443597 -0.592053 -4.321693
v 0.441202 -0.592497 -4.323636
v 0.439873 -0.592743 -4.326442
v 0.439873 -0.592743 -4.329558
v 0.441202 -0.592497 -4.332365
v 0.443597 -0.592053 -4.334307
v 0.446583 -0.591500 -4.335000
vn -0.2909 0.3219 0.9010
vn 0.0000 0.0000 1.0000
vn -0.5242 0.5801 0.6235
vn -0.6536 0.7233 0.2225
vn -0.6536 0.7233 -0.2225
vn -0.5242 0.5801 -0.6235
vn -0.2909 0.3219 -0.9010
vn 0.0000 0.0000 -1.0000
vn 0.2909 -0.3219 -0.9010
vn 0.5242 -0.5801 -0.6235
vn 0.6536 -0.7233 -0.2225
vn 0.6536 -0.7233 0.2225
vn 0.5242 -0.5801 0.6235
vn 0.2909 -0.3219 0.9010
vn 0.1649 0.4013 -0.9010
vn 0.2971 0.7231 -0.6235
vn 0.3705 0.9018 -0.2225
vn 0.3705 0.9018 0.2225
vn 0.2972 0.7231 0.6235
vn 0.1649 0.4013 0.9010
vn -0.1649 -0.4013 0.9010
vn -0.2971 -0.7231 0.6235
vn -0.3705 -0.9018 0.2225
vn -0.3705 -0.9018 -0.2225
vn -0.2971 -0.7231 -0.6235
vn -0.1649 -0.4013 -0.9010
vn 0.3692 0.2278 0.9010
vn 0.6653 0.4105 0.6235
vn 0.8297 0.5119 0.2225
vn 0.8297 0.5119 -0.2225
vn 0.6653 0.4105 -0.6235
vn 0.3692 0.2278 -0.9010
vn -0.3692 -0.2278 -0.9010
vn -0.6653 -0.4105 -0.6235
vn -0.8297 -0.5119 -0.2225
vn -0.8297 -0.5119 0.2225
vn -0.6653 -0.4105 0.6235
vn -0.3692 -0.2278 0.9010
vn 0.3383 0.2716 -0.9010
vn 0.6097 0.4894 -0.6235
vn 0.7602 0.6103 -0.2225
vn 0.7602 0.6103 0.2225
vn 0.6097 0.4894 0.6235
vn 0.3383 0.2716 0.9010
vn -0.0001 0.0000 1.0000
vn -0.3384 -0.2716 0.9009
vn -0.6096 -0.4894 0.6235
vn -0.7602 -0.6103 0.2225
vn -0.7602 -0.6103 -0.2225
vn -0.6097 -0.4894 -0.6235
vn -0.3383 -0.2716 -0.9010
vn -0.3384 -0.2716 -0.9010
vn -0.4168 0.1204 0.9010
vn -0.7511 0.2170 0.6235
vn -0.9366 0.2706 0.2225
vn -0.9366 0.2706 -0.2225
vn -0.7511 0.2170 -0.6235
vn -0.4168 0.1204 -0.9010
vn 0.4168 -0.1204 -0.9010
vn 0.7511 -0.2170 -0.6235
vn 0.9366 -0.2706 -0.2225
vn 0.9366 -0.2706 0.2225
vn 0.7511 -0.2170 0.6235
vn 0.4168 -0.1204 0.9010
vn -0.2545 0.3514 0.9010
vn -0.4586 0.6331 0.6235
vn -0.5719 0.7895 0.2225
vn -0.5719 0.7895 -0.2225
vn -0.4587 0.6331 -0.6235
vn -0.2546 0.3513 -0.9009
vn 0.2546 -0.3514 -0.9009
vn 0.4587 -0.6331 -0.6235
vn 0.5719 -0.7895 -0.2225
vn 0.5719 -0.7895 0.2225
vn 0.4587 -0.6331 0.6235
vn 0.2546 -0.3513 0.9010
vn -0.1133 0.4188 -0.9009
vn -0.2040 0.7547 -0.6235
vn -0.2544 0.9411 -0.2225
vn -0.2544 0.9411 0.2225
vn -0.2040 0.7547 0.6235
vn -0.1132 0.4188 0.9009
vn 0.1132 -0.4188 0.9010
vn 0.2040 -0.7547 0.6235
vn 0.2544 -0.9411 0.2225
vn 0.2544 -0.9411 -0.2225
vn 0.2040 -0.7547 -0.6235
vn 0.1132 -0.4188 -0.9010
vn -0.1165 0.4179 0.9010
vn -0.2100 0.7530 0.6235
vn -0.2619 0.9391 0.2225
vn -0.2619 0.9391 -0.2225
vn -0.2100 0.7530 -0.6235
vn -0.1165 0.4179 -0.9010
vn 0.1166 -0.4179 -0.9010
vn 0.2100 -0.7531 -0.6235
vn 0.2619 -0.9391 -0.2225
vn 0.2619 -0.9391 0.2225
vn 0.2100 -0.7530 0.6235
vn 0.1166 -0.4179 0.9010
vn 0.4266 0.0790 -0.9010
vn 0.7687 0.1423 -0.6235
vn 0.9586 0.1775 -0.2225
vn 0.9586 0.1775 0.2225
vn 0.7687 0.1423 0.6235
vn 0.4266 0.0790 0.9009
vn -0.4266 -0.0790 0.9009
vn -0.7687 -0.1423 0.6235
vn -0.9586 -0.1775 0.2225
vn -0.9586 -0.1775 -0.2225
vn -0.7687 -0.1423 -0.6235
vn -0.4266 -0.0790 -0.9010
s 1
f 1//1 15//1 28//2 14//2
f 2//3 16//3 15//1 1//1
f 3//4 17//4 16//3 2//3
f 4//5 18//5 17//4 3//4
f 5//6 19//6 18//5 4//5
f 6//7 20//7 19//6 5//6
f 7//8 21//8 20//7 6//7
f 8//9 22//9 21//8 7//8
f 9//10 23//10 22//9 8//9
f 10//11 24//11 23//10 9//10
f 11//12 25//12 24//11 10//11
f 12//13 26//13 25//12 11//12
f 13//14 27//14 26//13 12//13
f 14//2 28//2 27//14 13//14
f 29//15 43//15 56//8 42//8
f 30//16 44//16 43//15 29//15
f 31//17 45//17 44//16 30//16
f 32//18 46//18 45//17 31//17
f 33//19 47//19 46//18 32//18
f 34//20 48//20 47//19 33//19
f 35//2 49//2 48//20 34//20
f 36//21 50//21 49//2 35//2
f 37//22 51//22 50//21 36//21
f 38//23 52//23 51//22 37//22
f 39//24 53//24 52//23 38//23
f 40//25 54//25 53//24 39//24
f 41//26 55//26 54//25 40//25
f 42//8 56//8 55//26 41//26
f 57//27 71//27 84//2 70//2
f 58//28 72//28 71//27 57//27
f 59//29 73//29 72//28 58//28
f 60//30 74//30 73//29 59//29
f 61//31 75//31 74//30 60//30
f 62//32 76//32 75//31 61//31
f 63//8 77//8 76//32 62//32
f 64//33 78//33 77//8 63//8
f 65//34 79//34 78//33 64//33
f 66//35 80//35 79//34 65//34
f 67//36 81//36 80//35 66//35
f 68//37 82//37 81//36 67//36
f 69//38 83//38 82//37 68//37
f 70//2 84//2 83//38 69//38
f 85//39 99//39 112//8 98//8
f 86//40 100//40 99//39 85//39
f 87//41 101//41 100//40 86//40
f 88//42 102//42 101//41 87//41
f 89//43 103//43 102//42 88//42
f 90//44 104//44 103//43 89//43
f 91//45 105//45 104//44 90//44
f 92//46 106//46 105//45 91//45
f 93//47 107//47 106//46 92//46
f 94//48 108//48 107//47 93//47
f 95//49 109//49 108//48 94//48
f 96//50 110//50 109//49 95//49
f 97//51 111//52 110//50 96//50
f 98//8 112//8 111//52 97//51
f 113//53 127//53 140//2 126//2
f 114//54 128//54 127//53 113//53
f 115//55 129//55 128//54 114//54
f 116//56 130//56 129//55 115//55
f 117//57 131//57 130//56 116//56
f 118//58 132//58 131//57 117//57
f 119//8 133//8 132//58 118//58
f 120//59 134//59 133//8 119//8
f 121//60 135//60 134//59 120//59
f 122//61 136//61 135//60 121//60
f 123//62 137//62 136//61 122//61
f 124//63 138//63 137//62 123//62
f 125//64 139//64 138//63 124//63
f 126//2 140//2 139//64 125//64
f 141//65 155//65 168//2 154//2
f 142//66 156//66 155//65 141//65
f 143//67 157//67 156//66 142//66
f 144//68 158//68 157//67 143//67
f 145//69 159//69 158//68 144//68
f 146//70 160//70 159//69 145//69
f 147//8 161//8 160//70 146//70
f 148//71 162//71 161//8 147//8
f 149//72 163//72 162//71 148//71
f 150//73 164//73 163//72 149//72
f 151//74 165//74 164//73 150//73
f 152//75 166//75 165//74 151//74
f 153//76 167//76 166//75 152//75
f 154//2 168//2 167//76 153//76
f 169//77 183//77 196//8 182//8
f 170//78 184//78 183//77 169//77
f 171//79 185//79 184//78 170//78
f 172//80 186//80 185//79 171//79
f 173//81 187//81 186//80 172//80
f 174//82 188//82 187//81 173//81
f 175//2 189//2 188//82 174//82
f 176//83 190//83 189//2 175//2
f 177//84 191//84 190//83 176//83
f 178//85 192//85 191//84 177//84
f 179//86 193//86 192//85 178//85
f 180//87 194//87 193//86 179//86
f 181//88 195//88 194//87 180//87
f 182//8 196//8 195//88 181//88
f 197//89 211//89 224//2 210//2
f 198//90 212//90 211//89 197//89
f 199//91 213//91 212//90 198//90
f 200//92 214//92 213//91 199//91
f 201//93 215//93 214//92 200//92
f 202//94 216//94 215//93 201//93
f 203//8 217//8 216//94 202//94
f 204//95 218//95 217//8 203//8
f 205//96 219//96 218//95 204//95
f 206//97 220//97 219//96 205//96
f 207//98 221//98 220//97 206//97
f 208//99 222//99 221//98 207//98
f 209//100 223//100 222//99 208//99
f 210//2 224//2 223//100 209//100
f 225//101 239//101 252//8 238//8
f 226//102 240//102 239//101 225//101
f 227//103 241//103 240//102 226//102
f 228//104 242//104 241//103 227//103
f 229//105 243//105 242//104 228//104
f 230//106 244//106 243//105 229//105
f 231//2 245//2 244//106 230//106
f 232//107 246//107 245//2 231//2
f 233//108 247//108 246//107 232//107
f 234//109 248//109 247//108 233//108
f 235//110 249//110 248//109 234//109
f 236//111 250//111 249//110 235//110
f 237//112 251//112 250//111 236//111
f 238//8 252//8 251//112 237//112
