# Blender v2.78 (sub 0) OBJ File: ''
# www.blender.org
o Outputs_of_35521_-_[AUAR.]
v 0.998538 -1.153374 -4.658194
v 0.996723 -1.151749 -4.660136
v 0.995716 -1.150847 -4.662942
v 0.995716 -1.150847 -4.666058
v 0.996723 -1.151749 -4.668865
v 0.998538 -1.153374 -4.670807
v 1.000800 -1.155400 -4.671500
v 1.003062 -1.157426 -4.670807
v 1.004877 -1.159051 -4.668865
v 1.005884 -1.159953 -4.666058
v 1.005884 -1.159953 -4.662942
v 1.004877 -1.159051 -4.660136
v 1.003062 -1.157426 -4.658194
v 1.000800 -1.155400 -4.657500
v 0.985238 -1.168224 -4.658194
v 0.983423 -1.166599 -4.660136
v 0.982416 -1.165697 -4.662942
v 0.982416 -1.165697 -4.666058
v 0.983423 -1.166599 -4.668865
v 0.985238 -1.168224 -4.670807
v 0.987500 -1.170250 -4.671500
v 0.989762 -1.172276 -4.670807
v 0.991577 -1.173901 -4.668865
v 0.992584 -1.174803 -4.666058
v 0.992584 -1.174803 -4.662942
v 0.991577 -1.173901 -4.660136
v 0.989762 -1.172276 -4.658194
v 0.987500 -1.170250 -4.657500
v 0.967994 -1.174740 -4.675193
v 0.965904 -1.173490 -4.677135
v 0.964744 -1.172795 -4.679942
v 0.964744 -1.172795 -4.683058
v 0.965904 -1.173490 -4.685864
v 0.967994 -1.174740 -4.687807
v 0.970600 -1.176300 -4.688500
v 0.973206 -1.177860 -4.687807
v 0.975296 -1.179111 -4.685864
v 0.976456 -1.179805 -4.683058
v 0.976456 -1.179805 -4.679942
v 0.975296 -1.179111 -4.677135
v 0.973206 -1.177860 -4.675193
v 0.970600 -1.176300 -4.674500
v 0.956294 -1.194290 -4.675193
v 0.954204 -1.193040 -4.677135
v 0.953044 -1.192345 -4.679942
v 0.953044 -1.192345 -4.683058
v 0.954204 -1.193040 -4.685864
v 0.956294 -1.194290 -4.687807
v 0.958900 -1.195850 -4.688500
v 0.961506 -1.197410 -4.687807
v 0.963596 -1.198660 -4.685864
v 0.964756 -1.199355 -4.683058
v 0.964756 -1.199355 -4.679942
v 0.963596 -1.198660 -4.677135
v 0.961506 -1.197410 -4.675193
v 0.958900 -1.195850 -4.674500
vn -0.3232 0.2894 0.9010
vn 0.0000 0.0000 1.0000
vn -0.5824 0.5216 0.6235
vn -0.7262 0.6504 0.2225
vn -0.7262 0.6504 -0.2225
vn -0.5824 0.5216 -0.6235
vn -0.3232 0.2894 -0.9010
vn 0.0000 0.0000 -1.0000
vn 0.3232 -0.2895 -0.9009
vn 0.5824 -0.5216 -0.6235
vn 0.7262 -0.6504 -0.2225
vn 0.7262 -0.6504 0.2225
vn 0.5824 -0.5216 0.6235
vn 0.3232 -0.2895 0.9009
vn -0.3723 0.2228 0.9010
vn -0.6709 0.4015 0.6235
vn -0.8365 0.5006 0.2225
vn -0.8365 0.5007 -0.2225
vn -0.6709 0.4015 -0.6235
vn -0.3723 0.2228 -0.9009
vn 0.3723 -0.2228 -0.9009
vn 0.6709 -0.4015 -0.6235
vn 0.8365 -0.5007 -0.2225
vn 0.8365 -0.5006 0.2225
vn 0.6708 -0.4015 0.6235
vn 0.3723 -0.2228 0.9010
s 1
f 1//1 15//1 28//2 14//2
f 2//3 16//3 15//1 1//1
f 3//4 17//4 16//3 2//3
f 4//5 18//5 17//4 3//4
f 5//6 19//6 18//5 4//5
f 6//7 20//7 19//6 5//6
f 7//8 21//8 20//7 6//7
f 8//9 22//9 21//8 7//8
f 9//10 23//10 22//9 8//9
f 10//11 24//11 23//10 9//10
f 11//12 25//12 24//11 10//11
f 12//13 26//13 25//12 11//12
f 13//14 27//14 26//13 12//13
f 14//2 28//2 27//14 13//14
f 29//15 43//15 56//2 42//2
f 30//16 44//16 43//15 29//15
f 31//17 45//17 44//16 30//16
f 32//18 46//18 45//17 31//17
f 33//19 47//19 46//18 32//18
f 34//20 48//20 47//19 33//19
f 35//8 49//8 48//20 34//20
f 36//21 50//21 49//8 35//8
f 37//22 51//22 50//21 36//21
f 38//23 52//23 51//22 37//22
f 39//24 53//24 52//23 38//23
f 40//25 54//25 53//24 39//24
f 41//26 55//26 54//25 40//25
f 42//2 56//2 55//26 41//26
