# Blender v2.78 (sub 0) OBJ File: ''
# www.blender.org
o Outputs_of_54286_-_[AWBR.]
v 0.816562 -1.219154 -4.753307
v 0.817413 -1.216872 -4.751365
v 0.817885 -1.215606 -4.748558
v 0.817885 -1.215606 -4.745442
v 0.817413 -1.216872 -4.742636
v 0.816562 -1.219154 -4.740694
v 0.815500 -1.222000 -4.740000
v 0.814439 -1.224846 -4.740694
v 0.813587 -1.227128 -4.742636
v 0.813115 -1.228394 -4.745442
v 0.813115 -1.228394 -4.748558
v 0.813587 -1.227128 -4.751365
v 0.814439 -1.224846 -4.753307
v 0.815500 -1.222000 -4.754000
v 0.848062 -1.230904 -4.753307
v 0.848913 -1.228622 -4.751365
v 0.849385 -1.227356 -4.748558
v 0.849385 -1.227356 -4.745442
v 0.848913 -1.228622 -4.742636
v 0.848062 -1.230904 -4.740694
v 0.847000 -1.233750 -4.740000
v 0.845939 -1.236596 -4.740694
v 0.845087 -1.238878 -4.742636
v 0.844615 -1.240144 -4.745442
v 0.844615 -1.240144 -4.748558
v 0.845087 -1.238878 -4.751365
v 0.845939 -1.236596 -4.753307
v 0.847000 -1.233750 -4.754000
v 1.021308 -0.751992 -4.600693
v 1.023648 -0.751316 -4.602635
v 1.024947 -0.750942 -4.605442
v 1.024947 -0.750942 -4.608558
v 1.023648 -0.751316 -4.611364
v 1.021308 -0.751992 -4.613307
v 1.018390 -0.752834 -4.614000
v 1.015472 -0.753676 -4.613307
v 1.013132 -0.754352 -4.611364
v 1.011833 -0.754726 -4.608558
v 1.011833 -0.754726 -4.605442
v 1.013132 -0.754352 -4.602635
v 1.015472 -0.753676 -4.600693
v 1.018390 -0.752834 -4.600000
v 1.016148 -0.734113 -4.600693
v 1.018488 -0.733437 -4.602635
v 1.019787 -0.733063 -4.605442
v 1.019787 -0.733063 -4.608558
v 1.018488 -0.733437 -4.611364
v 1.016148 -0.734113 -4.613307
v 1.013230 -0.734955 -4.614000
v 1.010312 -0.735797 -4.613307
v 1.007972 -0.736473 -4.611364
v 1.006673 -0.736847 -4.608558
v 1.006673 -0.736847 -4.605442
v 1.007972 -0.736473 -4.602635
v 1.010312 -0.735797 -4.600693
v 1.013230 -0.734955 -4.600000
v 0.814537 -1.218998 -4.746193
v 0.814166 -1.216591 -4.748136
v 0.813960 -1.215255 -4.750942
v 0.813960 -1.215255 -4.754058
v 0.814166 -1.216591 -4.756865
v 0.814537 -1.218998 -4.758807
v 0.815000 -1.222000 -4.759500
v 0.815463 -1.225002 -4.758807
v 0.815834 -1.227409 -4.756865
v 0.816040 -1.228745 -4.754058
v 0.816040 -1.228745 -4.750942
v 0.815834 -1.227409 -4.748136
v 0.815463 -1.225002 -4.746193
v 0.815000 -1.222000 -4.745500
v 0.767537 -1.226248 -4.746193
v 0.767166 -1.223841 -4.748136
v 0.766960 -1.222505 -4.750942
v 0.766960 -1.222505 -4.754058
v 0.767166 -1.223841 -4.756865
v 0.767537 -1.226248 -4.758807
v 0.768000 -1.229250 -4.759500
v 0.768463 -1.232252 -4.758807
v 0.768834 -1.234659 -4.756865
v 0.769040 -1.235995 -4.754058
v 0.769040 -1.235995 -4.750942
v 0.768834 -1.234659 -4.748136
v 0.768463 -1.232252 -4.746193
v 0.768000 -1.229250 -4.745500
v 0.749535 -1.208375 -4.804807
v 0.751968 -1.208275 -4.802865
v 0.753319 -1.208220 -4.800058
v 0.753319 -1.208220 -4.796942
v 0.751968 -1.208275 -4.794136
v 0.749535 -1.208375 -4.792193
v 0.746500 -1.208500 -4.791500
v 0.743465 -1.208625 -4.792193
v 0.741032 -1.208725 -4.794136
v 0.739681 -1.208780 -4.796942
v 0.739681 -1.208780 -4.800058
v 0.741032 -1.208725 -4.802865
v 0.743465 -1.208625 -4.804807
v 0.746500 -1.208500 -4.805500
v 0.750285 -1.226625 -4.804807
v 0.752718 -1.226525 -4.802865
v 0.754069 -1.226470 -4.800058
v 0.754069 -1.226470 -4.796942
v 0.752718 -1.226525 -4.794136
v 0.750285 -1.226625 -4.792193
v 0.747250 -1.226750 -4.791500
v 0.744215 -1.226875 -4.792193
v 0.741782 -1.226975 -4.794136
v 0.740431 -1.227030 -4.796942
v 0.740431 -1.227030 -4.800058
v 0.741782 -1.226975 -4.802865
v 0.744215 -1.226875 -4.804807
v 0.747250 -1.226750 -4.805500
v 0.698940 -1.253238 -4.915194
v 0.701298 -1.252627 -4.917136
v 0.702606 -1.252287 -4.919942
v 0.702606 -1.252287 -4.923058
v 0.701298 -1.252627 -4.925865
v 0.698940 -1.253238 -4.927807
v 0.696000 -1.254000 -4.928500
v 0.693060 -1.254762 -4.927807
v 0.690702 -1.255373 -4.925865
v 0.689394 -1.255713 -4.923058
v 0.689394 -1.255713 -4.919942
v 0.690702 -1.255373 -4.917136
v 0.693060 -1.254762 -4.915194
v 0.696000 -1.254000 -4.914500
v 0.697190 -1.246488 -4.915194
v 0.699548 -1.245877 -4.917136
v 0.700856 -1.245537 -4.919942
v 0.700856 -1.245537 -4.923058
v 0.699548 -1.245877 -4.925865
v 0.697190 -1.246488 -4.927807
v 0.694250 -1.247250 -4.928500
v 0.691310 -1.248012 -4.927807
v 0.688952 -1.248623 -4.925865
v 0.687644 -1.248963 -4.923058
v 0.687644 -1.248963 -4.919942
v 0.688952 -1.248623 -4.917136
v 0.691310 -1.248012 -4.915194
v 0.694250 -1.247250 -4.914500
v 0.933337 -0.566945 -4.523307
v 0.931726 -0.565118 -4.521365
v 0.930832 -0.564104 -4.518558
v 0.930832 -0.564104 -4.515442
v 0.931726 -0.565118 -4.512636
v 0.933337 -0.566945 -4.510694
v 0.935346 -0.569223 -4.510000
v 0.937355 -0.571501 -4.510694
v 0.938966 -0.573328 -4.512636
v 0.939860 -0.574342 -4.515442
v 0.939860 -0.574342 -4.518558
v 0.938966 -0.573328 -4.521365
v 0.937355 -0.571501 -4.523307
v 0.935346 -0.569223 -4.524000
v 0.941676 -0.559592 -4.523307
v 0.940065 -0.557765 -4.521365
v 0.939171 -0.556751 -4.518558
v 0.939171 -0.556751 -4.515442
v 0.940065 -0.557765 -4.512636
v 0.941676 -0.559592 -4.510694
v 0.943685 -0.561870 -4.510000
v 0.945694 -0.564148 -4.510694
v 0.947305 -0.565975 -4.512636
v 0.948199 -0.566989 -4.515442
v 0.948199 -0.566989 -4.518558
v 0.947305 -0.565975 -4.521365
v 0.945694 -0.564148 -4.523307
v 0.943685 -0.561870 -4.524000
v 0.708853 -1.217385 -4.880806
v 0.706930 -1.215890 -4.878864
v 0.705863 -1.215060 -4.876058
v 0.705863 -1.215060 -4.872942
v 0.706930 -1.215890 -4.870135
v 0.708853 -1.217385 -4.868193
v 0.711250 -1.219250 -4.867500
v 0.713647 -1.221115 -4.868193
v 0.715570 -1.222610 -4.870135
v 0.716637 -1.223440 -4.872942
v 0.716637 -1.223440 -4.876058
v 0.715570 -1.222610 -4.878864
v 0.713647 -1.221115 -4.880806
v 0.711250 -1.219250 -4.881500
v 0.712353 -1.212885 -4.880806
v 0.710430 -1.211390 -4.878864
v 0.709363 -1.210560 -4.876058
v 0.709363 -1.210560 -4.872942
v 0.710430 -1.211390 -4.870135
v 0.712353 -1.212885 -4.868193
v 0.714750 -1.214750 -4.867500
v 0.717147 -1.216615 -4.868193
v 0.719070 -1.218110 -4.870135
v 0.720137 -1.218940 -4.872942
v 0.720137 -1.218940 -4.876058
v 0.719070 -1.218110 -4.878864
v 0.717147 -1.216615 -4.880806
v 0.714750 -1.214750 -4.881500
v 1.002075 -0.605527 -4.539307
v 1.002463 -0.603122 -4.537364
v 1.002679 -0.601788 -4.534558
v 1.002679 -0.601788 -4.531442
v 1.002463 -0.603122 -4.528636
v 1.002075 -0.605527 -4.526693
v 1.001590 -0.608525 -4.526000
v 1.001105 -0.611523 -4.526693
v 1.000717 -0.613928 -4.528636
v 1.000501 -0.615262 -4.531442
v 1.000501 -0.615262 -4.534558
v 1.000717 -0.613928 -4.537364
v 1.001105 -0.611523 -4.539307
v 1.001590 -0.608525 -4.540000
v 1.009925 -0.606796 -4.539307
v 1.010313 -0.604391 -4.537364
v 1.010529 -0.603057 -4.534558
v 1.010529 -0.603057 -4.531442
v 1.010313 -0.604391 -4.528636
v 1.009925 -0.606796 -4.526693
v 1.009440 -0.609794 -4.526000
v 1.008955 -0.612792 -4.526693
v 1.008566 -0.615197 -4.528636
v 1.008351 -0.616531 -4.531442
v 1.008351 -0.616531 -4.534558
v 1.008566 -0.615197 -4.537364
v 1.008955 -0.612792 -4.539307
v 1.009440 -0.609794 -4.540000
v 0.999525 -0.692802 -4.586807
v 0.997123 -0.692397 -4.584865
v 0.995790 -0.692172 -4.582058
v 0.995790 -0.692172 -4.578942
v 0.997123 -0.692397 -4.576136
v 0.999525 -0.692802 -4.574193
v 1.002520 -0.693307 -4.573500
v 1.005515 -0.693812 -4.574193
v 1.007917 -0.694217 -4.576136
v 1.009249 -0.694442 -4.578942
v 1.009249 -0.694442 -4.582058
v 1.007917 -0.694217 -4.584865
v 1.005515 -0.693812 -4.586807
v 1.002520 -0.693307 -4.587500
v 1.001515 -0.681001 -4.586807
v 0.999113 -0.680596 -4.584865
v 0.997781 -0.680371 -4.582058
v 0.997781 -0.680371 -4.578942
v 0.999113 -0.680596 -4.576136
v 1.001515 -0.681001 -4.574193
v 1.004510 -0.681506 -4.573500
v 1.007505 -0.682011 -4.574193
v 1.009907 -0.682416 -4.576136
v 1.011240 -0.682641 -4.578942
v 1.011240 -0.682641 -4.582058
v 1.009907 -0.682416 -4.584865
v 1.007505 -0.682011 -4.586807
v 1.004510 -0.681506 -4.587500
v 0.777489 -0.462804 -4.442693
v 0.777234 -0.460382 -4.444635
v 0.777093 -0.459038 -4.447442
v 0.777093 -0.459038 -4.450558
v 0.777234 -0.460382 -4.453364
v 0.777489 -0.462804 -4.455307
v 0.777807 -0.465825 -4.456000
v 0.778125 -0.468845 -4.455307
v 0.778380 -0.471268 -4.453364
v 0.778521 -0.472612 -4.450558
v 0.778521 -0.472612 -4.447442
v 0.778380 -0.471268 -4.444635
v 0.778125 -0.468845 -4.442693
v 0.777807 -0.465825 -4.442000
v 0.767989 -0.463805 -4.442693
v 0.767734 -0.461382 -4.444635
v 0.767593 -0.460038 -4.447442
v 0.767593 -0.460038 -4.450558
v 0.767734 -0.461382 -4.453364
v 0.767989 -0.463805 -4.455307
v 0.768307 -0.466825 -4.456000
v 0.768625 -0.469846 -4.455307
v 0.768880 -0.472268 -4.453364
v 0.769021 -0.473612 -4.450558
v 0.769021 -0.473612 -4.447442
v 0.768880 -0.472268 -4.444635
v 0.768625 -0.469846 -4.442693
v 0.768307 -0.466825 -4.442000
v 1.026939 -0.907167 -4.628307
v 1.024517 -0.906914 -4.626365
v 1.023172 -0.906773 -4.623558
v 1.023172 -0.906773 -4.620442
v 1.024517 -0.906914 -4.617636
v 1.026939 -0.907167 -4.615694
v 1.029960 -0.907483 -4.615000
v 1.032981 -0.907799 -4.615694
v 1.035403 -0.908052 -4.617636
v 1.036748 -0.908193 -4.620442
v 1.036748 -0.908193 -4.623558
v 1.035403 -0.908052 -4.626365
v 1.032981 -0.907799 -4.628307
v 1.029960 -0.907483 -4.629000
v 1.033829 -0.841264 -4.628307
v 1.031407 -0.841011 -4.626365
v 1.030062 -0.840870 -4.623558
v 1.030062 -0.840870 -4.620442
v 1.031407 -0.841011 -4.617636
v 1.033829 -0.841264 -4.615694
v 1.036850 -0.841580 -4.615000
v 1.039871 -0.841896 -4.615694
v 1.042293 -0.842149 -4.617636
v 1.043638 -0.842290 -4.620442
v 1.043638 -0.842290 -4.623558
v 1.042293 -0.842149 -4.626365
v 1.039871 -0.841896 -4.628307
v 1.036850 -0.841580 -4.629000
v 1.010785 -1.023722 -4.639194
v 1.013099 -1.022962 -4.641136
v 1.014383 -1.022540 -4.643942
v 1.014383 -1.022540 -4.647058
v 1.013099 -1.022962 -4.649865
v 1.010785 -1.023722 -4.651807
v 1.007900 -1.024670 -4.652500
v 1.005015 -1.025618 -4.651807
v 1.002701 -1.026378 -4.649865
v 1.001417 -1.026800 -4.647058
v 1.001417 -1.026800 -4.643942
v 1.002701 -1.026378 -4.641136
v 1.005015 -1.025618 -4.639194
v 1.007900 -1.024670 -4.638500
v 1.002265 -0.997792 -4.639194
v 1.004579 -0.997032 -4.641136
v 1.005863 -0.996610 -4.643942
v 1.005863 -0.996610 -4.647058
v 1.004579 -0.997032 -4.649865
v 1.002265 -0.997792 -4.651807
v 0.999380 -0.998740 -4.652500
v 0.996495 -0.999688 -4.651807
v 0.994181 -1.000448 -4.649865
v 0.992896 -1.000870 -4.647058
v 0.992896 -1.000870 -4.643942
v 0.994181 -1.000448 -4.641136
v 0.996495 -0.999688 -4.639194
v 0.999380 -0.998740 -4.638500
v 1.009817 -1.032747 -4.642694
v 1.011812 -1.031349 -4.644636
v 1.012918 -1.030573 -4.647442
v 1.012918 -1.030573 -4.650558
v 1.011811 -1.031349 -4.653365
v 1.009817 -1.032747 -4.655307
v 1.007330 -1.034490 -4.656000
v 1.004843 -1.036233 -4.655307
v 1.002848 -1.037631 -4.653365
v 1.001741 -1.038407 -4.650558
v 1.001741 -1.038407 -4.647442
v 1.002848 -1.037631 -4.644636
v 1.004843 -1.036233 -4.642694
v 1.007330 -1.034490 -4.642000
v 0.990367 -1.004997 -4.642694
v 0.992362 -1.003599 -4.644636
v 0.993468 -1.002823 -4.647442
v 0.993468 -1.002823 -4.650558
v 0.992362 -1.003599 -4.653365
v 0.990367 -1.004997 -4.655307
v 0.987880 -1.006740 -4.656000
v 0.985393 -1.008483 -4.655307
v 0.983398 -1.009881 -4.653365
v 0.982292 -1.010657 -4.650558
v 0.982292 -1.010657 -4.647442
v 0.983398 -1.009881 -4.644636
v 0.985393 -1.008483 -4.642694
v 0.987880 -1.006740 -4.642000
v 1.011707 -0.983086 -4.643806
v 1.009306 -0.982673 -4.641864
v 1.007974 -0.982445 -4.639058
v 1.007974 -0.982445 -4.635942
v 1.009306 -0.982673 -4.633135
v 1.011707 -0.983086 -4.631193
v 1.014700 -0.983600 -4.630500
v 1.017693 -0.984114 -4.631193
v 1.020094 -0.984527 -4.633135
v 1.021426 -0.984756 -4.635942
v 1.021426 -0.984756 -4.639058
v 1.020094 -0.984527 -4.641864
v 1.017693 -0.984114 -4.643806
v 1.014700 -0.983600 -4.644500
v 1.017007 -0.952236 -4.643806
v 1.014606 -0.951823 -4.641864
v 1.013274 -0.951595 -4.639058
v 1.013274 -0.951595 -4.635942
v 1.014606 -0.951823 -4.633135
v 1.017007 -0.952236 -4.631193
v 1.020000 -0.952750 -4.630500
v 1.022993 -0.953264 -4.631193
v 1.025394 -0.953677 -4.633135
v 1.026726 -0.953906 -4.635942
v 1.026726 -0.953906 -4.639058
v 1.025394 -0.953677 -4.641864
v 1.022993 -0.953264 -4.643806
v 1.020000 -0.952750 -4.644500
v 0.909255 -1.180954 -4.708193
v 0.907455 -1.179313 -4.710135
v 0.906456 -1.178403 -4.712942
v 0.906456 -1.178403 -4.716058
v 0.907455 -1.179313 -4.718864
v 0.909255 -1.180954 -4.720807
v 0.911500 -1.183000 -4.721500
v 0.913745 -1.185046 -4.720807
v 0.915545 -1.186687 -4.718864
v 0.916544 -1.187597 -4.716058
v 0.916544 -1.187597 -4.712942
v 0.915545 -1.186687 -4.710135
v 0.913745 -1.185046 -4.708193
v 0.911500 -1.183000 -4.707500
v 0.883505 -1.209204 -4.708193
v 0.881705 -1.207563 -4.710135
v 0.880706 -1.206653 -4.712942
v 0.880706 -1.206653 -4.716058
v 0.881705 -1.207563 -4.718864
v 0.883505 -1.209204 -4.720807
v 0.885750 -1.211250 -4.721500
v 0.887995 -1.213296 -4.720807
v 0.889795 -1.214937 -4.718864
v 0.890794 -1.215847 -4.716058
v 0.890794 -1.215847 -4.712942
v 0.889795 -1.214937 -4.710135
v 0.887995 -1.213296 -4.708193
v 0.885750 -1.211250 -4.707500
vn 0.1516 0.4065 -0.9010
vn 0.0000 0.0000 -1.0000
vn 0.2732 0.7325 -0.6235
vn 0.3407 0.9134 -0.2225
vn 0.3407 0.9134 0.2225
vn 0.2732 0.7325 0.6235
vn 0.1516 0.4065 0.9010
vn 0.0000 0.0000 1.0000
vn -0.1516 -0.4065 0.9010
vn -0.2732 -0.7325 0.6235
vn -0.3407 -0.9134 0.2225
vn -0.3407 -0.9134 -0.2225
vn -0.2732 -0.7325 -0.6235
vn -0.1516 -0.4065 -0.9010
vn 0.4168 0.1203 0.9010
vn 0.4169 0.1203 0.9010
vn 0.7511 0.2168 0.6235
vn 0.9367 0.2703 0.2225
vn 0.9367 0.2703 -0.2225
vn 0.7511 0.2168 -0.6235
vn 0.4168 0.1203 -0.9010
vn -0.4168 -0.1203 -0.9010
vn -0.7511 -0.2168 -0.6235
vn -0.9367 -0.2703 -0.2225
vn -0.9367 -0.2703 0.2225
vn -0.7511 -0.2168 0.6235
vn -0.4169 -0.1203 0.9010
vn -0.0661 0.4288 0.9010
vn -0.1192 0.7727 0.6235
vn -0.1486 0.9635 0.2225
vn -0.1486 0.9635 -0.2225
vn -0.1192 0.7727 -0.6235
vn -0.0661 0.4288 -0.9010
vn 0.0661 -0.4288 -0.9010
vn 0.1192 -0.7727 -0.6235
vn 0.1486 -0.9635 -0.2225
vn 0.1486 -0.9635 0.2225
vn 0.1192 -0.7727 0.6235
vn 0.0661 -0.4288 0.9010
vn 0.4335 0.0178 -0.9009
vn 0.7811 0.0321 -0.6235
vn 0.9741 0.0400 -0.2225
vn 0.9741 0.0400 0.2225
vn 0.7811 0.0321 0.6235
vn 0.4335 0.0178 0.9009
vn -0.4335 -0.0178 0.9009
vn -0.7811 -0.0321 0.6235
vn -0.9741 -0.0400 0.2225
vn -0.9741 -0.0400 -0.2225
vn -0.7811 -0.0321 -0.6235
vn -0.4335 -0.0178 -0.9009
vn 0.4200 0.1089 0.9010
vn 0.7568 0.1962 0.6235
vn 0.9437 0.2446 0.2225
vn 0.9437 0.2446 -0.2225
vn 0.7568 0.1962 -0.6235
vn 0.4200 0.1089 -0.9010
vn -0.4200 -0.1089 -0.9010
vn -0.7568 -0.1962 -0.6235
vn -0.9437 -0.2446 -0.2225
vn -0.9437 -0.2446 0.2225
vn -0.7568 -0.1962 0.6235
vn -0.4199 -0.1089 0.9010
vn -0.4200 -0.1089 0.9010
vn -0.2869 0.3254 -0.9010
vn -0.5170 0.5864 -0.6235
vn -0.6448 0.7312 -0.2225
vn -0.6448 0.7312 0.2225
vn -0.5170 0.5864 0.6235
vn -0.2869 0.3254 0.9010
vn 0.2869 -0.3254 0.9010
vn 0.5170 -0.5864 0.6235
vn 0.6448 -0.7312 0.2225
vn 0.6448 -0.7312 -0.2225
vn 0.5170 -0.5864 -0.6235
vn 0.2869 -0.3254 -0.9009
vn -0.3424 0.2664 -0.9010
vn -0.3425 0.2664 -0.9010
vn -0.6171 0.4800 -0.6235
vn -0.7696 0.5985 -0.2225
vn -0.7695 0.5986 0.2225
vn -0.6171 0.4800 0.6235
vn -0.3425 0.2664 0.9010
vn 0.3425 -0.2664 0.9010
vn 0.6171 -0.4800 0.6235
vn 0.7695 -0.5986 0.2225
vn 0.7696 -0.5985 -0.2225
vn 0.6171 -0.4800 -0.6235
vn 0.3425 -0.2664 -0.9010
vn 0.0692 0.4283 -0.9010
vn 0.1248 0.7718 -0.6235
vn 0.1556 0.9624 -0.2225
vn 0.1556 0.9624 0.2225
vn 0.1247 0.7718 0.6235
vn 0.0692 0.4283 0.9010
vn -0.0692 -0.4283 0.9010
vn -0.1247 -0.7718 0.6235
vn -0.1556 -0.9624 0.2225
vn -0.1556 -0.9624 -0.2225
vn -0.1248 -0.7718 -0.6235
vn -0.0692 -0.4283 -0.9010
vn -0.4278 0.0721 -0.9009
vn -0.7709 0.1300 -0.6235
vn -0.9613 0.1621 -0.2225
vn -0.9613 0.1621 0.2225
vn -0.7709 0.1300 0.6235
vn -0.4278 0.0721 0.9009
vn 0.4278 -0.0721 0.9009
vn 0.7709 -0.1300 0.6235
vn 0.9613 -0.1621 0.2225
vn 0.9613 -0.1621 -0.2225
vn 0.7709 -0.1300 -0.6235
vn 0.4278 -0.0721 -0.9009
vn -0.0454 0.4315 0.9010
vn -0.0818 0.7775 0.6235
vn -0.1021 0.9695 0.2225
vn -0.1021 0.9695 -0.2225
vn -0.0819 0.7775 -0.6235
vn -0.0454 0.4315 -0.9010
vn 0.0454 -0.4315 -0.9010
vn 0.0819 -0.7775 -0.6235
vn 0.1021 -0.9695 -0.2225
vn 0.1021 -0.9695 0.2225
vn 0.0818 -0.7775 0.6235
vn 0.0454 -0.4315 0.9010
vn -0.4315 0.0451 -0.9010
vn -0.7776 0.0813 -0.6235
vn -0.9696 0.1014 -0.2225
vn -0.9696 0.1014 0.2225
vn -0.7776 0.0813 0.6235
vn -0.4315 0.0451 0.9009
vn 0.4315 -0.0451 0.9009
vn 0.7776 -0.0813 0.6235
vn 0.9696 -0.1014 0.2225
vn 0.9696 -0.1014 -0.2225
vn 0.7776 -0.0813 -0.6235
vn 0.4315 -0.0451 -0.9010
vn 0.4122 0.1354 0.9010
vn 0.7427 0.2440 0.6235
vn 0.9262 0.3043 0.2225
vn 0.9262 0.3043 -0.2225
vn 0.7427 0.2440 -0.6235
vn 0.7428 0.2440 -0.6235
vn 0.4122 0.1354 -0.9010
vn -0.4122 -0.1354 -0.9010
vn -0.7427 -0.2441 -0.6235
vn -0.9262 -0.3043 -0.2225
vn -0.9262 -0.3043 0.2225
vn -0.7427 -0.2441 0.6235
vn -0.4122 -0.1354 0.9010
vn 0.3553 0.2490 0.9010
vn 0.6402 0.4487 0.6235
vn 0.7983 0.5596 0.2225
vn 0.7983 0.5596 -0.2225
vn 0.6402 0.4487 -0.6235
vn 0.3553 0.2490 -0.9010
vn -0.3553 -0.2490 -0.9010
vn -0.6402 -0.4487 -0.6235
vn -0.7983 -0.5596 -0.2225
vn -0.7983 -0.5596 0.2225
vn -0.6402 -0.4487 0.6235
vn -0.3553 -0.2490 0.9010
vn -0.4276 0.0735 -0.9010
vn -0.7705 0.1324 -0.6235
vn -0.9608 0.1650 -0.2225
vn -0.9608 0.1650 0.2225
vn -0.7705 0.1324 0.6235
vn -0.4276 0.0735 0.9010
vn 0.4276 -0.0735 0.9010
vn 0.7705 -0.1324 0.6235
vn 0.9608 -0.1650 0.2225
vn 0.9608 -0.1650 -0.2225
vn 0.7705 -0.1324 -0.6235
vn 0.4276 -0.0735 -0.9010
vn -0.3207 0.2923 0.9009
vn -0.5778 0.5267 0.6235
vn -0.7205 0.6567 0.2225
vn -0.7205 0.6568 -0.2225
vn -0.5777 0.5267 -0.6235
vn -0.3207 0.2922 -0.9009
vn 0.3207 -0.2922 -0.9009
vn 0.5777 -0.5267 -0.6235
vn 0.7205 -0.6568 -0.2225
vn 0.7205 -0.6567 0.2225
vn 0.5778 -0.5267 0.6235
vn 0.3207 -0.2923 0.9009
s 1
f 1//1 15//1 28//2 14//2
f 2//3 16//3 15//1 1//1
f 3//4 17//4 16//3 2//3
f 4//5 18//5 17//4 3//4
f 5//6 19//6 18//5 4//5
f 6//7 20//7 19//6 5//6
f 7//8 21//8 20//7 6//7
f 8//9 22//9 21//8 7//8
f 9//10 23//10 22//9 8//9
f 10//11 24//11 23//10 9//10
f 11//12 25//12 24//11 10//11
f 12//13 26//13 25//12 11//12
f 13//14 27//14 26//13 12//13
f 14//2 28//2 27//14 13//14
f 29//15 43//16 56//8 42//8
f 30//17 44//17 43//16 29//15
f 31//18 45//18 44//17 30//17
f 32//19 46//19 45//18 31//18
f 33//20 47//20 46//19 32//19
f 34//21 48//21 47//20 33//20
f 35//2 49//2 48//21 34//21
f 36//22 50//22 49//2 35//2
f 37//23 51//23 50//22 36//22
f 38//24 52//24 51//23 37//23
f 39//25 53//25 52//24 38//24
f 40//26 54//26 53//25 39//25
f 41//27 55//27 54//26 40//26
f 42//8 56//8 55//27 41//27
f 57//28 71//28 84//8 70//8
f 58//29 72//29 71//28 57//28
f 59//30 73//30 72//29 58//29
f 60//31 74//31 73//30 59//30
f 61//32 75//32 74//31 60//31
f 62//33 76//33 75//32 61//32
f 63//2 77//2 76//33 62//33
f 64//34 78//34 77//2 63//2
f 65//35 79//35 78//34 64//34
f 66//36 80//36 79//35 65//35
f 67//37 81//37 80//36 66//36
f 68//38 82//38 81//37 67//37
f 69//39 83//39 82//38 68//38
f 70//8 84//8 83//39 69//39
f 85//40 99//40 112//2 98//2
f 86//41 100//41 99//40 85//40
f 87//42 101//42 100//41 86//41
f 88//43 102//43 101//42 87//42
f 89//44 103//44 102//43 88//43
f 90//45 104//45 103//44 89//44
f 91//8 105//8 104//45 90//45
f 92//46 106//46 105//8 91//8
f 93//47 107//47 106//46 92//46
f 94//48 108//48 107//47 93//47
f 95//49 109//49 108//48 94//48
f 96//50 110//50 109//49 95//49
f 97//51 111//51 110//50 96//50
f 98//2 112//2 111//51 97//51
f 113//52 127//52 140//8 126//8
f 114//53 128//53 127//52 113//52
f 115//54 129//54 128//53 114//53
f 116//55 130//55 129//54 115//54
f 117//56 131//56 130//55 116//55
f 118//57 132//57 131//56 117//56
f 119//2 133//2 132//57 118//57
f 120//58 134//58 133//2 119//2
f 121//59 135//59 134//58 120//58
f 122//60 136//60 135//59 121//59
f 123//61 137//61 136//60 122//60
f 124//62 138//62 137//61 123//61
f 125//63 139//64 138//62 124//62
f 126//8 140//8 139//64 125//63
f 141//65 155//65 168//2 154//2
f 142//66 156//66 155//65 141//65
f 143//67 157//67 156//66 142//66
f 144//68 158//68 157//67 143//67
f 145//69 159//69 158//68 144//68
f 146//70 160//70 159//69 145//69
f 147//8 161//8 160//70 146//70
f 148//71 162//71 161//8 147//8
f 149//72 163//72 162//71 148//71
f 150//73 164//73 163//72 149//72
f 151//74 165//74 164//73 150//73
f 152//75 166//75 165//74 151//74
f 153//76 167//76 166//75 152//75
f 154//2 168//2 167//76 153//76
f 169//77 183//78 196//2 182//2
f 170//79 184//79 183//78 169//77
f 171//80 185//80 184//79 170//79
f 172//81 186//81 185//80 171//80
f 173//82 187//82 186//81 172//81
f 174//83 188//83 187//82 173//82
f 175//8 189//8 188//83 174//83
f 176//84 190//84 189//8 175//8
f 177//85 191//85 190//84 176//84
f 178//86 192//86 191//85 177//85
f 179//87 193//87 192//86 178//86
f 180//88 194//88 193//87 179//87
f 181//89 195//89 194//88 180//88
f 182//2 196//2 195//89 181//89
f 197//90 211//90 224//2 210//2
f 198//91 212//91 211//90 197//90
f 199//92 213//92 212//91 198//91
f 200//93 214//93 213//92 199//92
f 201//94 215//94 214//93 200//93
f 202//95 216//95 215//94 201//94
f 203//8 217//8 216//95 202//95
f 204//96 218//96 217//8 203//8
f 205//97 219//97 218//96 204//96
f 206//98 220//98 219//97 205//97
f 207//99 221//99 220//98 206//98
f 208//100 222//100 221//99 207//99
f 209//101 223//101 222//100 208//100
f 210//2 224//2 223//101 209//101
f 225//102 239//102 252//2 238//2
f 226//103 240//103 239//102 225//102
f 227//104 241//104 240//103 226//103
f 228//105 242//105 241//104 227//104
f 229//106 243//106 242//105 228//105
f 230//107 244//107 243//106 229//106
f 231//8 245//8 244//107 230//107
f 232//108 246//108 245//8 231//8
f 233//109 247//109 246//108 232//108
f 234//110 248//110 247//109 233//109
f 235//111 249//111 248//110 234//110
f 236//112 250//112 249//111 235//111
f 237//113 251//113 250//112 236//112
f 238//2 252//2 251//113 237//113
f 253//114 267//114 280//8 266//8
f 254//115 268//115 267//114 253//114
f 255//116 269//116 268//115 254//115
f 256//117 270//117 269//116 255//116
f 257//118 271//118 270//117 256//117
f 258//119 272//119 271//118 257//118
f 259//2 273//2 272//119 258//119
f 260//120 274//120 273//2 259//2
f 261//121 275//121 274//120 260//120
f 262//122 276//122 275//121 261//121
f 263//123 277//123 276//122 262//122
f 264//124 278//124 277//123 263//123
f 265//125 279//125 278//124 264//124
f 266//8 280//8 279//125 265//125
f 281//126 295//126 308//2 294//2
f 282//127 296//127 295//126 281//126
f 283//128 297//128 296//127 282//127
f 284//129 298//129 297//128 283//128
f 285//130 299//130 298//129 284//129
f 286//131 300//131 299//130 285//130
f 287//8 301//8 300//131 286//131
f 288//132 302//132 301//8 287//8
f 289//133 303//133 302//132 288//132
f 290//134 304//134 303//133 289//133
f 291//135 305//135 304//134 290//134
f 292//136 306//136 305//135 291//135
f 293//137 307//137 306//136 292//136
f 294//2 308//2 307//137 293//137
f 309//138 323//138 336//8 322//8
f 310//139 324//139 323//138 309//138
f 311//140 325//140 324//139 310//139
f 312//141 326//141 325//140 311//140
f 313//142 327//143 326//141 312//141
f 314//144 328//144 327//143 313//142
f 315//2 329//2 328//144 314//144
f 316//145 330//145 329//2 315//2
f 317//146 331//146 330//145 316//145
f 318//147 332//147 331//146 317//146
f 319//148 333//148 332//147 318//147
f 320//149 334//149 333//148 319//148
f 321//150 335//150 334//149 320//149
f 322//8 336//8 335//150 321//150
f 337//151 351//151 364//8 350//8
f 338//152 352//152 351//151 337//151
f 339//153 353//153 352//152 338//152
f 340//154 354//154 353//153 339//153
f 341//155 355//155 354//154 340//154
f 342//156 356//156 355//155 341//155
f 343//2 357//2 356//156 342//156
f 344//157 358//157 357//2 343//2
f 345//158 359//158 358//157 344//157
f 346//159 360//159 359//158 345//158
f 347//160 361//160 360//159 346//159
f 348//161 362//161 361//160 347//160
f 349//162 363//162 362//161 348//161
f 350//8 364//8 363//162 349//162
f 365//163 379//163 392//2 378//2
f 366//164 380//164 379//163 365//163
f 367//165 381//165 380//164 366//164
f 368//166 382//166 381//165 367//165
f 369//167 383//167 382//166 368//166
f 370//168 384//168 383//167 369//167
f 371//8 385//8 384//168 370//168
f 372//169 386//169 385//8 371//8
f 373//170 387//170 386//169 372//169
f 374//171 388//171 387//170 373//170
f 375//172 389//172 388//171 374//171
f 376//173 390//173 389//172 375//172
f 377//174 391//174 390//173 376//173
f 378//2 392//2 391//174 377//174
f 393//175 407//175 420//8 406//8
f 394//176 408//176 407//175 393//175
f 395//177 409//177 408//176 394//176
f 396//178 410//178 409//177 395//177
f 397//179 411//179 410//178 396//178
f 398//180 412//180 411//179 397//179
f 399//2 413//2 412//180 398//180
f 400//181 414//181 413//2 399//2
f 401//182 415//182 414//181 400//181
f 402//183 416//183 415//182 401//182
f 403//184 417//184 416//183 402//183
f 404//185 418//185 417//184 403//184
f 405//186 419//186 418//185 404//185
f 406//8 420//8 419//186 405//186
