# Blender v2.78 (sub 0) OBJ File: ''
# www.blender.org
o Outputs_of_37076_-_[ADFL.]
v 0.473522 -0.593943 -4.538307
v 0.475945 -0.593697 -4.536365
v 0.477290 -0.593561 -4.533558
v 0.477290 -0.593561 -4.530442
v 0.475945 -0.593697 -4.527636
v 0.473522 -0.593943 -4.525693
v 0.470500 -0.594250 -4.525000
v 0.467478 -0.594557 -4.525693
v 0.465055 -0.594803 -4.527636
v 0.463710 -0.594939 -4.530442
v 0.463710 -0.594939 -4.533558
v 0.465055 -0.594803 -4.536365
v 0.467478 -0.594557 -4.538307
v 0.470500 -0.594250 -4.539000
v 0.476272 -0.621043 -4.538307
v 0.478695 -0.620797 -4.536365
v 0.480040 -0.620661 -4.533558
v 0.480040 -0.620661 -4.530442
v 0.478695 -0.620797 -4.527636
v 0.476272 -0.621043 -4.525693
v 0.473250 -0.621350 -4.525000
v 0.470228 -0.621657 -4.525693
v 0.467805 -0.621903 -4.527636
v 0.466460 -0.622039 -4.530442
v 0.466460 -0.622039 -4.533558
v 0.467805 -0.621903 -4.536365
v 0.470228 -0.621657 -4.538307
v 0.473250 -0.621350 -4.539000
v 0.377876 -0.791809 -4.638807
v 0.379060 -0.789681 -4.636865
v 0.379717 -0.788500 -4.634058
v 0.379717 -0.788500 -4.630942
v 0.379060 -0.789681 -4.628136
v 0.377876 -0.791809 -4.626194
v 0.376399 -0.794463 -4.625500
v 0.374922 -0.797117 -4.626194
v 0.373738 -0.799245 -4.628136
v 0.373081 -0.800426 -4.630942
v 0.373081 -0.800426 -4.634058
v 0.373738 -0.799245 -4.636865
v 0.374922 -0.797117 -4.638807
v 0.376399 -0.794463 -4.639500
v 0.394625 -0.801129 -4.638807
v 0.395809 -0.799001 -4.636865
v 0.396466 -0.797820 -4.634058
v 0.396466 -0.797820 -4.630942
v 0.395809 -0.799001 -4.628136
v 0.394625 -0.801129 -4.626194
v 0.393148 -0.803783 -4.625500
v 0.391671 -0.806437 -4.626194
v 0.390487 -0.808565 -4.628136
v 0.389830 -0.809746 -4.630942
v 0.389830 -0.809746 -4.634058
v 0.390487 -0.808565 -4.636865
v 0.391671 -0.806437 -4.638807
v 0.393148 -0.803783 -4.639500
v 0.348646 -0.978956 -4.652693
v 0.346924 -0.977234 -4.654635
v 0.345968 -0.976278 -4.657442
v 0.345968 -0.976278 -4.660558
v 0.346924 -0.977234 -4.663364
v 0.348646 -0.978956 -4.665307
v 0.350794 -0.981104 -4.666000
v 0.352942 -0.983252 -4.665307
v 0.354664 -0.984974 -4.663364
v 0.355620 -0.985930 -4.660558
v 0.355620 -0.985930 -4.657442
v 0.354664 -0.984974 -4.654635
v 0.352942 -0.983252 -4.652693
v 0.350794 -0.981104 -4.652000
v 0.340896 -0.986706 -4.652693
v 0.339174 -0.984984 -4.654635
v 0.338218 -0.984028 -4.657442
v 0.338218 -0.984028 -4.660558
v 0.339174 -0.984984 -4.663364
v 0.340896 -0.986706 -4.665307
v 0.343044 -0.988854 -4.666000
v 0.345192 -0.991002 -4.665307
v 0.346914 -0.992724 -4.663364
v 0.347870 -0.993680 -4.660558
v 0.347870 -0.993680 -4.657442
v 0.346914 -0.992724 -4.654635
v 0.345192 -0.991002 -4.652693
v 0.343044 -0.988854 -4.652000
v 0.497814 -1.178030 -4.820307
v 0.496582 -1.175929 -4.818365
v 0.495899 -1.174762 -4.815558
v 0.495899 -1.174762 -4.812442
v 0.496582 -1.175929 -4.809636
v 0.497814 -1.178030 -4.807693
v 0.499350 -1.180650 -4.807000
v 0.500886 -1.183270 -4.807693
v 0.502118 -1.185371 -4.809636
v 0.502801 -1.186538 -4.812442
v 0.502801 -1.186538 -4.815558
v 0.502118 -1.185371 -4.818365
v 0.500886 -1.183270 -4.820307
v 0.499350 -1.180650 -4.821000
v 0.505064 -1.173780 -4.820307
v 0.503832 -1.171679 -4.818365
v 0.503149 -1.170512 -4.815558
v 0.503149 -1.170512 -4.812442
v 0.503832 -1.171679 -4.809636
v 0.505064 -1.173780 -4.807693
v 0.506600 -1.176400 -4.807000
v 0.508136 -1.179020 -4.807693
v 0.509368 -1.181121 -4.809636
v 0.510051 -1.182287 -4.812442
v 0.510051 -1.182287 -4.815558
v 0.509368 -1.181121 -4.818365
v 0.508136 -1.179020 -4.820307
v 0.506600 -1.176400 -4.821000
v 0.694770 -0.482113 -4.474807
v 0.696110 -0.480079 -4.472865
v 0.696853 -0.478950 -4.470058
v 0.696853 -0.478950 -4.466942
v 0.696110 -0.480079 -4.464136
v 0.694770 -0.482113 -4.462193
v 0.693100 -0.484650 -4.461500
v 0.691430 -0.487187 -4.462193
v 0.690090 -0.489221 -4.464136
v 0.689347 -0.490350 -4.466942
v 0.689347 -0.490350 -4.470058
v 0.690090 -0.489221 -4.472865
v 0.691430 -0.487187 -4.474807
v 0.693100 -0.484650 -4.475500
v 0.705020 -0.488863 -4.474807
v 0.706360 -0.486829 -4.472865
v 0.707103 -0.485700 -4.470058
v 0.707103 -0.485700 -4.466942
v 0.706360 -0.486829 -4.464136
v 0.705020 -0.488863 -4.462193
v 0.703350 -0.491400 -4.461500
v 0.701680 -0.493937 -4.462193
v 0.700340 -0.495971 -4.464136
v 0.699597 -0.497100 -4.466942
v 0.699597 -0.497100 -4.470058
v 0.700340 -0.495971 -4.472865
v 0.701680 -0.493937 -4.474807
v 0.703350 -0.491400 -4.475500
v 0.410103 -1.118210 -4.727307
v 0.412392 -1.117376 -4.725365
v 0.413662 -1.116913 -4.722558
v 0.413662 -1.116913 -4.719442
v 0.412392 -1.117376 -4.716636
v 0.410103 -1.118210 -4.714694
v 0.407250 -1.119250 -4.714000
v 0.404396 -1.120290 -4.714694
v 0.402108 -1.121125 -4.716636
v 0.400838 -1.121587 -4.719442
v 0.400838 -1.121587 -4.722558
v 0.402108 -1.121125 -4.725365
v 0.404397 -1.120290 -4.727307
v 0.407250 -1.119250 -4.728000
v 0.419716 -1.144580 -4.727307
v 0.422005 -1.143746 -4.725365
v 0.423275 -1.143283 -4.722558
v 0.423275 -1.143283 -4.719442
v 0.422005 -1.143746 -4.716636
v 0.419716 -1.144580 -4.714694
v 0.416863 -1.145620 -4.714000
v 0.414010 -1.146660 -4.714694
v 0.411721 -1.147494 -4.716636
v 0.410451 -1.147957 -4.719442
v 0.410451 -1.147957 -4.722558
v 0.411721 -1.147494 -4.725365
v 0.414010 -1.146660 -4.727307
v 0.416863 -1.145620 -4.728000
vn 0.4317 0.0438 -0.9010
vn 0.0000 0.0000 -1.0000
vn 0.7778 0.0789 -0.6235
vn 0.9699 0.0984 -0.2225
vn 0.9699 0.0984 0.2225
vn 0.7778 0.0789 0.6235
vn 0.4317 0.0438 0.9010
vn 0.0000 0.0000 1.0000
vn -0.4317 -0.0438 0.9010
vn -0.7778 -0.0789 0.6235
vn -0.9699 -0.0984 0.2225
vn -0.9699 -0.0984 -0.2225
vn -0.7778 -0.0789 -0.6235
vn -0.4317 -0.0438 -0.9010
vn 0.2110 0.3791 -0.9010
vn 0.3801 0.6832 -0.6235
vn 0.4740 0.8519 -0.2225
vn 0.4740 0.8519 0.2225
vn 0.3801 0.6832 0.6235
vn 0.2110 0.3791 0.9010
vn -0.2110 -0.3791 0.9009
vn -0.3801 -0.6832 0.6235
vn -0.4740 -0.8519 0.2225
vn -0.4740 -0.8519 -0.2225
vn -0.3801 -0.6832 -0.6235
vn -0.2110 -0.3791 -0.9010
vn -0.3068 0.3068 0.9009
vn -0.5528 0.5528 0.6235
vn -0.6894 0.6894 0.2225
vn -0.6894 0.6894 -0.2225
vn -0.5528 0.5528 -0.6235
vn -0.3069 0.3068 -0.9009
vn 0.3068 -0.3068 -0.9009
vn 0.5528 -0.5528 -0.6235
vn 0.6894 -0.6894 -0.2225
vn 0.6894 -0.6894 0.2225
vn 0.5528 -0.5528 0.6235
vn 0.3068 -0.3068 0.9010
vn -0.2195 0.3743 -0.9009
vn -0.0001 0.0000 -1.0000
vn -0.3954 0.6744 -0.6235
vn -0.4930 0.8411 -0.2225
vn -0.4930 0.8411 0.2225
vn -0.3953 0.6745 0.6235
vn -0.2194 0.3743 0.9010
vn 0.2194 -0.3743 0.9010
vn 0.3953 -0.6745 0.6235
vn 0.4930 -0.8411 0.2225
vn 0.4930 -0.8411 -0.2225
vn 0.3953 -0.6745 -0.6235
vn 0.2194 -0.3743 -0.9010
vn 0.2386 0.3623 -0.9010
vn 0.4300 0.6529 -0.6235
vn 0.5362 0.8142 -0.2225
vn 0.5362 0.8142 0.2225
vn 0.4300 0.6529 0.6235
vn 0.2386 0.3623 0.9010
vn -0.2387 -0.3623 0.9009
vn -0.4300 -0.6529 0.6235
vn -0.5362 -0.8142 0.2225
vn -0.5362 -0.8142 -0.2225
vn -0.4300 -0.6529 -0.6235
vn -0.2386 -0.3623 -0.9010
vn 0.4076 0.1486 -0.9010
vn 0.7345 0.2677 -0.6235
vn 0.9160 0.3339 -0.2225
vn 0.9160 0.3339 0.2225
vn 0.7345 0.2677 0.6235
vn 0.4076 0.1486 0.9010
vn -0.4076 -0.1486 0.9010
vn -0.7345 -0.2677 0.6235
vn -0.9160 -0.3339 0.2225
vn -0.9160 -0.3339 -0.2225
vn -0.7345 -0.2677 -0.6235
vn -0.4076 -0.1486 -0.9010
s 1
f 1//1 15//1 28//2 14//2
f 2//3 16//3 15//1 1//1
f 3//4 17//4 16//3 2//3
f 4//5 18//5 17//4 3//4
f 5//6 19//6 18//5 4//5
f 6//7 20//7 19//6 5//6
f 7//8 21//8 20//7 6//7
f 8//9 22//9 21//8 7//8
f 9//10 23//10 22//9 8//9
f 10//11 24//11 23//10 9//10
f 11//12 25//12 24//11 10//11
f 12//13 26//13 25//12 11//12
f 13//14 27//14 26//13 12//13
f 14//2 28//2 27//14 13//14
f 29//15 43//15 56//2 42//2
f 30//16 44//16 43//15 29//15
f 31//17 45//17 44//16 30//16
f 32//18 46//18 45//17 31//17
f 33//19 47//19 46//18 32//18
f 34//20 48//20 47//19 33//19
f 35//8 49//8 48//20 34//20
f 36//21 50//21 49//8 35//8
f 37//22 51//22 50//21 36//21
f 38//23 52//23 51//22 37//22
f 39//24 53//24 52//23 38//23
f 40//25 54//25 53//24 39//24
f 41//26 55//26 54//25 40//25
f 42//2 56//2 55//26 41//26
f 57//27 71//27 84//8 70//8
f 58//28 72//28 71//27 57//27
f 59//29 73//29 72//28 58//28
f 60//30 74//30 73//29 59//29
f 61//31 75//31 74//30 60//30
f 62//32 76//32 75//31 61//31
f 63//2 77//2 76//32 62//32
f 64//33 78//33 77//2 63//2
f 65//34 79//34 78//33 64//33
f 66//35 80//35 79//34 65//34
f 67//36 81//36 80//35 66//35
f 68//37 82//37 81//36 67//36
f 69//38 83//38 82//37 68//37
f 70//8 84//8 83//38 69//38
f 85//39 99//39 112//40 98//40
f 86//41 100//41 99//39 85//39
f 87//42 101//42 100//41 86//41
f 88//43 102//43 101//42 87//42
f 89//44 103//44 102//43 88//43
f 90//45 104//45 103//44 89//44
f 91//8 105//8 104//45 90//45
f 92//46 106//46 105//8 91//8
f 93//47 107//47 106//46 92//46
f 94//48 108//48 107//47 93//47
f 95//49 109//49 108//48 94//48
f 96//50 110//50 109//49 95//49
f 97//51 111//51 110//50 96//50
f 98//40 112//40 111//51 97//51
f 113//52 127//52 140//2 126//2
f 114//53 128//53 127//52 113//52
f 115//54 129//54 128//53 114//53
f 116//55 130//55 129//54 115//54
f 117//56 131//56 130//55 116//55
f 118//57 132//57 131//56 117//56
f 119//8 133//8 132//57 118//57
f 120//58 134//58 133//8 119//8
f 121//59 135//59 134//58 120//58
f 122//60 136//60 135//59 121//59
f 123//61 137//61 136//60 122//60
f 124//62 138//62 137//61 123//61
f 125//63 139//63 138//62 124//62
f 126//2 140//2 139//63 125//63
f 141//64 155//64 168//2 154//2
f 142//65 156//65 155//64 141//64
f 143//66 157//66 156//65 142//65
f 144//67 158//67 157//66 143//66
f 145//68 159//68 158//67 144//67
f 146//69 160//69 159//68 145//68
f 147//8 161//8 160//69 146//69
f 148//70 162//70 161//8 147//8
f 149//71 163//71 162//70 148//70
f 150//72 164//72 163//71 149//71
f 151//73 165//73 164//72 150//72
f 152//74 166//74 165//73 151//73
f 153//75 167//75 166//74 152//74
f 154//2 168//2 167//75 153//75
