# Blender v2.78 (sub 0) OBJ File: ''
# www.blender.org
o Outputs_of_27769_-_RMDL.
v 0.910155 -0.884855 -4.509693
v 0.910561 -0.882453 -4.511635
v 0.910786 -0.881121 -4.514442
v 0.910786 -0.881121 -4.517558
v 0.910561 -0.882453 -4.520364
v 0.910155 -0.884855 -4.522306
v 0.909650 -0.887850 -4.523000
v 0.909145 -0.890845 -4.522306
v 0.908739 -0.893247 -4.520364
v 0.908514 -0.894579 -4.517558
v 0.908514 -0.894579 -4.514442
v 0.908739 -0.893247 -4.511635
v 0.909145 -0.890845 -4.509693
v 0.909650 -0.887850 -4.509000
v 0.878155 -0.879455 -4.509693
v 0.878561 -0.877053 -4.511635
v 0.878786 -0.875721 -4.514442
v 0.878786 -0.875721 -4.517558
v 0.878561 -0.877053 -4.520364
v 0.878155 -0.879455 -4.522306
v 0.877650 -0.882450 -4.523000
v 0.877145 -0.885445 -4.522306
v 0.876739 -0.887847 -4.520364
v 0.876514 -0.889179 -4.517558
v 0.876514 -0.889179 -4.514442
v 0.876739 -0.887847 -4.511635
v 0.877145 -0.885445 -4.509693
v 0.877650 -0.882450 -4.509000
v 0.989488 -0.841487 -4.459693
v 0.987273 -0.840474 -4.461636
v 0.986044 -0.839912 -4.464442
v 0.986044 -0.839912 -4.467558
v 0.987273 -0.840474 -4.470365
v 0.989488 -0.841487 -4.472307
v 0.992250 -0.842750 -4.473000
v 0.995012 -0.844013 -4.472307
v 0.997227 -0.845026 -4.470365
v 0.998456 -0.845588 -4.467558
v 0.998456 -0.845588 -4.464442
v 0.997227 -0.845026 -4.461636
v 0.995012 -0.844013 -4.459693
v 0.992250 -0.842750 -4.459000
v 0.966738 -0.891237 -4.459693
v 0.964523 -0.890224 -4.461636
v 0.963294 -0.889662 -4.464442
v 0.963294 -0.889662 -4.467558
v 0.964523 -0.890224 -4.470365
v 0.966738 -0.891237 -4.472307
v 0.969500 -0.892500 -4.473000
v 0.972262 -0.893763 -4.472307
v 0.974477 -0.894776 -4.470365
v 0.975706 -0.895338 -4.467558
v 0.975706 -0.895338 -4.464442
v 0.974477 -0.894776 -4.461636
v 0.972262 -0.893763 -4.459693
v 0.969500 -0.892500 -4.459000
v 0.900306 -1.041523 -4.509306
v 0.902155 -1.039938 -4.507364
v 0.903182 -1.039059 -4.504558
v 0.903182 -1.039059 -4.501442
v 0.902155 -1.039938 -4.498635
v 0.900306 -1.041523 -4.496693
v 0.898000 -1.043500 -4.496000
v 0.895694 -1.045477 -4.496693
v 0.893845 -1.047062 -4.498635
v 0.892818 -1.047941 -4.501442
v 0.892818 -1.047941 -4.504558
v 0.893845 -1.047062 -4.507364
v 0.895694 -1.045477 -4.509306
v 0.898000 -1.043500 -4.510000
v 0.910506 -1.053423 -4.509306
v 0.912355 -1.051838 -4.507364
v 0.913382 -1.050959 -4.504558
v 0.913382 -1.050959 -4.501442
v 0.912355 -1.051838 -4.498635
v 0.910506 -1.053423 -4.496693
v 0.908200 -1.055400 -4.496000
v 0.905894 -1.057377 -4.496693
v 0.904045 -1.058962 -4.498635
v 0.903018 -1.059841 -4.501442
v 0.903018 -1.059841 -4.504558
v 0.904045 -1.058962 -4.507364
v 0.905894 -1.057377 -4.509306
v 0.908200 -1.055400 -4.510000
v 1.017686 -0.836642 -4.370693
v 1.020080 -0.836194 -4.372635
v 1.021408 -0.835946 -4.375442
v 1.021408 -0.835946 -4.378558
v 1.020080 -0.836194 -4.381364
v 1.017686 -0.836642 -4.383307
v 1.014700 -0.837200 -4.384000
v 1.011715 -0.837758 -4.383307
v 1.009320 -0.838206 -4.381364
v 1.007992 -0.838454 -4.378558
v 1.007992 -0.838454 -4.375442
v 1.009320 -0.838206 -4.372635
v 1.011715 -0.837758 -4.370693
v 1.014700 -0.837200 -4.370000
v 1.014235 -0.818192 -4.370693
v 1.016630 -0.817744 -4.372635
v 1.017958 -0.817496 -4.375442
v 1.017958 -0.817496 -4.378558
v 1.016630 -0.817744 -4.381364
v 1.014235 -0.818192 -4.383307
v 1.011250 -0.818750 -4.384000
v 1.008265 -0.819308 -4.383307
v 1.005870 -0.819756 -4.381364
v 1.004542 -0.820004 -4.378558
v 1.004542 -0.820004 -4.375442
v 1.005870 -0.819756 -4.372635
v 1.008265 -0.819308 -4.370693
v 1.011250 -0.818750 -4.370000
v 1.035160 -0.926445 -4.409194
v 1.037004 -0.924854 -4.411136
v 1.038027 -0.923971 -4.413942
v 1.038027 -0.923971 -4.417058
v 1.037004 -0.924854 -4.419865
v 1.035160 -0.926445 -4.421807
v 1.032860 -0.928429 -4.422500
v 1.030560 -0.930413 -4.421807
v 1.028716 -0.932004 -4.419865
v 1.027693 -0.932887 -4.417058
v 1.027693 -0.932887 -4.413942
v 1.028716 -0.932004 -4.411136
v 1.030560 -0.930413 -4.409194
v 1.032860 -0.928429 -4.408500
v 1.013160 -0.900945 -4.409194
v 1.015004 -0.899354 -4.411136
v 1.016027 -0.898471 -4.413942
v 1.016027 -0.898471 -4.417058
v 1.015004 -0.899354 -4.419865
v 1.013160 -0.900945 -4.421807
v 1.010860 -0.902929 -4.422500
v 1.008560 -0.904913 -4.421807
v 1.006716 -0.906504 -4.419865
v 1.005693 -0.907387 -4.417058
v 1.005693 -0.907387 -4.413942
v 1.006716 -0.906504 -4.411136
v 1.008560 -0.904913 -4.409194
v 1.010860 -0.902929 -4.408500
vn 0.0722 0.4278 0.9010
vn 0.0000 0.0000 1.0000
vn 0.1301 0.7709 0.6235
vn 0.1622 0.9613 0.2225
vn 0.1622 0.9613 -0.2225
vn 0.1301 0.7709 -0.6235
vn 0.0722 0.4278 -0.9010
vn 0.0000 0.0000 -1.0000
vn -0.0722 -0.4278 -0.9010
vn -0.1301 -0.7709 -0.6235
vn -0.1622 -0.9613 -0.2225
vn -0.1622 -0.9613 0.2225
vn -0.1301 -0.7709 0.6235
vn -0.0722 -0.4278 0.9010
vn -0.3946 0.1804 0.9010
vn -0.7110 0.3251 0.6235
vn -0.8866 0.4054 0.2225
vn -0.8866 0.4054 -0.2225
vn -0.7110 0.3251 -0.6235
vn -0.3946 0.1804 -0.9010
vn 0.3946 -0.1804 -0.9010
vn 0.7110 -0.3251 -0.6235
vn 0.8866 -0.4054 -0.2225
vn 0.8866 -0.4054 0.2225
vn 0.7110 -0.3251 0.6235
vn 0.3946 -0.1804 0.9010
vn 0.3294 0.2824 -0.9009
vn 0.5935 0.5088 -0.6235
vn 0.7402 0.6345 -0.2225
vn 0.7402 0.6344 0.2225
vn 0.5936 0.5088 0.6235
vn 0.3294 0.2824 0.9009
vn -0.3294 -0.2824 0.9010
vn -0.5936 -0.5088 0.6235
vn -0.7402 -0.6344 0.2225
vn -0.7402 -0.6344 -0.2225
vn -0.5936 -0.5088 -0.6235
vn -0.3294 -0.2824 -0.9009
vn -0.3294 -0.2824 -0.9010
vn 0.4265 0.0797 0.9010
vn 0.7685 0.1437 0.6235
vn 0.9583 0.1792 0.2225
vn 0.9583 0.1792 -0.2225
vn 0.7685 0.1437 -0.6235
vn 0.4265 0.0797 -0.9010
vn -0.4265 -0.0797 -0.9010
vn -0.7685 -0.1437 -0.6235
vn -0.9583 -0.1792 -0.2225
vn -0.9583 -0.1792 0.2225
vn -0.7685 -0.1437 0.6235
vn -0.4265 -0.0797 0.9010
vn 0.3285 0.2834 0.9010
vn 0.5919 0.5107 0.6235
vn 0.7382 0.6368 0.2225
vn 0.7382 0.6368 -0.2225
vn 0.5919 0.5107 -0.6235
vn 0.3285 0.2834 -0.9010
vn -0.3285 -0.2834 -0.9010
vn -0.5919 -0.5107 -0.6235
vn -0.7382 -0.6368 -0.2225
vn -0.7382 -0.6368 0.2225
vn -0.5919 -0.5107 0.6235
vn -0.3285 -0.2834 0.9010
s 1
f 1//1 15//1 28//2 14//2
f 2//3 16//3 15//1 1//1
f 3//4 17//4 16//3 2//3
f 4//5 18//5 17//4 3//4
f 5//6 19//6 18//5 4//5
f 6//7 20//7 19//6 5//6
f 7//8 21//8 20//7 6//7
f 8//9 22//9 21//8 7//8
f 9//10 23//10 22//9 8//9
f 10//11 24//11 23//10 9//10
f 11//12 25//12 24//11 10//11
f 12//13 26//13 25//12 11//12
f 13//14 27//14 26//13 12//13
f 14//2 28//2 27//14 13//14
f 29//15 43//15 56//2 42//2
f 30//16 44//16 43//15 29//15
f 31//17 45//17 44//16 30//16
f 32//18 46//18 45//17 31//17
f 33//19 47//19 46//18 32//18
f 34//20 48//20 47//19 33//19
f 35//8 49//8 48//20 34//20
f 36//21 50//21 49//8 35//8
f 37//22 51//22 50//21 36//21
f 38//23 52//23 51//22 37//22
f 39//24 53//24 52//23 38//23
f 40//25 54//25 53//24 39//24
f 41//26 55//26 54//25 40//25
f 42//2 56//2 55//26 41//26
f 57//27 71//27 84//8 70//8
f 58//28 72//28 71//27 57//27
f 59//29 73//29 72//28 58//28
f 60//30 74//30 73//29 59//29
f 61//31 75//31 74//30 60//30
f 62//32 76//32 75//31 61//31
f 63//2 77//2 76//32 62//32
f 64//33 78//33 77//2 63//2
f 65//34 79//34 78//33 64//33
f 66//35 80//35 79//34 65//34
f 67//36 81//36 80//35 66//35
f 68//37 82//37 81//36 67//36
f 69//38 83//39 82//37 68//37
f 70//8 84//8 83//39 69//38
f 85//40 99//40 112//2 98//2
f 86//41 100//41 99//40 85//40
f 87//42 101//42 100//41 86//41
f 88//43 102//43 101//42 87//42
f 89//44 103//44 102//43 88//43
f 90//45 104//45 103//44 89//44
f 91//8 105//8 104//45 90//45
f 92//46 106//46 105//8 91//8
f 93//47 107//47 106//46 92//46
f 94//48 108//48 107//47 93//47
f 95//49 109//49 108//48 94//48
f 96//50 110//50 109//49 95//49
f 97//51 111//51 110//50 96//50
f 98//2 112//2 111//51 97//51
f 113//52 127//52 140//2 126//2
f 114//53 128//53 127//52 113//52
f 115//54 129//54 128//53 114//53
f 116//55 130//55 129//54 115//54
f 117//56 131//56 130//55 116//55
f 118//57 132//57 131//56 117//56
f 119//8 133//8 132//57 118//57
f 120//58 134//58 133//8 119//8
f 121//59 135//59 134//58 120//58
f 122//60 136//60 135//59 121//59
f 123//61 137//61 136//60 122//60
f 124//62 138//62 137//61 123//61
f 125//63 139//63 138//62 124//62
f 126//2 140//2 139//63 125//63
