# Blender v2.78 (sub 0) OBJ File: ''
# www.blender.org
mtllib Outputs of 54292 - AWAR.mtl
o Outputs_of_54292_-_[AWAR.]
v 0.721797 -1.269265 -4.930807
v 0.721143 -1.266919 -4.928864
v 0.720779 -1.265617 -4.926058
v 0.720779 -1.265617 -4.922942
v 0.721143 -1.266919 -4.920135
v 0.721797 -1.269265 -4.918193
v 0.722614 -1.272190 -4.917500
v 0.723431 -1.275115 -4.918193
v 0.724085 -1.277461 -4.920135
v 0.724449 -1.278763 -4.922942
v 0.724449 -1.278763 -4.926058
v 0.724085 -1.277461 -4.928864
v 0.723431 -1.275115 -4.930807
v 0.722614 -1.272190 -4.931500
v 0.741858 -1.263665 -4.930807
v 0.741204 -1.261319 -4.928864
v 0.740840 -1.260017 -4.926058
v 0.740840 -1.260017 -4.922942
v 0.741204 -1.261319 -4.920135
v 0.741858 -1.263665 -4.918193
v 0.742675 -1.266590 -4.917500
v 0.743492 -1.269515 -4.918193
v 0.744146 -1.271861 -4.920135
v 0.744510 -1.273163 -4.922942
v 0.744510 -1.273163 -4.926058
v 0.744146 -1.271861 -4.928864
v 0.743492 -1.269515 -4.930807
v 0.742675 -1.266590 -4.931500
v 0.716239 -1.293770 -4.956693
v 0.714568 -1.291997 -4.958635
v 0.713641 -1.291014 -4.961442
v 0.713641 -1.291014 -4.964558
v 0.714568 -1.291997 -4.967364
v 0.716239 -1.293770 -4.969306
v 0.718322 -1.295980 -4.970000
v 0.720405 -1.298190 -4.969306
v 0.722076 -1.299963 -4.967364
v 0.723003 -1.300946 -4.964558
v 0.723003 -1.300946 -4.961442
v 0.722076 -1.299963 -4.958635
v 0.720405 -1.298190 -4.956693
v 0.718322 -1.295980 -4.956000
v 0.710117 -1.299540 -4.956693
v 0.708446 -1.297767 -4.958635
v 0.707519 -1.296784 -4.961442
v 0.707519 -1.296784 -4.964558
v 0.708446 -1.297767 -4.967364
v 0.710117 -1.299540 -4.969306
v 0.712200 -1.301750 -4.970000
v 0.714283 -1.303960 -4.969306
v 0.715954 -1.305733 -4.967364
v 0.716881 -1.306716 -4.964558
v 0.716881 -1.306716 -4.961442
v 0.715954 -1.305733 -4.958635
v 0.714283 -1.303960 -4.956693
v 0.712200 -1.301750 -4.956000
v 0.967676 -0.789907 -4.669693
v 0.965491 -0.788831 -4.671636
v 0.964279 -0.788233 -4.674442
v 0.964279 -0.788233 -4.677558
v 0.965491 -0.788831 -4.680365
v 0.967676 -0.789907 -4.682307
v 0.970400 -0.791250 -4.683000
v 0.973124 -0.792593 -4.682307
v 0.975309 -0.793669 -4.680365
v 0.976521 -0.794267 -4.677558
v 0.976521 -0.794267 -4.674442
v 0.975309 -0.793669 -4.671636
v 0.973124 -0.792593 -4.669693
v 0.970400 -0.791250 -4.669000
v 0.964226 -0.796907 -4.669693
v 0.962041 -0.795831 -4.671636
v 0.960829 -0.795233 -4.674442
v 0.960829 -0.795233 -4.677558
v 0.962041 -0.795831 -4.680365
v 0.964226 -0.796907 -4.682307
v 0.966950 -0.798250 -4.683000
v 0.969674 -0.799593 -4.682307
v 0.971859 -0.800669 -4.680365
v 0.973071 -0.801267 -4.677558
v 0.973071 -0.801267 -4.674442
v 0.971859 -0.800669 -4.671636
v 0.969674 -0.799593 -4.669693
v 0.966950 -0.798250 -4.669000
v 0.726838 -1.267234 -4.913693
v 0.726548 -1.264816 -4.915636
v 0.726387 -1.263474 -4.918442
v 0.726387 -1.263474 -4.921558
v 0.726548 -1.264816 -4.924365
v 0.726838 -1.267234 -4.926307
v 0.727200 -1.270250 -4.927000
v 0.727562 -1.273265 -4.926307
v 0.727852 -1.275684 -4.924365
v 0.728013 -1.277026 -4.921558
v 0.728013 -1.277026 -4.918442
v 0.727852 -1.275684 -4.915636
v 0.727562 -1.273265 -4.913693
v 0.727200 -1.270250 -4.913000
v 0.714338 -1.268734 -4.913693
v 0.714048 -1.266316 -4.915636
v 0.713887 -1.264974 -4.918442
v 0.713887 -1.264974 -4.921558
v 0.714048 -1.266316 -4.924365
v 0.714338 -1.268734 -4.926307
v 0.714700 -1.271750 -4.927000
v 0.715062 -1.274765 -4.926307
v 0.715352 -1.277184 -4.924365
v 0.715513 -1.278526 -4.921558
v 0.715513 -1.278526 -4.918442
v 0.715352 -1.277184 -4.915636
v 0.715062 -1.274765 -4.913693
v 0.714700 -1.271750 -4.913000
v 0.971697 -0.649141 -4.584693
v 0.973752 -0.647832 -4.586636
v 0.974892 -0.647106 -4.589442
v 0.974892 -0.647106 -4.592558
v 0.973752 -0.647832 -4.595365
v 0.971697 -0.649141 -4.597307
v 0.969136 -0.650773 -4.598000
v 0.966575 -0.652405 -4.597307
v 0.964520 -0.653714 -4.595365
v 0.963380 -0.654440 -4.592558
v 0.963380 -0.654440 -4.589442
v 0.964520 -0.653714 -4.586636
v 0.966575 -0.652405 -4.584693
v 0.969136 -0.650773 -4.584000
v 0.965311 -0.639118 -4.584693
v 0.967366 -0.637809 -4.586636
v 0.968506 -0.637083 -4.589442
v 0.968506 -0.637083 -4.592558
v 0.967366 -0.637809 -4.595365
v 0.965311 -0.639118 -4.597307
v 0.962750 -0.640750 -4.598000
v 0.960189 -0.642382 -4.597307
v 0.958134 -0.643691 -4.595365
v 0.956994 -0.644417 -4.592558
v 0.956994 -0.644417 -4.589442
v 0.958134 -0.643691 -4.586636
v 0.960189 -0.642382 -4.584693
v 0.962750 -0.640750 -4.584000
v 0.728927 -1.264278 -4.886307
v 0.726657 -1.263395 -4.884365
v 0.725397 -1.262905 -4.881558
v 0.725397 -1.262905 -4.878442
v 0.726657 -1.263395 -4.875636
v 0.728927 -1.264278 -4.873693
v 0.731757 -1.265380 -4.873000
v 0.734587 -1.266482 -4.873693
v 0.736857 -1.267365 -4.875636
v 0.738117 -1.267856 -4.878442
v 0.738117 -1.267856 -4.881558
v 0.736857 -1.267365 -4.884365
v 0.734587 -1.266482 -4.886307
v 0.731757 -1.265380 -4.887000
v 0.732870 -1.254148 -4.886307
v 0.730600 -1.253265 -4.884365
v 0.729340 -1.252774 -4.881558
v 0.729340 -1.252774 -4.878442
v 0.730600 -1.253265 -4.875636
v 0.732870 -1.254148 -4.873693
v 0.735700 -1.255250 -4.873000
v 0.738530 -1.256352 -4.873693
v 0.740800 -1.257235 -4.875636
v 0.742060 -1.257725 -4.878442
v 0.742060 -1.257725 -4.881558
v 0.740800 -1.257235 -4.884365
v 0.738530 -1.256352 -4.886307
v 0.735700 -1.255250 -4.887000
v 0.896744 -1.114054 -4.723693
v 0.894373 -1.113497 -4.725636
v 0.893057 -1.113187 -4.728442
v 0.893057 -1.113187 -4.731558
v 0.894373 -1.113497 -4.734365
v 0.896744 -1.114054 -4.736307
v 0.899700 -1.114750 -4.737000
v 0.902656 -1.115446 -4.736307
v 0.905027 -1.116004 -4.734365
v 0.906343 -1.116313 -4.731558
v 0.906343 -1.116313 -4.728442
v 0.905027 -1.116004 -4.725636
v 0.902656 -1.115446 -4.723693
v 0.899700 -1.114750 -4.723000
v 0.892744 -1.131054 -4.723693
v 0.890373 -1.130497 -4.725636
v 0.889057 -1.130187 -4.728442
v 0.889057 -1.130187 -4.731558
v 0.890373 -1.130497 -4.734365
v 0.892744 -1.131054 -4.736307
v 0.895700 -1.131750 -4.737000
v 0.898656 -1.132446 -4.736307
v 0.901027 -1.133003 -4.734365
v 0.902343 -1.133313 -4.731558
v 0.902343 -1.133313 -4.728442
v 0.901027 -1.133003 -4.725636
v 0.898656 -1.132446 -4.723693
v 0.895700 -1.131750 -4.723000
v 0.962875 -1.045177 -4.706807
v 0.965208 -1.044477 -4.704865
v 0.966503 -1.044089 -4.702058
v 0.966503 -1.044089 -4.698942
v 0.965208 -1.044477 -4.696136
v 0.962875 -1.045177 -4.694193
v 0.959966 -1.046050 -4.693500
v 0.957057 -1.046923 -4.694193
v 0.954724 -1.047623 -4.696136
v 0.953429 -1.048011 -4.698942
v 0.953429 -1.048011 -4.702058
v 0.954724 -1.047623 -4.704865
v 0.957057 -1.046923 -4.706807
v 0.959966 -1.046050 -4.707500
v 0.965875 -1.055177 -4.706807
v 0.968208 -1.054477 -4.704865
v 0.969503 -1.054089 -4.702058
v 0.969503 -1.054089 -4.698942
v 0.968208 -1.054477 -4.696136
v 0.965875 -1.055177 -4.694193
v 0.962966 -1.056050 -4.693500
v 0.960057 -1.056923 -4.694193
v 0.957724 -1.057623 -4.696136
v 0.956429 -1.058011 -4.698942
v 0.956429 -1.058011 -4.702058
v 0.957724 -1.057623 -4.704865
v 0.960057 -1.056923 -4.706807
v 0.962966 -1.056050 -4.707500
v 1.011832 -0.933065 -4.668807
v 1.013598 -0.931388 -4.666864
v 1.014578 -0.930457 -4.664058
v 1.014578 -0.930457 -4.660942
v 1.013598 -0.931388 -4.658135
v 1.011832 -0.933065 -4.656193
v 1.009630 -0.935157 -4.655500
v 1.007428 -0.937249 -4.656193
v 1.005662 -0.938926 -4.658135
v 1.004682 -0.939857 -4.660942
v 1.004682 -0.939857 -4.664058
v 1.005662 -0.938926 -4.666864
v 1.007428 -0.937249 -4.668807
v 1.009630 -0.935157 -4.669500
v 1.040652 -0.963408 -4.668807
v 1.042418 -0.961731 -4.666864
v 1.043398 -0.960800 -4.664058
v 1.043398 -0.960800 -4.660942
v 1.042418 -0.961731 -4.658135
v 1.040652 -0.963408 -4.656193
v 1.038450 -0.965500 -4.655500
v 1.036248 -0.967592 -4.656193
v 1.034482 -0.969269 -4.658135
v 1.033502 -0.970200 -4.660942
v 1.033502 -0.970200 -4.664058
v 1.034482 -0.969269 -4.666864
v 1.036248 -0.967592 -4.668807
v 1.038450 -0.965500 -4.669500
v 1.020348 -0.989602 -4.676307
v 1.022070 -0.987880 -4.674365
v 1.023026 -0.986924 -4.671558
v 1.023026 -0.986924 -4.668442
v 1.022070 -0.987880 -4.665636
v 1.020348 -0.989602 -4.663693
v 1.018200 -0.991750 -4.663000
v 1.016052 -0.993898 -4.663693
v 1.014330 -0.995620 -4.665636
v 1.013374 -0.996576 -4.668442
v 1.013374 -0.996576 -4.671558
v 1.014330 -0.995620 -4.674365
v 1.016052 -0.993898 -4.676307
v 1.018200 -0.991750 -4.677000
v 1.031348 -1.000602 -4.676307
v 1.033070 -0.998880 -4.674365
v 1.034026 -0.997924 -4.671558
v 1.034026 -0.997924 -4.668442
v 1.033070 -0.998880 -4.665636
v 1.031348 -1.000602 -4.663693
v 1.029200 -1.002750 -4.663000
v 1.027052 -1.004898 -4.663693
v 1.025330 -1.006620 -4.665636
v 1.024374 -1.007576 -4.668442
v 1.024374 -1.007576 -4.671558
v 1.025330 -1.006620 -4.674365
v 1.027052 -1.004898 -4.676307
v 1.029200 -1.002750 -4.677000
v 0.872772 -1.171311 -4.753307
v 0.873473 -1.168978 -4.751365
v 0.873861 -1.167684 -4.748558
v 0.873861 -1.167684 -4.745442
v 0.873473 -1.168978 -4.742636
v 0.872772 -1.171311 -4.740694
v 0.871899 -1.174220 -4.740000
v 0.871026 -1.177129 -4.740694
v 0.870326 -1.179462 -4.742636
v 0.869937 -1.180756 -4.745442
v 0.869937 -1.180756 -4.748558
v 0.870326 -1.179462 -4.751365
v 0.871026 -1.177129 -4.753307
v 0.871899 -1.174220 -4.754000
v 0.887496 -1.175731 -4.753307
v 0.888197 -1.173398 -4.751365
v 0.888585 -1.172104 -4.748558
v 0.888585 -1.172104 -4.745442
v 0.888197 -1.173398 -4.742636
v 0.887496 -1.175731 -4.740694
v 0.886623 -1.178640 -4.740000
v 0.885750 -1.181549 -4.740694
v 0.885050 -1.183882 -4.742636
v 0.884661 -1.185176 -4.745442
v 0.884661 -1.185176 -4.748558
v 0.885050 -1.183882 -4.751365
v 0.885750 -1.181549 -4.753307
v 0.886623 -1.178640 -4.754000
v 0.827205 -1.187837 -4.791807
v 0.825183 -1.186478 -4.789865
v 0.824061 -1.185725 -4.787058
v 0.824061 -1.185725 -4.783942
v 0.825183 -1.186478 -4.781136
v 0.827205 -1.187837 -4.779193
v 0.829726 -1.189530 -4.778500
v 0.832247 -1.191224 -4.779193
v 0.834269 -1.192582 -4.781136
v 0.835391 -1.193335 -4.783942
v 0.835391 -1.193335 -4.787058
v 0.834269 -1.192582 -4.789865
v 0.832247 -1.191224 -4.791807
v 0.829726 -1.189530 -4.792500
v 0.865127 -1.131377 -4.791807
v 0.863105 -1.130018 -4.789865
v 0.861983 -1.129265 -4.787058
v 0.861983 -1.129265 -4.783942
v 0.863105 -1.130018 -4.781136
v 0.865127 -1.131377 -4.779193
v 0.867648 -1.133070 -4.778500
v 0.870169 -1.134763 -4.779193
v 0.872191 -1.136122 -4.781136
v 0.873313 -1.136875 -4.783942
v 0.873313 -1.136875 -4.787058
v 0.872191 -1.136122 -4.789865
v 0.870169 -1.134763 -4.791807
v 0.867648 -1.133070 -4.792500
v 0.785327 -1.217829 -4.819307
v 0.782943 -1.217330 -4.817365
v 0.781620 -1.217054 -4.814558
v 0.781620 -1.217054 -4.811442
v 0.782943 -1.217330 -4.808636
v 0.785327 -1.217829 -4.806694
v 0.788300 -1.218450 -4.806000
v 0.791273 -1.219071 -4.806694
v 0.793657 -1.219569 -4.808636
v 0.794980 -1.219846 -4.811442
v 0.794980 -1.219846 -4.814558
v 0.793657 -1.219569 -4.817365
v 0.791273 -1.219071 -4.819307
v 0.788300 -1.218450 -4.820000
v 0.790591 -1.192639 -4.819307
v 0.788207 -1.192140 -4.817365
v 0.786884 -1.191864 -4.814558
v 0.786884 -1.191864 -4.811442
v 0.788207 -1.192140 -4.808636
v 0.790591 -1.192639 -4.806694
v 0.793564 -1.193260 -4.806000
v 0.796537 -1.193881 -4.806694
v 0.798921 -1.194379 -4.808636
v 0.800244 -1.194656 -4.811442
v 0.800244 -1.194656 -4.814558
v 0.798921 -1.194379 -4.817365
v 0.796537 -1.193881 -4.819307
v 0.793564 -1.193260 -4.820000
v 0.833201 -0.518997 -4.528807
v 0.833563 -0.516588 -4.526865
v 0.833764 -0.515251 -4.524058
v 0.833764 -0.515251 -4.520942
v 0.833563 -0.516588 -4.518136
v 0.833201 -0.518997 -4.516193
v 0.832750 -0.522000 -4.515500
v 0.832299 -0.525003 -4.516193
v 0.831937 -0.527412 -4.518136
v 0.831736 -0.528749 -4.520942
v 0.831736 -0.528749 -4.524058
v 0.831937 -0.527412 -4.526865
v 0.832299 -0.525003 -4.528807
v 0.832750 -0.522000 -4.529500
v 0.868151 -0.524247 -4.528807
v 0.868513 -0.521838 -4.526865
v 0.868714 -0.520501 -4.524058
v 0.868714 -0.520501 -4.520942
v 0.868513 -0.521838 -4.518136
v 0.868151 -0.524247 -4.516193
v 0.867700 -0.527250 -4.515500
v 0.867249 -0.530253 -4.516193
v 0.866887 -0.532662 -4.518136
v 0.866686 -0.533999 -4.520942
v 0.866686 -0.533999 -4.524058
v 0.866887 -0.532662 -4.526865
v 0.867249 -0.530253 -4.528807
v 0.867700 -0.527250 -4.529500
v 0.745568 -1.250079 -4.856194
v 0.744821 -1.247761 -4.858136
v 0.744406 -1.246475 -4.860942
v 0.744406 -1.246475 -4.864058
v 0.744821 -1.247761 -4.866865
v 0.745568 -1.250079 -4.868807
v 0.746500 -1.252970 -4.869500
v 0.747432 -1.255861 -4.868807
v 0.748179 -1.258179 -4.866865
v 0.748594 -1.259465 -4.864058
v 0.748594 -1.259465 -4.860942
v 0.748179 -1.258179 -4.858136
v 0.747432 -1.255861 -4.856194
v 0.746500 -1.252970 -4.855500
v 0.737100 -1.252809 -4.856194
v 0.736353 -1.250491 -4.858136
v 0.735938 -1.249205 -4.860942
v 0.735938 -1.249205 -4.864058
v 0.736353 -1.250491 -4.866865
v 0.737100 -1.252809 -4.868807
v 0.738032 -1.255700 -4.869500
v 0.738964 -1.258591 -4.868807
v 0.739711 -1.260909 -4.866865
v 0.740126 -1.262195 -4.864058
v 0.740126 -1.262195 -4.860942
v 0.739711 -1.260909 -4.858136
v 0.738964 -1.258591 -4.856194
v 0.738032 -1.255700 -4.855500
vn -0.1166 0.4179 -0.9010
vn 0.0000 0.0000 -1.0000
vn -0.2102 0.7530 -0.6235
vn -0.2621 0.9390 -0.2225
vn -0.2621 0.9390 0.2225
vn -0.2102 0.7530 0.6235
vn -0.1166 0.4179 0.9010
vn 0.0000 0.0000 1.0000
vn 0.1166 -0.4179 0.9010
vn 0.2102 -0.7530 0.6235
vn 0.2621 -0.9390 0.2225
vn 0.2621 -0.9390 -0.2225
vn 0.2102 -0.7530 -0.6235
vn 0.1166 -0.4179 -0.9010
vn -0.2976 0.3157 0.9009
vn -0.5362 0.5689 0.6235
vn -0.6687 0.7095 0.2225
vn -0.6687 0.7094 -0.2225
vn -0.5362 0.5689 -0.6235
vn -0.2976 0.3157 -0.9010
vn 0.2976 -0.3157 -0.9010
vn 0.5362 -0.5689 -0.6235
vn 0.6687 -0.7095 -0.2225
vn 0.6687 -0.7095 0.2225
vn 0.5362 -0.5689 0.6235
vn 0.2975 -0.3157 0.9010
vn -0.3891 0.1918 0.9010
vn -0.7012 0.3456 0.6235
vn -0.8745 0.4310 0.2225
vn -0.8745 0.4310 -0.2225
vn -0.7013 0.3456 -0.6235
vn -0.3891 0.1918 -0.9010
vn 0.3891 -0.1918 -0.9010
vn 0.7013 -0.3456 -0.6235
vn 0.8745 -0.4310 -0.2225
vn 0.8745 -0.4310 0.2225
vn 0.7012 -0.3456 0.6235
vn 0.3891 -0.1918 0.9010
vn -0.0517 0.4308 0.9010
vn -0.0931 0.7762 0.6235
vn -0.1162 0.9680 0.2225
vn -0.1162 0.9680 -0.2225
vn -0.0931 0.7762 -0.6235
vn -0.0517 0.4308 -0.9010
vn 0.0517 -0.4308 -0.9010
vn 0.0931 -0.7762 -0.6235
vn 0.1162 -0.9680 -0.2225
vn 0.1162 -0.9680 0.2225
vn 0.0931 -0.7762 0.6235
vn 0.0517 -0.4308 0.9010
vn 0.3659 0.2331 0.9010
vn 0.6594 0.4201 0.6235
vn 0.8222 0.5238 0.2225
vn 0.8222 0.5239 -0.2225
vn 0.6593 0.4201 -0.6235
vn 0.3659 0.2331 -0.9010
vn -0.3659 -0.2331 -0.9010
vn -0.6593 -0.4201 -0.6235
vn -0.8222 -0.5239 -0.2225
vn -0.8222 -0.5238 0.2225
vn -0.6594 -0.4201 0.6235
vn -0.3659 -0.2331 0.9010
vn -0.4043 0.1574 -0.9010
vn -0.7285 0.2836 -0.6235
vn -0.9085 0.3536 -0.2225
vn -0.9085 0.3536 0.2225
vn -0.7285 0.2836 0.6235
vn -0.4043 0.1574 0.9010
vn 0.4043 -0.1574 0.9010
vn 0.7285 -0.2836 0.6235
vn 0.9085 -0.3536 0.2225
vn 0.9085 -0.3536 -0.2225
vn 0.7285 -0.2836 -0.6235
vn 0.4043 -0.1574 -0.9010
vn -0.4223 0.0994 0.9009
vn -0.7610 0.1791 0.6235
vn -0.9490 0.2233 0.2225
vn -0.9490 0.2233 -0.2225
vn -0.7610 0.1791 -0.6235
vn -0.4223 0.0994 -0.9010
vn 0.4223 -0.0994 -0.9010
vn 0.7610 -0.1791 -0.6235
vn 0.9490 -0.2233 -0.2225
vn 0.9490 -0.2233 0.2225
vn 0.7610 -0.1791 0.6235
vn 0.4224 -0.0994 0.9009
vn 0.4223 -0.0994 0.9009
vn 0.4156 0.1247 -0.9009
vn 0.7488 0.2246 -0.6235
vn 0.9338 0.2801 -0.2225
vn 0.9338 0.2801 0.2225
vn 0.7488 0.2246 0.6235
vn 0.4156 0.1247 0.9009
vn -0.4156 -0.1247 0.9009
vn -0.7488 -0.2246 0.6235
vn -0.9338 -0.2801 0.2225
vn -0.9338 -0.2801 -0.2225
vn -0.7488 -0.2246 -0.6235
vn -0.4156 -0.1247 -0.9009
vn 0.3146 0.2988 -0.9009
vn 0.5669 0.5384 -0.6235
vn 0.7069 0.6714 -0.2225
vn 0.7069 0.6714 0.2225
vn 0.5669 0.5384 0.6235
vn 0.3146 0.2988 0.9009
vn -0.3146 -0.2988 0.9009
vn -0.5669 -0.5384 0.6235
vn -0.7069 -0.6714 0.2225
vn -0.7069 -0.6714 -0.2225
vn -0.5669 -0.5384 -0.6235
vn -0.3146 -0.2988 -0.9009
vn 0.3068 0.3068 -0.9010
vn 0.5528 0.5528 -0.6235
vn 0.6894 0.6894 -0.2225
vn 0.6894 0.6894 0.2225
vn 0.5528 0.5528 0.6235
vn 0.3068 0.3068 0.9010
vn -0.3068 -0.3068 0.9010
vn -0.5528 -0.5528 0.6235
vn -0.6894 -0.6894 0.2225
vn -0.6894 -0.6894 -0.2225
vn -0.5528 -0.5528 -0.6235
vn -0.3068 -0.3068 -0.9009
vn 0.1247 0.4155 -0.9010
vn 0.2248 0.7488 -0.6235
vn 0.2803 0.9337 -0.2225
vn 0.2803 0.9337 0.2225
vn 0.2248 0.7488 0.6235
vn 0.1247 0.4155 0.9010
vn -0.1247 -0.4155 0.9009
vn -0.2248 -0.7488 0.6235
vn -0.2803 -0.9337 0.2225
vn -0.2803 -0.9337 -0.2225
vn -0.2248 -0.7488 -0.6235
vn -0.1247 -0.4155 -0.9009
vn -0.3602 0.2419 -0.9010
vn -0.6490 0.4359 -0.6235
vn -0.8093 0.5436 -0.2225
vn -0.8093 0.5436 0.2225
vn -0.6490 0.4359 0.6235
vn -0.3601 0.2419 0.9010
vn 0.3601 -0.2419 0.9010
vn 0.6490 -0.4359 0.6235
vn 0.8093 -0.5436 0.2225
vn 0.8093 -0.5436 -0.2225
vn 0.6490 -0.4359 -0.6235
vn 0.3602 -0.2419 -0.9009
vn -0.4247 0.0887 -0.9009
vn -0.7653 0.1599 -0.6235
vn -0.9543 0.1994 -0.2225
vn -0.9543 0.1994 0.2225
vn -0.7653 0.1599 0.6235
vn -0.4247 0.0887 0.9010
vn 0.4247 -0.0887 0.9010
vn 0.7653 -0.1599 0.6235
vn 0.9543 -0.1994 0.2225
vn 0.9543 -0.1994 -0.2225
vn 0.7653 -0.1599 -0.6235
vn 0.4247 -0.0887 -0.9009
vn 0.0645 0.4291 -0.9010
vn 0.1161 0.7731 -0.6235
vn 0.1448 0.9641 -0.2225
vn 0.1448 0.9641 0.2225
vn 0.1161 0.7731 0.6235
vn 0.0644 0.4291 0.9010
vn -0.0644 -0.4291 0.9010
vn -0.1161 -0.7731 0.6235
vn -0.1448 -0.9641 0.2225
vn -0.1448 -0.9641 -0.2225
vn -0.1161 -0.7731 -0.6235
vn -0.0645 -0.4291 -0.9010
vn -0.1331 0.4129 0.9010
vn -0.2399 0.7441 0.6235
vn -0.2991 0.9279 0.2225
vn -0.2991 0.9279 -0.2225
vn -0.2399 0.7441 -0.6235
vn -0.1331 0.4129 -0.9010
vn 0.1331 -0.4129 -0.9010
vn 0.2399 -0.7441 -0.6235
vn 0.2991 -0.9279 -0.2225
vn 0.2991 -0.9279 0.2225
vn 0.2399 -0.7441 0.6235
vn 0.1331 -0.4129 0.9010
s 1
f 1//1 15//1 28//2 14//2
f 2//3 16//3 15//1 1//1
f 3//4 17//4 16//3 2//3
f 4//5 18//5 17//4 3//4
f 5//6 19//6 18//5 4//5
f 6//7 20//7 19//6 5//6
f 7//8 21//8 20//7 6//7
f 8//9 22//9 21//8 7//8
f 9//10 23//10 22//9 8//9
f 10//11 24//11 23//10 9//10
f 11//12 25//12 24//11 10//11
f 12//13 26//13 25//12 11//12
f 13//14 27//14 26//13 12//13
f 14//2 28//2 27//14 13//14
f 29//15 43//15 56//8 42//8
f 30//16 44//16 43//15 29//15
f 31//17 45//17 44//16 30//16
f 32//18 46//18 45//17 31//17
f 33//19 47//19 46//18 32//18
f 34//20 48//20 47//19 33//19
f 35//2 49//2 48//20 34//20
f 36//21 50//21 49//2 35//2
f 37//22 51//22 50//21 36//21
f 38//23 52//23 51//22 37//22
f 39//24 53//24 52//23 38//23
f 40//25 54//25 53//24 39//24
f 41//26 55//26 54//25 40//25
f 42//8 56//8 55//26 41//26
f 57//27 71//27 84//8 70//8
f 58//28 72//28 71//27 57//27
f 59//29 73//29 72//28 58//28
f 60//30 74//30 73//29 59//29
f 61//31 75//31 74//30 60//30
f 62//32 76//32 75//31 61//31
f 63//2 77//2 76//32 62//32
f 64//33 78//33 77//2 63//2
f 65//34 79//34 78//33 64//33
f 66//35 80//35 79//34 65//34
f 67//36 81//36 80//35 66//35
f 68//37 82//37 81//36 67//36
f 69//38 83//38 82//37 68//37
f 70//8 84//8 83//38 69//38
f 85//39 99//39 112//8 98//8
f 86//40 100//40 99//39 85//39
f 87//41 101//41 100//40 86//40
f 88//42 102//42 101//41 87//41
f 89//43 103//43 102//42 88//42
f 90//44 104//44 103//43 89//43
f 91//2 105//2 104//44 90//44
f 92//45 106//45 105//2 91//2
f 93//46 107//46 106//45 92//45
f 94//47 108//47 107//46 93//46
f 95//48 109//48 108//47 94//47
f 96//49 110//49 109//48 95//48
f 97//50 111//50 110//49 96//49
f 98//8 112//8 111//50 97//50
f 113//51 127//51 140//8 126//8
f 114//52 128//52 127//51 113//51
f 115//53 129//53 128//52 114//52
f 116//54 130//54 129//53 115//53
f 117//55 131//55 130//54 116//54
f 118//56 132//56 131//55 117//55
f 119//2 133//2 132//56 118//56
f 120//57 134//57 133//2 119//2
f 121//58 135//58 134//57 120//57
f 122//59 136//59 135//58 121//58
f 123//60 137//60 136//59 122//59
f 124//61 138//61 137//60 123//60
f 125//62 139//62 138//61 124//61
f 126//8 140//8 139//62 125//62
f 141//63 155//63 168//2 154//2
f 142//64 156//64 155//63 141//63
f 143//65 157//65 156//64 142//64
f 144//66 158//66 157//65 143//65
f 145//67 159//67 158//66 144//66
f 146//68 160//68 159//67 145//67
f 147//8 161//8 160//68 146//68
f 148//69 162//69 161//8 147//8
f 149//70 163//70 162//69 148//69
f 150//71 164//71 163//70 149//70
f 151//72 165//72 164//71 150//71
f 152//73 166//73 165//72 151//72
f 153//74 167//74 166//73 152//73
f 154//2 168//2 167//74 153//74
f 169//75 183//75 196//8 182//8
f 170//76 184//76 183//75 169//75
f 171//77 185//77 184//76 170//76
f 172//78 186//78 185//77 171//77
f 173//79 187//79 186//78 172//78
f 174//80 188//80 187//79 173//79
f 175//2 189//2 188//80 174//80
f 176//81 190//81 189//2 175//2
f 177//82 191//82 190//81 176//81
f 178//83 192//83 191//82 177//82
f 179//84 193//84 192//83 178//83
f 180//85 194//85 193//84 179//84
f 181//86 195//87 194//85 180//85
f 182//8 196//8 195//87 181//86
f 197//88 211//88 224//2 210//2
f 198//89 212//89 211//88 197//88
f 199//90 213//90 212//89 198//89
f 200//91 214//91 213//90 199//90
f 201//92 215//92 214//91 200//91
f 202//93 216//93 215//92 201//92
f 203//8 217//8 216//93 202//93
f 204//94 218//94 217//8 203//8
f 205//95 219//95 218//94 204//94
f 206//96 220//96 219//95 205//95
f 207//97 221//97 220//96 206//96
f 208//98 222//98 221//97 207//97
f 209//99 223//99 222//98 208//98
f 210//2 224//2 223//99 209//99
f 225//100 239//100 252//2 238//2
f 226//101 240//101 239//100 225//100
f 227//102 241//102 240//101 226//101
f 228//103 242//103 241//102 227//102
f 229//104 243//104 242//103 228//103
f 230//105 244//105 243//104 229//104
f 231//8 245//8 244//105 230//105
f 232//106 246//106 245//8 231//8
f 233//107 247//107 246//106 232//106
f 234//108 248//108 247//107 233//107
f 235//109 249//109 248//108 234//108
f 236//110 250//110 249//109 235//109
f 237//111 251//111 250//110 236//110
f 238//2 252//2 251//111 237//111
f 253//112 267//112 280//2 266//2
f 254//113 268//113 267//112 253//112
f 255//114 269//114 268//113 254//113
f 256//115 270//115 269//114 255//114
f 257//116 271//116 270//115 256//115
f 258//117 272//117 271//116 257//116
f 259//8 273//8 272//117 258//117
f 260//118 274//118 273//8 259//8
f 261//119 275//119 274//118 260//118
f 262//120 276//120 275//119 261//119
f 263//121 277//121 276//120 262//120
f 264//122 278//122 277//121 263//121
f 265//123 279//123 278//122 264//122
f 266//2 280//2 279//123 265//123
f 281//124 295//124 308//2 294//2
f 282//125 296//125 295//124 281//124
f 283//126 297//126 296//125 282//125
f 284//127 298//127 297//126 283//126
f 285//128 299//128 298//127 284//127
f 286//129 300//129 299//128 285//128
f 287//8 301//8 300//129 286//129
f 288//130 302//130 301//8 287//8
f 289//131 303//131 302//130 288//130
f 290//132 304//132 303//131 289//131
f 291//133 305//133 304//132 290//132
f 292//134 306//134 305//133 291//133
f 293//135 307//135 306//134 292//134
f 294//2 308//2 307//135 293//135
f 309//136 323//136 336//2 322//2
f 310//137 324//137 323//136 309//136
f 311//138 325//138 324//137 310//137
f 312//139 326//139 325//138 311//138
f 313//140 327//140 326//139 312//139
f 314//141 328//141 327//140 313//140
f 315//8 329//8 328//141 314//141
f 316//142 330//142 329//8 315//8
f 317//143 331//143 330//142 316//142
f 318//144 332//144 331//143 317//143
f 319//145 333//145 332//144 318//144
f 320//146 334//146 333//145 319//145
f 321//147 335//147 334//146 320//146
f 322//2 336//2 335//147 321//147
f 337//148 351//148 364//2 350//2
f 338//149 352//149 351//148 337//148
f 339//150 353//150 352//149 338//149
f 340//151 354//151 353//150 339//150
f 341//152 355//152 354//151 340//151
f 342//153 356//153 355//152 341//152
f 343//8 357//8 356//153 342//153
f 344//154 358//154 357//8 343//8
f 345//155 359//155 358//154 344//154
f 346//156 360//156 359//155 345//155
f 347//157 361//157 360//156 346//156
f 348//158 362//158 361//157 347//157
f 349//159 363//159 362//158 348//158
f 350//2 364//2 363//159 349//159
f 365//160 379//160 392//2 378//2
f 366//161 380//161 379//160 365//160
f 367//162 381//162 380//161 366//161
f 368//163 382//163 381//162 367//162
f 369//164 383//164 382//163 368//163
f 370//165 384//165 383//164 369//164
f 371//8 385//8 384//165 370//165
f 372//166 386//166 385//8 371//8
f 373//167 387//167 386//166 372//166
f 374//168 388//168 387//167 373//167
f 375//169 389//169 388//168 374//168
f 376//170 390//170 389//169 375//169
f 377//171 391//171 390//170 376//170
f 378//2 392//2 391//171 377//171
f 393//172 407//172 420//8 406//8
f 394//173 408//173 407//172 393//172
f 395//174 409//174 408//173 394//173
f 396//175 410//175 409//174 395//174
f 397//176 411//176 410//175 396//175
f 398//177 412//177 411//176 397//176
f 399//2 413//2 412//177 398//177
f 400//178 414//178 413//2 399//2
f 401//179 415//179 414//178 400//178
f 402//180 416//180 415//179 401//179
f 403//181 417//181 416//180 402//180
f 404//182 418//182 417//181 403//181
f 405//183 419//183 418//182 404//182
f 406//8 420//8 419//183 405//183
