# Blender v2.78 (sub 0) OBJ File: ''
# www.blender.org
mtllib Outputs of 1211 - SDQL.mtl
o Outputs_of_1211_-_[SDQL.]
v 0.622066 -1.101260 -4.843807
v 0.622991 -1.099007 -4.841865
v 0.623504 -1.097757 -4.839058
v 0.623504 -1.097757 -4.835942
v 0.622991 -1.099007 -4.833136
v 0.622066 -1.101260 -4.831193
v 0.620913 -1.104070 -4.830500
v 0.619760 -1.106880 -4.831193
v 0.618835 -1.109133 -4.833136
v 0.618322 -1.110383 -4.835942
v 0.618322 -1.110383 -4.839058
v 0.618835 -1.109133 -4.841865
v 0.619760 -1.106880 -4.843807
v 0.620913 -1.104070 -4.844500
v 0.644603 -1.110510 -4.843807
v 0.645528 -1.108257 -4.841865
v 0.646041 -1.107007 -4.839058
v 0.646041 -1.107007 -4.835942
v 0.645528 -1.108257 -4.833136
v 0.644603 -1.110510 -4.831193
v 0.643450 -1.113320 -4.830500
v 0.642297 -1.116130 -4.831193
v 0.641372 -1.118383 -4.833136
v 0.640859 -1.119633 -4.835942
v 0.640859 -1.119633 -4.839058
v 0.641372 -1.118383 -4.841865
v 0.642297 -1.116130 -4.843807
v 0.643450 -1.113320 -4.844500
v 0.621292 -1.103546 -4.828193
v 0.620633 -1.101201 -4.830135
v 0.620267 -1.099900 -4.832942
v 0.620267 -1.099900 -4.836058
v 0.620633 -1.101201 -4.838864
v 0.621292 -1.103546 -4.840806
v 0.622113 -1.106470 -4.841500
v 0.622934 -1.109394 -4.840806
v 0.623593 -1.111739 -4.838864
v 0.623959 -1.113040 -4.836058
v 0.623959 -1.113040 -4.832942
v 0.623593 -1.111739 -4.830135
v 0.622934 -1.109394 -4.828193
v 0.622113 -1.106470 -4.827500
v 0.599042 -1.109796 -4.828193
v 0.598383 -1.107451 -4.830135
v 0.598017 -1.106150 -4.832942
v 0.598017 -1.106150 -4.836058
v 0.598383 -1.107451 -4.838864
v 0.599042 -1.109796 -4.840806
v 0.599863 -1.112720 -4.841500
v 0.600684 -1.115644 -4.840806
v 0.601343 -1.117989 -4.838864
v 0.601709 -1.119290 -4.836058
v 0.601709 -1.119290 -4.832942
v 0.601343 -1.117989 -4.830135
v 0.600684 -1.115644 -4.828193
v 0.599863 -1.112720 -4.827500
v 0.494275 -0.952430 -4.756807
v 0.496019 -0.950730 -4.754865
v 0.496988 -0.949787 -4.752058
v 0.496988 -0.949787 -4.748942
v 0.496019 -0.950730 -4.746136
v 0.494275 -0.952430 -4.744194
v 0.492100 -0.954550 -4.743500
v 0.489925 -0.956670 -4.744194
v 0.488181 -0.958370 -4.746136
v 0.487212 -0.959313 -4.748942
v 0.487212 -0.959313 -4.752058
v 0.488181 -0.958370 -4.754865
v 0.489925 -0.956670 -4.756807
v 0.492100 -0.954550 -4.757500
v 0.501925 -0.960280 -4.756807
v 0.503669 -0.958580 -4.754865
v 0.504637 -0.957637 -4.752058
v 0.504637 -0.957637 -4.748942
v 0.503669 -0.958580 -4.746136
v 0.501925 -0.960280 -4.744194
v 0.499750 -0.962400 -4.743500
v 0.497575 -0.964520 -4.744194
v 0.495831 -0.966220 -4.746136
v 0.494862 -0.967163 -4.748942
v 0.494862 -0.967163 -4.752058
v 0.495831 -0.966220 -4.754865
v 0.497575 -0.964520 -4.756807
v 0.499750 -0.962400 -4.757500
v 0.602757 -1.156945 -4.723807
v 0.600834 -1.155450 -4.721865
v 0.599767 -1.154620 -4.719058
v 0.599767 -1.154620 -4.715942
v 0.600834 -1.155450 -4.713136
v 0.602757 -1.156945 -4.711194
v 0.605154 -1.158810 -4.710500
v 0.607551 -1.160675 -4.711194
v 0.609474 -1.162170 -4.713136
v 0.610541 -1.163000 -4.715942
v 0.610541 -1.163000 -4.719058
v 0.609474 -1.162170 -4.721865
v 0.607551 -1.160675 -4.723807
v 0.605154 -1.158810 -4.724500
v 0.611507 -1.145695 -4.723807
v 0.609584 -1.144200 -4.721865
v 0.608517 -1.143370 -4.719058
v 0.608517 -1.143370 -4.715942
v 0.609584 -1.144200 -4.713136
v 0.611507 -1.145695 -4.711194
v 0.613904 -1.147560 -4.710500
v 0.616301 -1.149425 -4.711194
v 0.618224 -1.150920 -4.713136
v 0.619291 -1.151750 -4.715942
v 0.619291 -1.151750 -4.719058
v 0.618224 -1.150920 -4.721865
v 0.616301 -1.149425 -4.723807
v 0.613904 -1.147560 -4.724500
vn 0.1647 0.4014 -0.9010
vn 0.0000 0.0000 -1.0000
vn 0.2969 0.7232 -0.6235
vn 0.3702 0.9019 -0.2225
vn 0.3702 0.9019 0.2225
vn 0.2968 0.7232 0.6235
vn 0.1647 0.4014 0.9010
vn 0.0000 0.0000 1.0000
vn -0.1647 -0.4014 0.9009
vn -0.2968 -0.7233 0.6235
vn -0.3702 -0.9019 0.2225
vn -0.3702 -0.9019 -0.2225
vn -0.2969 -0.7233 -0.6235
vn -0.1647 -0.4014 -0.9009
vn -0.1647 -0.4014 -0.9010
vn -0.1173 0.4177 0.9010
vn -0.2114 0.7526 0.6235
vn -0.2636 0.9386 0.2225
vn -0.2636 0.9386 -0.2225
vn -0.2114 0.7527 -0.6235
vn -0.1173 0.4177 -0.9010
vn 0.1173 -0.4177 -0.9009
vn 0.2114 -0.7527 -0.6235
vn 0.2636 -0.9386 -0.2225
vn 0.2636 -0.9386 0.2225
vn 0.2114 -0.7527 0.6235
vn 0.1173 -0.4177 0.9010
vn 0.3107 0.3028 -0.9010
vn 0.5599 0.5456 -0.6235
vn 0.6982 0.6804 -0.2225
vn 0.6982 0.6804 0.2225
vn 0.5599 0.5456 0.6235
vn 0.3107 0.3028 0.9010
vn -0.3107 -0.3028 0.9010
vn -0.5599 -0.5456 0.6235
vn -0.6982 -0.6804 0.2225
vn -0.6982 -0.6804 -0.2225
vn -0.5599 -0.5456 -0.6235
vn -0.3107 -0.3028 -0.9010
vn -0.3425 0.2664 -0.9010
vn -0.6171 0.4800 -0.6235
vn -0.7696 0.5985 -0.2225
vn -0.7696 0.5985 0.2225
vn -0.6171 0.4800 0.6235
vn -0.3424 0.2664 0.9010
vn 0.3424 -0.2664 0.9010
vn 0.6171 -0.4800 0.6235
vn 0.7696 -0.5985 0.2225
vn 0.7696 -0.5985 -0.2225
vn 0.6171 -0.4800 -0.6235
vn 0.3425 -0.2664 -0.9009
vn 0.3425 -0.2664 -0.9010
s 1
f 1//1 15//1 28//2 14//2
f 2//3 16//3 15//1 1//1
f 3//4 17//4 16//3 2//3
f 4//5 18//5 17//4 3//4
f 5//6 19//6 18//5 4//5
f 6//7 20//7 19//6 5//6
f 7//8 21//8 20//7 6//7
f 8//9 22//9 21//8 7//8
f 9//10 23//10 22//9 8//9
f 10//11 24//11 23//10 9//10
f 11//12 25//12 24//11 10//11
f 12//13 26//13 25//12 11//12
f 13//14 27//15 26//13 12//13
f 14//2 28//2 27//15 13//14
f 29//16 43//16 56//8 42//8
f 30//17 44//17 43//16 29//16
f 31//18 45//18 44//17 30//17
f 32//19 46//19 45//18 31//18
f 33//20 47//20 46//19 32//19
f 34//21 48//21 47//20 33//20
f 35//2 49//2 48//21 34//21
f 36//22 50//22 49//2 35//2
f 37//23 51//23 50//22 36//22
f 38//24 52//24 51//23 37//23
f 39//25 53//25 52//24 38//24
f 40//26 54//26 53//25 39//25
f 41//27 55//27 54//26 40//26
f 42//8 56//8 55//27 41//27
f 57//28 71//28 84//2 70//2
f 58//29 72//29 71//28 57//28
f 59//30 73//30 72//29 58//29
f 60//31 74//31 73//30 59//30
f 61//32 75//32 74//31 60//31
f 62//33 76//33 75//32 61//32
f 63//8 77//8 76//33 62//33
f 64//34 78//34 77//8 63//8
f 65//35 79//35 78//34 64//34
f 66//36 80//36 79//35 65//35
f 67//37 81//37 80//36 66//36
f 68//38 82//38 81//37 67//37
f 69//39 83//39 82//38 68//38
f 70//2 84//2 83//39 69//39
f 85//40 99//40 112//2 98//2
f 86//41 100//41 99//40 85//40
f 87//42 101//42 100//41 86//41
f 88//43 102//43 101//42 87//42
f 89//44 103//44 102//43 88//43
f 90//45 104//45 103//44 89//44
f 91//8 105//8 104//45 90//45
f 92//46 106//46 105//8 91//8
f 93//47 107//47 106//46 92//46
f 94//48 108//48 107//47 93//47
f 95//49 109//49 108//48 94//48
f 96//50 110//50 109//49 95//49
f 97//51 111//52 110//50 96//50
f 98//2 112//2 111//52 97//51
