# Blender v2.78 (sub 0) OBJ File: ''
# www.blender.org
mtllib Outputs of 20097 - AIZL.mtl
o Outputs_of_20097_-_[AIZL.]
v 0.523465 -1.243379 -4.730307
v 0.521031 -1.243282 -4.728364
v 0.519681 -1.243229 -4.725558
v 0.519681 -1.243229 -4.722442
v 0.521031 -1.243282 -4.719635
v 0.523465 -1.243379 -4.717693
v 0.526500 -1.243500 -4.717000
v 0.529535 -1.243621 -4.717693
v 0.531968 -1.243718 -4.719635
v 0.533319 -1.243771 -4.722442
v 0.533319 -1.243771 -4.725558
v 0.531968 -1.243718 -4.728364
v 0.529535 -1.243621 -4.730307
v 0.526500 -1.243500 -4.731000
v 0.525465 -1.193129 -4.730307
v 0.523032 -1.193032 -4.728364
v 0.521681 -1.192979 -4.725558
v 0.521681 -1.192979 -4.722442
v 0.523032 -1.193032 -4.719635
v 0.525465 -1.193129 -4.717693
v 0.528500 -1.193250 -4.717000
v 0.531535 -1.193371 -4.717693
v 0.533969 -1.193468 -4.719635
v 0.535319 -1.193521 -4.722442
v 0.535319 -1.193521 -4.725558
v 0.533969 -1.193468 -4.728364
v 0.531535 -1.193371 -4.730307
v 0.528500 -1.193250 -4.731000
v 0.592195 -1.238943 -4.937693
v 0.590881 -1.236892 -4.939635
v 0.590152 -1.235754 -4.942442
v 0.590152 -1.235754 -4.945558
v 0.590881 -1.236892 -4.948364
v 0.592195 -1.238943 -4.950306
v 0.593833 -1.241500 -4.951000
v 0.595471 -1.244057 -4.950306
v 0.596785 -1.246108 -4.948364
v 0.597514 -1.247247 -4.945558
v 0.597514 -1.247247 -4.942442
v 0.596785 -1.246108 -4.939635
v 0.595471 -1.244057 -4.937693
v 0.593833 -1.241500 -4.937000
v 0.586310 -1.242713 -4.937693
v 0.584996 -1.240662 -4.939635
v 0.584267 -1.239524 -4.942442
v 0.584267 -1.239524 -4.945558
v 0.584996 -1.240662 -4.948364
v 0.586310 -1.242713 -4.950306
v 0.587948 -1.245270 -4.951000
v 0.589586 -1.247827 -4.950306
v 0.590900 -1.249878 -4.948364
v 0.591629 -1.251016 -4.945558
v 0.591629 -1.251016 -4.942442
v 0.590900 -1.249878 -4.939635
v 0.589586 -1.247827 -4.937693
v 0.587948 -1.245270 -4.937000
v 0.560447 -1.272263 -4.902194
v 0.562809 -1.271673 -4.904136
v 0.564121 -1.271345 -4.906942
v 0.564121 -1.271345 -4.910058
v 0.562809 -1.271673 -4.912865
v 0.560447 -1.272263 -4.914807
v 0.557500 -1.273000 -4.915500
v 0.554554 -1.273737 -4.914807
v 0.552191 -1.274327 -4.912865
v 0.550879 -1.274655 -4.910058
v 0.550879 -1.274655 -4.906942
v 0.552191 -1.274327 -4.904136
v 0.554554 -1.273737 -4.902194
v 0.557500 -1.273000 -4.901500
v 0.555946 -1.254263 -4.902194
v 0.558309 -1.253673 -4.904136
v 0.559621 -1.253345 -4.906942
v 0.559621 -1.253345 -4.910058
v 0.558309 -1.253673 -4.912865
v 0.555946 -1.254263 -4.914807
v 0.553000 -1.255000 -4.915500
v 0.550053 -1.255737 -4.914807
v 0.547691 -1.256327 -4.912865
v 0.546379 -1.256655 -4.910058
v 0.546379 -1.256655 -4.906942
v 0.547691 -1.256327 -4.904136
v 0.550053 -1.255737 -4.902194
v 0.553000 -1.255000 -4.901500
v 0.330484 -0.674138 -4.609807
v 0.329670 -0.671842 -4.607864
v 0.329218 -0.670568 -4.605058
v 0.329218 -0.670568 -4.601942
v 0.329670 -0.671842 -4.599135
v 0.330484 -0.674138 -4.597193
v 0.331500 -0.677000 -4.596500
v 0.332516 -0.679862 -4.597193
v 0.333330 -0.682158 -4.599135
v 0.333782 -0.683432 -4.601942
v 0.333782 -0.683432 -4.605058
v 0.333330 -0.682158 -4.607864
v 0.332516 -0.679862 -4.609807
v 0.331500 -0.677000 -4.610500
v 0.338234 -0.671388 -4.609807
v 0.337420 -0.669092 -4.607864
v 0.336968 -0.667818 -4.605058
v 0.336968 -0.667818 -4.601942
v 0.337420 -0.669092 -4.599135
v 0.338234 -0.671388 -4.597193
v 0.339250 -0.674250 -4.596500
v 0.340266 -0.677112 -4.597193
v 0.341080 -0.679408 -4.599135
v 0.341532 -0.680682 -4.601942
v 0.341532 -0.680682 -4.605058
v 0.341080 -0.679408 -4.607864
v 0.340266 -0.677112 -4.609807
v 0.339250 -0.674250 -4.610500
v 0.570480 -1.270197 -4.866307
v 0.572068 -1.268350 -4.864365
v 0.572949 -1.267325 -4.861558
v 0.572949 -1.267325 -4.858442
v 0.572068 -1.268350 -4.855636
v 0.570480 -1.270197 -4.853693
v 0.568500 -1.272500 -4.853000
v 0.566520 -1.274803 -4.853693
v 0.564932 -1.276650 -4.855636
v 0.564051 -1.277675 -4.858442
v 0.564051 -1.277675 -4.861558
v 0.564932 -1.276650 -4.864365
v 0.566520 -1.274803 -4.866307
v 0.568500 -1.272500 -4.867000
v 0.584730 -1.282447 -4.866307
v 0.586318 -1.280600 -4.864365
v 0.587199 -1.279575 -4.861558
v 0.587199 -1.279575 -4.858442
v 0.586318 -1.280600 -4.855636
v 0.584730 -1.282447 -4.853693
v 0.582750 -1.284750 -4.853000
v 0.580770 -1.287053 -4.853693
v 0.579182 -1.288900 -4.855636
v 0.578301 -1.289925 -4.858442
v 0.578301 -1.289925 -4.861558
v 0.579182 -1.288900 -4.864365
v 0.580770 -1.287053 -4.866307
v 0.582750 -1.284750 -4.867000
v 0.571444 -1.271755 -4.827693
v 0.573806 -1.271158 -4.829636
v 0.575116 -1.270827 -4.832442
v 0.575116 -1.270827 -4.835558
v 0.573806 -1.271158 -4.838365
v 0.571444 -1.271755 -4.840307
v 0.568500 -1.272500 -4.841000
v 0.565556 -1.273245 -4.840307
v 0.563194 -1.273842 -4.838365
v 0.561884 -1.274173 -4.835558
v 0.561884 -1.274173 -4.832442
v 0.563194 -1.273842 -4.829636
v 0.565556 -1.273245 -4.827693
v 0.568500 -1.272500 -4.827000
v 0.568591 -1.260475 -4.827693
v 0.570953 -1.259878 -4.829636
v 0.572263 -1.259547 -4.832442
v 0.572263 -1.259547 -4.835558
v 0.570953 -1.259878 -4.838365
v 0.568591 -1.260475 -4.840307
v 0.565647 -1.261220 -4.841000
v 0.562703 -1.261965 -4.840307
v 0.560341 -1.262562 -4.838365
v 0.559031 -1.262893 -4.835558
v 0.559031 -1.262893 -4.832442
v 0.560341 -1.262562 -4.829636
v 0.562703 -1.261965 -4.827693
v 0.565647 -1.261220 -4.827000
vn -0.4335 0.0172 -0.9009
vn 0.0000 0.0000 -1.0000
vn -0.7812 0.0311 -0.6235
vn -0.9742 0.0388 -0.2225
vn -0.9742 0.0388 0.2225
vn -0.7812 0.0311 0.6235
vn -0.4335 0.0172 0.9010
vn 0.0000 0.0000 1.0000
vn 0.4335 -0.0172 0.9010
vn 0.7812 -0.0311 0.6235
vn 0.9742 -0.0388 0.2225
vn 0.9742 -0.0388 -0.2225
vn 0.7812 -0.0311 -0.6235
vn 0.4335 -0.0172 -0.9009
vn -0.2340 0.3653 0.9010
vn -0.4217 0.6583 0.6235
vn -0.5259 0.8209 0.2225
vn -0.5259 0.8209 -0.2225
vn -0.4217 0.6583 -0.6235
vn -0.2340 0.3653 -0.9010
vn 0.2340 -0.3653 -0.9010
vn 0.4217 -0.6583 -0.6235
vn 0.5259 -0.8209 -0.2225
vn 0.5259 -0.8209 0.2225
vn 0.4217 -0.6583 0.6235
vn 0.2340 -0.3653 0.9010
vn 0.4209 0.1052 0.9009
vn 0.7585 0.1896 0.6235
vn 0.9458 0.2365 0.2225
vn 0.9458 0.2364 -0.2225
vn 0.7584 0.1896 -0.6235
vn 0.4209 0.1052 -0.9010
vn -0.4209 -0.1052 -0.9010
vn -0.7584 -0.1896 -0.6235
vn -0.9458 -0.2364 -0.2225
vn -0.9458 -0.2365 0.2225
vn -0.7585 -0.1896 0.6235
vn -0.4209 -0.1052 0.9009
vn -0.1451 0.4089 -0.9010
vn -0.2615 0.7368 -0.6235
vn -0.3260 0.9188 -0.2225
vn -0.3260 0.9188 0.2225
vn -0.2614 0.7368 0.6235
vn -0.1451 0.4089 0.9010
vn 0.1451 -0.4089 0.9010
vn 0.2614 -0.7368 0.6235
vn 0.3260 -0.9188 0.2225
vn 0.3260 -0.9188 -0.2225
vn 0.2614 -0.7368 -0.6235
vn 0.1451 -0.4089 -0.9010
vn 0.2828 0.3290 -0.9010
vn 0.5097 0.5929 -0.6235
vn 0.6355 0.7393 -0.2225
vn 0.6355 0.7393 0.2225
vn 0.5097 0.5929 0.6235
vn 0.5097 0.5928 0.6235
vn 0.2829 0.3290 0.9009
vn -0.2828 -0.3290 0.9009
vn -0.5097 -0.5928 0.6235
vn -0.6355 -0.7393 0.2225
vn -0.6355 -0.7393 -0.2225
vn -0.5096 -0.5929 -0.6235
vn -0.2828 -0.3290 -0.9009
vn 0.4206 0.1064 0.9010
vn 0.7579 0.1917 0.6235
vn 0.9452 0.2390 0.2225
vn 0.9452 0.2391 -0.2225
vn 0.7579 0.1917 -0.6235
vn 0.4206 0.1064 -0.9010
vn -0.4206 -0.1064 -0.9010
vn -0.7579 -0.1917 -0.6235
vn -0.9452 -0.2391 -0.2225
vn -0.9452 -0.2390 0.2225
vn -0.7580 -0.1917 0.6235
vn -0.4206 -0.1064 0.9010
s 1
f 1//1 15//1 28//2 14//2
f 2//3 16//3 15//1 1//1
f 3//4 17//4 16//3 2//3
f 4//5 18//5 17//4 3//4
f 5//6 19//6 18//5 4//5
f 6//7 20//7 19//6 5//6
f 7//8 21//8 20//7 6//7
f 8//9 22//9 21//8 7//8
f 9//10 23//10 22//9 8//9
f 10//11 24//11 23//10 9//10
f 11//12 25//12 24//11 10//11
f 12//13 26//13 25//12 11//12
f 13//14 27//14 26//13 12//13
f 14//2 28//2 27//14 13//14
f 29//15 43//15 56//8 42//8
f 30//16 44//16 43//15 29//15
f 31//17 45//17 44//16 30//16
f 32//18 46//18 45//17 31//17
f 33//19 47//19 46//18 32//18
f 34//20 48//20 47//19 33//19
f 35//2 49//2 48//20 34//20
f 36//21 50//21 49//2 35//2
f 37//22 51//22 50//21 36//21
f 38//23 52//23 51//22 37//22
f 39//24 53//24 52//23 38//23
f 40//25 54//25 53//24 39//24
f 41//26 55//26 54//25 40//25
f 42//8 56//8 55//26 41//26
f 57//27 71//27 84//8 70//8
f 58//28 72//28 71//27 57//27
f 59//29 73//29 72//28 58//28
f 60//30 74//30 73//29 59//29
f 61//31 75//31 74//30 60//30
f 62//32 76//32 75//31 61//31
f 63//2 77//2 76//32 62//32
f 64//33 78//33 77//2 63//2
f 65//34 79//34 78//33 64//33
f 66//35 80//35 79//34 65//34
f 67//36 81//36 80//35 66//35
f 68//37 82//37 81//36 67//36
f 69//38 83//38 82//37 68//37
f 70//8 84//8 83//38 69//38
f 85//39 99//39 112//2 98//2
f 86//40 100//40 99//39 85//39
f 87//41 101//41 100//40 86//40
f 88//42 102//42 101//41 87//41
f 89//43 103//43 102//42 88//42
f 90//44 104//44 103//43 89//43
f 91//8 105//8 104//44 90//44
f 92//45 106//45 105//8 91//8
f 93//46 107//46 106//45 92//45
f 94//47 108//47 107//46 93//46
f 95//48 109//48 108//47 94//47
f 96//49 110//49 109//48 95//48
f 97//50 111//50 110//49 96//49
f 98//2 112//2 111//50 97//50
f 113//51 127//51 140//2 126//2
f 114//52 128//52 127//51 113//51
f 115//53 129//53 128//52 114//52
f 116//54 130//54 129//53 115//53
f 117//55 131//56 130//54 116//54
f 118//57 132//57 131//56 117//55
f 119//8 133//8 132//57 118//57
f 120//58 134//58 133//8 119//8
f 121//59 135//59 134//58 120//58
f 122//60 136//60 135//59 121//59
f 123//61 137//61 136//60 122//60
f 124//62 138//62 137//61 123//61
f 125//63 139//63 138//62 124//62
f 126//2 140//2 139//63 125//63
f 141//64 155//64 168//8 154//8
f 142//65 156//65 155//64 141//64
f 143//66 157//66 156//65 142//65
f 144//67 158//67 157//66 143//66
f 145//68 159//68 158//67 144//67
f 146//69 160//69 159//68 145//68
f 147//2 161//2 160//69 146//69
f 148//70 162//70 161//2 147//2
f 149//71 163//71 162//70 148//70
f 150//72 164//72 163//71 149//71
f 151//73 165//73 164//72 150//72
f 152//74 166//74 165//73 151//73
f 153//75 167//75 166//74 152//74
f 154//8 168//8 167//75 153//75
