# Blender v2.78 (sub 0) OBJ File: ''
# www.blender.org
o Outputs_of_54488_-_[AWCR.]
v 1.053359 -0.960131 -4.706693
v 1.051073 -0.959291 -4.708635
v 1.049804 -0.958825 -4.711442
v 1.049804 -0.958825 -4.714558
v 1.051073 -0.959291 -4.717364
v 1.053359 -0.960131 -4.719306
v 1.056210 -0.961179 -4.720000
v 1.059061 -0.962227 -4.719306
v 1.061347 -0.963067 -4.717364
v 1.062616 -0.963533 -4.714558
v 1.062616 -0.963533 -4.711442
v 1.061347 -0.963067 -4.708635
v 1.059061 -0.962227 -4.706693
v 1.056210 -0.961179 -4.706000
v 1.028399 -1.028052 -4.706693
v 1.026113 -1.027212 -4.708635
v 1.024844 -1.026746 -4.711442
v 1.024844 -1.026746 -4.714558
v 1.026113 -1.027212 -4.717364
v 1.028399 -1.028052 -4.719306
v 1.031250 -1.029100 -4.720000
v 1.034101 -1.030148 -4.719306
v 1.036387 -1.030988 -4.717364
v 1.037656 -1.031454 -4.714558
v 1.037656 -1.031454 -4.711442
v 1.036387 -1.030988 -4.708635
v 1.034101 -1.030148 -4.706693
v 1.031250 -1.029100 -4.706000
v 0.281814 -0.979171 -4.687807
v 0.283589 -0.977503 -4.685864
v 0.284574 -0.976577 -4.683058
v 0.284574 -0.976577 -4.679942
v 0.283589 -0.977503 -4.677135
v 0.281814 -0.979171 -4.675193
v 0.279600 -0.981250 -4.674500
v 0.277386 -0.983329 -4.675193
v 0.275611 -0.984997 -4.677135
v 0.274626 -0.985923 -4.679942
v 0.274626 -0.985923 -4.683058
v 0.275611 -0.984997 -4.685864
v 0.277386 -0.983329 -4.687807
v 0.279600 -0.981250 -4.688500
v 0.297314 -0.995670 -4.687807
v 0.299089 -0.994003 -4.685864
v 0.300074 -0.993077 -4.683058
v 0.300074 -0.993077 -4.679942
v 0.299089 -0.994003 -4.677135
v 0.297314 -0.995670 -4.675193
v 0.295100 -0.997750 -4.674500
v 0.292886 -0.999829 -4.675193
v 0.291111 -1.001497 -4.677135
v 0.290126 -1.002423 -4.679942
v 0.290126 -1.002423 -4.683058
v 0.291111 -1.001497 -4.685864
v 0.292886 -0.999829 -4.687807
v 0.295100 -0.997750 -4.688500
v 0.317546 -1.093223 -4.733807
v 0.319817 -1.092343 -4.731864
v 0.321078 -1.091855 -4.729058
v 0.321078 -1.091855 -4.725942
v 0.319817 -1.092343 -4.723135
v 0.317546 -1.093223 -4.721193
v 0.314714 -1.094320 -4.720500
v 0.311882 -1.095417 -4.721193
v 0.309611 -1.096297 -4.723135
v 0.308350 -1.096785 -4.725942
v 0.308350 -1.096785 -4.729058
v 0.309611 -1.096297 -4.731864
v 0.311882 -1.095417 -4.733807
v 0.314714 -1.094320 -4.734500
v 0.326332 -1.115903 -4.733807
v 0.328603 -1.115023 -4.731864
v 0.329864 -1.114535 -4.729058
v 0.329864 -1.114535 -4.725942
v 0.328603 -1.115023 -4.723135
v 0.326332 -1.115903 -4.721193
v 0.323500 -1.117000 -4.720500
v 0.320668 -1.118097 -4.721193
v 0.318397 -1.118977 -4.723135
v 0.317136 -1.119465 -4.725942
v 0.317136 -1.119465 -4.729058
v 0.318397 -1.118977 -4.731864
v 0.320668 -1.118097 -4.733807
v 0.323500 -1.117000 -4.734500
v 0.985729 -1.088006 -4.741693
v 0.983507 -1.087008 -4.743636
v 0.982274 -1.086454 -4.746442
v 0.982274 -1.086454 -4.749558
v 0.983507 -1.087008 -4.752365
v 0.985729 -1.088006 -4.754307
v 0.988500 -1.089250 -4.755000
v 0.991271 -1.090494 -4.754307
v 0.993493 -1.091492 -4.752365
v 0.994726 -1.092046 -4.749558
v 0.994726 -1.092046 -4.746442
v 0.993493 -1.091492 -4.743636
v 0.991271 -1.090494 -4.741693
v 0.988500 -1.089250 -4.741000
v 0.955979 -1.154256 -4.741693
v 0.953757 -1.153258 -4.743636
v 0.952524 -1.152704 -4.746442
v 0.952524 -1.152704 -4.749558
v 0.953757 -1.153258 -4.752365
v 0.955979 -1.154256 -4.754307
v 0.958750 -1.155500 -4.755000
v 0.961521 -1.156744 -4.754307
v 0.963743 -1.157742 -4.752365
v 0.964976 -1.158296 -4.749558
v 0.964976 -1.158296 -4.746442
v 0.963743 -1.157742 -4.743636
v 0.961521 -1.156744 -4.741693
v 0.958750 -1.155500 -4.741000
v 0.385053 -1.248048 -4.804693
v 0.387462 -1.247685 -4.806635
v 0.388798 -1.247484 -4.809442
v 0.388798 -1.247484 -4.812558
v 0.387462 -1.247685 -4.815364
v 0.385053 -1.248048 -4.817307
v 0.382050 -1.248500 -4.818000
v 0.379047 -1.248952 -4.817307
v 0.376638 -1.249315 -4.815364
v 0.375302 -1.249516 -4.812558
v 0.375302 -1.249516 -4.809442
v 0.376638 -1.249315 -4.806635
v 0.379047 -1.248952 -4.804693
v 0.382050 -1.248500 -4.804000
v 0.383230 -1.235938 -4.804693
v 0.385639 -1.235575 -4.806635
v 0.386975 -1.235374 -4.809442
v 0.386975 -1.235374 -4.812558
v 0.385639 -1.235575 -4.815364
v 0.383230 -1.235938 -4.817307
v 0.380227 -1.236390 -4.818000
v 0.377224 -1.236842 -4.817307
v 0.374815 -1.237205 -4.815364
v 0.373479 -1.237406 -4.812558
v 0.373479 -1.237406 -4.809442
v 0.374815 -1.237205 -4.806635
v 0.377224 -1.236842 -4.804693
v 0.380227 -1.236390 -4.804000
v 0.349174 -0.611560 -4.593307
v 0.351319 -0.610405 -4.591364
v 0.352509 -0.609765 -4.588558
v 0.352509 -0.609765 -4.585442
v 0.351319 -0.610405 -4.582635
v 0.349174 -0.611560 -4.580693
v 0.346500 -0.613000 -4.580000
v 0.343826 -0.614440 -4.580693
v 0.341681 -0.615595 -4.582635
v 0.340491 -0.616235 -4.585442
v 0.340491 -0.616235 -4.588558
v 0.341681 -0.615595 -4.591364
v 0.343826 -0.614440 -4.593307
v 0.346500 -0.613000 -4.594000
v 0.354424 -0.621310 -4.593307
v 0.356569 -0.620155 -4.591364
v 0.357759 -0.619515 -4.588558
v 0.357759 -0.619515 -4.585442
v 0.356569 -0.620155 -4.582635
v 0.354424 -0.621310 -4.580693
v 0.351750 -0.622750 -4.580000
v 0.349076 -0.624190 -4.580693
v 0.346931 -0.625345 -4.582635
v 0.345741 -0.625985 -4.585442
v 0.345741 -0.625985 -4.588558
v 0.346931 -0.625345 -4.591364
v 0.349076 -0.624190 -4.593307
v 0.351750 -0.622750 -4.594000
v 0.451885 -0.494970 -4.515193
v 0.449988 -0.493442 -4.517136
v 0.448936 -0.492594 -4.519942
v 0.448936 -0.492594 -4.523058
v 0.449988 -0.493442 -4.525865
v 0.451885 -0.494970 -4.527807
v 0.454250 -0.496875 -4.528500
v 0.456615 -0.498780 -4.527807
v 0.458512 -0.500308 -4.525865
v 0.459564 -0.501156 -4.523058
v 0.459564 -0.501156 -4.519942
v 0.458512 -0.500308 -4.517136
v 0.456615 -0.498780 -4.515193
v 0.454250 -0.496875 -4.514500
v 0.405260 -0.552845 -4.515193
v 0.403363 -0.551317 -4.517136
v 0.402311 -0.550469 -4.519942
v 0.402311 -0.550469 -4.523058
v 0.403363 -0.551317 -4.525865
v 0.405260 -0.552845 -4.527807
v 0.407625 -0.554750 -4.528500
v 0.409990 -0.556655 -4.527807
v 0.411887 -0.558183 -4.525865
v 0.412939 -0.559031 -4.523058
v 0.412939 -0.559031 -4.519942
v 0.411887 -0.558183 -4.517136
v 0.409990 -0.556655 -4.515193
v 0.407625 -0.554750 -4.514500
v 0.935177 -0.493315 -4.536307
v 0.937323 -0.492164 -4.534365
v 0.938514 -0.491525 -4.531558
v 0.938514 -0.491525 -4.528442
v 0.937323 -0.492164 -4.525636
v 0.935177 -0.493315 -4.523694
v 0.932500 -0.494750 -4.523000
v 0.929823 -0.496185 -4.523694
v 0.927677 -0.497336 -4.525636
v 0.926486 -0.497975 -4.528442
v 0.926486 -0.497975 -4.531558
v 0.927677 -0.497336 -4.534365
v 0.929823 -0.496185 -4.536307
v 0.932500 -0.494750 -4.537000
v 0.944427 -0.510565 -4.536307
v 0.946573 -0.509414 -4.534365
v 0.947764 -0.508775 -4.531558
v 0.947764 -0.508775 -4.528442
v 0.946573 -0.509414 -4.525636
v 0.944427 -0.510565 -4.523694
v 0.941750 -0.512000 -4.523000
v 0.939073 -0.513435 -4.523694
v 0.936927 -0.514586 -4.525636
v 0.935736 -0.515225 -4.528442
v 0.935736 -0.515225 -4.531558
v 0.936927 -0.514586 -4.534365
v 0.939073 -0.513435 -4.536307
v 0.941750 -0.512000 -4.537000
v 0.579464 -0.401903 -4.502693
v 0.577030 -0.401825 -4.504635
v 0.575679 -0.401782 -4.507442
v 0.575679 -0.401782 -4.510558
v 0.577030 -0.401825 -4.513364
v 0.579464 -0.401903 -4.515306
v 0.582500 -0.402000 -4.516000
v 0.585536 -0.402097 -4.515306
v 0.587970 -0.402175 -4.513364
v 0.589321 -0.402218 -4.510558
v 0.589321 -0.402218 -4.507442
v 0.587970 -0.402175 -4.504635
v 0.585536 -0.402097 -4.502693
v 0.582500 -0.402000 -4.502000
v 0.578964 -0.417528 -4.502693
v 0.576530 -0.417450 -4.504635
v 0.575179 -0.417407 -4.507442
v 0.575179 -0.417407 -4.510558
v 0.576530 -0.417450 -4.513364
v 0.578964 -0.417528 -4.515306
v 0.582000 -0.417625 -4.516000
v 0.585036 -0.417722 -4.515306
v 0.587470 -0.417800 -4.513364
v 0.588821 -0.417843 -4.510558
v 0.588821 -0.417843 -4.507442
v 0.587470 -0.417800 -4.504635
v 0.585036 -0.417722 -4.502693
v 0.582000 -0.417625 -4.502000
v 0.805004 -0.417801 -4.542306
v 0.807413 -0.417441 -4.540364
v 0.808750 -0.417242 -4.537558
v 0.808750 -0.417242 -4.534442
v 0.807413 -0.417441 -4.531635
v 0.805004 -0.417801 -4.529693
v 0.802000 -0.418250 -4.529000
v 0.798996 -0.418699 -4.529693
v 0.796587 -0.419059 -4.531635
v 0.795250 -0.419258 -4.534442
v 0.795250 -0.419258 -4.537558
v 0.796587 -0.419059 -4.540364
v 0.798996 -0.418699 -4.542306
v 0.802000 -0.418250 -4.543000
v 0.806921 -0.430634 -4.542306
v 0.809330 -0.430274 -4.540364
v 0.810667 -0.430075 -4.537558
v 0.810667 -0.430075 -4.534442
v 0.809330 -0.430274 -4.531635
v 0.806921 -0.430634 -4.529693
v 0.803917 -0.431083 -4.529000
v 0.800913 -0.431532 -4.529693
v 0.798504 -0.431892 -4.531635
v 0.797167 -0.432091 -4.534442
v 0.797167 -0.432091 -4.537558
v 0.798504 -0.431892 -4.540364
v 0.800913 -0.431532 -4.542306
v 0.803917 -0.431083 -4.543000
v 1.031956 -0.678152 -4.635807
v 1.034326 -0.677592 -4.633864
v 1.035642 -0.677282 -4.631058
v 1.035642 -0.677282 -4.627942
v 1.034326 -0.677592 -4.625135
v 1.031956 -0.678152 -4.623193
v 1.029000 -0.678850 -4.622500
v 1.026044 -0.679548 -4.623193
v 1.023674 -0.680108 -4.625135
v 1.022358 -0.680418 -4.627942
v 1.022358 -0.680418 -4.631058
v 1.023674 -0.680108 -4.633864
v 1.026044 -0.679548 -4.635807
v 1.029000 -0.678850 -4.636500
v 1.033656 -0.685352 -4.635807
v 1.036026 -0.684792 -4.633864
v 1.037342 -0.684482 -4.631058
v 1.037342 -0.684482 -4.627942
v 1.036026 -0.684792 -4.625135
v 1.033656 -0.685352 -4.623193
v 1.030700 -0.686050 -4.622500
v 1.027744 -0.686748 -4.623193
v 1.025374 -0.687308 -4.625135
v 1.024058 -0.687618 -4.627942
v 1.024058 -0.687618 -4.631058
v 1.025374 -0.687308 -4.633864
v 1.027744 -0.686748 -4.635807
v 1.030700 -0.686050 -4.636500
v 0.867474 -1.234237 -4.822193
v 0.869537 -1.232944 -4.824135
v 0.870683 -1.232226 -4.826942
v 0.870683 -1.232226 -4.830058
v 0.869537 -1.232944 -4.832864
v 0.867474 -1.234237 -4.834806
v 0.864900 -1.235850 -4.835500
v 0.862326 -1.237463 -4.834806
v 0.860263 -1.238756 -4.832864
v 0.859117 -1.239474 -4.830058
v 0.859117 -1.239474 -4.826942
v 0.860263 -1.238756 -4.824135
v 0.862326 -1.237463 -4.822193
v 0.864900 -1.235850 -4.821500
v 0.862774 -1.226737 -4.822193
v 0.864837 -1.225444 -4.824135
v 0.865983 -1.224726 -4.826942
v 0.865983 -1.224726 -4.830058
v 0.864837 -1.225444 -4.832864
v 0.862774 -1.226737 -4.834806
v 0.860200 -1.228350 -4.835500
v 0.857626 -1.229963 -4.834806
v 0.855563 -1.231256 -4.832864
v 0.854417 -1.231974 -4.830058
v 0.854417 -1.231974 -4.826942
v 0.855563 -1.231256 -4.824135
v 0.857626 -1.229963 -4.822193
v 0.860200 -1.228350 -4.821500
v 1.071222 -0.810762 -4.671193
v 1.068794 -0.810572 -4.673135
v 1.067446 -0.810466 -4.675942
v 1.067446 -0.810466 -4.679058
v 1.068794 -0.810572 -4.681864
v 1.071222 -0.810762 -4.683806
v 1.074250 -0.811000 -4.684500
v 1.077278 -0.811238 -4.683806
v 1.079706 -0.811428 -4.681864
v 1.081053 -0.811534 -4.679058
v 1.081053 -0.811534 -4.675942
v 1.079706 -0.811428 -4.673135
v 1.077278 -0.811238 -4.671193
v 1.074250 -0.811000 -4.670500
v 1.068572 -0.844512 -4.671193
v 1.066144 -0.844322 -4.673135
v 1.064796 -0.844216 -4.675942
v 1.064796 -0.844216 -4.679058
v 1.066144 -0.844322 -4.681864
v 1.068572 -0.844512 -4.683806
v 1.071600 -0.844750 -4.684500
v 1.074628 -0.844988 -4.683806
v 1.077056 -0.845178 -4.681864
v 1.078403 -0.845284 -4.679058
v 1.078403 -0.845284 -4.675942
v 1.077056 -0.845178 -4.673135
v 1.074628 -0.844988 -4.671193
v 1.071600 -0.844750 -4.670500
vn -0.4072 0.1496 0.9010
vn 0.0000 0.0000 1.0000
vn -0.7338 0.2697 0.6235
vn -0.9151 0.3363 0.2225
vn -0.9151 0.3363 -0.2225
vn -0.7338 0.2697 -0.6235
vn -0.4073 0.1496 -0.9009
vn 0.0000 0.0000 -1.0000
vn 0.4072 -0.1496 -0.9010
vn 0.7338 -0.2697 -0.6235
vn 0.9151 -0.3363 -0.2225
vn 0.9151 -0.3363 0.2225
vn 0.7338 -0.2697 0.6235
vn 0.4072 -0.1496 0.9010
vn 0.3162 0.2970 -0.9010
vn 0.5698 0.5353 -0.6235
vn 0.7106 0.6675 -0.2225
vn 0.7105 0.6675 0.2225
vn 0.5698 0.5353 0.6235
vn 0.3162 0.2970 0.9009
vn -0.3162 -0.2970 0.9009
vn -0.5698 -0.5353 0.6235
vn -0.7105 -0.6675 0.2225
vn -0.7106 -0.6675 -0.2225
vn -0.5698 -0.5353 -0.6235
vn -0.3162 -0.2970 -0.9010
vn 0.4046 0.1567 -0.9010
vn 0.4045 0.1567 -0.9010
vn 0.7290 0.2824 -0.6235
vn 0.9091 0.3522 -0.2225
vn 0.9091 0.3522 0.2225
vn 0.7290 0.2824 0.6235
vn 0.4046 0.1567 0.9010
vn 0.4045 0.1567 0.9010
vn -0.4046 -0.1567 0.9010
vn -0.7290 -0.2824 0.6235
vn -0.9091 -0.3522 0.2225
vn -0.9091 -0.3522 -0.2225
vn -0.7290 -0.2824 -0.6235
vn -0.4046 -0.1567 -0.9010
vn -0.3958 0.1777 0.9010
vn -0.7132 0.3203 0.6235
vn -0.8893 0.3994 0.2225
vn -0.8894 0.3993 -0.2225
vn -0.7132 0.3202 -0.6235
vn -0.3958 0.1777 -0.9010
vn 0.3958 -0.1777 -0.9010
vn 0.7132 -0.3202 -0.6235
vn 0.8894 -0.3993 -0.2225
vn 0.8893 -0.3994 0.2225
vn 0.7132 -0.3203 0.6235
vn 0.3958 -0.1777 0.9010
vn 0.4291 0.0646 0.9009
vn 0.7731 0.1164 0.6235
vn 0.9640 0.1451 0.2225
vn 0.9640 0.1451 -0.2225
vn 0.7731 0.1164 -0.6235
vn 0.4291 0.0646 -0.9009
vn 0.0001 0.0000 -1.0000
vn -0.4290 -0.0646 -0.9010
vn -0.7731 -0.1164 -0.6235
vn -0.9640 -0.1451 -0.2225
vn -0.9640 -0.1451 0.2225
vn -0.7731 -0.1164 0.6235
vn -0.4291 -0.0646 0.9009
vn 0.3820 0.2057 -0.9009
vn 0.6883 0.3706 -0.6235
vn 0.8584 0.4622 -0.2225
vn 0.8584 0.4622 0.2225
vn 0.6883 0.3706 0.6235
vn 0.3820 0.2057 0.9010
vn -0.3820 -0.2057 0.9010
vn -0.6883 -0.3706 0.6235
vn -0.8584 -0.4622 0.2225
vn -0.8584 -0.4622 -0.2225
vn -0.6883 -0.3706 -0.6235
vn -0.3820 -0.2057 -0.9009
vn -0.3378 0.2722 0.9010
vn 0.0001 0.0000 1.0000
vn -0.6088 0.4905 0.6235
vn -0.7592 0.6116 0.2225
vn -0.7592 0.6116 -0.2225
vn -0.6088 0.4905 -0.6235
vn -0.3379 0.2722 -0.9010
vn 0.3379 -0.2722 -0.9009
vn 0.6088 -0.4905 -0.6235
vn 0.7592 -0.6116 -0.2225
vn 0.7592 -0.6116 0.2225
vn 0.6088 -0.4905 0.6235
vn 0.3379 -0.2722 0.9010
vn 0.3824 0.2050 -0.9010
vn 0.6890 0.3695 -0.6235
vn 0.8592 0.4607 -0.2225
vn 0.8592 0.4607 0.2225
vn 0.6890 0.3694 0.6235
vn 0.3823 0.2050 0.9010
vn -0.3823 -0.2050 0.9010
vn -0.6890 -0.3695 0.6235
vn -0.8592 -0.4607 0.2225
vn -0.8592 -0.4607 -0.2225
vn -0.6890 -0.3695 -0.6235
vn -0.3824 -0.2050 -0.9010
vn -0.4336 0.0139 0.9010
vn -0.7814 0.0250 0.6235
vn -0.9744 0.0312 0.2225
vn -0.9744 0.0312 -0.2225
vn -0.7814 0.0250 -0.6235
vn -0.4336 0.0139 -0.9010
vn 0.4336 -0.0139 -0.9010
vn 0.7814 -0.0250 -0.6235
vn 0.9744 -0.0312 -0.2225
vn 0.9744 -0.0312 0.2225
vn 0.7814 -0.0250 0.6235
vn 0.4336 -0.0139 0.9010
vn 0.4291 0.0641 -0.9010
vn 0.7732 0.1155 -0.6235
vn 0.9642 0.1440 -0.2225
vn 0.9642 0.1440 0.2225
vn 0.7732 0.1155 0.6235
vn 0.4291 0.0641 0.9009
vn 0.4291 0.0641 0.9010
vn -0.4291 -0.0641 0.9009
vn -0.7732 -0.1155 0.6235
vn -0.9642 -0.1440 0.2225
vn -0.9642 -0.1440 -0.2225
vn -0.7732 -0.1155 -0.6235
vn -0.4292 -0.0641 -0.9009
vn 0.4222 0.0997 -0.9010
vn 0.7609 0.1796 -0.6235
vn 0.9488 0.2240 -0.2225
vn 0.9488 0.2240 0.2225
vn 0.7609 0.1796 0.6235
vn 0.4223 0.0997 0.9009
vn -0.4223 -0.0997 0.9009
vn -0.7609 -0.1796 0.6235
vn -0.9488 -0.2240 0.2225
vn -0.9488 -0.2240 -0.2225
vn -0.7609 -0.1796 -0.6235
vn -0.4222 -0.0997 -0.9010
vn 0.3677 0.2304 0.9009
vn 0.6625 0.4151 0.6235
vn 0.8261 0.5177 0.2225
vn 0.8261 0.5177 -0.2225
vn 0.6624 0.4151 -0.6235
vn 0.3676 0.2304 -0.9010
vn -0.3676 -0.2304 -0.9010
vn -0.6625 -0.4151 -0.6235
vn -0.6624 -0.4151 -0.6235
vn -0.8261 -0.5177 -0.2225
vn -0.8261 -0.5177 0.2225
vn -0.6624 -0.4152 0.6236
vn -0.3676 -0.2304 0.9010
vn -0.4325 0.0339 0.9010
vn -0.7794 0.0612 0.6235
vn -0.9719 0.0763 0.2225
vn -0.9719 0.0763 -0.2225
vn -0.7794 0.0612 -0.6235
vn -0.4325 0.0339 -0.9010
vn 0.4325 -0.0339 -0.9010
vn 0.7794 -0.0612 -0.6235
vn 0.9719 -0.0763 -0.2225
vn 0.9719 -0.0763 0.2225
vn 0.7794 -0.0612 0.6235
vn 0.4325 -0.0339 0.9010
s 1
f 1//1 15//1 28//2 14//2
f 2//3 16//3 15//1 1//1
f 3//4 17//4 16//3 2//3
f 4//5 18//5 17//4 3//4
f 5//6 19//6 18//5 4//5
f 6//7 20//7 19//6 5//6
f 7//8 21//8 20//7 6//7
f 8//9 22//9 21//8 7//8
f 9//10 23//10 22//9 8//9
f 10//11 24//11 23//10 9//10
f 11//12 25//12 24//11 10//11
f 12//13 26//13 25//12 11//12
f 13//14 27//14 26//13 12//13
f 14//2 28//2 27//14 13//14
f 29//15 43//15 56//8 42//8
f 30//16 44//16 43//15 29//15
f 31//17 45//17 44//16 30//16
f 32//18 46//18 45//17 31//17
f 33//19 47//19 46//18 32//18
f 34//20 48//20 47//19 33//19
f 35//2 49//2 48//20 34//20
f 36//21 50//21 49//2 35//2
f 37//22 51//22 50//21 36//21
f 38//23 52//23 51//22 37//22
f 39//24 53//24 52//23 38//23
f 40//25 54//25 53//24 39//24
f 41//26 55//26 54//25 40//25
f 42//8 56//8 55//26 41//26
f 57//27 71//28 84//8 70//8
f 58//29 72//29 71//28 57//27
f 59//30 73//30 72//29 58//29
f 60//31 74//31 73//30 59//30
f 61//32 75//32 74//31 60//31
f 62//33 76//34 75//32 61//32
f 63//2 77//2 76//34 62//33
f 64//35 78//35 77//2 63//2
f 65//36 79//36 78//35 64//35
f 66//37 80//37 79//36 65//36
f 67//38 81//38 80//37 66//37
f 68//39 82//39 81//38 67//38
f 69//40 83//40 82//39 68//39
f 70//8 84//8 83//40 69//40
f 85//41 99//41 112//2 98//2
f 86//42 100//42 99//41 85//41
f 87//43 101//43 100//42 86//42
f 88//44 102//44 101//43 87//43
f 89//45 103//45 102//44 88//44
f 90//46 104//46 103//45 89//45
f 91//8 105//8 104//46 90//46
f 92//47 106//47 105//8 91//8
f 93//48 107//48 106//47 92//47
f 94//49 108//49 107//48 93//48
f 95//50 109//50 108//49 94//49
f 96//51 110//51 109//50 95//50
f 97//52 111//52 110//51 96//51
f 98//2 112//2 111//52 97//52
f 113//53 127//53 140//2 126//2
f 114//54 128//54 127//53 113//53
f 115//55 129//55 128//54 114//54
f 116//56 130//56 129//55 115//55
f 117//57 131//57 130//56 116//56
f 118//58 132//58 131//57 117//57
f 119//59 133//59 132//58 118//58
f 120//60 134//60 133//59 119//59
f 121//61 135//61 134//60 120//60
f 122//62 136//62 135//61 121//61
f 123//63 137//63 136//62 122//62
f 124//64 138//64 137//63 123//63
f 125//65 139//65 138//64 124//64
f 126//2 140//2 139//65 125//65
f 141//66 155//66 168//8 154//8
f 142//67 156//67 155//66 141//66
f 143//68 157//68 156//67 142//67
f 144//69 158//69 157//68 143//68
f 145//70 159//70 158//69 144//69
f 146//71 160//71 159//70 145//70
f 147//2 161//2 160//71 146//71
f 148//72 162//72 161//2 147//2
f 149//73 163//73 162//72 148//72
f 150//74 164//74 163//73 149//73
f 151//75 165//75 164//74 150//74
f 152//76 166//76 165//75 151//75
f 153//77 167//77 166//76 152//76
f 154//8 168//8 167//77 153//77
f 169//78 183//78 196//79 182//79
f 170//80 184//80 183//78 169//78
f 171//81 185//81 184//80 170//80
f 172//82 186//82 185//81 171//81
f 173//83 187//83 186//82 172//82
f 174//84 188//84 187//83 173//83
f 175//8 189//8 188//84 174//84
f 176//85 190//85 189//8 175//8
f 177//86 191//86 190//85 176//85
f 178//87 192//87 191//86 177//86
f 179//88 193//88 192//87 178//87
f 180//89 194//89 193//88 179//88
f 181//90 195//90 194//89 180//89
f 182//79 196//79 195//90 181//90
f 197//91 211//91 224//8 210//8
f 198//92 212//92 211//91 197//91
f 199//93 213//93 212//92 198//92
f 200//94 214//94 213//93 199//93
f 201//95 215//95 214//94 200//94
f 202//96 216//96 215//95 201//95
f 203//2 217//2 216//96 202//96
f 204//97 218//97 217//2 203//2
f 205//98 219//98 218//97 204//97
f 206//99 220//99 219//98 205//98
f 207//100 221//100 220//99 206//99
f 208//101 222//101 221//100 207//100
f 209//102 223//102 222//101 208//101
f 210//8 224//8 223//102 209//102
f 225//103 239//103 252//2 238//2
f 226//104 240//104 239//103 225//103
f 227//105 241//105 240//104 226//104
f 228//106 242//106 241//105 227//105
f 229//107 243//107 242//106 228//106
f 230//108 244//108 243//107 229//107
f 231//8 245//8 244//108 230//108
f 232//109 246//109 245//8 231//8
f 233//110 247//110 246//109 232//109
f 234//111 248//111 247//110 233//110
f 235//112 249//112 248//111 234//111
f 236//113 250//113 249//112 235//112
f 237//114 251//114 250//113 236//113
f 238//2 252//2 251//114 237//114
f 253//115 267//115 280//8 266//8
f 254//116 268//116 267//115 253//115
f 255//117 269//117 268//116 254//116
f 256//118 270//118 269//117 255//117
f 257//119 271//119 270//118 256//118
f 258//120 272//121 271//119 257//119
f 259//2 273//2 272//121 258//120
f 260//122 274//122 273//2 259//2
f 261//123 275//123 274//122 260//122
f 262//124 276//124 275//123 261//123
f 263//125 277//125 276//124 262//124
f 264//126 278//126 277//125 263//125
f 265//127 279//127 278//126 264//126
f 266//8 280//8 279//127 265//127
f 281//128 295//128 308//8 294//8
f 282//129 296//129 295//128 281//128
f 283//130 297//130 296//129 282//129
f 284//131 298//131 297//130 283//130
f 285//132 299//132 298//131 284//131
f 286//133 300//133 299//132 285//132
f 287//2 301//2 300//133 286//133
f 288//134 302//134 301//2 287//2
f 289//135 303//135 302//134 288//134
f 290//136 304//136 303//135 289//135
f 291//137 305//137 304//136 290//136
f 292//138 306//138 305//137 291//137
f 293//139 307//139 306//138 292//138
f 294//8 308//8 307//139 293//139
f 309//140 323//140 336//2 322//2
f 310//141 324//141 323//140 309//140
f 311//142 325//142 324//141 310//141
f 312//143 326//143 325//142 311//142
f 313//144 327//144 326//143 312//143
f 314//145 328//145 327//144 313//144
f 315//8 329//8 328//145 314//145
f 316//146 330//146 329//8 315//8
f 317//147 331//148 330//146 316//146
f 318//149 332//149 331//148 317//147
f 319//150 333//150 332//149 318//149
f 320//151 334//151 333//150 319//150
f 321//152 335//152 334//151 320//151
f 322//2 336//2 335//152 321//152
f 337//153 351//153 364//2 350//2
f 338//154 352//154 351//153 337//153
f 339//155 353//155 352//154 338//154
f 340//156 354//156 353//155 339//155
f 341//157 355//157 354//156 340//156
f 342//158 356//158 355//157 341//157
f 343//8 357//8 356//158 342//158
f 344//159 358//159 357//8 343//8
f 345//160 359//160 358//159 344//159
f 346//161 360//161 359//160 345//160
f 347//162 361//162 360//161 346//161
f 348//163 362//163 361//162 347//162
f 349//164 363//164 362//163 348//163
f 350//2 364//2 363//164 349//164
