# Blender v2.78 (sub 0) OBJ File: ''
# www.blender.org
mtllib Outputs of 44634 - URADL.mtl
o Outputs_of_44634_-_URADL.
v 0.537970 -0.839796 -4.258307
v 0.535701 -0.838911 -4.256364
v 0.534442 -0.838420 -4.253558
v 0.534442 -0.838420 -4.250442
v 0.535701 -0.838911 -4.247635
v 0.537970 -0.839796 -4.245693
v 0.540800 -0.840900 -4.245000
v 0.543630 -0.842004 -4.245693
v 0.545899 -0.842889 -4.247635
v 0.547158 -0.843380 -4.250442
v 0.547158 -0.843380 -4.253558
v 0.545899 -0.842889 -4.256364
v 0.543630 -0.842004 -4.258307
v 0.540800 -0.840900 -4.259000
v 0.565120 -0.770196 -4.258307
v 0.562851 -0.769311 -4.256364
v 0.561592 -0.768820 -4.253558
v 0.561592 -0.768820 -4.250442
v 0.562851 -0.769311 -4.247635
v 0.565121 -0.770196 -4.245693
v 0.567950 -0.771300 -4.245000
v 0.570780 -0.772404 -4.245693
v 0.573049 -0.773289 -4.247635
v 0.574308 -0.773780 -4.250442
v 0.574308 -0.773780 -4.253558
v 0.573049 -0.773289 -4.256364
v 0.570780 -0.772404 -4.258307
v 0.567950 -0.771300 -4.259000
v 0.564538 -0.792230 -4.280307
v 0.562162 -0.791693 -4.278365
v 0.560843 -0.791395 -4.275558
v 0.560843 -0.791395 -4.272442
v 0.562162 -0.791693 -4.269636
v 0.564538 -0.792230 -4.267694
v 0.567500 -0.792900 -4.267000
v 0.570462 -0.793570 -4.267694
v 0.572838 -0.794107 -4.269636
v 0.574157 -0.794405 -4.272442
v 0.574157 -0.794405 -4.275558
v 0.572838 -0.794107 -4.278365
v 0.570462 -0.793570 -4.280307
v 0.567500 -0.792900 -4.281000
v 0.569488 -0.770330 -4.280307
v 0.567112 -0.769793 -4.278365
v 0.565793 -0.769495 -4.275558
v 0.565793 -0.769495 -4.272442
v 0.567112 -0.769793 -4.269636
v 0.569488 -0.770330 -4.267694
v 0.572450 -0.771000 -4.267000
v 0.575412 -0.771670 -4.267694
v 0.577788 -0.772207 -4.269636
v 0.579107 -0.772505 -4.272442
v 0.579107 -0.772505 -4.275558
v 0.577788 -0.772207 -4.278365
v 0.575412 -0.771670 -4.280307
v 0.572450 -0.771000 -4.281000
v 0.537500 -0.846728 -4.249193
v 0.539906 -0.846350 -4.251135
v 0.541242 -0.846140 -4.253942
v 0.541242 -0.846140 -4.257058
v 0.539906 -0.846350 -4.259864
v 0.537500 -0.846728 -4.261806
v 0.534500 -0.847200 -4.262500
v 0.531500 -0.847672 -4.261806
v 0.529094 -0.848050 -4.259864
v 0.527758 -0.848260 -4.257058
v 0.527758 -0.848260 -4.253942
v 0.529094 -0.848050 -4.251135
v 0.531500 -0.847672 -4.249193
v 0.534500 -0.847200 -4.248500
v 0.534450 -0.827328 -4.249193
v 0.536856 -0.826950 -4.251135
v 0.538192 -0.826740 -4.253942
v 0.538192 -0.826740 -4.257058
v 0.536856 -0.826950 -4.259864
v 0.534450 -0.827328 -4.261806
v 0.531450 -0.827800 -4.262500
v 0.528450 -0.828272 -4.261806
v 0.526044 -0.828650 -4.259864
v 0.524708 -0.828860 -4.257058
v 0.524708 -0.828860 -4.253942
v 0.526044 -0.828650 -4.251135
v 0.528450 -0.828272 -4.249193
v 0.531450 -0.827800 -4.248500
v 0.601168 -0.739451 -4.196193
v 0.603388 -0.738449 -4.198135
v 0.604620 -0.737892 -4.200942
v 0.604620 -0.737892 -4.204058
v 0.603388 -0.738449 -4.206864
v 0.601168 -0.739451 -4.208807
v 0.598400 -0.740700 -4.209500
v 0.595632 -0.741949 -4.208807
v 0.593412 -0.742952 -4.206864
v 0.592180 -0.743508 -4.204058
v 0.592180 -0.743508 -4.200942
v 0.593412 -0.742952 -4.198135
v 0.595632 -0.741949 -4.196193
v 0.598400 -0.740700 -4.195500
v 0.586318 -0.706550 -4.196193
v 0.588538 -0.705548 -4.198135
v 0.589770 -0.704992 -4.200942
v 0.589770 -0.704992 -4.204058
v 0.588538 -0.705548 -4.206864
v 0.586318 -0.706550 -4.208807
v 0.583550 -0.707800 -4.209500
v 0.580782 -0.709049 -4.208807
v 0.578562 -0.710051 -4.206864
v 0.577330 -0.710608 -4.204058
v 0.577330 -0.710608 -4.200942
v 0.578562 -0.710051 -4.198135
v 0.580782 -0.709049 -4.196193
v 0.583550 -0.707800 -4.195500
v 0.558944 -0.802819 -4.225307
v 0.556533 -0.802474 -4.223364
v 0.555194 -0.802282 -4.220558
v 0.555194 -0.802282 -4.217442
v 0.556533 -0.802474 -4.214635
v 0.558944 -0.802819 -4.212693
v 0.561950 -0.803250 -4.212000
v 0.564957 -0.803681 -4.212693
v 0.567368 -0.804026 -4.214635
v 0.568706 -0.804218 -4.217442
v 0.568706 -0.804218 -4.220558
v 0.567368 -0.804026 -4.223364
v 0.564957 -0.803681 -4.225307
v 0.561950 -0.803250 -4.226000
v 0.564443 -0.764419 -4.225307
v 0.562032 -0.764074 -4.223364
v 0.560694 -0.763882 -4.220558
v 0.560694 -0.763882 -4.217442
v 0.562032 -0.764074 -4.214635
v 0.564443 -0.764419 -4.212693
v 0.567450 -0.764850 -4.212000
v 0.570457 -0.765281 -4.212693
v 0.572868 -0.765626 -4.214635
v 0.574206 -0.765818 -4.217442
v 0.574206 -0.765818 -4.220558
v 0.572868 -0.765626 -4.223364
v 0.570457 -0.765281 -4.225307
v 0.567450 -0.764850 -4.226000
vn -0.4042 0.1577 -0.9010
vn 0.0000 0.0000 -1.0000
vn -0.7283 0.2841 -0.6235
vn -0.9083 0.3543 -0.2225
vn -0.9083 0.3543 0.2225
vn -0.7283 0.2841 0.6235
vn -0.4042 0.1577 0.9010
vn 0.0000 0.0000 1.0000
vn 0.4042 -0.1577 0.9010
vn 0.7283 -0.2841 0.6235
vn 0.9083 -0.3543 0.2225
vn 0.9083 -0.3543 -0.2225
vn 0.7283 -0.2841 -0.6235
vn 0.4042 -0.1577 -0.9010
vn -0.4232 0.0956 -0.9009
vn -0.7626 0.1723 -0.6235
vn -0.9509 0.2149 -0.2225
vn -0.9509 0.2149 0.2225
vn -0.7625 0.1723 0.6235
vn -0.4232 0.0956 0.9010
vn 0.4232 -0.0956 0.9010
vn 0.7625 -0.1723 0.6235
vn 0.9509 -0.2149 0.2225
vn 0.9509 -0.2149 -0.2225
vn 0.7626 -0.1723 -0.6235
vn 0.4232 -0.0956 -0.9009
vn 0.4286 0.0674 0.9010
vn 0.7723 0.1214 0.6235
vn 0.9631 0.1514 0.2225
vn 0.9631 0.1514 -0.2225
vn 0.7723 0.1214 -0.6235
vn 0.4286 0.0674 -0.9010
vn -0.4286 -0.0674 -0.9010
vn -0.7723 -0.1214 -0.6235
vn -0.9631 -0.1514 -0.2225
vn -0.9631 -0.1514 0.2225
vn -0.7723 -0.1214 0.6235
vn -0.4286 -0.0674 0.9010
vn 0.3955 0.1785 0.9010
vn 0.7126 0.3216 0.6235
vn 0.8886 0.4011 0.2225
vn 0.8886 0.4011 -0.2225
vn 0.7126 0.3216 -0.6235
vn 0.3954 0.1785 -0.9010
vn -0.3954 -0.1785 -0.9010
vn -0.7126 -0.3216 -0.6235
vn -0.8886 -0.4011 -0.2225
vn -0.8886 -0.4011 0.2225
vn -0.7126 -0.3216 0.6235
vn -0.3955 -0.1785 0.9010
vn -0.3955 -0.1785 0.9009
vn -0.4295 0.0615 -0.9009
vn -0.7739 0.1108 -0.6235
vn -0.9651 0.1382 -0.2225
vn -0.9651 0.1382 0.2225
vn -0.7739 0.1108 0.6235
vn -0.4295 0.0615 0.9009
vn 0.4295 -0.0615 0.9009
vn 0.7739 -0.1108 0.6235
vn 0.9651 -0.1382 0.2225
vn 0.9651 -0.1382 -0.2225
vn 0.7739 -0.1108 -0.6235
vn 0.4295 -0.0615 -0.9009
s 1
f 1//1 15//1 28//2 14//2
f 2//3 16//3 15//1 1//1
f 3//4 17//4 16//3 2//3
f 4//5 18//5 17//4 3//4
f 5//6 19//6 18//5 4//5
f 6//7 20//7 19//6 5//6
f 7//8 21//8 20//7 6//7
f 8//9 22//9 21//8 7//8
f 9//10 23//10 22//9 8//9
f 10//11 24//11 23//10 9//10
f 11//12 25//12 24//11 10//11
f 12//13 26//13 25//12 11//12
f 13//14 27//14 26//13 12//13
f 14//2 28//2 27//14 13//14
f 29//15 43//15 56//2 42//2
f 30//16 44//16 43//15 29//15
f 31//17 45//17 44//16 30//16
f 32//18 46//18 45//17 31//17
f 33//19 47//19 46//18 32//18
f 34//20 48//20 47//19 33//19
f 35//8 49//8 48//20 34//20
f 36//21 50//21 49//8 35//8
f 37//22 51//22 50//21 36//21
f 38//23 52//23 51//22 37//22
f 39//24 53//24 52//23 38//23
f 40//25 54//25 53//24 39//24
f 41//26 55//26 54//25 40//25
f 42//2 56//2 55//26 41//26
f 57//27 71//27 84//8 70//8
f 58//28 72//28 71//27 57//27
f 59//29 73//29 72//28 58//28
f 60//30 74//30 73//29 59//29
f 61//31 75//31 74//30 60//30
f 62//32 76//32 75//31 61//31
f 63//2 77//2 76//32 62//32
f 64//33 78//33 77//2 63//2
f 65//34 79//34 78//33 64//33
f 66//35 80//35 79//34 65//34
f 67//36 81//36 80//35 66//35
f 68//37 82//37 81//36 67//36
f 69//38 83//38 82//37 68//37
f 70//8 84//8 83//38 69//38
f 85//39 99//39 112//8 98//8
f 86//40 100//40 99//39 85//39
f 87//41 101//41 100//40 86//40
f 88//42 102//42 101//41 87//41
f 89//43 103//43 102//42 88//42
f 90//44 104//44 103//43 89//43
f 91//2 105//2 104//44 90//44
f 92//45 106//45 105//2 91//2
f 93//46 107//46 106//45 92//45
f 94//47 108//47 107//46 93//46
f 95//48 109//48 108//47 94//47
f 96//49 110//49 109//48 95//48
f 97//50 111//51 110//49 96//49
f 98//8 112//8 111//51 97//50
f 113//52 127//52 140//2 126//2
f 114//53 128//53 127//52 113//52
f 115//54 129//54 128//53 114//53
f 116//55 130//55 129//54 115//54
f 117//56 131//56 130//55 116//55
f 118//57 132//57 131//56 117//56
f 119//8 133//8 132//57 118//57
f 120//58 134//58 133//8 119//8
f 121//59 135//59 134//58 120//58
f 122//60 136//60 135//59 121//59
f 123//61 137//61 136//60 122//60
f 124//62 138//62 137//61 123//61
f 125//63 139//63 138//62 124//62
f 126//2 140//2 139//63 125//63
