# Blender v2.78 (sub 0) OBJ File: ''
# www.blender.org
o Outputs_of_2613_-_SAADL.
v 0.965528 -0.753690 -4.530307
v 0.963947 -0.751838 -4.528365
v 0.963069 -0.750809 -4.525558
v 0.963069 -0.750809 -4.522442
v 0.963947 -0.751838 -4.519636
v 0.965528 -0.753690 -4.517694
v 0.967500 -0.756000 -4.517000
v 0.969472 -0.758310 -4.517694
v 0.971053 -0.760162 -4.519636
v 0.971931 -0.761190 -4.522442
v 0.971931 -0.761190 -4.525558
v 0.971053 -0.760162 -4.528365
v 0.969472 -0.758310 -4.530307
v 0.967500 -0.756000 -4.531000
v 0.975778 -0.744940 -4.530307
v 0.974197 -0.743088 -4.528365
v 0.973319 -0.742060 -4.525558
v 0.973319 -0.742060 -4.522442
v 0.974197 -0.743088 -4.519636
v 0.975778 -0.744940 -4.517694
v 0.977750 -0.747250 -4.517000
v 0.979722 -0.749560 -4.517694
v 0.981303 -0.751412 -4.519636
v 0.982181 -0.752441 -4.522442
v 0.982181 -0.752441 -4.525558
v 0.981303 -0.751412 -4.528365
v 0.979722 -0.749560 -4.530307
v 0.977750 -0.747250 -4.531000
v 1.038017 -0.647692 -4.395693
v 1.039330 -0.645640 -4.397635
v 1.040059 -0.644502 -4.400442
v 1.040059 -0.644502 -4.403558
v 1.039330 -0.645640 -4.406364
v 1.038017 -0.647692 -4.408307
v 1.036380 -0.650250 -4.409000
v 1.034743 -0.652808 -4.408307
v 1.033430 -0.654860 -4.406364
v 1.032701 -0.655998 -4.403558
v 1.032701 -0.655998 -4.400442
v 1.033430 -0.654860 -4.397635
v 1.034743 -0.652808 -4.395693
v 1.036380 -0.650250 -4.395000
v 0.973762 -0.606567 -4.395693
v 0.975075 -0.604515 -4.397635
v 0.975804 -0.603377 -4.400442
v 0.975804 -0.603377 -4.403558
v 0.975075 -0.604515 -4.406364
v 0.973762 -0.606567 -4.408307
v 0.972125 -0.609125 -4.409000
v 0.970488 -0.611683 -4.408307
v 0.969175 -0.613735 -4.406364
v 0.968446 -0.614873 -4.403558
v 0.968446 -0.614873 -4.400442
v 0.969175 -0.613735 -4.397635
v 0.970488 -0.611683 -4.395693
v 0.972125 -0.609125 -4.395000
v 1.127447 -0.742114 -4.435693
v 1.128206 -0.739800 -4.437635
v 1.128627 -0.738515 -4.440442
v 1.128627 -0.738515 -4.443558
v 1.128206 -0.739800 -4.446364
v 1.127447 -0.742114 -4.448307
v 1.126500 -0.745000 -4.449000
v 1.125553 -0.747886 -4.448307
v 1.124794 -0.750200 -4.446364
v 1.124373 -0.751485 -4.443558
v 1.124373 -0.751485 -4.440442
v 1.124794 -0.750200 -4.437635
v 1.125553 -0.747886 -4.435693
v 1.126500 -0.745000 -4.435000
v 1.096197 -0.731864 -4.435693
v 1.096956 -0.729550 -4.437635
v 1.097377 -0.728265 -4.440442
v 1.097377 -0.728265 -4.443558
v 1.096956 -0.729550 -4.446364
v 1.096197 -0.731864 -4.448307
v 1.095250 -0.734750 -4.449000
v 1.094303 -0.737636 -4.448307
v 1.093544 -0.739950 -4.446364
v 1.093123 -0.741235 -4.443558
v 1.093123 -0.741235 -4.440442
v 1.093544 -0.739950 -4.437635
v 1.094303 -0.737636 -4.435693
v 1.095250 -0.734750 -4.435000
vn -0.2817 0.3300 -0.9009
vn -0.0001 0.0000 -1.0000
vn -0.5076 0.5946 -0.6235
vn -0.6329 0.7415 -0.2225
vn -0.6330 0.7415 0.2225
vn -0.5076 0.5946 0.6235
vn -0.2817 0.3300 0.9010
vn 0.0000 0.0000 1.0000
vn 0.2817 -0.3300 0.9010
vn 0.5076 -0.5946 0.6235
vn 0.6330 -0.7415 0.2225
vn 0.6330 -0.7415 -0.2225
vn 0.5076 -0.5946 -0.6235
vn 0.2816 -0.3300 -0.9010
vn 0.2339 0.3654 0.9010
vn 0.4214 0.6585 0.6235
vn 0.5256 0.8211 0.2225
vn 0.5256 0.8211 -0.2225
vn 0.4214 0.6585 -0.6235
vn 0.2339 0.3654 -0.9010
vn 0.0000 0.0000 -1.0000
vn -0.2339 -0.3654 -0.9010
vn -0.4214 -0.6585 -0.6235
vn -0.5255 -0.8211 -0.2225
vn -0.5255 -0.8211 0.2225
vn -0.4214 -0.6585 0.6235
vn -0.2339 -0.3654 0.9009
vn 0.1352 0.4122 0.9010
vn 0.1352 0.4122 0.9009
vn 0.2436 0.7429 0.6235
vn 0.3038 0.9264 0.2225
vn 0.3038 0.9264 -0.2225
vn 0.2436 0.7429 -0.6235
vn 0.1352 0.4122 -0.9010
vn -0.1352 -0.4122 -0.9010
vn -0.2436 -0.7429 -0.6235
vn -0.3038 -0.9264 -0.2225
vn -0.3038 -0.9264 0.2225
vn -0.2436 -0.7429 0.6235
vn -0.1352 -0.4122 0.9010
s 1
f 1//1 15//1 28//2 14//2
f 2//3 16//3 15//1 1//1
f 3//4 17//4 16//3 2//3
f 4//5 18//5 17//4 3//4
f 5//6 19//6 18//5 4//5
f 6//7 20//7 19//6 5//6
f 7//8 21//8 20//7 6//7
f 8//9 22//9 21//8 7//8
f 9//10 23//10 22//9 8//9
f 10//11 24//11 23//10 9//10
f 11//12 25//12 24//11 10//11
f 12//13 26//13 25//12 11//12
f 13//14 27//14 26//13 12//13
f 14//2 28//2 27//14 13//14
f 29//15 43//15 56//8 42//8
f 30//16 44//16 43//15 29//15
f 31//17 45//17 44//16 30//16
f 32//18 46//18 45//17 31//17
f 33//19 47//19 46//18 32//18
f 34//20 48//20 47//19 33//19
f 35//21 49//21 48//20 34//20
f 36//22 50//22 49//21 35//21
f 37//23 51//23 50//22 36//22
f 38//24 52//24 51//23 37//23
f 39//25 53//25 52//24 38//24
f 40//26 54//26 53//25 39//25
f 41//27 55//27 54//26 40//26
f 42//8 56//8 55//27 41//27
f 57//28 71//29 84//8 70//8
f 58//30 72//30 71//29 57//28
f 59//31 73//31 72//30 58//30
f 60//32 74//32 73//31 59//31
f 61//33 75//33 74//32 60//32
f 62//34 76//34 75//33 61//33
f 63//21 77//21 76//34 62//34
f 64//35 78//35 77//21 63//21
f 65//36 79//36 78//35 64//35
f 66//37 80//37 79//36 65//36
f 67//38 81//38 80//37 66//37
f 68//39 82//39 81//38 67//38
f 69//40 83//40 82//39 68//39
f 70//8 84//8 83//40 69//40
