# Blender v2.78 (sub 0) OBJ File: ''
# www.blender.org
mtllib Outputs of 29969 - IL1VL.mtl
o Outputs_of_29969_-_IL1VL.
v 0.577043 -1.204950 -4.514463
v 0.578986 -1.204950 -4.512027
v 0.581792 -1.204950 -4.510675
v 0.584908 -1.204950 -4.510675
v 0.587714 -1.204950 -4.512027
v 0.589657 -1.204950 -4.514463
v 0.590350 -1.204950 -4.517500
v 0.589657 -1.204950 -4.520537
v 0.587714 -1.204950 -4.522973
v 0.584908 -1.204950 -4.524324
v 0.581792 -1.204950 -4.524324
v 0.578986 -1.204950 -4.522973
v 0.577043 -1.204950 -4.520537
v 0.576350 -1.204950 -4.517500
v 0.577043 -1.193450 -4.514463
v 0.578986 -1.193450 -4.512027
v 0.581792 -1.193450 -4.510675
v 0.584908 -1.193450 -4.510675
v 0.587714 -1.193450 -4.512027
v 0.589657 -1.193450 -4.514463
v 0.590350 -1.193450 -4.517500
v 0.589657 -1.193450 -4.520537
v 0.587714 -1.193450 -4.522973
v 0.584908 -1.193450 -4.524324
v 0.581792 -1.193450 -4.524324
v 0.578986 -1.193450 -4.522973
v 0.577043 -1.193450 -4.520537
v 0.576350 -1.193450 -4.517500
v 0.550631 -1.136059 -4.480807
v 0.548771 -1.134486 -4.478865
v 0.547739 -1.133613 -4.476058
v 0.547739 -1.133613 -4.472942
v 0.548771 -1.134486 -4.470136
v 0.550631 -1.136059 -4.468194
v 0.552950 -1.138020 -4.467500
v 0.555269 -1.139981 -4.468194
v 0.557129 -1.141554 -4.470136
v 0.558161 -1.142427 -4.472942
v 0.558161 -1.142427 -4.476058
v 0.557129 -1.141554 -4.478865
v 0.555269 -1.139981 -4.480807
v 0.552950 -1.138020 -4.481500
v 0.572931 -1.109689 -4.480807
v 0.571071 -1.108116 -4.478865
v 0.570039 -1.107243 -4.476058
v 0.570039 -1.107243 -4.472942
v 0.571071 -1.108116 -4.470136
v 0.572931 -1.109689 -4.468194
v 0.575250 -1.111650 -4.467500
v 0.577569 -1.113611 -4.468194
v 0.579429 -1.115184 -4.470136
v 0.580461 -1.116057 -4.472942
v 0.580461 -1.116057 -4.476058
v 0.579429 -1.115184 -4.478865
v 0.577569 -1.113611 -4.480807
v 0.575250 -1.111650 -4.481500
vn -0.9009 0.0000 0.4339
vn -1.0000 0.0000 0.0000
vn -0.6235 0.0000 0.7818
vn -0.2225 0.0000 0.9749
vn 0.2225 0.0000 0.9749
vn 0.6235 0.0000 0.7818
vn 0.9009 0.0000 0.4339
vn 1.0000 0.0000 0.0000
vn 0.9010 0.0000 -0.4339
vn 0.6235 0.0000 -0.7818
vn 0.2225 0.0000 -0.9749
vn -0.2225 0.0000 -0.9749
vn -0.6235 0.0000 -0.7818
vn -0.9010 0.0000 -0.4339
vn -0.3313 0.2801 -0.9009
vn 0.0000 0.0000 -1.0000
vn -0.5970 0.5048 -0.6235
vn -0.7444 0.6295 -0.2225
vn -0.7444 0.6295 0.2225
vn -0.5970 0.5048 0.6235
vn -0.3312 0.2802 0.9010
vn 0.0000 0.0000 1.0000
vn 0.3312 -0.2802 0.9010
vn 0.5970 -0.5048 0.6235
vn 0.7444 -0.6295 0.2225
vn 0.7444 -0.6295 -0.2225
vn 0.5969 -0.5048 -0.6235
vn 0.3312 -0.2802 -0.9010
s 1
f 1//1 15//1 28//2 14//2
f 2//3 16//3 15//1 1//1
f 3//4 17//4 16//3 2//3
f 4//5 18//5 17//4 3//4
f 5//6 19//6 18//5 4//5
f 6//7 20//7 19//6 5//6
f 7//8 21//8 20//7 6//7
f 8//9 22//9 21//8 7//8
f 9//10 23//10 22//9 8//9
f 10//11 24//11 23//10 9//10
f 11//12 25//12 24//11 10//11
f 12//13 26//13 25//12 11//12
f 13//14 27//14 26//13 12//13
f 14//2 28//2 27//14 13//14
f 29//15 43//15 56//16 42//16
f 30//17 44//17 43//15 29//15
f 31//18 45//18 44//17 30//17
f 32//19 46//19 45//18 31//18
f 33//20 47//20 46//19 32//19
f 34//21 48//21 47//20 33//20
f 35//22 49//22 48//21 34//21
f 36//23 50//23 49//22 35//22
f 37//24 51//24 50//23 36//23
f 38//25 52//25 51//24 37//24
f 39//26 53//26 52//25 38//25
f 40//27 54//27 53//26 39//26
f 41//28 55//28 54//27 40//27
f 42//16 56//16 55//28 41//28
