# Blender v2.78 (sub 0) OBJ File: ''
# www.blender.org
mtllib Outputs of 35392 - BDUR.mtl
o Outputs_of_35392_-_[BDUR.]
v 0.895213 -0.961956 -4.756307
v 0.892898 -0.961198 -4.754364
v 0.891614 -0.960778 -4.751558
v 0.891614 -0.960778 -4.748442
v 0.892898 -0.961198 -4.745636
v 0.895213 -0.961956 -4.743693
v 0.898100 -0.962900 -4.743000
v 0.900987 -0.963844 -4.743693
v 0.903302 -0.964602 -4.745636
v 0.904586 -0.965022 -4.748442
v 0.904586 -0.965022 -4.751558
v 0.903302 -0.964602 -4.754364
v 0.900987 -0.963844 -4.756307
v 0.898100 -0.962900 -4.757000
v 0.899613 -0.948506 -4.756307
v 0.897298 -0.947748 -4.754364
v 0.896014 -0.947328 -4.751558
v 0.896014 -0.947328 -4.748442
v 0.897298 -0.947748 -4.745636
v 0.899613 -0.948506 -4.743693
v 0.902500 -0.949450 -4.743000
v 0.905387 -0.950394 -4.743693
v 0.907702 -0.951152 -4.745636
v 0.908986 -0.951572 -4.748442
v 0.908986 -0.951572 -4.751558
v 0.907702 -0.951152 -4.754364
v 0.905387 -0.950394 -4.756307
v 0.902500 -0.949450 -4.757000
v 0.752829 -1.221036 -4.975807
v 0.754497 -1.219261 -4.973865
v 0.755423 -1.218276 -4.971058
v 0.755423 -1.218276 -4.967942
v 0.754497 -1.219261 -4.965136
v 0.752829 -1.221036 -4.963193
v 0.750750 -1.223250 -4.962500
v 0.748671 -1.225464 -4.963193
v 0.747003 -1.227239 -4.965136
v 0.746077 -1.228224 -4.967942
v 0.746077 -1.228224 -4.971058
v 0.747003 -1.227239 -4.973865
v 0.748671 -1.225464 -4.975807
v 0.750750 -1.223250 -4.976500
v 0.761079 -1.228786 -4.975807
v 0.762747 -1.227011 -4.973865
v 0.763673 -1.226026 -4.971058
v 0.763673 -1.226026 -4.967942
v 0.762747 -1.227011 -4.965136
v 0.761079 -1.228786 -4.963193
v 0.759000 -1.231000 -4.962500
v 0.756921 -1.233214 -4.963193
v 0.755253 -1.234989 -4.965136
v 0.754327 -1.235974 -4.967942
v 0.754327 -1.235974 -4.971058
v 0.755253 -1.234989 -4.973865
v 0.756921 -1.233214 -4.975807
v 0.759000 -1.231000 -4.976500
vn -0.4124 0.1349 -0.9009
vn 0.0000 0.0000 -1.0000
vn -0.7431 0.2430 -0.6235
vn -0.9266 0.3031 -0.2225
vn -0.9266 0.3031 0.2225
vn -0.7431 0.2430 0.6235
vn -0.4124 0.1349 0.9009
vn 0.0000 0.0000 1.0000
vn 0.4124 -0.1349 0.9009
vn 0.7431 -0.2430 0.6235
vn 0.9266 -0.3031 0.2225
vn 0.9266 -0.3031 -0.2225
vn 0.7431 -0.2430 -0.6235
vn 0.4124 -0.1349 -0.9009
vn 0.2971 0.3162 -0.9009
vn 0.5353 0.5698 -0.6235
vn 0.6675 0.7106 -0.2225
vn 0.6675 0.7106 0.2225
vn 0.5353 0.5698 0.6235
vn 0.2971 0.3162 0.9009
vn -0.2971 -0.3162 0.9010
vn -0.5353 -0.5698 0.6235
vn -0.6675 -0.7106 0.2225
vn -0.6675 -0.7106 -0.2225
vn -0.5353 -0.5698 -0.6235
vn -0.2971 -0.3162 -0.9010
s 1
f 1//1 15//1 28//2 14//2
f 2//3 16//3 15//1 1//1
f 3//4 17//4 16//3 2//3
f 4//5 18//5 17//4 3//4
f 5//6 19//6 18//5 4//5
f 6//7 20//7 19//6 5//6
f 7//8 21//8 20//7 6//7
f 8//9 22//9 21//8 7//8
f 9//10 23//10 22//9 8//9
f 10//11 24//11 23//10 9//10
f 11//12 25//12 24//11 10//11
f 12//13 26//13 25//12 11//12
f 13//14 27//14 26//13 12//13
f 14//2 28//2 27//14 13//14
f 29//15 43//15 56//2 42//2
f 30//16 44//16 43//15 29//15
f 31//17 45//17 44//16 30//16
f 32//18 46//18 45//17 31//17
f 33//19 47//19 46//18 32//18
f 34//20 48//20 47//19 33//19
f 35//8 49//8 48//20 34//20
f 36//21 50//21 49//8 35//8
f 37//22 51//22 50//21 36//21
f 38//23 52//23 51//22 37//22
f 39//24 53//24 52//23 38//23
f 40//25 54//25 53//24 39//24
f 41//26 55//26 54//25 40//25
f 42//2 56//2 55//26 41//26
