# Blender v2.78 (sub 0) OBJ File: ''
# www.blender.org
mtllib Outputs of 36621 - RIFL.mtl
o Outputs_of_36621_-_[RIFL.]
v 0.432906 -0.893171 -4.619194
v 0.430825 -0.891904 -4.621136
v 0.429671 -0.891202 -4.623942
v 0.429671 -0.891202 -4.627058
v 0.430825 -0.891904 -4.629865
v 0.432906 -0.893171 -4.631807
v 0.435500 -0.894750 -4.632500
v 0.438094 -0.896329 -4.631807
v 0.440175 -0.897596 -4.629865
v 0.441329 -0.898298 -4.627058
v 0.441329 -0.898298 -4.623942
v 0.440175 -0.897596 -4.621136
v 0.438094 -0.896329 -4.619194
v 0.435500 -0.894750 -4.618500
v 0.418906 -0.916171 -4.619194
v 0.416825 -0.914904 -4.621136
v 0.415671 -0.914202 -4.623942
v 0.415671 -0.914202 -4.627058
v 0.416825 -0.914904 -4.629865
v 0.418906 -0.916171 -4.631807
v 0.421500 -0.917750 -4.632500
v 0.424094 -0.919329 -4.631807
v 0.426175 -0.920596 -4.629865
v 0.427329 -0.921298 -4.627058
v 0.427329 -0.921298 -4.623942
v 0.426175 -0.920596 -4.621136
v 0.424094 -0.919329 -4.619194
v 0.421500 -0.917750 -4.618500
v 0.539779 -1.111634 -4.784194
v 0.542209 -1.111460 -4.786136
v 0.543557 -1.111364 -4.788942
v 0.543557 -1.111364 -4.792058
v 0.542209 -1.111460 -4.794865
v 0.539779 -1.111634 -4.796807
v 0.536750 -1.111850 -4.797500
v 0.533721 -1.112066 -4.796807
v 0.531291 -1.112240 -4.794865
v 0.529943 -1.112336 -4.792058
v 0.529943 -1.112336 -4.788942
v 0.531291 -1.112240 -4.786136
v 0.533721 -1.112066 -4.784194
v 0.536750 -1.111850 -4.783500
v 0.539279 -1.104634 -4.784194
v 0.541709 -1.104460 -4.786136
v 0.543057 -1.104364 -4.788942
v 0.543057 -1.104364 -4.792058
v 0.541709 -1.104460 -4.794865
v 0.539279 -1.104634 -4.796807
v 0.536250 -1.104850 -4.797500
v 0.533221 -1.105066 -4.796807
v 0.530791 -1.105240 -4.794865
v 0.529443 -1.105336 -4.792058
v 0.529443 -1.105336 -4.788942
v 0.530791 -1.105240 -4.786136
v 0.533221 -1.105066 -4.784194
v 0.536250 -1.104850 -4.783500
v 0.459279 -0.681000 -4.486693
v 0.459127 -0.678569 -4.488636
v 0.459042 -0.677220 -4.491442
v 0.459042 -0.677220 -4.494558
v 0.459127 -0.678569 -4.497365
v 0.459279 -0.681000 -4.499307
v 0.459469 -0.684031 -4.500000
v 0.459659 -0.687062 -4.499307
v 0.459811 -0.689493 -4.497365
v 0.459896 -0.690842 -4.494558
v 0.459896 -0.690842 -4.491442
v 0.459811 -0.689493 -4.488636
v 0.459659 -0.687062 -4.486693
v 0.459469 -0.684031 -4.486000
v 0.443810 -0.681969 -4.486693
v 0.443658 -0.679538 -4.488636
v 0.443573 -0.678189 -4.491442
v 0.443573 -0.678189 -4.494558
v 0.443658 -0.679538 -4.497365
v 0.443810 -0.681969 -4.499307
v 0.444000 -0.685000 -4.500000
v 0.444190 -0.688031 -4.499307
v 0.444342 -0.690462 -4.497365
v 0.444427 -0.691811 -4.494558
v 0.444427 -0.691811 -4.491442
v 0.444342 -0.690462 -4.488636
v 0.444190 -0.688031 -4.486693
v 0.444000 -0.685000 -4.486000
v 0.500263 -1.156120 -4.866193
v 0.502680 -1.155816 -4.868135
v 0.504021 -1.155647 -4.870942
v 0.504021 -1.155647 -4.874058
v 0.502680 -1.155816 -4.876864
v 0.500263 -1.156120 -4.878807
v 0.497250 -1.156500 -4.879500
v 0.494237 -1.156880 -4.878807
v 0.491820 -1.157184 -4.876864
v 0.490479 -1.157353 -4.874058
v 0.490479 -1.157353 -4.870942
v 0.491820 -1.157184 -4.868135
v 0.494237 -1.156880 -4.866193
v 0.497250 -1.156500 -4.865500
v 0.496263 -1.124370 -4.866193
v 0.498680 -1.124066 -4.868135
v 0.500021 -1.123897 -4.870942
v 0.500021 -1.123897 -4.874058
v 0.498680 -1.124066 -4.876864
v 0.496263 -1.124370 -4.878807
v 0.493250 -1.124750 -4.879500
v 0.490237 -1.125130 -4.878807
v 0.487820 -1.125434 -4.876864
v 0.486479 -1.125603 -4.874058
v 0.486479 -1.125603 -4.870942
v 0.487820 -1.125434 -4.868135
v 0.490237 -1.125130 -4.866193
v 0.493250 -1.124750 -4.865500
v 0.456514 -0.686742 -4.484807
v 0.454760 -0.685051 -4.482864
v 0.453787 -0.684113 -4.480058
v 0.453787 -0.684113 -4.476942
v 0.454760 -0.685051 -4.474135
v 0.456514 -0.686742 -4.472193
v 0.458700 -0.688850 -4.471500
v 0.460886 -0.690958 -4.472193
v 0.462640 -0.692649 -4.474135
v 0.463613 -0.693587 -4.476942
v 0.463613 -0.693587 -4.480058
v 0.462640 -0.692649 -4.482864
v 0.460886 -0.690958 -4.484807
v 0.458700 -0.688850 -4.485500
v 0.475814 -0.666725 -4.484807
v 0.474060 -0.665034 -4.482864
v 0.473087 -0.664096 -4.480058
v 0.473087 -0.664096 -4.476942
v 0.474060 -0.665034 -4.474135
v 0.475814 -0.666725 -4.472193
v 0.478000 -0.668833 -4.471500
v 0.480186 -0.670941 -4.472193
v 0.481940 -0.672632 -4.474135
v 0.482913 -0.673570 -4.476942
v 0.482913 -0.673570 -4.480058
v 0.481940 -0.672632 -4.482864
v 0.480186 -0.670941 -4.484807
v 0.478000 -0.668833 -4.485500
v 0.461524 -0.678641 -4.471807
v 0.459138 -0.678153 -4.469864
v 0.457814 -0.677882 -4.467058
v 0.457814 -0.677882 -4.463942
v 0.459138 -0.678153 -4.461135
v 0.461524 -0.678641 -4.459193
v 0.464500 -0.679250 -4.458500
v 0.467476 -0.679859 -4.459193
v 0.469862 -0.680347 -4.461135
v 0.471186 -0.680618 -4.463942
v 0.471186 -0.680618 -4.467058
v 0.469862 -0.680347 -4.469864
v 0.467476 -0.679859 -4.471807
v 0.464500 -0.679250 -4.472500
v 0.466024 -0.656641 -4.471807
v 0.463638 -0.656153 -4.469864
v 0.462314 -0.655882 -4.467058
v 0.462314 -0.655882 -4.463942
v 0.463638 -0.656153 -4.461135
v 0.466024 -0.656641 -4.459193
v 0.469000 -0.657250 -4.458500
v 0.471976 -0.657859 -4.459193
v 0.474362 -0.658347 -4.461135
v 0.475686 -0.658618 -4.463942
v 0.475686 -0.658618 -4.467058
v 0.474362 -0.658347 -4.469864
v 0.471976 -0.657859 -4.471807
v 0.469000 -0.657250 -4.472500
v 0.545989 -1.129853 -4.920193
v 0.547183 -1.127730 -4.922135
v 0.547846 -1.126552 -4.924942
v 0.547846 -1.126552 -4.928058
v 0.547183 -1.127730 -4.930864
v 0.545989 -1.129853 -4.932806
v 0.544500 -1.132500 -4.933500
v 0.543011 -1.135147 -4.932806
v 0.541817 -1.137270 -4.930864
v 0.541154 -1.138448 -4.928058
v 0.541154 -1.138448 -4.924942
v 0.541817 -1.137270 -4.922135
v 0.543011 -1.135147 -4.920193
v 0.544500 -1.132500 -4.919500
v 0.537989 -1.125353 -4.920193
v 0.539183 -1.123230 -4.922135
v 0.539846 -1.122052 -4.924942
v 0.539846 -1.122052 -4.928058
v 0.539183 -1.123230 -4.930864
v 0.537989 -1.125353 -4.932806
v 0.536500 -1.128000 -4.933500
v 0.535011 -1.130647 -4.932806
v 0.533817 -1.132770 -4.930864
v 0.533154 -1.133948 -4.928058
v 0.533154 -1.133948 -4.924942
v 0.533817 -1.132770 -4.922135
v 0.535011 -1.130647 -4.920193
v 0.536500 -1.128000 -4.919500
v 0.512850 -1.120266 -4.892694
v 0.510725 -1.119076 -4.894636
v 0.509546 -1.118416 -4.897442
v 0.509546 -1.118416 -4.900558
v 0.510725 -1.119076 -4.903365
v 0.512850 -1.120266 -4.905307
v 0.515500 -1.121750 -4.906000
v 0.518150 -1.123234 -4.905307
v 0.520275 -1.124424 -4.903365
v 0.521454 -1.125084 -4.900558
v 0.521454 -1.125084 -4.897442
v 0.520275 -1.124424 -4.894636
v 0.518150 -1.123234 -4.892694
v 0.515500 -1.121750 -4.892000
v 0.509350 -1.126516 -4.892694
v 0.507225 -1.125326 -4.894636
v 0.506046 -1.124666 -4.897442
v 0.506046 -1.124666 -4.900558
v 0.507225 -1.125326 -4.903365
v 0.509350 -1.126516 -4.905307
v 0.512000 -1.128000 -4.906000
v 0.514650 -1.129484 -4.905307
v 0.516775 -1.130674 -4.903365
v 0.517954 -1.131334 -4.900558
v 0.517954 -1.131334 -4.897442
v 0.516775 -1.130674 -4.894636
v 0.514650 -1.129484 -4.892694
v 0.512000 -1.128000 -4.892000
v 0.495152 -1.154704 -4.880806
v 0.493470 -1.152943 -4.878864
v 0.492536 -1.151965 -4.876058
v 0.492536 -1.151965 -4.872942
v 0.493470 -1.152943 -4.870135
v 0.495152 -1.154704 -4.868193
v 0.497250 -1.156900 -4.867500
v 0.499348 -1.159096 -4.868193
v 0.501030 -1.160857 -4.870135
v 0.501964 -1.161835 -4.872942
v 0.501964 -1.161835 -4.876058
v 0.501030 -1.160857 -4.878864
v 0.499348 -1.159096 -4.880806
v 0.497250 -1.156900 -4.881500
v 0.518652 -1.132254 -4.880806
v 0.516970 -1.130493 -4.878864
v 0.516036 -1.129515 -4.876058
v 0.516036 -1.129515 -4.872942
v 0.516970 -1.130493 -4.870135
v 0.518652 -1.132254 -4.868193
v 0.520750 -1.134450 -4.867500
v 0.522848 -1.136646 -4.868193
v 0.524530 -1.138407 -4.870135
v 0.525464 -1.139385 -4.872942
v 0.525464 -1.139385 -4.876058
v 0.524530 -1.138407 -4.878864
v 0.522848 -1.136646 -4.880806
v 0.520750 -1.134450 -4.881500
vn -0.3706 0.2256 0.9010
vn 0.0000 0.0000 1.0000
vn -0.6678 0.4065 0.6235
vn -0.8328 0.5069 0.2225
vn -0.8328 0.5069 -0.2225
vn -0.6678 0.4065 -0.6235
vn -0.3706 0.2256 -0.9010
vn 0.0000 0.0000 -1.0000
vn 0.3706 -0.2256 -0.9010
vn 0.6678 -0.4065 -0.6235
vn 0.8328 -0.5069 -0.2225
vn 0.8328 -0.5069 0.2225
vn 0.6678 -0.4065 0.6235
vn 0.3706 -0.2256 0.9010
vn 0.4328 0.0309 0.9010
vn 0.7798 0.0557 0.6235
vn 0.9724 0.0695 0.2225
vn 0.9724 0.0695 -0.2225
vn 0.7798 0.0557 -0.6235
vn 0.4328 0.0309 -0.9009
vn -0.4328 -0.0309 -0.9009
vn -0.7798 -0.0557 -0.6235
vn -0.9724 -0.0695 -0.2225
vn -0.9724 -0.0694 0.2225
vn -0.7798 -0.0557 0.6235
vn -0.4328 -0.0309 0.9010
vn -0.0271 0.4330 0.9010
vn -0.0489 0.7803 0.6235
vn -0.0609 0.9730 0.2225
vn -0.0609 0.9730 -0.2225
vn -0.0489 0.7803 -0.6235
vn -0.0271 0.4330 -0.9010
vn 0.0271 -0.4330 -0.9010
vn 0.0489 -0.7803 -0.6235
vn 0.0609 -0.9730 -0.2225
vn 0.0609 -0.9730 0.2225
vn 0.0489 -0.7803 0.6235
vn 0.0271 -0.4330 0.9010
vn 0.4305 0.0542 0.9009
vn 0.7757 0.0977 0.6235
vn 0.9673 0.1219 0.2225
vn 0.9673 0.1218 -0.2225
vn 0.9673 0.1219 -0.2225
vn 0.7757 0.0977 -0.6235
vn 0.4304 0.0542 -0.9010
vn -0.4304 -0.0542 -0.9010
vn -0.7757 -0.0977 -0.6235
vn -0.9673 -0.1218 -0.2225
vn -0.9673 -0.1219 0.2225
vn -0.7757 -0.0977 0.6235
vn -0.4305 -0.0542 0.9009
vn -0.3123 0.3011 -0.9010
vn -0.5628 0.5426 -0.6235
vn -0.7018 0.6767 -0.2225
vn -0.7018 0.6767 0.2225
vn -0.5628 0.5426 0.6235
vn -0.3123 0.3011 0.9010
vn 0.3123 -0.3011 0.9010
vn 0.5628 -0.5426 0.6235
vn 0.7018 -0.6767 0.2225
vn 0.7018 -0.6767 -0.2225
vn 0.5628 -0.5426 -0.6235
vn 0.3123 -0.3011 -0.9010
vn -0.4251 0.0869 -0.9010
vn -0.7660 0.1567 -0.6235
vn -0.9551 0.1953 -0.2225
vn -0.9551 0.1953 0.2225
vn -0.7659 0.1567 0.6235
vn -0.4251 0.0869 0.9010
vn 0.4251 -0.0869 0.9010
vn 0.7659 -0.1567 0.6235
vn 0.9551 -0.1953 0.2225
vn 0.9551 -0.1953 -0.2225
vn 0.7660 -0.1567 -0.6235
vn 0.4251 -0.0869 -0.9010
vn 0.2127 0.3782 0.9009
vn 0.3833 0.6814 0.6235
vn 0.4780 0.8497 0.2225
vn 0.4780 0.8497 -0.2225
vn 0.3833 0.6814 -0.6235
vn 0.2127 0.3782 -0.9009
vn -0.2127 -0.3781 -0.9010
vn -0.3833 -0.6814 -0.6235
vn -0.4780 -0.8497 -0.2225
vn -0.4780 -0.8497 0.2225
vn -0.3833 -0.6814 0.6235
vn -0.2127 -0.3782 0.9010
vn -0.3786 0.2120 0.9009
vn -0.6821 0.3820 0.6235
vn -0.8506 0.4763 0.2225
vn -0.8506 0.4763 -0.2225
vn -0.6821 0.3820 -0.6235
vn -0.3785 0.2120 -0.9010
vn 0.3786 -0.2120 -0.9010
vn 0.6821 -0.3820 -0.6235
vn 0.8506 -0.4763 -0.2225
vn 0.8506 -0.4763 0.2225
vn 0.6821 -0.3820 0.6235
vn 0.3786 -0.2120 0.9009
vn -0.2997 0.3137 -0.9010
vn -0.5400 0.5653 -0.6235
vn -0.6734 0.7049 -0.2225
vn -0.6734 0.7049 0.2225
vn -0.5400 0.5653 0.6235
vn -0.2997 0.3137 0.9009
vn 0.2997 -0.3137 0.9009
vn 0.5400 -0.5653 0.6235
vn 0.6734 -0.7049 0.2225
vn 0.6734 -0.7049 -0.2225
vn 0.5400 -0.5653 -0.6235
vn 0.2997 -0.3137 -0.9010
s 1
f 1//1 15//1 28//2 14//2
f 2//3 16//3 15//1 1//1
f 3//4 17//4 16//3 2//3
f 4//5 18//5 17//4 3//4
f 5//6 19//6 18//5 4//5
f 6//7 20//7 19//6 5//6
f 7//8 21//8 20//7 6//7
f 8//9 22//9 21//8 7//8
f 9//10 23//10 22//9 8//9
f 10//11 24//11 23//10 9//10
f 11//12 25//12 24//11 10//11
f 12//13 26//13 25//12 11//12
f 13//14 27//14 26//13 12//13
f 14//2 28//2 27//14 13//14
f 29//15 43//15 56//2 42//2
f 30//16 44//16 43//15 29//15
f 31//17 45//17 44//16 30//16
f 32//18 46//18 45//17 31//17
f 33//19 47//19 46//18 32//18
f 34//20 48//20 47//19 33//19
f 35//8 49//8 48//20 34//20
f 36//21 50//21 49//8 35//8
f 37//22 51//22 50//21 36//21
f 38//23 52//23 51//22 37//22
f 39//24 53//24 52//23 38//23
f 40//25 54//25 53//24 39//24
f 41//26 55//26 54//25 40//25
f 42//2 56//2 55//26 41//26
f 57//27 71//27 84//2 70//2
f 58//28 72//28 71//27 57//27
f 59//29 73//29 72//28 58//28
f 60//30 74//30 73//29 59//29
f 61//31 75//31 74//30 60//30
f 62//32 76//32 75//31 61//31
f 63//8 77//8 76//32 62//32
f 64//33 78//33 77//8 63//8
f 65//34 79//34 78//33 64//33
f 66//35 80//35 79//34 65//34
f 67//36 81//36 80//35 66//35
f 68//37 82//37 81//36 67//36
f 69//38 83//38 82//37 68//37
f 70//2 84//2 83//38 69//38
f 85//39 99//39 112//2 98//2
f 86//40 100//40 99//39 85//39
f 87//41 101//41 100//40 86//40
f 88//42 102//43 101//41 87//41
f 89//44 103//44 102//43 88//42
f 90//45 104//45 103//44 89//44
f 91//8 105//8 104//45 90//45
f 92//46 106//46 105//8 91//8
f 93//47 107//47 106//46 92//46
f 94//48 108//48 107//47 93//47
f 95//49 109//49 108//48 94//48
f 96//50 110//50 109//49 95//49
f 97//51 111//51 110//50 96//50
f 98//2 112//2 111//51 97//51
f 113//52 127//52 140//8 126//8
f 114//53 128//53 127//52 113//52
f 115//54 129//54 128//53 114//53
f 116//55 130//55 129//54 115//54
f 117//56 131//56 130//55 116//55
f 118//57 132//57 131//56 117//56
f 119//2 133//2 132//57 118//57
f 120//58 134//58 133//2 119//2
f 121//59 135//59 134//58 120//58
f 122//60 136//60 135//59 121//59
f 123//61 137//61 136//60 122//60
f 124//62 138//62 137//61 123//61
f 125//63 139//63 138//62 124//62
f 126//8 140//8 139//63 125//63
f 141//64 155//64 168//8 154//8
f 142//65 156//65 155//64 141//64
f 143//66 157//66 156//65 142//65
f 144//67 158//67 157//66 143//66
f 145//68 159//68 158//67 144//67
f 146//69 160//69 159//68 145//68
f 147//2 161//2 160//69 146//69
f 148//70 162//70 161//2 147//2
f 149//71 163//71 162//70 148//70
f 150//72 164//72 163//71 149//71
f 151//73 165//73 164//72 150//72
f 152//74 166//74 165//73 151//73
f 153//75 167//75 166//74 152//74
f 154//8 168//8 167//75 153//75
f 169//76 183//76 196//2 182//2
f 170//77 184//77 183//76 169//76
f 171//78 185//78 184//77 170//77
f 172//79 186//79 185//78 171//78
f 173//80 187//80 186//79 172//79
f 174//81 188//81 187//80 173//80
f 175//8 189//8 188//81 174//81
f 176//82 190//82 189//8 175//8
f 177//83 191//83 190//82 176//82
f 178//84 192//84 191//83 177//83
f 179//85 193//85 192//84 178//84
f 180//86 194//86 193//85 179//85
f 181//87 195//87 194//86 180//86
f 182//2 196//2 195//87 181//87
f 197//88 211//88 224//2 210//2
f 198//89 212//89 211//88 197//88
f 199//90 213//90 212//89 198//89
f 200//91 214//91 213//90 199//90
f 201//92 215//92 214//91 200//91
f 202//93 216//93 215//92 201//92
f 203//8 217//8 216//93 202//93
f 204//94 218//94 217//8 203//8
f 205//95 219//95 218//94 204//94
f 206//96 220//96 219//95 205//95
f 207//97 221//97 220//96 206//96
f 208//98 222//98 221//97 207//97
f 209//99 223//99 222//98 208//98
f 210//2 224//2 223//99 209//99
f 225//100 239//100 252//8 238//8
f 226//101 240//101 239//100 225//100
f 227//102 241//102 240//101 226//101
f 228//103 242//103 241//102 227//102
f 229//104 243//104 242//103 228//103
f 230//105 244//105 243//104 229//104
f 231//2 245//2 244//105 230//105
f 232//106 246//106 245//2 231//2
f 233//107 247//107 246//106 232//106
f 234//108 248//108 247//107 233//107
f 235//109 249//109 248//108 234//108
f 236//110 250//110 249//109 235//109
f 237//111 251//111 250//110 236//110
f 238//8 252//8 251//111 237//111
